G04*
G04 #@! TF.GenerationSoftware,Altium Limited,Altium Designer,19.1.8 (144)*
G04*
G04 Layer_Physical_Order=2*
G04 Layer_Color=16711680*
%FSLAX24Y24*%
%MOIN*%
G70*
G01*
G75*
%ADD15C,0.0157*%
%ADD18C,0.0118*%
%ADD20C,0.0276*%
%ADD28R,0.0512X0.0591*%
%ADD29R,0.0591X0.0512*%
%ADD77C,0.0787*%
%ADD79C,0.0315*%
%ADD80C,0.0591*%
%ADD81C,0.0472*%
%ADD82C,0.0394*%
%ADD85C,0.0709*%
%ADD86C,0.0512*%
%ADD87C,0.0630*%
%ADD89C,0.0197*%
%ADD90C,0.0394*%
%ADD91C,0.0256*%
%ADD92R,0.0512X0.0512*%
%ADD93C,0.0512*%
%ADD94C,0.0531*%
%ADD95C,0.0591*%
%ADD96R,0.0591X0.0591*%
%ADD97R,0.0512X0.0512*%
%ADD98C,0.2047*%
%ADD99R,0.1772X0.0984*%
%ADD100C,0.0665*%
%ADD101R,0.0665X0.0665*%
%ADD102C,0.1874*%
%ADD103C,0.0866*%
%ADD104C,0.0700*%
%ADD105C,0.0472*%
%ADD106C,0.0630*%
%ADD107C,0.0551*%
G04:AMPARAMS|DCode=108|XSize=59.1mil|YSize=51.2mil|CornerRadius=0mil|HoleSize=0mil|Usage=FLASHONLY|Rotation=135.000|XOffset=0mil|YOffset=0mil|HoleType=Round|Shape=Rectangle|*
%AMROTATEDRECTD108*
4,1,4,0.0390,-0.0028,0.0028,-0.0390,-0.0390,0.0028,-0.0028,0.0390,0.0390,-0.0028,0.0*
%
%ADD108ROTATEDRECTD108*%

%ADD109R,0.0827X0.0512*%
%ADD110R,0.0354X0.0236*%
%ADD111R,0.0630X0.0709*%
%ADD112R,0.0591X0.0309*%
%ADD113R,0.0309X0.0591*%
%ADD114O,0.0118X0.0709*%
%ADD115O,0.0709X0.0118*%
%ADD116R,0.0787X0.0472*%
%ADD117R,0.0240X0.0600*%
%ADD118R,0.2165X0.0787*%
%ADD119C,0.0197*%
%ADD120C,0.0984*%
%ADD121C,0.0236*%
G36*
X18354Y38549D02*
X18354Y37221D01*
X18271Y37165D01*
X18221Y37186D01*
X18054Y37226D01*
X17882Y37240D01*
X17710Y37226D01*
X17543Y37186D01*
X17383Y37120D01*
X17237Y37030D01*
X17106Y36918D01*
X16994Y36787D01*
X16904Y36640D01*
X16838Y36481D01*
X16798Y36313D01*
X16784Y36142D01*
X16798Y35970D01*
X16838Y35802D01*
X16904Y35643D01*
X16994Y35496D01*
X17106Y35365D01*
X17237Y35254D01*
X17383Y35164D01*
X17543Y35098D01*
X17710Y35057D01*
X17882Y35044D01*
X18054Y35057D01*
X18221Y35098D01*
X18271Y35118D01*
X18354Y35063D01*
X18354Y29307D01*
X17598D01*
X17569Y29303D01*
X17067D01*
Y28398D01*
X17442D01*
X17448Y28298D01*
X17401Y28291D01*
X17291Y28246D01*
X17197Y28173D01*
X17124Y28079D01*
X17115Y28056D01*
X16555D01*
Y28091D01*
X15711D01*
X15669Y28191D01*
X17758Y30279D01*
X17765Y30289D01*
X17775Y30296D01*
X17823Y30368D01*
X17839Y30452D01*
Y32340D01*
X17823Y32425D01*
X17775Y32496D01*
X17544Y32727D01*
X17554Y32800D01*
X17538Y32918D01*
X17493Y33028D01*
X17420Y33123D01*
X17325Y33195D01*
X17215Y33241D01*
X17151Y33249D01*
Y33350D01*
X17215Y33359D01*
X17325Y33404D01*
X17420Y33477D01*
X17493Y33571D01*
X17538Y33682D01*
X17546Y33741D01*
X17097D01*
X16648D01*
X16656Y33682D01*
X16702Y33571D01*
X16774Y33477D01*
X16869Y33404D01*
X16979Y33359D01*
X17043Y33350D01*
Y33249D01*
X16979Y33241D01*
X16869Y33195D01*
X16774Y33123D01*
X16702Y33028D01*
X16656Y32918D01*
X16640Y32800D01*
X16656Y32682D01*
X16702Y32571D01*
X16774Y32477D01*
X16869Y32404D01*
X16979Y32359D01*
X17043Y32350D01*
Y32249D01*
X16979Y32241D01*
X16869Y32195D01*
X16774Y32123D01*
X16702Y32028D01*
X16656Y31918D01*
X16640Y31800D01*
X16654Y31698D01*
X16462Y31506D01*
X16182D01*
X16131Y31606D01*
X16162Y31681D01*
X16178Y31800D01*
X16162Y31918D01*
X16117Y32028D01*
X16044Y32123D01*
X15950Y32195D01*
X15839Y32241D01*
X15775Y32249D01*
Y32350D01*
X15839Y32359D01*
X15950Y32404D01*
X16044Y32477D01*
X16117Y32571D01*
X16162Y32681D01*
X16178Y32800D01*
X16162Y32918D01*
X16117Y33028D01*
X16044Y33123D01*
X15950Y33195D01*
X15839Y33241D01*
X15775Y33249D01*
Y33350D01*
X15839Y33359D01*
X15950Y33404D01*
X16044Y33477D01*
X16117Y33571D01*
X16162Y33681D01*
X16170Y33741D01*
X15721D01*
X15272D01*
X15280Y33681D01*
X15326Y33571D01*
X15398Y33477D01*
X15493Y33404D01*
X15603Y33359D01*
X15667Y33350D01*
Y33249D01*
X15603Y33241D01*
X15493Y33195D01*
X15398Y33123D01*
X15326Y33028D01*
X15280Y32918D01*
X15265Y32800D01*
X15280Y32681D01*
X15326Y32571D01*
X15398Y32477D01*
X15493Y32404D01*
X15603Y32359D01*
X15667Y32350D01*
Y32249D01*
X15603Y32241D01*
X15493Y32195D01*
X15398Y32123D01*
X15326Y32028D01*
X15323Y32020D01*
X15068D01*
Y32566D01*
X15051Y32650D01*
X15003Y32722D01*
X14622Y33103D01*
X14550Y33151D01*
X14466Y33168D01*
X12804D01*
X12737Y33268D01*
X12744Y33285D01*
X12758Y33388D01*
Y33727D01*
X13428D01*
Y34120D01*
Y34514D01*
X12411D01*
X12385Y34518D01*
X12361D01*
X12335Y34514D01*
X11834D01*
Y34260D01*
X11642D01*
Y34443D01*
X10924D01*
Y33985D01*
Y33528D01*
X11642D01*
Y33744D01*
X11834D01*
Y33727D01*
X11964D01*
Y33424D01*
X11957Y33375D01*
X11971Y33273D01*
X11973Y33268D01*
X11906Y33168D01*
X9991D01*
X9723Y33435D01*
X9762Y33528D01*
X10806D01*
Y33985D01*
Y34443D01*
X10781D01*
X10743Y34535D01*
X10816Y34609D01*
X11119D01*
X11203Y34625D01*
X11275Y34673D01*
X11718Y35116D01*
X11744Y35105D01*
X11872Y35088D01*
X12000Y35105D01*
X12119Y35155D01*
X12222Y35233D01*
X12300Y35335D01*
X12350Y35455D01*
X12366Y35583D01*
X12350Y35711D01*
X12300Y35830D01*
X12222Y35932D01*
X12119Y36011D01*
X12000Y36060D01*
X11872Y36077D01*
X11744Y36060D01*
X11625Y36011D01*
X11522Y35932D01*
X11444Y35830D01*
X11394Y35711D01*
X11378Y35583D01*
X11391Y35484D01*
X11372Y35465D01*
X11273Y35505D01*
X11272Y35507D01*
Y36073D01*
X10291D01*
Y35093D01*
X10549D01*
X10579Y34993D01*
X10569Y34985D01*
X10316Y34732D01*
X10221Y34779D01*
X10223Y34790D01*
X10210Y34882D01*
X10175Y34968D01*
X10118Y35042D01*
X10044Y35099D01*
X9958Y35135D01*
X9865Y35147D01*
X9773Y35135D01*
X9687Y35099D01*
X9613Y35042D01*
X9556Y34968D01*
X9520Y34882D01*
X9514Y34836D01*
X9413D01*
X9409Y34864D01*
X9374Y34950D01*
X9317Y35024D01*
X9243Y35081D01*
X9157Y35117D01*
X9064Y35129D01*
X8810D01*
Y35210D01*
X8792D01*
X8755Y35310D01*
X8820Y35365D01*
X8931Y35496D01*
X9022Y35643D01*
X9087Y35802D01*
X9128Y35970D01*
X9141Y36142D01*
X9128Y36313D01*
X9087Y36481D01*
X9022Y36640D01*
X8931Y36787D01*
X8820Y36918D01*
X8689Y37030D01*
X8542Y37120D01*
X8383Y37186D01*
X8215Y37226D01*
X8043Y37240D01*
X7872Y37226D01*
X7704Y37186D01*
X7545Y37120D01*
X7398Y37030D01*
X7267Y36918D01*
X7155Y36787D01*
X7065Y36640D01*
X6999Y36481D01*
X6959Y36313D01*
X6945Y36142D01*
X6959Y35970D01*
X6999Y35802D01*
X7018Y35757D01*
X6983Y35699D01*
X6948Y35666D01*
X6809D01*
Y35757D01*
X6674D01*
Y38877D01*
X7014Y39218D01*
X17685D01*
X18354Y38549D01*
D02*
G37*
G36*
X31051Y39204D02*
X31126Y39173D01*
X31194Y39127D01*
X31252Y39069D01*
X31297Y39001D01*
X31327Y38924D01*
X31342Y38844D01*
X31331Y38722D01*
X31331D01*
X31331Y561D01*
X31332Y527D01*
X31321Y462D01*
X31298Y399D01*
X31264Y342D01*
X31220Y292D01*
X31168Y251D01*
X31137Y235D01*
X31013Y198D01*
Y198D01*
X561D01*
X525Y198D01*
X455Y211D01*
X389Y239D01*
X329Y279D01*
X279Y329D01*
X239Y389D01*
X212Y455D01*
X198Y525D01*
X198Y561D01*
X203Y18948D01*
X518Y19262D01*
X682Y19229D01*
X716Y19147D01*
X813Y18989D01*
X934Y18847D01*
X1075Y18727D01*
X1234Y18629D01*
X1406Y18558D01*
X1586Y18515D01*
X1713Y18505D01*
Y19685D01*
X1831D01*
Y18505D01*
X1957Y18515D01*
X2138Y18558D01*
X2310Y18629D01*
X2468Y18727D01*
X2609Y18847D01*
X2730Y18989D01*
X2827Y19147D01*
X2898Y19319D01*
X2942Y19500D01*
X2955Y19667D01*
X7379Y19667D01*
X7381Y16965D01*
X7389Y16923D01*
X7398Y16881D01*
X7398Y16881D01*
X7398Y16881D01*
X7422Y16844D01*
X7445Y16809D01*
X9021Y15234D01*
X9093Y15186D01*
X9177Y15169D01*
X9446D01*
X9477Y15094D01*
X9558Y14988D01*
X9664Y14907D01*
X9788Y14856D01*
X9920Y14839D01*
X10053Y14856D01*
X10176Y14907D01*
X10282Y14988D01*
X10363Y15094D01*
X10415Y15218D01*
X10432Y15350D01*
X10415Y15483D01*
X10363Y15606D01*
X10282Y15712D01*
X10208Y15769D01*
X10195Y15824D01*
Y15877D01*
X10208Y15931D01*
X10282Y15988D01*
X10363Y16094D01*
X10415Y16218D01*
X10432Y16350D01*
X10415Y16483D01*
X10363Y16606D01*
X10282Y16712D01*
X10208Y16769D01*
X10195Y16824D01*
Y16877D01*
X10208Y16931D01*
X10282Y16988D01*
X10363Y17094D01*
X10415Y17218D01*
X10432Y17350D01*
X10415Y17483D01*
X10363Y17606D01*
X10282Y17712D01*
X10176Y17794D01*
X10053Y17845D01*
X9920Y17862D01*
X9788Y17845D01*
X9664Y17794D01*
X9558Y17712D01*
X9477Y17606D01*
X9426Y17483D01*
X9408Y17350D01*
X9426Y17218D01*
X9477Y17094D01*
X9558Y16988D01*
X9632Y16931D01*
X9645Y16877D01*
Y16824D01*
X9632Y16769D01*
X9558Y16712D01*
X9477Y16606D01*
X9426Y16483D01*
X9408Y16350D01*
X9426Y16218D01*
X9477Y16094D01*
X9558Y15988D01*
X9632Y15931D01*
X9645Y15877D01*
Y15824D01*
X9632Y15769D01*
X9558Y15712D01*
X9480Y15611D01*
X9269D01*
X7822Y17057D01*
X7821Y19568D01*
X7919Y19667D01*
X8110D01*
X9307Y18470D01*
X9379Y18422D01*
X9463Y18405D01*
X9876D01*
X14185Y14096D01*
X14257Y14048D01*
X14342Y14031D01*
X28102D01*
X28187Y14048D01*
X28258Y14096D01*
X29061Y14898D01*
X29096Y14884D01*
X29228Y14866D01*
X29361Y14884D01*
X29484Y14935D01*
X29590Y15016D01*
X29672Y15122D01*
X29723Y15245D01*
X29740Y15378D01*
X29723Y15510D01*
X29672Y15634D01*
X29590Y15740D01*
X29516Y15797D01*
X29503Y15851D01*
Y15905D01*
X29516Y15959D01*
X29590Y16016D01*
X29672Y16122D01*
X29723Y16245D01*
X29740Y16378D01*
X29723Y16510D01*
X29672Y16634D01*
X29590Y16740D01*
X29516Y16797D01*
X29503Y16851D01*
Y16905D01*
X29516Y16959D01*
X29590Y17016D01*
X29672Y17122D01*
X29723Y17245D01*
X29740Y17378D01*
X29723Y17510D01*
X29672Y17634D01*
X29590Y17740D01*
X29484Y17821D01*
X29361Y17872D01*
X29228Y17890D01*
X29096Y17872D01*
X28972Y17821D01*
X28866Y17740D01*
X28785Y17634D01*
X28734Y17510D01*
X28716Y17378D01*
X28734Y17245D01*
X28785Y17122D01*
X28866Y17016D01*
X28941Y16959D01*
X28953Y16905D01*
Y16851D01*
X28941Y16797D01*
X28866Y16740D01*
X28785Y16634D01*
X28734Y16510D01*
X28716Y16378D01*
X28734Y16245D01*
X28785Y16122D01*
X28866Y16016D01*
X28941Y15959D01*
X28953Y15905D01*
Y15851D01*
X28941Y15797D01*
X28866Y15740D01*
X28785Y15634D01*
X28734Y15510D01*
X28716Y15378D01*
X28734Y15245D01*
X28748Y15210D01*
X28011Y14473D01*
X14433D01*
X10231Y18675D01*
X10288Y18814D01*
X13263D01*
X16883Y15194D01*
X16954Y15146D01*
X17039Y15130D01*
X19108D01*
X19122Y15094D01*
X19204Y14988D01*
X19310Y14907D01*
X19433Y14856D01*
X19566Y14839D01*
X19698Y14856D01*
X19822Y14907D01*
X19928Y14988D01*
X20009Y15094D01*
X20060Y15218D01*
X20078Y15350D01*
X20060Y15483D01*
X20009Y15606D01*
X19928Y15712D01*
X19853Y15769D01*
X19841Y15824D01*
Y15877D01*
X19853Y15931D01*
X19928Y15988D01*
X20009Y16094D01*
X20060Y16218D01*
X20078Y16350D01*
X20060Y16483D01*
X20009Y16606D01*
X19928Y16712D01*
X19853Y16769D01*
X19841Y16824D01*
Y16877D01*
X19853Y16931D01*
X19928Y16988D01*
X20009Y17094D01*
X20060Y17218D01*
X20078Y17350D01*
X20060Y17483D01*
X20009Y17606D01*
X19928Y17712D01*
X19822Y17794D01*
X19698Y17845D01*
X19566Y17862D01*
X19433Y17845D01*
X19310Y17794D01*
X19204Y17712D01*
X19122Y17606D01*
X19071Y17483D01*
X19054Y17350D01*
X19071Y17218D01*
X19122Y17094D01*
X19204Y16988D01*
X19278Y16931D01*
X19291Y16877D01*
Y16824D01*
X19278Y16769D01*
X19204Y16712D01*
X19122Y16606D01*
X19071Y16483D01*
X19054Y16350D01*
X19071Y16218D01*
X19122Y16094D01*
X19204Y15988D01*
X19278Y15931D01*
X19291Y15877D01*
Y15824D01*
X19278Y15769D01*
X19204Y15712D01*
X19122Y15606D01*
X19108Y15571D01*
X17130D01*
X13510Y19191D01*
X13439Y19239D01*
X13354Y19256D01*
X9776D01*
X9494Y19538D01*
X9547Y19667D01*
X19070Y19667D01*
Y19667D01*
X19209Y19739D01*
X19218Y19735D01*
X19267Y19729D01*
Y20138D01*
Y20547D01*
X19218Y20541D01*
X19209Y20537D01*
X19070Y20630D01*
X19070Y24463D01*
X19272Y24666D01*
X19313Y24719D01*
X19339Y24781D01*
X19348Y24848D01*
Y27899D01*
X19339Y27966D01*
X19313Y28028D01*
X19272Y28082D01*
X19070Y28284D01*
Y28672D01*
X19244Y28845D01*
X19357Y28770D01*
X19314Y28667D01*
X19299Y28556D01*
X19314Y28446D01*
X19357Y28343D01*
X19425Y28254D01*
X19513Y28186D01*
X19616Y28144D01*
X19726Y28129D01*
X19837Y28144D01*
X19940Y28186D01*
X20028Y28254D01*
X20096Y28343D01*
X20139Y28446D01*
X20153Y28556D01*
X20139Y28667D01*
X20096Y28770D01*
X20028Y28858D01*
X19940Y28926D01*
X19837Y28968D01*
X19726Y28983D01*
X19616Y28968D01*
X19513Y28926D01*
X19437Y29039D01*
X19829Y29431D01*
X23531D01*
X23791Y29171D01*
Y28483D01*
X23778Y28390D01*
X23795Y28266D01*
X23842Y28152D01*
X23918Y28053D01*
X24017Y27977D01*
X24131Y27930D01*
X24255Y27913D01*
X24378Y27930D01*
X24493Y27977D01*
X24592Y28053D01*
X24667Y28152D01*
X24715Y28266D01*
X24731Y28390D01*
X24715Y28513D01*
X24704Y28540D01*
Y29360D01*
X24688Y29479D01*
X24643Y29589D01*
X24570Y29683D01*
X24043Y30210D01*
X23949Y30283D01*
X23839Y30328D01*
X23720Y30344D01*
X19640D01*
X19522Y30328D01*
X19411Y30283D01*
X19317Y30210D01*
X19199Y30092D01*
X19070Y30145D01*
X19070Y33090D01*
X19665D01*
Y33992D01*
Y34853D01*
X19823Y34853D01*
Y34563D01*
X20295D01*
X20768D01*
Y34853D01*
X23036Y34853D01*
X23036Y38807D01*
X23440Y39212D01*
X31010Y39212D01*
X31051Y39204D01*
D02*
G37*
G36*
X16644Y30981D02*
Y30347D01*
X17070D01*
X17109Y30255D01*
X15205Y28351D01*
X14335D01*
Y28937D01*
Y29101D01*
X14348Y29114D01*
X14941D01*
Y29170D01*
X15188D01*
X15252Y29144D01*
X15354Y29130D01*
X15457Y29144D01*
X15553Y29184D01*
X15635Y29247D01*
X15698Y29329D01*
X15738Y29425D01*
X15751Y29528D01*
X15738Y29630D01*
X15698Y29726D01*
X15635Y29808D01*
X15553Y29871D01*
X15457Y29911D01*
X15354Y29925D01*
X15252Y29911D01*
X15188Y29885D01*
X14941D01*
Y30217D01*
X14488D01*
Y30276D01*
X14429D01*
Y30740D01*
X14412Y30781D01*
X14695Y31065D01*
X15268D01*
Y30347D01*
X16174D01*
Y31065D01*
X16553D01*
X16644Y30981D01*
D02*
G37*
G36*
X13833Y28142D02*
X13917Y28126D01*
X14002Y28142D01*
X14016Y28152D01*
X14030Y28142D01*
X14111Y28126D01*
X14127Y28045D01*
X14136Y28031D01*
X14127Y28018D01*
X14110Y27933D01*
X14127Y27849D01*
X14136Y27835D01*
X14127Y27821D01*
X14110Y27736D01*
X14127Y27652D01*
X14136Y27638D01*
X14127Y27624D01*
X14110Y27539D01*
X14127Y27455D01*
X14136Y27441D01*
X14127Y27427D01*
X14110Y27343D01*
X14127Y27258D01*
X14136Y27244D01*
X14127Y27230D01*
X14110Y27146D01*
X14127Y27061D01*
X14136Y27047D01*
X14127Y27033D01*
X14110Y26949D01*
X14127Y26864D01*
X14136Y26850D01*
X14127Y26836D01*
X14110Y26752D01*
X14127Y26667D01*
X14136Y26654D01*
X14127Y26640D01*
X14110Y26555D01*
X14127Y26471D01*
X14136Y26457D01*
X14127Y26443D01*
X14110Y26358D01*
X14127Y26274D01*
X14136Y26260D01*
X14127Y26246D01*
X14110Y26161D01*
X14127Y26077D01*
X14136Y26063D01*
X14127Y26049D01*
X14111Y25968D01*
X14030Y25952D01*
X14016Y25943D01*
X14002Y25952D01*
X13917Y25969D01*
X13833Y25952D01*
X13819Y25943D01*
X13805Y25952D01*
X13720Y25969D01*
X13636Y25952D01*
X13622Y25943D01*
X13608Y25952D01*
X13524Y25969D01*
X13439Y25952D01*
X13425Y25943D01*
X13411Y25952D01*
X13327Y25969D01*
X13242Y25952D01*
X13228Y25943D01*
X13214Y25952D01*
X13130Y25969D01*
X13045Y25952D01*
X13031Y25943D01*
X13018Y25952D01*
X12933Y25969D01*
X12849Y25952D01*
X12835Y25943D01*
X12821Y25952D01*
X12736Y25969D01*
X12652Y25952D01*
X12638Y25943D01*
X12624Y25952D01*
X12539Y25969D01*
X12455Y25952D01*
X12441Y25943D01*
X12427Y25952D01*
X12343Y25969D01*
X12258Y25952D01*
X12244Y25943D01*
X12230Y25952D01*
X12146Y25969D01*
X12061Y25952D01*
X12047Y25943D01*
X12033Y25952D01*
X11952Y25968D01*
X11936Y26049D01*
X11927Y26063D01*
X11936Y26077D01*
X11953Y26161D01*
X11936Y26246D01*
X11927Y26260D01*
X11936Y26274D01*
X11953Y26358D01*
X11936Y26443D01*
X11927Y26457D01*
X11936Y26471D01*
X11953Y26555D01*
X11936Y26640D01*
X11927Y26654D01*
X11936Y26667D01*
X11953Y26752D01*
X11936Y26836D01*
X11927Y26850D01*
X11936Y26864D01*
X11953Y26949D01*
X11936Y27033D01*
X11927Y27047D01*
X11936Y27061D01*
X11953Y27146D01*
X11936Y27230D01*
X11927Y27244D01*
X11936Y27258D01*
X11953Y27343D01*
X11936Y27427D01*
X11927Y27441D01*
X11936Y27455D01*
X11953Y27539D01*
X11936Y27624D01*
X11927Y27638D01*
X11936Y27652D01*
X11953Y27736D01*
X11936Y27821D01*
X11927Y27835D01*
X11936Y27849D01*
X11953Y27933D01*
X11936Y28018D01*
X11927Y28031D01*
X11936Y28045D01*
X11952Y28126D01*
X12033Y28142D01*
X12047Y28152D01*
X12061Y28142D01*
X12146Y28126D01*
X12230Y28142D01*
X12244Y28152D01*
X12258Y28142D01*
X12343Y28126D01*
X12427Y28142D01*
X12441Y28152D01*
X12455Y28142D01*
X12539Y28126D01*
X12624Y28142D01*
X12638Y28152D01*
X12652Y28142D01*
X12736Y28126D01*
X12821Y28142D01*
X12835Y28152D01*
X12849Y28142D01*
X12933Y28126D01*
X13018Y28142D01*
X13031Y28152D01*
X13045Y28142D01*
X13130Y28126D01*
X13214Y28142D01*
X13228Y28152D01*
X13242Y28142D01*
X13327Y28126D01*
X13411Y28142D01*
X13425Y28152D01*
X13439Y28142D01*
X13524Y28126D01*
X13608Y28142D01*
X13622Y28152D01*
X13636Y28142D01*
X13720Y28126D01*
X13805Y28142D01*
X13819Y28152D01*
X13833Y28142D01*
D02*
G37*
G36*
X6809Y28046D02*
X6861Y27968D01*
Y27553D01*
X6734D01*
Y26726D01*
Y26450D01*
X7187D01*
Y26391D01*
X7246D01*
Y25978D01*
X7436D01*
X7474Y25886D01*
X7377Y25788D01*
X7655Y25510D01*
X7948Y25802D01*
X8031Y25719D01*
X7739Y25427D01*
X8017Y25148D01*
X7961Y25072D01*
X7441Y24552D01*
X7441Y24552D01*
X7441Y24552D01*
X7417Y24516D01*
X7393Y24480D01*
X7393Y24480D01*
X7393Y24480D01*
X7384Y24438D01*
X7376Y24396D01*
X7376Y24395D01*
X7376Y24395D01*
X7378Y20948D01*
X7278Y20941D01*
X7270Y21004D01*
X7234Y21090D01*
X7178Y21164D01*
X7104Y21221D01*
X7017Y21256D01*
X6925Y21268D01*
X6832Y21256D01*
X6746Y21221D01*
X6672Y21164D01*
X6648Y21132D01*
X898D01*
X634Y21396D01*
Y28012D01*
X1320D01*
Y27679D01*
X1632D01*
Y27620D01*
X1691D01*
Y27167D01*
X5707D01*
Y27620D01*
X5766D01*
Y27679D01*
X6078D01*
Y28012D01*
X6674D01*
Y28046D01*
X6809D01*
D02*
G37*
G36*
X18354Y28298D02*
X18354Y26055D01*
X18346Y26048D01*
X18283Y25966D01*
X18243Y25870D01*
X18229Y25767D01*
X18243Y25664D01*
X18273Y25592D01*
X18229Y25492D01*
X17697D01*
Y24941D01*
X18354D01*
Y24744D01*
X17697D01*
Y24193D01*
X17639Y24117D01*
X17529D01*
Y23723D01*
X17883D01*
Y24117D01*
X17942Y24193D01*
X18354D01*
X18354Y20477D01*
X15850Y20477D01*
X15803Y20538D01*
X15715Y20606D01*
X15612Y20649D01*
X15501Y20663D01*
X15391Y20649D01*
X15288Y20606D01*
X15199Y20538D01*
X15153Y20477D01*
X13881Y20477D01*
X13835Y20538D01*
X13746Y20606D01*
X13643Y20649D01*
X13533Y20663D01*
X13422Y20649D01*
X13319Y20606D01*
X13231Y20538D01*
X13184Y20477D01*
X12183Y20477D01*
Y20539D01*
X11356D01*
Y20477D01*
X11006D01*
X10994Y20487D01*
X10893Y20529D01*
X10785Y20543D01*
X10677Y20529D01*
X10577Y20487D01*
X10564Y20477D01*
X8555Y20477D01*
X8541Y20491D01*
Y24384D01*
X8722Y24565D01*
X8815Y24527D01*
Y24035D01*
X8815Y24035D01*
X8802Y23941D01*
X8755Y23879D01*
X8719Y23793D01*
X8707Y23700D01*
X8719Y23608D01*
X8755Y23521D01*
X8811Y23447D01*
X8885Y23391D01*
X8972Y23355D01*
X9064Y23343D01*
X9157Y23355D01*
X9243Y23391D01*
X9317Y23447D01*
X9374Y23521D01*
X9409Y23608D01*
X9422Y23700D01*
X9409Y23793D01*
X9374Y23879D01*
X9330Y23935D01*
X9348Y23998D01*
X9374Y24035D01*
X9667D01*
X9700Y23959D01*
X9704Y23935D01*
X9651Y23867D01*
X9615Y23780D01*
X9611Y23747D01*
X10310D01*
X10306Y23780D01*
X10270Y23867D01*
X10217Y23935D01*
X10221Y23959D01*
X10254Y24035D01*
X10390D01*
Y24035D01*
X10411Y24031D01*
X10411Y24031D01*
X10488Y24031D01*
X10765D01*
Y24484D01*
X10883D01*
Y24031D01*
X10925D01*
Y23169D01*
Y22854D01*
X11339D01*
Y22795D01*
X11398D01*
Y22343D01*
X11795D01*
X11836Y22243D01*
X11762Y22168D01*
X10865D01*
X10863Y22187D01*
X10827Y22274D01*
X10770Y22348D01*
X10696Y22404D01*
X10610Y22440D01*
X10518Y22452D01*
X10425Y22440D01*
X10339Y22404D01*
X10265Y22348D01*
X10208Y22274D01*
X10172Y22187D01*
X10160Y22095D01*
X10172Y22002D01*
X10208Y21916D01*
X10224Y21895D01*
X10175Y21795D01*
X9269D01*
Y21342D01*
Y20890D01*
X10354D01*
Y20787D01*
X12835D01*
Y21118D01*
X12835D01*
X12919Y21135D01*
X12991Y21182D01*
X13188Y21379D01*
X13235Y21451D01*
X13252Y21535D01*
Y22618D01*
X13559D01*
Y21575D01*
X13576Y21490D01*
X13623Y21419D01*
X13860Y21182D01*
X13931Y21135D01*
X14016Y21118D01*
X14094D01*
Y20787D01*
X16575D01*
X16580Y20874D01*
X17682D01*
Y21327D01*
Y21780D01*
X16580D01*
X16575Y21877D01*
Y21890D01*
X14094D01*
Y21890D01*
X14000Y21904D01*
Y22618D01*
X14193D01*
Y23354D01*
X14285Y23392D01*
X15115Y22562D01*
X15187Y22514D01*
X15260Y22499D01*
Y22297D01*
X16313D01*
Y22274D01*
X17415D01*
Y22727D01*
X17474D01*
Y22786D01*
X17888D01*
Y23113D01*
X17888Y23180D01*
X17888D01*
X17883Y23211D01*
X17883D01*
Y23605D01*
X17470D01*
Y23664D01*
X17411D01*
Y24117D01*
X16751D01*
X16717Y24217D01*
X16743Y24237D01*
X17073Y24567D01*
X17500D01*
Y25118D01*
X16831D01*
Y25049D01*
X16800Y25025D01*
X16724Y24950D01*
X16720Y24943D01*
X16454Y24678D01*
X16240D01*
Y24823D01*
X15787D01*
Y24941D01*
X16240D01*
Y25332D01*
X16591D01*
X16684Y25344D01*
X16770Y25379D01*
X16795Y25399D01*
X16835Y25404D01*
X16931Y25444D01*
X17013Y25507D01*
X17076Y25589D01*
X17116Y25685D01*
X17129Y25787D01*
X17116Y25890D01*
X17076Y25986D01*
X17013Y26068D01*
X16931Y26131D01*
X16835Y26171D01*
X16732Y26184D01*
X16630Y26171D01*
X16534Y26131D01*
X16451Y26068D01*
X16435Y26046D01*
X15846D01*
X15823Y26043D01*
X15647D01*
X15569Y26121D01*
X15498Y26169D01*
X15413Y26185D01*
X15171D01*
X15133Y26258D01*
X15127Y26281D01*
X15142Y26358D01*
X15127Y26436D01*
X15133Y26458D01*
X15171Y26531D01*
X15650D01*
Y26516D01*
X16555D01*
Y27264D01*
Y27574D01*
X17161D01*
X17197Y27527D01*
X17291Y27455D01*
X17401Y27409D01*
X17466Y27401D01*
Y27300D01*
X17401Y27292D01*
X17291Y27246D01*
X17197Y27173D01*
X17124Y27079D01*
X17079Y26969D01*
X17071Y26909D01*
X17520D01*
X17969D01*
X17961Y26969D01*
X17915Y27079D01*
X17843Y27173D01*
X17748Y27246D01*
X17638Y27292D01*
X17574Y27300D01*
Y27401D01*
X17638Y27409D01*
X17748Y27455D01*
X17843Y27527D01*
X17915Y27622D01*
X17961Y27732D01*
X17976Y27850D01*
X17961Y27969D01*
X17915Y28079D01*
X17843Y28173D01*
X17748Y28246D01*
X17638Y28291D01*
X17621Y28294D01*
X17627Y28394D01*
X18297D01*
X18354Y28298D01*
D02*
G37*
%LPC*%
G36*
X14598Y37195D02*
X14470Y37178D01*
X14351Y37129D01*
X14249Y37050D01*
X14170Y36948D01*
X14121Y36829D01*
X14104Y36701D01*
X14121Y36573D01*
X14170Y36454D01*
X14249Y36351D01*
X14351Y36273D01*
X14470Y36223D01*
X14598Y36206D01*
X14726Y36223D01*
X14846Y36273D01*
X14948Y36351D01*
X15027Y36454D01*
X15076Y36573D01*
X15093Y36701D01*
X15076Y36829D01*
X15027Y36948D01*
X14948Y37050D01*
X14846Y37129D01*
X14726Y37178D01*
X14598Y37195D01*
D02*
G37*
G36*
X13508D02*
X13380Y37178D01*
X13261Y37129D01*
X13158Y37050D01*
X13080Y36948D01*
X13030Y36829D01*
X13013Y36701D01*
X13030Y36573D01*
X13080Y36454D01*
X13158Y36351D01*
X13261Y36273D01*
X13380Y36223D01*
X13508Y36206D01*
X13636Y36223D01*
X13755Y36273D01*
X13857Y36351D01*
X13936Y36454D01*
X13985Y36573D01*
X14002Y36701D01*
X13985Y36829D01*
X13936Y36948D01*
X13857Y37050D01*
X13755Y37129D01*
X13636Y37178D01*
X13508Y37195D01*
D02*
G37*
G36*
X12417D02*
X12289Y37178D01*
X12170Y37129D01*
X12068Y37050D01*
X11989Y36948D01*
X11940Y36829D01*
X11923Y36701D01*
X11940Y36573D01*
X11989Y36454D01*
X12068Y36351D01*
X12170Y36273D01*
X12289Y36223D01*
X12417Y36206D01*
X12545Y36223D01*
X12665Y36273D01*
X12767Y36351D01*
X12845Y36454D01*
X12895Y36573D01*
X12912Y36701D01*
X12895Y36829D01*
X12845Y36948D01*
X12767Y37050D01*
X12665Y37129D01*
X12545Y37178D01*
X12417Y37195D01*
D02*
G37*
G36*
X11327D02*
X11199Y37178D01*
X11080Y37129D01*
X10977Y37050D01*
X10899Y36948D01*
X10849Y36829D01*
X10832Y36701D01*
X10849Y36573D01*
X10899Y36454D01*
X10977Y36351D01*
X11080Y36273D01*
X11199Y36223D01*
X11327Y36206D01*
X11455Y36223D01*
X11574Y36273D01*
X11676Y36351D01*
X11755Y36454D01*
X11804Y36573D01*
X11821Y36701D01*
X11804Y36829D01*
X11755Y36948D01*
X11676Y37050D01*
X11574Y37129D01*
X11455Y37178D01*
X11327Y37195D01*
D02*
G37*
G36*
X15203Y36069D02*
Y35642D01*
X15630D01*
X15621Y35711D01*
X15572Y35830D01*
X15493Y35932D01*
X15391Y36011D01*
X15272Y36060D01*
X15203Y36069D01*
D02*
G37*
G36*
X15085D02*
X15016Y36060D01*
X14897Y36011D01*
X14794Y35932D01*
X14716Y35830D01*
X14666Y35711D01*
X14657Y35642D01*
X15085D01*
Y36069D01*
D02*
G37*
G36*
X15630Y35524D02*
X15203D01*
Y35096D01*
X15272Y35105D01*
X15391Y35155D01*
X15493Y35233D01*
X15572Y35335D01*
X15621Y35455D01*
X15630Y35524D01*
D02*
G37*
G36*
X15085D02*
X14657D01*
X14666Y35455D01*
X14716Y35335D01*
X14794Y35233D01*
X14897Y35155D01*
X15016Y35105D01*
X15085Y35096D01*
Y35524D01*
D02*
G37*
G36*
X14053Y36077D02*
X13925Y36060D01*
X13806Y36011D01*
X13704Y35932D01*
X13625Y35830D01*
X13576Y35711D01*
X13559Y35583D01*
X13576Y35455D01*
X13625Y35335D01*
X13704Y35233D01*
X13806Y35155D01*
X13925Y35105D01*
X14053Y35088D01*
X14181Y35105D01*
X14300Y35155D01*
X14403Y35233D01*
X14481Y35335D01*
X14531Y35455D01*
X14548Y35583D01*
X14531Y35711D01*
X14481Y35830D01*
X14403Y35932D01*
X14300Y36011D01*
X14181Y36060D01*
X14053Y36077D01*
D02*
G37*
G36*
X12963D02*
X12835Y36060D01*
X12715Y36011D01*
X12613Y35932D01*
X12534Y35830D01*
X12485Y35711D01*
X12468Y35583D01*
X12485Y35455D01*
X12534Y35335D01*
X12613Y35233D01*
X12715Y35155D01*
X12835Y35105D01*
X12963Y35088D01*
X13091Y35105D01*
X13210Y35155D01*
X13312Y35233D01*
X13391Y35335D01*
X13440Y35455D01*
X13457Y35583D01*
X13440Y35711D01*
X13391Y35830D01*
X13312Y35932D01*
X13210Y36011D01*
X13091Y36060D01*
X12963Y36077D01*
D02*
G37*
G36*
X14038Y34514D02*
X13546D01*
Y34180D01*
X14038D01*
Y34514D01*
D02*
G37*
G36*
X17156Y34249D02*
Y33859D01*
X17546D01*
X17538Y33918D01*
X17493Y34028D01*
X17420Y34123D01*
X17325Y34195D01*
X17215Y34241D01*
X17156Y34249D01*
D02*
G37*
G36*
X17038Y34249D02*
X16979Y34241D01*
X16869Y34195D01*
X16774Y34123D01*
X16702Y34028D01*
X16656Y33918D01*
X16648Y33859D01*
X17038D01*
Y34249D01*
D02*
G37*
G36*
X15780Y34248D02*
Y33859D01*
X16170D01*
X16162Y33918D01*
X16117Y34028D01*
X16044Y34123D01*
X15950Y34195D01*
X15839Y34241D01*
X15780Y34248D01*
D02*
G37*
G36*
X15662Y34248D02*
X15603Y34241D01*
X15493Y34195D01*
X15398Y34123D01*
X15326Y34028D01*
X15280Y33918D01*
X15272Y33859D01*
X15662D01*
Y34248D01*
D02*
G37*
G36*
X14038Y34061D02*
X13546D01*
Y33727D01*
X14038D01*
Y34061D01*
D02*
G37*
G36*
X29783Y38188D02*
Y37067D01*
X30905D01*
X30895Y37193D01*
X30851Y37374D01*
X30780Y37546D01*
X30683Y37704D01*
X30562Y37846D01*
X30421Y37966D01*
X30262Y38063D01*
X30091Y38135D01*
X29910Y38178D01*
X29783Y38188D01*
D02*
G37*
G36*
X29665Y38188D02*
X29539Y38178D01*
X29358Y38135D01*
X29187Y38063D01*
X29028Y37966D01*
X28887Y37846D01*
X28766Y37704D01*
X28669Y37546D01*
X28598Y37374D01*
X28554Y37193D01*
X28544Y37067D01*
X29665D01*
Y38188D01*
D02*
G37*
G36*
Y36949D02*
X28544D01*
X28554Y36823D01*
X28598Y36642D01*
X28669Y36470D01*
X28766Y36311D01*
X28887Y36170D01*
X29028Y36049D01*
X29187Y35952D01*
X29358Y35881D01*
X29539Y35838D01*
X29665Y35828D01*
Y36949D01*
D02*
G37*
G36*
X30905D02*
X29783D01*
Y35828D01*
X29910Y35838D01*
X30091Y35881D01*
X30262Y35952D01*
X30421Y36049D01*
X30562Y36170D01*
X30683Y36311D01*
X30780Y36470D01*
X30851Y36642D01*
X30895Y36823D01*
X30905Y36949D01*
D02*
G37*
G36*
X20768Y34445D02*
X20295D01*
X19823D01*
Y33992D01*
Y33661D01*
X20295D01*
X20768D01*
Y33992D01*
Y34445D01*
D02*
G37*
G36*
Y33543D02*
X20354D01*
Y33090D01*
X20768D01*
Y33543D01*
D02*
G37*
G36*
X20236D02*
X19823D01*
Y33090D01*
X20236D01*
Y33543D01*
D02*
G37*
G36*
X22419Y32493D02*
Y32143D01*
X22769D01*
X22762Y32192D01*
X22721Y32292D01*
X22655Y32379D01*
X22568Y32445D01*
X22468Y32487D01*
X22419Y32493D01*
D02*
G37*
G36*
X22301D02*
X22252Y32487D01*
X22151Y32445D01*
X22065Y32379D01*
X21999Y32292D01*
X21957Y32192D01*
X21951Y32143D01*
X22301D01*
Y32493D01*
D02*
G37*
G36*
X22769Y32025D02*
X22419D01*
Y31675D01*
X22468Y31681D01*
X22568Y31723D01*
X22655Y31789D01*
X22721Y31876D01*
X22762Y31976D01*
X22769Y32025D01*
D02*
G37*
G36*
X22301D02*
X21951D01*
X21957Y31976D01*
X21999Y31876D01*
X22065Y31789D01*
X22151Y31723D01*
X22252Y31681D01*
X22301Y31675D01*
Y32025D01*
D02*
G37*
G36*
X23757Y32497D02*
X22931D01*
Y31671D01*
X23757D01*
Y32497D01*
D02*
G37*
G36*
X25846Y28893D02*
Y28602D01*
X26137D01*
X26133Y28636D01*
X26097Y28722D01*
X26040Y28796D01*
X25966Y28853D01*
X25880Y28889D01*
X25846Y28893D01*
D02*
G37*
G36*
X25728D02*
X25695Y28889D01*
X25609Y28853D01*
X25535Y28796D01*
X25478Y28722D01*
X25442Y28636D01*
X25438Y28602D01*
X25728D01*
Y28893D01*
D02*
G37*
G36*
X26137Y28484D02*
X25846D01*
Y28194D01*
X25880Y28198D01*
X25966Y28234D01*
X26040Y28291D01*
X26097Y28365D01*
X26133Y28451D01*
X26137Y28484D01*
D02*
G37*
G36*
X25728D02*
X25438D01*
X25442Y28451D01*
X25478Y28365D01*
X25535Y28291D01*
X25609Y28234D01*
X25695Y28198D01*
X25728Y28194D01*
Y28484D01*
D02*
G37*
G36*
X21695Y28983D02*
X21584Y28968D01*
X21481Y28926D01*
X21393Y28858D01*
X21325Y28770D01*
X21283Y28667D01*
X21268Y28556D01*
X21283Y28446D01*
X21325Y28343D01*
X21393Y28254D01*
X21481Y28186D01*
X21584Y28144D01*
X21695Y28129D01*
X21805Y28144D01*
X21908Y28186D01*
X21997Y28254D01*
X22065Y28343D01*
X22107Y28446D01*
X22122Y28556D01*
X22107Y28667D01*
X22065Y28770D01*
X21997Y28858D01*
X21908Y28926D01*
X21805Y28968D01*
X21695Y28983D01*
D02*
G37*
G36*
X25846Y27909D02*
Y27618D01*
X26137D01*
X26133Y27652D01*
X26097Y27738D01*
X26040Y27812D01*
X25966Y27869D01*
X25880Y27904D01*
X25846Y27909D01*
D02*
G37*
G36*
X25728D02*
X25695Y27904D01*
X25609Y27869D01*
X25535Y27812D01*
X25478Y27738D01*
X25442Y27652D01*
X25438Y27618D01*
X25728D01*
Y27909D01*
D02*
G37*
G36*
X26137Y27500D02*
X25846D01*
Y27209D01*
X25880Y27214D01*
X25966Y27250D01*
X26040Y27306D01*
X26097Y27380D01*
X26133Y27467D01*
X26137Y27500D01*
D02*
G37*
G36*
X25728D02*
X25438D01*
X25442Y27467D01*
X25478Y27380D01*
X25535Y27306D01*
X25609Y27250D01*
X25695Y27214D01*
X25728Y27209D01*
Y27500D01*
D02*
G37*
G36*
X25846Y26924D02*
Y26634D01*
X26137D01*
X26133Y26667D01*
X26097Y26753D01*
X26040Y26828D01*
X25966Y26884D01*
X25880Y26920D01*
X25846Y26924D01*
D02*
G37*
G36*
X25728D02*
X25695Y26920D01*
X25609Y26884D01*
X25535Y26828D01*
X25478Y26753D01*
X25442Y26667D01*
X25438Y26634D01*
X25728D01*
Y26924D01*
D02*
G37*
G36*
X26137Y26516D02*
X25846D01*
Y26225D01*
X25880Y26230D01*
X25966Y26265D01*
X26040Y26322D01*
X26097Y26396D01*
X26133Y26482D01*
X26137Y26516D01*
D02*
G37*
G36*
X25728D02*
X25438D01*
X25442Y26482D01*
X25478Y26396D01*
X25535Y26322D01*
X25609Y26265D01*
X25695Y26230D01*
X25728Y26225D01*
Y26516D01*
D02*
G37*
G36*
X19830Y24885D02*
X19720Y24871D01*
X19617Y24828D01*
X19529Y24760D01*
X19461Y24672D01*
X19418Y24569D01*
X19404Y24458D01*
X19418Y24348D01*
X19461Y24245D01*
X19529Y24156D01*
X19617Y24089D01*
X19720Y24046D01*
X19830Y24031D01*
X19941Y24046D01*
X20044Y24089D01*
X20132Y24156D01*
X20200Y24245D01*
X20243Y24348D01*
X20257Y24458D01*
X20243Y24569D01*
X20200Y24672D01*
X20132Y24760D01*
X20044Y24828D01*
X19941Y24871D01*
X19830Y24885D01*
D02*
G37*
G36*
X29809Y24009D02*
X28903D01*
Y23103D01*
X29809D01*
Y24009D01*
D02*
G37*
G36*
X29415Y22627D02*
Y22237D01*
X29805D01*
X29797Y22296D01*
X29752Y22406D01*
X29679Y22501D01*
X29585Y22573D01*
X29474Y22619D01*
X29415Y22627D01*
D02*
G37*
G36*
X29297D02*
X29238Y22619D01*
X29128Y22573D01*
X29033Y22501D01*
X28961Y22406D01*
X28915Y22296D01*
X28907Y22237D01*
X29297D01*
Y22627D01*
D02*
G37*
G36*
X19830Y22917D02*
X19720Y22902D01*
X19617Y22859D01*
X19529Y22792D01*
X19461Y22703D01*
X19418Y22600D01*
X19404Y22490D01*
X19418Y22379D01*
X19461Y22276D01*
X19529Y22188D01*
X19617Y22120D01*
X19720Y22077D01*
X19830Y22063D01*
X19941Y22077D01*
X20044Y22120D01*
X20132Y22188D01*
X20200Y22276D01*
X20243Y22379D01*
X20257Y22490D01*
X20243Y22600D01*
X20200Y22703D01*
X20132Y22792D01*
X20044Y22859D01*
X19941Y22902D01*
X19830Y22917D01*
D02*
G37*
G36*
X29805Y22119D02*
X29415D01*
Y21729D01*
X29474Y21737D01*
X29585Y21782D01*
X29679Y21855D01*
X29752Y21950D01*
X29797Y22060D01*
X29805Y22119D01*
D02*
G37*
G36*
X29297D02*
X28907D01*
X28915Y22060D01*
X28961Y21950D01*
X29033Y21855D01*
X29128Y21782D01*
X29238Y21737D01*
X29297Y21729D01*
Y22119D01*
D02*
G37*
G36*
X27353Y21003D02*
Y20653D01*
X27704D01*
X27697Y20702D01*
X27656Y20802D01*
X27589Y20889D01*
X27503Y20955D01*
X27402Y20996D01*
X27353Y21003D01*
D02*
G37*
G36*
X27235D02*
X27187Y20996D01*
X27086Y20955D01*
X27000Y20889D01*
X26933Y20802D01*
X26892Y20702D01*
X26885Y20653D01*
X27235D01*
Y21003D01*
D02*
G37*
G36*
X19385Y20547D02*
Y20197D01*
X19736D01*
X19729Y20246D01*
X19687Y20347D01*
X19621Y20433D01*
X19535Y20499D01*
X19434Y20541D01*
X19385Y20547D01*
D02*
G37*
G36*
X27704Y20535D02*
X27353D01*
Y20185D01*
X27402Y20191D01*
X27503Y20233D01*
X27589Y20299D01*
X27656Y20385D01*
X27697Y20486D01*
X27704Y20535D01*
D02*
G37*
G36*
X27235D02*
X26885D01*
X26892Y20486D01*
X26933Y20385D01*
X27000Y20299D01*
X27086Y20233D01*
X27187Y20191D01*
X27235Y20185D01*
Y20535D01*
D02*
G37*
G36*
X25015Y20663D02*
X24904Y20649D01*
X24801Y20606D01*
X24713Y20538D01*
X24645Y20450D01*
X24602Y20347D01*
X24588Y20236D01*
X24602Y20126D01*
X24645Y20023D01*
X24713Y19934D01*
X24801Y19867D01*
X24904Y19824D01*
X25015Y19809D01*
X25125Y19824D01*
X25228Y19867D01*
X25316Y19934D01*
X25384Y20023D01*
X25427Y20126D01*
X25441Y20236D01*
X25427Y20347D01*
X25384Y20450D01*
X25316Y20538D01*
X25228Y20606D01*
X25125Y20649D01*
X25015Y20663D01*
D02*
G37*
G36*
X23046D02*
X22936Y20649D01*
X22833Y20606D01*
X22744Y20538D01*
X22676Y20450D01*
X22634Y20347D01*
X22619Y20236D01*
X22634Y20126D01*
X22676Y20023D01*
X22744Y19934D01*
X22833Y19867D01*
X22936Y19824D01*
X23046Y19809D01*
X23157Y19824D01*
X23260Y19867D01*
X23348Y19934D01*
X23416Y20023D01*
X23458Y20126D01*
X23473Y20236D01*
X23458Y20347D01*
X23416Y20450D01*
X23348Y20538D01*
X23260Y20606D01*
X23157Y20649D01*
X23046Y20663D01*
D02*
G37*
G36*
X19736Y20079D02*
X19385D01*
Y19729D01*
X19434Y19735D01*
X19535Y19777D01*
X19621Y19843D01*
X19687Y19930D01*
X19729Y20030D01*
X19736Y20079D01*
D02*
G37*
G36*
X20724Y20552D02*
X19897D01*
Y19725D01*
X20724D01*
Y20552D01*
D02*
G37*
G36*
X27708Y20023D02*
X26881D01*
Y19196D01*
X27708D01*
Y20023D01*
D02*
G37*
G36*
X23287Y17882D02*
Y17437D01*
X23732D01*
X23723Y17510D01*
X23672Y17634D01*
X23590Y17740D01*
X23484Y17821D01*
X23361Y17872D01*
X23287Y17882D01*
D02*
G37*
G36*
X23169D02*
X23096Y17872D01*
X22972Y17821D01*
X22866Y17740D01*
X22785Y17634D01*
X22734Y17510D01*
X22724Y17437D01*
X23169D01*
Y17882D01*
D02*
G37*
G36*
X13625Y17854D02*
Y17409D01*
X14070D01*
X14060Y17483D01*
X14009Y17606D01*
X13928Y17712D01*
X13822Y17794D01*
X13698Y17845D01*
X13625Y17854D01*
D02*
G37*
G36*
X13507D02*
X13433Y17845D01*
X13310Y17794D01*
X13204Y17712D01*
X13122Y17606D01*
X13071Y17483D01*
X13062Y17409D01*
X13507D01*
Y17854D01*
D02*
G37*
G36*
X3979D02*
Y17409D01*
X4424D01*
X4414Y17483D01*
X4363Y17606D01*
X4282Y17712D01*
X4176Y17794D01*
X4053Y17845D01*
X3979Y17854D01*
D02*
G37*
G36*
X3861D02*
X3788Y17845D01*
X3664Y17794D01*
X3558Y17712D01*
X3477Y17606D01*
X3426Y17483D01*
X3416Y17409D01*
X3861D01*
Y17854D01*
D02*
G37*
G36*
X23732Y17319D02*
X22724D01*
X22734Y17245D01*
X22785Y17122D01*
X22866Y17016D01*
X22941Y16959D01*
X22953Y16905D01*
Y16851D01*
X22941Y16797D01*
X22866Y16740D01*
X22785Y16634D01*
X22734Y16510D01*
X22724Y16437D01*
X23732D01*
X23723Y16510D01*
X23672Y16634D01*
X23590Y16740D01*
X23516Y16797D01*
X23503Y16851D01*
Y16905D01*
X23516Y16959D01*
X23590Y17016D01*
X23672Y17122D01*
X23723Y17245D01*
X23732Y17319D01*
D02*
G37*
G36*
X14070Y17291D02*
X13062D01*
X13071Y17218D01*
X13122Y17094D01*
X13204Y16988D01*
X13278Y16931D01*
X13291Y16877D01*
Y16824D01*
X13278Y16769D01*
X13204Y16712D01*
X13122Y16606D01*
X13071Y16483D01*
X13062Y16409D01*
X14070D01*
X14060Y16483D01*
X14009Y16606D01*
X13928Y16712D01*
X13853Y16769D01*
X13841Y16824D01*
Y16877D01*
X13853Y16931D01*
X13928Y16988D01*
X14009Y17094D01*
X14060Y17218D01*
X14070Y17291D01*
D02*
G37*
G36*
X4424D02*
X3416D01*
X3426Y17218D01*
X3477Y17094D01*
X3558Y16988D01*
X3632Y16931D01*
X3645Y16877D01*
Y16824D01*
X3632Y16769D01*
X3558Y16712D01*
X3477Y16606D01*
X3426Y16483D01*
X3416Y16409D01*
X4424D01*
X4414Y16483D01*
X4363Y16606D01*
X4282Y16712D01*
X4208Y16769D01*
X4195Y16824D01*
Y16877D01*
X4208Y16931D01*
X4282Y16988D01*
X4363Y17094D01*
X4414Y17218D01*
X4424Y17291D01*
D02*
G37*
G36*
X23732Y16319D02*
X23287D01*
Y15874D01*
X23361Y15884D01*
X23484Y15935D01*
X23590Y16016D01*
X23672Y16122D01*
X23723Y16245D01*
X23732Y16319D01*
D02*
G37*
G36*
X23169D02*
X22724D01*
X22734Y16245D01*
X22785Y16122D01*
X22866Y16016D01*
X22972Y15935D01*
X23096Y15884D01*
X23169Y15874D01*
Y16319D01*
D02*
G37*
G36*
X14070Y16291D02*
X13625D01*
Y15846D01*
X13698Y15856D01*
X13822Y15907D01*
X13928Y15988D01*
X14009Y16094D01*
X14060Y16218D01*
X14070Y16291D01*
D02*
G37*
G36*
X13507D02*
X13062D01*
X13071Y16218D01*
X13122Y16094D01*
X13204Y15988D01*
X13310Y15907D01*
X13433Y15856D01*
X13507Y15846D01*
Y16291D01*
D02*
G37*
G36*
X4424D02*
X3979D01*
Y15846D01*
X4053Y15856D01*
X4176Y15907D01*
X4282Y15988D01*
X4363Y16094D01*
X4414Y16218D01*
X4424Y16291D01*
D02*
G37*
G36*
X3861D02*
X3416D01*
X3426Y16218D01*
X3477Y16094D01*
X3558Y15988D01*
X3664Y15907D01*
X3788Y15856D01*
X3861Y15846D01*
Y16291D01*
D02*
G37*
G36*
X30650Y13932D02*
Y13642D01*
X30940D01*
X30936Y13675D01*
X30900Y13761D01*
X30843Y13835D01*
X30769Y13892D01*
X30683Y13928D01*
X30650Y13932D01*
D02*
G37*
G36*
X30531D02*
X30498Y13928D01*
X30412Y13892D01*
X30338Y13835D01*
X30281Y13761D01*
X30245Y13675D01*
X30241Y13642D01*
X30531D01*
Y13932D01*
D02*
G37*
G36*
X30940Y13524D02*
X30650D01*
Y13233D01*
X30683Y13237D01*
X30769Y13273D01*
X30843Y13330D01*
X30900Y13404D01*
X30936Y13490D01*
X30940Y13524D01*
D02*
G37*
G36*
X30531D02*
X30241D01*
X30245Y13490D01*
X30281Y13404D01*
X30338Y13330D01*
X30412Y13273D01*
X30498Y13237D01*
X30531Y13233D01*
Y13524D01*
D02*
G37*
G36*
X30650Y12554D02*
Y12264D01*
X30940D01*
X30936Y12297D01*
X30900Y12383D01*
X30843Y12457D01*
X30769Y12514D01*
X30683Y12550D01*
X30650Y12554D01*
D02*
G37*
G36*
X30531D02*
X30498Y12550D01*
X30412Y12514D01*
X30338Y12457D01*
X30281Y12383D01*
X30245Y12297D01*
X30241Y12264D01*
X30531D01*
Y12554D01*
D02*
G37*
G36*
X30940Y12146D02*
X30650D01*
Y11855D01*
X30683Y11860D01*
X30769Y11895D01*
X30843Y11952D01*
X30900Y12026D01*
X30936Y12112D01*
X30940Y12146D01*
D02*
G37*
G36*
X30531D02*
X30241D01*
X30245Y12112D01*
X30281Y12026D01*
X30338Y11952D01*
X30412Y11895D01*
X30498Y11860D01*
X30531Y11855D01*
Y12146D01*
D02*
G37*
G36*
X30650Y11176D02*
Y10886D01*
X30940D01*
X30936Y10919D01*
X30900Y11005D01*
X30843Y11079D01*
X30769Y11136D01*
X30683Y11172D01*
X30650Y11176D01*
D02*
G37*
G36*
X30531D02*
X30498Y11172D01*
X30412Y11136D01*
X30338Y11079D01*
X30281Y11005D01*
X30245Y10919D01*
X30241Y10886D01*
X30531D01*
Y11176D01*
D02*
G37*
G36*
X30940Y10768D02*
X30650D01*
Y10477D01*
X30683Y10482D01*
X30769Y10517D01*
X30843Y10574D01*
X30900Y10648D01*
X30936Y10734D01*
X30940Y10768D01*
D02*
G37*
G36*
X30531D02*
X30241D01*
X30245Y10734D01*
X30281Y10648D01*
X30338Y10574D01*
X30412Y10517D01*
X30498Y10482D01*
X30531Y10477D01*
Y10768D01*
D02*
G37*
G36*
X30650Y9798D02*
Y9508D01*
X30940D01*
X30936Y9541D01*
X30900Y9628D01*
X30843Y9702D01*
X30769Y9758D01*
X30683Y9794D01*
X30650Y9798D01*
D02*
G37*
G36*
X30531D02*
X30498Y9794D01*
X30412Y9758D01*
X30338Y9702D01*
X30281Y9628D01*
X30245Y9541D01*
X30241Y9508D01*
X30531D01*
Y9798D01*
D02*
G37*
G36*
X30940Y9390D02*
X30650D01*
Y9099D01*
X30683Y9104D01*
X30769Y9139D01*
X30843Y9196D01*
X30900Y9270D01*
X30936Y9356D01*
X30940Y9390D01*
D02*
G37*
G36*
X30531D02*
X30241D01*
X30245Y9356D01*
X30281Y9270D01*
X30338Y9196D01*
X30412Y9139D01*
X30498Y9104D01*
X30531Y9099D01*
Y9390D01*
D02*
G37*
G36*
X30650Y8420D02*
Y8130D01*
X30940D01*
X30936Y8163D01*
X30900Y8250D01*
X30843Y8324D01*
X30769Y8380D01*
X30683Y8416D01*
X30650Y8420D01*
D02*
G37*
G36*
X30531D02*
X30498Y8416D01*
X30412Y8380D01*
X30338Y8324D01*
X30281Y8250D01*
X30245Y8163D01*
X30241Y8130D01*
X30531D01*
Y8420D01*
D02*
G37*
G36*
X30940Y8012D02*
X30650D01*
Y7721D01*
X30683Y7726D01*
X30769Y7761D01*
X30843Y7818D01*
X30900Y7892D01*
X30936Y7978D01*
X30940Y8012D01*
D02*
G37*
G36*
X30531D02*
X30241D01*
X30245Y7978D01*
X30281Y7892D01*
X30338Y7818D01*
X30412Y7761D01*
X30498Y7726D01*
X30531Y7721D01*
Y8012D01*
D02*
G37*
G36*
X965Y7436D02*
Y7146D01*
X1255D01*
X1251Y7179D01*
X1215Y7265D01*
X1158Y7339D01*
X1084Y7396D01*
X998Y7432D01*
X965Y7436D01*
D02*
G37*
G36*
X846D02*
X813Y7432D01*
X727Y7396D01*
X653Y7339D01*
X596Y7265D01*
X560Y7179D01*
X556Y7146D01*
X846D01*
Y7436D01*
D02*
G37*
G36*
X30650Y7043D02*
Y6752D01*
X30940D01*
X30936Y6785D01*
X30900Y6872D01*
X30843Y6946D01*
X30769Y7002D01*
X30683Y7038D01*
X30650Y7043D01*
D02*
G37*
G36*
X30531D02*
X30498Y7038D01*
X30412Y7002D01*
X30338Y6946D01*
X30281Y6872D01*
X30245Y6785D01*
X30241Y6752D01*
X30531D01*
Y7043D01*
D02*
G37*
G36*
X1255Y7028D02*
X965D01*
Y6737D01*
X998Y6741D01*
X1084Y6777D01*
X1158Y6834D01*
X1215Y6908D01*
X1251Y6994D01*
X1255Y7028D01*
D02*
G37*
G36*
X846D02*
X556D01*
X560Y6994D01*
X596Y6908D01*
X653Y6834D01*
X727Y6777D01*
X813Y6741D01*
X846Y6737D01*
Y7028D01*
D02*
G37*
G36*
X30940Y6634D02*
X30650D01*
Y6343D01*
X30683Y6348D01*
X30769Y6383D01*
X30843Y6440D01*
X30900Y6514D01*
X30936Y6600D01*
X30940Y6634D01*
D02*
G37*
G36*
X30531D02*
X30241D01*
X30245Y6600D01*
X30281Y6514D01*
X30338Y6440D01*
X30412Y6383D01*
X30498Y6348D01*
X30531Y6343D01*
Y6634D01*
D02*
G37*
G36*
X965Y6058D02*
Y5768D01*
X1255D01*
X1251Y5801D01*
X1215Y5887D01*
X1158Y5961D01*
X1084Y6018D01*
X998Y6054D01*
X965Y6058D01*
D02*
G37*
G36*
X846D02*
X813Y6054D01*
X727Y6018D01*
X653Y5961D01*
X596Y5887D01*
X560Y5801D01*
X556Y5768D01*
X846D01*
Y6058D01*
D02*
G37*
G36*
X30650Y5665D02*
Y5374D01*
X30940D01*
X30936Y5407D01*
X30900Y5494D01*
X30843Y5568D01*
X30769Y5624D01*
X30683Y5660D01*
X30650Y5665D01*
D02*
G37*
G36*
X30531D02*
X30498Y5660D01*
X30412Y5624D01*
X30338Y5568D01*
X30281Y5494D01*
X30245Y5407D01*
X30241Y5374D01*
X30531D01*
Y5665D01*
D02*
G37*
G36*
X1255Y5650D02*
X965D01*
Y5359D01*
X998Y5363D01*
X1084Y5399D01*
X1158Y5456D01*
X1215Y5530D01*
X1251Y5616D01*
X1255Y5650D01*
D02*
G37*
G36*
X846D02*
X556D01*
X560Y5616D01*
X596Y5530D01*
X653Y5456D01*
X727Y5399D01*
X813Y5363D01*
X846Y5359D01*
Y5650D01*
D02*
G37*
G36*
X30940Y5256D02*
X30650D01*
Y4965D01*
X30683Y4970D01*
X30769Y5005D01*
X30843Y5062D01*
X30900Y5136D01*
X30936Y5222D01*
X30940Y5256D01*
D02*
G37*
G36*
X30531D02*
X30241D01*
X30245Y5222D01*
X30281Y5136D01*
X30338Y5062D01*
X30412Y5005D01*
X30498Y4970D01*
X30531Y4965D01*
Y5256D01*
D02*
G37*
G36*
X965Y4680D02*
Y4390D01*
X1255D01*
X1251Y4423D01*
X1215Y4509D01*
X1158Y4583D01*
X1084Y4640D01*
X998Y4676D01*
X965Y4680D01*
D02*
G37*
G36*
X846D02*
X813Y4676D01*
X727Y4640D01*
X653Y4583D01*
X596Y4509D01*
X560Y4423D01*
X556Y4390D01*
X846D01*
Y4680D01*
D02*
G37*
G36*
X1255Y4272D02*
X965D01*
Y3981D01*
X998Y3986D01*
X1084Y4021D01*
X1158Y4078D01*
X1215Y4152D01*
X1251Y4238D01*
X1255Y4272D01*
D02*
G37*
G36*
X846D02*
X556D01*
X560Y4238D01*
X596Y4152D01*
X653Y4078D01*
X727Y4021D01*
X813Y3986D01*
X846Y3981D01*
Y4272D01*
D02*
G37*
G36*
X29783Y3542D02*
Y2421D01*
X30905D01*
X30895Y2548D01*
X30851Y2728D01*
X30780Y2900D01*
X30683Y3059D01*
X30562Y3200D01*
X30421Y3321D01*
X30262Y3418D01*
X30091Y3489D01*
X29910Y3532D01*
X29783Y3542D01*
D02*
G37*
G36*
X1831D02*
Y2421D01*
X2952D01*
X2942Y2548D01*
X2898Y2728D01*
X2827Y2900D01*
X2730Y3059D01*
X2609Y3200D01*
X2468Y3321D01*
X2310Y3418D01*
X2138Y3489D01*
X1957Y3532D01*
X1831Y3542D01*
D02*
G37*
G36*
X1713D02*
X1586Y3532D01*
X1406Y3489D01*
X1234Y3418D01*
X1075Y3321D01*
X934Y3200D01*
X813Y3059D01*
X716Y2900D01*
X645Y2728D01*
X601Y2548D01*
X592Y2421D01*
X1713D01*
Y3542D01*
D02*
G37*
G36*
X29665D02*
X29539Y3532D01*
X29358Y3489D01*
X29187Y3418D01*
X29028Y3321D01*
X28887Y3200D01*
X28766Y3059D01*
X28669Y2900D01*
X28598Y2728D01*
X28554Y2548D01*
X28544Y2421D01*
X29665D01*
Y3542D01*
D02*
G37*
G36*
X29228Y7894D02*
X29095Y7877D01*
X28970Y7825D01*
X28863Y7743D01*
X28781Y7636D01*
X28730Y7512D01*
X28712Y7378D01*
Y6378D01*
Y6214D01*
X25428Y2930D01*
X25363Y2910D01*
X25261Y2856D01*
X25171Y2782D01*
X25097Y2692D01*
X25042Y2589D01*
X25033Y2558D01*
X24141Y1666D01*
X23842D01*
X23821Y1806D01*
X23849Y1814D01*
X23952Y1869D01*
X24042Y1943D01*
X24115Y2033D01*
X24170Y2135D01*
X24204Y2246D01*
X24215Y2362D01*
X24204Y2478D01*
X24170Y2589D01*
X24138Y2649D01*
Y5984D01*
X24121Y6118D01*
X24069Y6242D01*
X23987Y6349D01*
X23745Y6592D01*
Y7378D01*
X23727Y7512D01*
X23675Y7636D01*
X23593Y7743D01*
X23486Y7825D01*
X23362Y7877D01*
X23228Y7894D01*
X23095Y7877D01*
X22970Y7825D01*
X22863Y7743D01*
X22781Y7636D01*
X22730Y7512D01*
X22712Y7378D01*
Y6592D01*
X21779Y5659D01*
X18015D01*
X17881Y5641D01*
X17757Y5590D01*
X17650Y5508D01*
X16896Y4754D01*
X16759Y4804D01*
X16756Y4807D01*
Y5270D01*
X17321Y5834D01*
X19566D01*
X19699Y5852D01*
X19824Y5903D01*
X19931Y5985D01*
X20013Y6092D01*
X20064Y6217D01*
X20082Y6350D01*
Y7350D01*
X20064Y7484D01*
X20013Y7609D01*
X19931Y7715D01*
X19824Y7797D01*
X19699Y7849D01*
X19566Y7867D01*
X19432Y7849D01*
X19308Y7797D01*
X19201Y7715D01*
X19119Y7609D01*
X19067Y7484D01*
X19050Y7350D01*
Y6867D01*
X17107D01*
X16973Y6849D01*
X16849Y6797D01*
X16742Y6715D01*
X15875Y5849D01*
X15840Y5803D01*
X15801Y5793D01*
X15679Y5803D01*
X15674Y5805D01*
X15621Y5875D01*
X14781Y6715D01*
X14674Y6797D01*
X14549Y6849D01*
X14416Y6867D01*
X14082D01*
Y7350D01*
X14064Y7484D01*
X14013Y7609D01*
X13931Y7715D01*
X13824Y7797D01*
X13699Y7849D01*
X13566Y7867D01*
X13432Y7849D01*
X13308Y7797D01*
X13201Y7715D01*
X13119Y7609D01*
X13067Y7484D01*
X13050Y7350D01*
Y6350D01*
X13067Y6217D01*
X13119Y6092D01*
X13127Y6082D01*
X13058Y5942D01*
X11058D01*
X10436Y6564D01*
Y7350D01*
X10419Y7484D01*
X10367Y7609D01*
X10285Y7715D01*
X10178Y7797D01*
X10054Y7849D01*
X9920Y7867D01*
X9786Y7849D01*
X9662Y7797D01*
X9555Y7715D01*
X9473Y7609D01*
X9421Y7484D01*
X9404Y7350D01*
Y6564D01*
X7509Y4669D01*
X7427Y4562D01*
X7375Y4438D01*
X7358Y4304D01*
Y2649D01*
X7326Y2589D01*
X7292Y2478D01*
X7281Y2362D01*
X7292Y2246D01*
X7326Y2135D01*
X7381Y2033D01*
X7454Y1943D01*
X7544Y1869D01*
X7548Y1709D01*
X7530Y1685D01*
X7189D01*
X6498Y2376D01*
X6488Y2478D01*
X6454Y2589D01*
X6417Y2658D01*
Y4370D01*
X6399Y4503D01*
X6348Y4628D01*
X6266Y4735D01*
X4436Y6564D01*
Y7350D01*
X4419Y7484D01*
X4367Y7609D01*
X4285Y7715D01*
X4178Y7797D01*
X4054Y7849D01*
X3920Y7867D01*
X3786Y7849D01*
X3662Y7797D01*
X3555Y7715D01*
X3473Y7609D01*
X3421Y7484D01*
X3404Y7350D01*
Y6350D01*
X3421Y6217D01*
X3473Y6092D01*
X3555Y5985D01*
X5385Y4156D01*
Y2640D01*
X5357Y2589D01*
X5324Y2478D01*
X5312Y2362D01*
X5324Y2246D01*
X5357Y2135D01*
X5412Y2033D01*
X5486Y1943D01*
X5487Y1942D01*
X5536Y1878D01*
X6610Y804D01*
X6717Y722D01*
X6841Y671D01*
X6975Y653D01*
X11374D01*
X11507Y671D01*
X11632Y722D01*
X11739Y804D01*
X13652Y2718D01*
X13734Y2825D01*
X13786Y2949D01*
X13796Y3027D01*
X13831Y3053D01*
X13917Y3083D01*
X13943Y3084D01*
X14014Y3029D01*
X14138Y2978D01*
X14272Y2960D01*
X14363Y2972D01*
X14397Y2917D01*
X14413Y2838D01*
X14344Y2782D01*
X14270Y2692D01*
X14216Y2589D01*
X14182Y2478D01*
X14170Y2362D01*
X14182Y2246D01*
X14216Y2135D01*
X14270Y2033D01*
X14344Y1943D01*
X14434Y1869D01*
X14537Y1814D01*
X14648Y1780D01*
X14764Y1769D01*
X14880Y1780D01*
X14991Y1814D01*
X15093Y1869D01*
X15183Y1943D01*
X15257Y2033D01*
X15312Y2135D01*
X15346Y2246D01*
X15347Y2258D01*
X15621Y2532D01*
X15664Y2587D01*
X15688Y2597D01*
X15808Y2597D01*
X15833Y2587D01*
X15875Y2532D01*
X16149Y2258D01*
X16150Y2246D01*
X16184Y2135D01*
X16239Y2033D01*
X16313Y1943D01*
X16403Y1869D01*
X16505Y1814D01*
X16617Y1780D01*
X16732Y1769D01*
X16848Y1780D01*
X16959Y1814D01*
X17062Y1869D01*
X17152Y1943D01*
X17226Y2033D01*
X17281Y2135D01*
X17314Y2246D01*
X17326Y2362D01*
X17314Y2478D01*
X17281Y2589D01*
X17226Y2692D01*
X17152Y2782D01*
X17083Y2838D01*
X17099Y2917D01*
X17133Y2972D01*
X17224Y2960D01*
X17358Y2978D01*
X17483Y3029D01*
X17589Y3112D01*
X17632Y3167D01*
X17656Y3177D01*
X17777D01*
X17801Y3167D01*
X17844Y3112D01*
X20170Y785D01*
X20277Y703D01*
X20402Y651D01*
X20535Y634D01*
X24355D01*
X24488Y651D01*
X24613Y703D01*
X24720Y785D01*
X25719Y1784D01*
X25818Y1814D01*
X25920Y1869D01*
X26010Y1943D01*
X26084Y2033D01*
X26139Y2135D01*
X26158Y2200D01*
X29593Y5635D01*
X29675Y5742D01*
X29727Y5866D01*
X29745Y6000D01*
Y6378D01*
Y7378D01*
X29727Y7512D01*
X29675Y7636D01*
X29593Y7743D01*
X29486Y7825D01*
X29362Y7877D01*
X29228Y7894D01*
D02*
G37*
G36*
X30905Y2303D02*
X29783D01*
Y1182D01*
X29910Y1192D01*
X30091Y1235D01*
X30262Y1307D01*
X30421Y1404D01*
X30562Y1524D01*
X30683Y1666D01*
X30780Y1824D01*
X30851Y1996D01*
X30895Y2177D01*
X30905Y2303D01*
D02*
G37*
G36*
X2952D02*
X1831D01*
Y1182D01*
X1957Y1192D01*
X2138Y1235D01*
X2310Y1307D01*
X2468Y1404D01*
X2609Y1524D01*
X2730Y1666D01*
X2827Y1824D01*
X2898Y1996D01*
X2942Y2177D01*
X2952Y2303D01*
D02*
G37*
G36*
X29665D02*
X28544D01*
X28554Y2177D01*
X28598Y1996D01*
X28669Y1824D01*
X28766Y1666D01*
X28887Y1524D01*
X29028Y1404D01*
X29187Y1307D01*
X29358Y1235D01*
X29539Y1192D01*
X29665Y1182D01*
Y2303D01*
D02*
G37*
G36*
X1713D02*
X592D01*
X601Y2177D01*
X645Y1996D01*
X716Y1824D01*
X813Y1666D01*
X934Y1524D01*
X1075Y1404D01*
X1234Y1307D01*
X1406Y1235D01*
X1586Y1192D01*
X1713Y1182D01*
Y2303D01*
D02*
G37*
%LPD*%
G36*
X10479Y5061D02*
X10586Y4979D01*
X10711Y4927D01*
X10844Y4910D01*
X13247D01*
X13755Y4401D01*
Y3931D01*
X13735Y3913D01*
X13616Y3869D01*
X13546Y3924D01*
X13421Y3975D01*
X13287Y3993D01*
X13154Y3975D01*
X13029Y3924D01*
X12922Y3842D01*
X12840Y3735D01*
X12789Y3610D01*
X12771Y3477D01*
Y3297D01*
X11160Y1685D01*
X8218D01*
X8200Y1709D01*
X8204Y1869D01*
X8294Y1943D01*
X8367Y2033D01*
X8422Y2135D01*
X8456Y2246D01*
X8467Y2362D01*
X8456Y2478D01*
X8422Y2589D01*
X8390Y2649D01*
Y4090D01*
X9920Y5620D01*
X10479Y5061D01*
D02*
G37*
G36*
X23106Y5343D02*
Y2649D01*
X23074Y2589D01*
X23040Y2478D01*
X23029Y2362D01*
X23040Y2246D01*
X23074Y2135D01*
X23129Y2033D01*
X23202Y1943D01*
X23292Y1869D01*
X23395Y1814D01*
X23423Y1806D01*
X23402Y1666D01*
X20749D01*
X18574Y3842D01*
X18467Y3924D01*
X18342Y3975D01*
X18209Y3993D01*
X18075Y3975D01*
X17951Y3924D01*
X17880Y3869D01*
X17761Y3913D01*
X17741Y3931D01*
Y4139D01*
X18228Y4627D01*
X21993D01*
X22127Y4644D01*
X22251Y4696D01*
X22358Y4778D01*
X22977Y5397D01*
X23106Y5343D01*
D02*
G37*
%LPC*%
G36*
X14941Y30689D02*
X14547D01*
Y30335D01*
X14941D01*
Y30689D01*
D02*
G37*
G36*
X13305Y27066D02*
Y26776D01*
X13596D01*
X13591Y26809D01*
X13555Y26895D01*
X13499Y26969D01*
X13425Y27026D01*
X13338Y27062D01*
X13305Y27066D01*
D02*
G37*
G36*
X13187D02*
X13153Y27062D01*
X13067Y27026D01*
X12993Y26969D01*
X12936Y26895D01*
X12901Y26809D01*
X12896Y26776D01*
X13187D01*
Y27066D01*
D02*
G37*
G36*
X13596Y26658D02*
X13305D01*
Y26367D01*
X13338Y26372D01*
X13425Y26407D01*
X13499Y26464D01*
X13555Y26538D01*
X13591Y26624D01*
X13596Y26658D01*
D02*
G37*
G36*
X13187D02*
X12896D01*
X12901Y26624D01*
X12936Y26538D01*
X12993Y26464D01*
X13067Y26407D01*
X13153Y26372D01*
X13187Y26367D01*
Y26658D01*
D02*
G37*
G36*
X6078Y27561D02*
X5825D01*
Y27167D01*
X6078D01*
Y27561D01*
D02*
G37*
G36*
X1573D02*
X1320D01*
Y27167D01*
X1573D01*
Y27561D01*
D02*
G37*
G36*
X7128Y26332D02*
X6734D01*
Y25978D01*
X7128D01*
Y26332D01*
D02*
G37*
G36*
X1581Y23394D02*
Y23103D01*
X1872D01*
X1867Y23137D01*
X1832Y23223D01*
X1775Y23297D01*
X1701Y23354D01*
X1615Y23389D01*
X1581Y23394D01*
D02*
G37*
G36*
X1463D02*
X1430Y23389D01*
X1343Y23354D01*
X1269Y23297D01*
X1213Y23223D01*
X1177Y23137D01*
X1172Y23103D01*
X1463D01*
Y23394D01*
D02*
G37*
G36*
X1872Y22985D02*
X1581D01*
Y22694D01*
X1615Y22699D01*
X1701Y22735D01*
X1775Y22791D01*
X1832Y22865D01*
X1867Y22952D01*
X1872Y22985D01*
D02*
G37*
G36*
X1463D02*
X1172D01*
X1177Y22952D01*
X1213Y22865D01*
X1269Y22791D01*
X1343Y22735D01*
X1430Y22699D01*
X1463Y22694D01*
Y22985D01*
D02*
G37*
G36*
X1579Y22579D02*
Y22288D01*
X1870D01*
X1866Y22322D01*
X1830Y22408D01*
X1773Y22482D01*
X1699Y22539D01*
X1613Y22575D01*
X1579Y22579D01*
D02*
G37*
G36*
X1461D02*
X1428Y22575D01*
X1342Y22539D01*
X1268Y22482D01*
X1211Y22408D01*
X1175Y22322D01*
X1171Y22288D01*
X1461D01*
Y22579D01*
D02*
G37*
G36*
X2412Y22567D02*
Y22276D01*
X2703D01*
X2698Y22310D01*
X2663Y22396D01*
X2606Y22470D01*
X2532Y22527D01*
X2446Y22562D01*
X2412Y22567D01*
D02*
G37*
G36*
X2294D02*
X2261Y22562D01*
X2175Y22527D01*
X2101Y22470D01*
X2044Y22396D01*
X2008Y22310D01*
X2004Y22276D01*
X2294D01*
Y22567D01*
D02*
G37*
G36*
X1870Y22170D02*
X1579D01*
Y21880D01*
X1613Y21884D01*
X1699Y21920D01*
X1773Y21977D01*
X1830Y22051D01*
X1866Y22137D01*
X1870Y22170D01*
D02*
G37*
G36*
X1461D02*
X1171D01*
X1175Y22137D01*
X1211Y22051D01*
X1268Y21977D01*
X1342Y21920D01*
X1428Y21884D01*
X1461Y21880D01*
Y22170D01*
D02*
G37*
G36*
X2703Y22158D02*
X2412D01*
Y21868D01*
X2446Y21872D01*
X2532Y21908D01*
X2606Y21965D01*
X2663Y22039D01*
X2698Y22125D01*
X2703Y22158D01*
D02*
G37*
G36*
X2294D02*
X2004D01*
X2008Y22125D01*
X2044Y22039D01*
X2101Y21965D01*
X2175Y21908D01*
X2261Y21872D01*
X2294Y21868D01*
Y22158D01*
D02*
G37*
G36*
X17461Y26791D02*
X17071D01*
X17079Y26732D01*
X17124Y26622D01*
X17197Y26527D01*
X17291Y26455D01*
X17401Y26409D01*
X17461Y26402D01*
Y26791D01*
D02*
G37*
G36*
X17969D02*
X17579D01*
Y26402D01*
X17638Y26409D01*
X17748Y26455D01*
X17843Y26527D01*
X17915Y26622D01*
X17961Y26732D01*
X17969Y26791D01*
D02*
G37*
G36*
X10310Y23629D02*
X9611D01*
X9615Y23595D01*
X9651Y23509D01*
X9708Y23435D01*
X9782Y23378D01*
X9810Y23367D01*
Y23259D01*
X9782Y23247D01*
X9708Y23190D01*
X9651Y23116D01*
X9615Y23030D01*
X9611Y22996D01*
X10310D01*
X10306Y23030D01*
X10270Y23116D01*
X10213Y23190D01*
X10139Y23247D01*
X10111Y23259D01*
Y23367D01*
X10139Y23378D01*
X10213Y23435D01*
X10270Y23509D01*
X10306Y23595D01*
X10310Y23629D01*
D02*
G37*
G36*
Y22878D02*
X10020D01*
Y22588D01*
X10053Y22592D01*
X10139Y22628D01*
X10213Y22685D01*
X10270Y22759D01*
X10306Y22845D01*
X10310Y22878D01*
D02*
G37*
G36*
X9902D02*
X9611D01*
X9615Y22845D01*
X9651Y22759D01*
X9708Y22685D01*
X9782Y22628D01*
X9868Y22592D01*
X9902Y22588D01*
Y22878D01*
D02*
G37*
G36*
X11280Y22736D02*
X10925D01*
Y22343D01*
X11280D01*
Y22736D01*
D02*
G37*
G36*
X17888Y22668D02*
X17533D01*
Y22274D01*
X17888D01*
Y22668D01*
D02*
G37*
G36*
X9151Y21795D02*
X8797D01*
Y21401D01*
X9151D01*
Y21795D01*
D02*
G37*
G36*
X17801Y21780D02*
Y21386D01*
X18155D01*
Y21780D01*
X17801D01*
D02*
G37*
G36*
X9151Y21283D02*
X8797D01*
Y20890D01*
X9151D01*
Y21283D01*
D02*
G37*
G36*
X18155Y21268D02*
X17801D01*
Y20874D01*
X18155D01*
Y21268D01*
D02*
G37*
%LPD*%
D15*
X16088Y23119D02*
X16092Y23124D01*
X16088Y23119D02*
X16092Y22996D01*
X16095Y22907D01*
X16092Y23122D02*
Y23124D01*
Y22996D02*
Y23122D01*
Y22904D02*
Y22996D01*
X15915Y23795D02*
X15932D01*
X16092Y23398D02*
Y23636D01*
X15932Y23795D02*
X16092Y23636D01*
X17563Y27815D02*
X17598Y27850D01*
X16280Y27815D02*
X17563D01*
X16102Y27638D02*
X16280Y27815D01*
D18*
X15831Y23795D02*
X15915D01*
X16092Y22904D02*
X16095Y22907D01*
X15851Y22730D02*
X15885Y22697D01*
X16092Y22904D01*
X15932Y23795D02*
X16591D01*
X14331Y31855D02*
Y32494D01*
X13889Y31414D02*
X14331Y31855D01*
X12087Y23661D02*
X12283D01*
X10482Y22125D02*
X10540D01*
X10718Y21947D01*
X15271Y22718D02*
X15671D01*
X15638Y23795D02*
X15667D01*
X13524Y24466D02*
X15271Y22718D01*
X15885Y22697D02*
X16696D01*
X15627Y23806D02*
X15638Y23795D01*
X13524Y24466D02*
Y25453D01*
X12343Y29680D02*
X12519Y29856D01*
X12343Y28642D02*
Y29680D01*
X7989Y25761D02*
Y25770D01*
X7413Y26346D02*
X7989Y25770D01*
X7232Y26346D02*
X7413D01*
X7187Y26391D02*
X7232Y26346D01*
X14626Y26161D02*
X15731D01*
X7256Y26461D02*
X7289D01*
X16591Y23795D02*
X16722Y23664D01*
X14462Y23806D02*
X15627D01*
X13720Y24547D02*
X14462Y23806D01*
X7187Y26391D02*
X7256Y26461D01*
X8674Y27126D02*
X8678Y27131D01*
X8674Y26445D02*
Y27126D01*
X8518Y26290D02*
X8674Y26445D01*
X17619Y30452D02*
Y32340D01*
X17159Y32800D02*
X17619Y32340D01*
X17097Y32800D02*
X17159D01*
X15296Y28130D02*
X17602Y30435D01*
X7441Y31540D02*
Y34966D01*
X6962Y35445D02*
X7441Y34966D01*
X6357Y35445D02*
X6962D01*
X7441Y31540D02*
X8041Y30939D01*
Y29536D02*
Y30939D01*
Y29536D02*
X8292Y29285D01*
X8431Y29883D02*
X8584Y29729D01*
X8431Y31003D02*
X8431Y29883D01*
X8431Y31003D02*
X8582Y31155D01*
X8865D01*
X8584Y29729D02*
X9072D01*
X8865Y31155D02*
Y31835D01*
X8292Y29285D02*
X9473D01*
X7970Y29018D02*
X9246D01*
X9492Y28772D01*
Y27943D02*
Y28772D01*
Y27943D02*
X9896Y27539D01*
X9735Y28032D02*
Y29023D01*
Y28032D02*
X10031Y27736D01*
X9473Y29285D02*
X9735Y29023D01*
X10210Y28257D02*
X10534Y27933D01*
X10210Y28257D02*
Y28753D01*
X10236Y28780D01*
X9896Y27539D02*
X11437D01*
X8799Y27343D02*
X11437D01*
X9733Y27146D02*
X11437D01*
X9473Y26885D02*
X9733Y27146D01*
X10150Y26949D02*
X11437D01*
X7597Y24396D02*
X10150Y26949D01*
X6890Y34854D02*
X7053Y34692D01*
Y31428D02*
Y34692D01*
Y31428D02*
X7725Y30756D01*
Y29263D02*
X7970Y29018D01*
X7725Y29263D02*
Y30756D01*
X10718Y21947D02*
X11854D01*
X12835Y21339D02*
X13031Y21535D01*
X11594Y21339D02*
X11594Y21339D01*
X12835D01*
X13031Y21535D02*
Y23228D01*
X11854Y21947D02*
X12087Y22180D01*
Y22795D01*
X11339Y22271D02*
Y22756D01*
Y22795D02*
X11378Y22756D01*
X13780Y21575D02*
Y23071D01*
X7969Y20120D02*
X9463Y18626D01*
X7912Y24395D02*
X7969Y20120D01*
X7912Y24395D02*
X10269Y26752D01*
X8320Y24475D02*
X10400Y26555D01*
X8320Y20400D02*
Y24475D01*
Y20400D02*
X9684Y19035D01*
X14093Y32732D02*
X14331Y32494D01*
X9364Y32732D02*
X14093D01*
X8865Y33231D02*
X9364Y32732D01*
X14466Y32947D02*
X14847Y32566D01*
X9899Y32947D02*
X14466D01*
X9365Y33482D02*
X9899Y32947D01*
X9354Y31340D02*
Y31825D01*
X9093Y31078D02*
X9354Y31340D01*
X9093Y30789D02*
Y31078D01*
X9354Y31825D02*
X9365Y31835D01*
X9038Y30735D02*
X9093Y30789D01*
X9188Y30735D02*
X9365Y30912D01*
X12933Y28642D02*
Y30458D01*
X13889Y31414D01*
X13153Y31432D02*
Y32250D01*
X13004Y31286D02*
X13141Y31423D01*
X14847Y31819D02*
Y32566D01*
X6357Y27780D02*
X6361Y27775D01*
X6357Y27780D02*
Y28358D01*
X1017Y27860D02*
X1042Y27884D01*
Y28358D01*
X14626Y28130D02*
X15296D01*
X16553Y31285D02*
X16938Y31670D01*
X14828Y31800D02*
X15721D01*
X14828D02*
X14847Y31819D01*
X17377Y27356D02*
X17382Y27352D01*
X17651D01*
X17343Y28337D02*
X17762D01*
X10725Y34829D02*
X11119D01*
X11872Y35583D01*
X10365Y34469D02*
X10725Y34829D01*
X9149Y24488D02*
Y24963D01*
X413Y28726D02*
X636Y28949D01*
X413Y21305D02*
Y28726D01*
Y21305D02*
X807Y20911D01*
X636Y28949D02*
X1042D01*
X807Y20911D02*
X6925D01*
X10031Y27736D02*
X11437D01*
X8780Y27362D02*
X8799Y27343D01*
X10174Y28842D02*
X10236Y28780D01*
X10174Y28842D02*
Y29729D01*
X10534Y27933D02*
X11437D01*
X7597Y24396D02*
X7602Y16965D01*
X10269Y26752D02*
X11437D01*
X10400Y26555D02*
X11437D01*
X10151Y25965D02*
X11437D01*
X9149Y24963D02*
X10151Y25965D01*
X7602Y16965D02*
X9177Y15390D01*
X13130Y30102D02*
X14828Y31800D01*
X7195Y29673D02*
X7195Y29672D01*
X7195Y29673D02*
Y30545D01*
X7063Y29539D02*
X7195Y29672D01*
X6357Y29539D02*
X7063D01*
X6357Y34854D02*
X6890D01*
X12343Y28642D02*
X12343Y28642D01*
X13130Y28642D02*
Y30102D01*
X14604Y31285D02*
X16553D01*
X13720Y30402D02*
X14604Y31285D01*
X13720Y28642D02*
Y30402D01*
X13987Y30276D02*
X14409D01*
X13917Y30206D02*
X13987Y30276D01*
X13917Y29213D02*
Y30206D01*
X11440Y31286D02*
X13004D01*
X10365Y33985D02*
Y34469D01*
X9684Y19035D02*
X13354D01*
X9967Y18626D02*
X14342Y14252D01*
X9463Y18626D02*
X9967D01*
X11591Y21342D02*
X11594Y21339D01*
X9958Y21342D02*
X11591D01*
X15346Y21327D02*
X17070D01*
X15335Y21339D02*
X15346Y21327D01*
X13780Y23071D02*
Y23931D01*
X9064Y23700D02*
Y24401D01*
X16696Y22697D02*
X16726Y22727D01*
X9177Y15390D02*
X9743D01*
X13354Y19035D02*
X17039Y15350D01*
X19467D01*
X14342Y14252D02*
X28102D01*
X10357Y33993D02*
X10365Y33985D01*
X14114Y29193D02*
X14449Y29528D01*
X14488D01*
X13917Y29213D02*
X13917Y29213D01*
Y28642D02*
Y29213D01*
X14409Y30197D02*
X14488Y30276D01*
X14114Y28642D02*
Y29193D01*
X15413Y25965D02*
X15748Y25630D01*
X14626Y25965D02*
X15413D01*
X15748Y25630D02*
X15787D01*
X12736Y25453D02*
Y25969D01*
X14110Y26161D02*
X14626D01*
X13917Y28126D02*
Y28642D01*
X11437Y27933D02*
X11953D01*
X28102Y14252D02*
X29228Y15378D01*
X9865Y34790D02*
X9865Y34790D01*
X9865Y33985D02*
Y34790D01*
X9865Y33985D02*
X9865Y33985D01*
X9365Y33482D02*
Y33985D01*
X8865Y33231D02*
Y33985D01*
X9078Y30735D02*
X9188D01*
X10042D02*
X10180D01*
X9865Y30912D02*
X10042Y30735D01*
X9865Y30912D02*
Y31835D01*
X10968Y30912D02*
Y31246D01*
Y30912D02*
X11145Y30735D01*
X11283D01*
X10865Y31349D02*
X10968Y31246D01*
X10865Y31349D02*
Y31835D01*
X12267Y32428D02*
X12385Y32309D01*
X10495Y32428D02*
X12267D01*
X10377Y32309D02*
X10495Y32428D01*
X10377Y31847D02*
Y32309D01*
X10365Y31835D02*
X10377Y31847D01*
X11368Y31358D02*
X11440Y31286D01*
X11368Y31358D02*
Y31832D01*
X11365Y31835D02*
X11368Y31832D01*
X10866Y28228D02*
Y28780D01*
Y28228D02*
X10965Y28130D01*
X14016Y21339D02*
X15335D01*
X13780Y21575D02*
X14016Y21339D01*
X14114Y24744D02*
X14409Y24449D01*
X14114Y24744D02*
Y25453D01*
X14409Y24449D02*
X14843D01*
X14724Y24567D02*
X14843Y24449D01*
X13720Y24547D02*
Y25453D01*
X15965Y26752D02*
X16102Y26890D01*
X14626Y26752D02*
X15965D01*
X10965Y28130D02*
X11437D01*
X13327Y24384D02*
X13780Y23931D01*
X13327Y24384D02*
Y25453D01*
X13130Y23327D02*
Y25453D01*
X13031Y23228D02*
X13130Y23327D01*
X12283Y23661D02*
X12933Y24311D01*
X12087Y22795D02*
Y23622D01*
Y23661D01*
X12933Y24311D02*
Y25453D01*
X12520Y24685D02*
X12539Y24705D01*
Y25453D01*
D20*
X10984Y28780D02*
X11068Y28863D01*
Y29822D01*
X10866Y28780D02*
X10866Y28780D01*
D28*
X11339Y22795D02*
D03*
X12087D02*
D03*
X9210Y21342D02*
D03*
X9958D02*
D03*
X17742Y21327D02*
D03*
X16994D02*
D03*
X17474Y22727D02*
D03*
X16726D02*
D03*
X17470Y23664D02*
D03*
X16722D02*
D03*
X10824Y24484D02*
D03*
X11572D02*
D03*
X10236Y28780D02*
D03*
X10984D02*
D03*
X7649Y34757D02*
D03*
X8397D02*
D03*
X9228Y24488D02*
D03*
X9976D02*
D03*
X7930Y27131D02*
D03*
X8678D02*
D03*
X11339Y23622D02*
D03*
X12087D02*
D03*
X13031Y23071D02*
D03*
X13780D02*
D03*
D29*
X14843Y25197D02*
D03*
Y24449D02*
D03*
X14488Y30276D02*
D03*
Y29528D02*
D03*
X15787Y24882D02*
D03*
Y25630D02*
D03*
X7187Y27139D02*
D03*
Y26391D02*
D03*
X8258Y28791D02*
D03*
Y28043D02*
D03*
X7195Y29672D02*
D03*
Y28924D02*
D03*
X16102Y26929D02*
D03*
Y27677D02*
D03*
D77*
X23221Y15809D02*
Y17927D01*
Y15809D02*
X23229Y15801D01*
X13573Y15887D02*
Y17924D01*
X3925Y15757D02*
Y17928D01*
D79*
X15675Y22845D02*
Y23053D01*
X15671Y22842D02*
X15675Y22845D01*
Y23486D02*
Y23691D01*
X15667Y23699D02*
X15675Y23691D01*
X366Y29537D02*
X368Y29538D01*
X1040D01*
X1042Y29539D01*
D80*
X17598Y28850D02*
X18603D01*
X19640Y29887D01*
X23720D01*
X24247Y28397D02*
Y29360D01*
Y28397D02*
X24255Y28390D01*
X23720Y29887D02*
X24247Y29360D01*
D81*
X12361Y34002D02*
Y34120D01*
Y33388D02*
Y34002D01*
Y34120D02*
X12385D01*
D82*
X6369Y28936D02*
X7201D01*
X7218Y28919D01*
X7287Y28059D02*
X8882D01*
X7895Y27135D02*
X7930Y27170D01*
X16690Y25787D02*
X16732D01*
X16591Y25689D02*
X16690Y25787D01*
X15846Y25689D02*
X16591D01*
X8411Y34772D02*
X9064D01*
X8397Y34757D02*
X8411Y34772D01*
X8882Y28059D02*
X9005Y28182D01*
X7218Y27990D02*
X7287Y28059D01*
X7218Y27990D02*
Y28866D01*
Y27273D02*
Y27990D01*
X9005Y28182D02*
Y28538D01*
X9021Y28553D01*
X7192Y28892D02*
X7218Y28866D01*
X7504Y27135D02*
X7895D01*
X7930Y27131D02*
Y27170D01*
X14488Y29528D02*
X15354D01*
X15787Y25630D02*
X15846Y25689D01*
D85*
X5901Y2243D02*
Y4370D01*
X29228Y6000D02*
Y6378D01*
X25591Y2362D02*
X29228Y6000D01*
X24355Y1150D02*
X25567Y2362D01*
X25591D01*
X23622D02*
Y5984D01*
X20535Y1150D02*
X24355D01*
X21993Y5143D02*
X23228Y6378D01*
X23622Y5984D01*
X3920Y6350D02*
X5901Y4370D01*
Y2243D02*
X6975Y1169D01*
X7874Y2362D02*
Y4304D01*
X9920Y6350D01*
X6975Y1169D02*
X11374D01*
X18209Y3477D02*
X20535Y1150D01*
X17224Y3477D02*
Y4353D01*
X16240Y5484D02*
X17107Y6350D01*
X16240Y3477D02*
Y5484D01*
Y2897D02*
Y3477D01*
Y2897D02*
X16732Y2405D01*
Y2362D02*
Y2405D01*
X14764Y2362D02*
Y2405D01*
X15256Y2897D01*
Y3477D01*
X14416Y6350D02*
X15256Y5510D01*
Y3477D02*
Y5510D01*
X13461Y5426D02*
X14272Y4615D01*
Y3477D02*
Y4615D01*
X10844Y5426D02*
X13461D01*
X11374Y1169D02*
X13287Y3083D01*
Y3477D01*
X29228Y6378D02*
Y7378D01*
X3920Y6350D02*
Y7350D01*
X9920Y6350D02*
X10844Y5426D01*
X9920Y6350D02*
Y7350D01*
X17224Y4353D02*
X18015Y5143D01*
X21993D01*
X23228Y6378D02*
Y7378D01*
X17107Y6350D02*
X19566D01*
Y7350D01*
X13566Y6350D02*
X14416D01*
X13566D02*
Y7350D01*
D86*
X19193Y33602D02*
Y34504D01*
Y35722D02*
X19197Y35726D01*
X19193Y34504D02*
Y35722D01*
X18922Y36000D02*
X19197Y35726D01*
X18024Y36000D02*
X18922D01*
X17882Y36142D02*
X18024Y36000D01*
D87*
X20398Y37003D02*
X20443Y36958D01*
D89*
X16092Y23122D02*
D03*
Y23398D02*
D03*
D90*
X24510Y35440D02*
D03*
X25297D02*
D03*
X26084D02*
D03*
X26872D02*
D03*
X27659D02*
D03*
Y36385D02*
D03*
X26872D02*
D03*
X26084D02*
D03*
X25297D02*
D03*
X24510D02*
D03*
X27659Y37330D02*
D03*
X26872D02*
D03*
X26084D02*
D03*
X25297D02*
D03*
X24510D02*
D03*
X27659Y38275D02*
D03*
X26872D02*
D03*
X26084D02*
D03*
X25297D02*
D03*
X24510D02*
D03*
X10518Y22095D02*
D03*
X12519Y29856D02*
D03*
X9961Y22937D02*
D03*
Y23688D02*
D03*
X25787Y26575D02*
D03*
Y28543D02*
D03*
Y27559D02*
D03*
X9064Y34772D02*
D03*
X13889Y31414D02*
D03*
X6925Y20911D02*
D03*
X9473Y26885D02*
D03*
X7195Y30545D02*
D03*
X1522Y23044D02*
D03*
X2353Y22217D02*
D03*
X1520Y22229D02*
D03*
X13246Y26717D02*
D03*
X906Y7087D02*
D03*
Y5709D02*
D03*
X30591Y5315D02*
D03*
X906Y4331D02*
D03*
X30591Y6693D02*
D03*
Y13583D02*
D03*
Y12205D02*
D03*
Y10827D02*
D03*
Y9449D02*
D03*
Y8071D02*
D03*
X9064Y23700D02*
D03*
X9865Y34790D02*
D03*
D91*
X15675Y23486D02*
D03*
Y23053D02*
D03*
D92*
X11769Y20126D02*
D03*
X20311Y20138D02*
D03*
X23344Y32084D02*
D03*
D93*
X10785Y20126D02*
D03*
X19326Y20138D02*
D03*
X27294Y20594D02*
D03*
X22360Y32084D02*
D03*
D94*
X15501Y20236D02*
D03*
X13533D02*
D03*
X19830Y24458D02*
D03*
Y22490D02*
D03*
X23046Y20236D02*
D03*
X25015D02*
D03*
X21695Y28556D02*
D03*
X19726D02*
D03*
D95*
X29356Y22178D02*
D03*
X13287Y3477D02*
D03*
X14272D02*
D03*
X15256D02*
D03*
X16240D02*
D03*
X17224D02*
D03*
X18209D02*
D03*
X15721Y31800D02*
D03*
Y32800D02*
D03*
Y33800D02*
D03*
X17520Y26850D02*
D03*
Y27850D02*
D03*
X17097Y31800D02*
D03*
Y32800D02*
D03*
Y33800D02*
D03*
D96*
X29356Y23556D02*
D03*
X15721Y30800D02*
D03*
X17520Y28850D02*
D03*
X17097Y30800D02*
D03*
D97*
X27294Y19609D02*
D03*
D98*
X29724Y37008D02*
D03*
X29724Y2362D02*
D03*
X1772D02*
D03*
X1772Y19685D02*
D03*
D99*
X21495Y35729D02*
D03*
Y38091D02*
D03*
D100*
X15144Y35583D02*
D03*
X14598Y36701D02*
D03*
X14053Y35583D02*
D03*
X13508Y36701D02*
D03*
X12963Y35583D02*
D03*
X12417Y36701D02*
D03*
X11872Y35583D02*
D03*
X11327Y36701D02*
D03*
D101*
X10781Y35583D02*
D03*
D102*
X8043Y36142D02*
D03*
X17882D02*
D03*
D103*
X22411Y36958D02*
D03*
X20443D02*
D03*
X23622Y2362D02*
D03*
X25591D02*
D03*
X14764D02*
D03*
X16732D02*
D03*
X5906D02*
D03*
X7874D02*
D03*
D104*
X23228Y16378D02*
D03*
Y17378D02*
D03*
Y7378D02*
D03*
Y6378D02*
D03*
X29228D02*
D03*
Y7378D02*
D03*
Y15378D02*
D03*
Y16378D02*
D03*
Y17378D02*
D03*
X13566Y16350D02*
D03*
Y17350D02*
D03*
Y7350D02*
D03*
Y6350D02*
D03*
X19566D02*
D03*
Y7350D02*
D03*
Y15350D02*
D03*
Y16350D02*
D03*
Y17350D02*
D03*
X3920Y16350D02*
D03*
Y17350D02*
D03*
Y7350D02*
D03*
Y6350D02*
D03*
X9920D02*
D03*
Y7350D02*
D03*
Y15350D02*
D03*
Y16350D02*
D03*
Y17350D02*
D03*
D105*
X18627Y25767D02*
D03*
X16732Y25787D02*
D03*
X11068Y29822D02*
D03*
X12354Y33375D02*
D03*
X9021Y28553D02*
D03*
X10555Y25318D02*
D03*
X15354Y29528D02*
D03*
D106*
X24255Y28390D02*
D03*
D107*
X366Y29537D02*
D03*
D108*
X8518Y26290D02*
D03*
X7989Y25761D02*
D03*
D109*
X15831Y22710D02*
D03*
Y23813D02*
D03*
D110*
X17165Y24843D02*
D03*
X18031Y24469D02*
D03*
Y25217D02*
D03*
D111*
X20295Y33602D02*
D03*
X19193D02*
D03*
X20295Y34504D02*
D03*
X19193D02*
D03*
D112*
X1042Y35445D02*
D03*
Y34854D02*
D03*
Y34264D02*
D03*
Y33673D02*
D03*
Y33083D02*
D03*
Y32492D02*
D03*
Y31902D02*
D03*
Y31311D02*
D03*
Y30721D02*
D03*
Y30130D02*
D03*
Y29539D02*
D03*
Y28949D02*
D03*
Y28358D02*
D03*
X6357D02*
D03*
Y28949D02*
D03*
Y29539D02*
D03*
Y30130D02*
D03*
Y30721D02*
D03*
Y31311D02*
D03*
Y31902D02*
D03*
Y32492D02*
D03*
Y33083D02*
D03*
Y33673D02*
D03*
Y34264D02*
D03*
Y34854D02*
D03*
Y35445D02*
D03*
D113*
X1632Y27620D02*
D03*
X2223D02*
D03*
X2813D02*
D03*
X3404D02*
D03*
X3994D02*
D03*
X4585D02*
D03*
X5175D02*
D03*
X5766D02*
D03*
D114*
X14114Y25453D02*
D03*
X13917D02*
D03*
X13720D02*
D03*
X13524D02*
D03*
X13327D02*
D03*
X13130D02*
D03*
X12933D02*
D03*
X12736D02*
D03*
X12539D02*
D03*
X12343D02*
D03*
X12146D02*
D03*
X11949D02*
D03*
Y28642D02*
D03*
X12146D02*
D03*
X12343D02*
D03*
X12539D02*
D03*
X12736D02*
D03*
X12933D02*
D03*
X13130D02*
D03*
X13327D02*
D03*
X13524D02*
D03*
X13720D02*
D03*
X13917D02*
D03*
X14114D02*
D03*
D115*
X11437Y25965D02*
D03*
Y26161D02*
D03*
Y26358D02*
D03*
Y26555D02*
D03*
Y26752D02*
D03*
Y26949D02*
D03*
Y27146D02*
D03*
Y27343D02*
D03*
Y27539D02*
D03*
Y27736D02*
D03*
Y27933D02*
D03*
Y28130D02*
D03*
X14626D02*
D03*
Y27933D02*
D03*
Y27736D02*
D03*
Y27539D02*
D03*
Y27343D02*
D03*
Y27146D02*
D03*
Y26949D02*
D03*
Y26752D02*
D03*
Y26555D02*
D03*
Y26358D02*
D03*
Y26161D02*
D03*
Y25965D02*
D03*
D116*
X12385Y34120D02*
D03*
X13487D02*
D03*
Y32250D02*
D03*
X12385D02*
D03*
X11194Y30735D02*
D03*
X12296D02*
D03*
X10141D02*
D03*
X9038D02*
D03*
X10174Y29729D02*
D03*
X9072D02*
D03*
D117*
X7865Y33985D02*
D03*
Y31835D02*
D03*
X8365Y33985D02*
D03*
X8865D02*
D03*
X8365Y31835D02*
D03*
X8865D02*
D03*
X9365Y33985D02*
D03*
Y31835D02*
D03*
X9865Y33985D02*
D03*
Y31835D02*
D03*
X10365Y33985D02*
D03*
X10865D02*
D03*
X10365Y31835D02*
D03*
X10865D02*
D03*
X11365Y33985D02*
D03*
Y31835D02*
D03*
D118*
X15335Y21339D02*
D03*
X11594D02*
D03*
D119*
X14843Y25039D02*
X15787D01*
X18627Y25377D02*
Y25767D01*
X18466Y25217D02*
X18627Y25377D01*
X18031Y25217D02*
X18466D01*
X11496Y24488D02*
X12323D01*
X18603Y28386D02*
X19090Y27899D01*
Y24848D02*
Y27899D01*
X18710Y24469D02*
X19090Y24848D01*
X18603Y28386D02*
Y28850D01*
X18031Y24469D02*
X18710D01*
X18031D02*
X18036Y24473D01*
X17470Y23664D02*
X17597Y23792D01*
X16907Y24766D02*
Y24767D01*
X16561Y24420D02*
X16907Y24766D01*
X14990Y24420D02*
X16561D01*
X14961Y24449D02*
X14990Y24420D01*
X16907Y24767D02*
X16982Y24843D01*
X11068Y29822D02*
X11875D01*
X12090Y30037D01*
X12227Y30735D02*
X12296D01*
X10155Y25318D02*
X10555D01*
X9961Y25125D02*
X10155Y25318D01*
X9961Y24503D02*
Y25125D01*
X12090Y30037D02*
Y30597D01*
X12227Y30735D01*
X9882Y24503D02*
X9897Y24488D01*
X11496Y24488D02*
Y25179D01*
X11356Y25318D02*
X11496Y25179D01*
X10555Y25318D02*
X11356D01*
X17472Y22729D02*
X17474Y22727D01*
X17472Y22729D02*
Y23662D01*
X17470Y23664D02*
X17472Y23662D01*
X14843Y25197D02*
X14843Y25197D01*
X11382Y34002D02*
X12361D01*
X11365Y33985D02*
X11382Y34002D01*
X14843Y25197D02*
X14882D01*
X11339Y23622D02*
X11417Y23701D01*
Y24409D01*
X11496Y24488D01*
X12323D02*
X12520Y24685D01*
D120*
X19718Y36931D02*
X20325D01*
X18716Y37932D02*
X19718Y36931D01*
X17555Y37932D02*
X18716D01*
D121*
X20295Y34504D02*
Y34720D01*
M02*
