G04*
G04 #@! TF.GenerationSoftware,Altium Limited,Altium Designer,19.1.8 (144)*
G04*
G04 Layer_Color=32896*
%FSLAX24Y24*%
%MOIN*%
G70*
G01*
G75*
%ADD10C,0.0079*%
%ADD11C,0.0098*%
%ADD12C,0.0100*%
%ADD14C,0.0059*%
%ADD121C,0.0236*%
%ADD133C,0.0060*%
%ADD134C,0.0049*%
G36*
X3831Y21791D02*
X3843Y21790D01*
X3865Y21787D01*
X3884Y21781D01*
X3893Y21778D01*
X3901Y21774D01*
X3908Y21771D01*
X3914Y21768D01*
X3920Y21765D01*
X3924Y21762D01*
X3928Y21760D01*
X3930Y21758D01*
X3932Y21757D01*
X3932Y21757D01*
X3940Y21749D01*
X3948Y21742D01*
X3954Y21733D01*
X3960Y21724D01*
X3969Y21705D01*
X3976Y21687D01*
X3978Y21677D01*
X3980Y21669D01*
X3983Y21662D01*
X3983Y21655D01*
X3985Y21649D01*
Y21646D01*
X3985Y21643D01*
Y21642D01*
X3889Y21633D01*
X3888Y21647D01*
X3885Y21660D01*
X3882Y21671D01*
X3878Y21679D01*
X3875Y21685D01*
X3872Y21690D01*
X3870Y21693D01*
X3870Y21693D01*
X3862Y21699D01*
X3854Y21703D01*
X3846Y21707D01*
X3838Y21709D01*
X3832Y21711D01*
X3826Y21711D01*
X3821D01*
X3810Y21711D01*
X3800Y21709D01*
X3792Y21706D01*
X3785Y21703D01*
X3780Y21700D01*
X3776Y21697D01*
X3773Y21695D01*
X3773Y21694D01*
X3767Y21687D01*
X3762Y21679D01*
X3759Y21671D01*
X3757Y21663D01*
X3756Y21655D01*
X3755Y21649D01*
Y21645D01*
Y21644D01*
Y21644D01*
X3756Y21633D01*
X3758Y21623D01*
X3762Y21612D01*
X3765Y21604D01*
X3769Y21596D01*
X3773Y21590D01*
X3775Y21586D01*
X3776Y21585D01*
X3778Y21580D01*
X3783Y21575D01*
X3789Y21569D01*
X3794Y21563D01*
X3808Y21549D01*
X3821Y21535D01*
X3834Y21522D01*
X3840Y21516D01*
X3845Y21512D01*
X3850Y21507D01*
X3853Y21504D01*
X3855Y21502D01*
X3856Y21502D01*
X3870Y21488D01*
X3883Y21475D01*
X3896Y21462D01*
X3907Y21451D01*
X3917Y21440D01*
X3926Y21430D01*
X3934Y21421D01*
X3940Y21413D01*
X3946Y21405D01*
X3951Y21399D01*
X3956Y21394D01*
X3958Y21389D01*
X3961Y21386D01*
X3963Y21383D01*
X3964Y21381D01*
Y21380D01*
X3974Y21364D01*
X3981Y21346D01*
X3987Y21330D01*
X3991Y21316D01*
X3994Y21302D01*
X3995Y21297D01*
X3996Y21293D01*
X3996Y21289D01*
X3997Y21286D01*
Y21285D01*
Y21284D01*
X3658Y21284D01*
Y21374D01*
X3851Y21374D01*
X3845Y21383D01*
X3838Y21391D01*
X3835Y21395D01*
X3833Y21398D01*
X3832Y21399D01*
X3831Y21400D01*
X3828Y21403D01*
X3825Y21407D01*
X3816Y21415D01*
X3807Y21424D01*
X3797Y21434D01*
X3788Y21442D01*
X3780Y21450D01*
X3777Y21453D01*
X3775Y21455D01*
X3773Y21456D01*
X3773Y21456D01*
X3757Y21472D01*
X3743Y21484D01*
X3732Y21496D01*
X3724Y21504D01*
X3717Y21512D01*
X3713Y21517D01*
X3710Y21520D01*
X3709Y21521D01*
X3700Y21534D01*
X3692Y21545D01*
X3685Y21556D01*
X3680Y21566D01*
X3676Y21574D01*
X3673Y21580D01*
X3671Y21584D01*
X3671Y21585D01*
X3666Y21597D01*
X3663Y21609D01*
X3661Y21620D01*
X3660Y21630D01*
X3659Y21638D01*
X3658Y21644D01*
Y21649D01*
Y21650D01*
X3659Y21661D01*
X3660Y21672D01*
X3662Y21682D01*
X3665Y21692D01*
X3672Y21709D01*
X3679Y21723D01*
X3684Y21730D01*
X3687Y21735D01*
X3691Y21740D01*
X3695Y21744D01*
X3697Y21746D01*
X3699Y21749D01*
X3700Y21750D01*
X3701Y21751D01*
X3709Y21758D01*
X3719Y21765D01*
X3727Y21770D01*
X3738Y21774D01*
X3757Y21781D01*
X3776Y21787D01*
X3784Y21788D01*
X3792Y21789D01*
X3800Y21790D01*
X3806Y21791D01*
X3811Y21792D01*
X3819D01*
X3831Y21791D01*
D02*
G37*
G36*
X5901Y21775D02*
X5911Y21760D01*
X5921Y21745D01*
X5931Y21733D01*
X5940Y21724D01*
X5948Y21717D01*
X5951Y21714D01*
X5953Y21711D01*
X5954Y21711D01*
X5955Y21710D01*
X5971Y21698D01*
X5987Y21688D01*
X6000Y21680D01*
X6013Y21674D01*
X6023Y21670D01*
X6030Y21666D01*
X6033Y21666D01*
X6035Y21665D01*
X6036Y21664D01*
X6037D01*
Y21577D01*
X6011Y21587D01*
X5987Y21598D01*
X5976Y21604D01*
X5966Y21610D01*
X5957Y21616D01*
X5948Y21622D01*
X5940Y21628D01*
X5933Y21633D01*
X5927Y21637D01*
X5922Y21641D01*
X5917Y21645D01*
X5914Y21647D01*
X5913Y21649D01*
X5912Y21649D01*
Y21284D01*
X5815D01*
Y21792D01*
X5894D01*
X5901Y21775D01*
D02*
G37*
G36*
X5509D02*
X5519Y21760D01*
X5529Y21745D01*
X5539Y21733D01*
X5548Y21724D01*
X5556Y21717D01*
X5559Y21714D01*
X5561Y21711D01*
X5562Y21711D01*
X5563Y21710D01*
X5579Y21698D01*
X5594Y21688D01*
X5608Y21680D01*
X5621Y21674D01*
X5631Y21670D01*
X5638Y21666D01*
X5641Y21666D01*
X5643Y21665D01*
X5644Y21664D01*
X5645D01*
Y21577D01*
X5618Y21587D01*
X5595Y21598D01*
X5584Y21604D01*
X5574Y21610D01*
X5564Y21616D01*
X5556Y21622D01*
X5548Y21628D01*
X5540Y21633D01*
X5535Y21637D01*
X5529Y21641D01*
X5525Y21645D01*
X5522Y21647D01*
X5521Y21649D01*
X5520Y21649D01*
Y21284D01*
X5423D01*
Y21792D01*
X5502D01*
X5509Y21775D01*
D02*
G37*
G36*
X4216D02*
X4225Y21760D01*
X4236Y21745D01*
X4246Y21733D01*
X4254Y21724D01*
X4262Y21717D01*
X4265Y21714D01*
X4268Y21711D01*
X4269Y21711D01*
X4270Y21710D01*
X4286Y21698D01*
X4301Y21688D01*
X4315Y21680D01*
X4327Y21674D01*
X4338Y21670D01*
X4345Y21666D01*
X4348Y21666D01*
X4350Y21665D01*
X4351Y21664D01*
X4351D01*
Y21577D01*
X4325Y21587D01*
X4302Y21598D01*
X4291Y21604D01*
X4281Y21610D01*
X4271Y21616D01*
X4262Y21622D01*
X4254Y21628D01*
X4247Y21633D01*
X4241Y21637D01*
X4236Y21641D01*
X4232Y21645D01*
X4229Y21647D01*
X4227Y21649D01*
X4227Y21649D01*
Y21284D01*
X4130D01*
Y21792D01*
X4209D01*
X4216Y21775D01*
D02*
G37*
G36*
X768Y21775D02*
X778Y21760D01*
X788Y21745D01*
X798Y21733D01*
X807Y21724D01*
X815Y21717D01*
X818Y21714D01*
X820Y21711D01*
X822Y21711D01*
X822Y21710D01*
X838Y21698D01*
X854Y21688D01*
X868Y21680D01*
X880Y21674D01*
X890Y21670D01*
X897Y21666D01*
X900Y21666D01*
X903Y21665D01*
X903Y21664D01*
X904D01*
Y21577D01*
X878Y21587D01*
X854Y21598D01*
X843Y21604D01*
X833Y21610D01*
X824Y21616D01*
X815Y21622D01*
X807Y21628D01*
X800Y21633D01*
X794Y21637D01*
X789Y21641D01*
X784Y21645D01*
X781Y21647D01*
X780Y21649D01*
X779Y21649D01*
Y21284D01*
X682D01*
Y21792D01*
X761D01*
X768Y21775D01*
D02*
G37*
G36*
X3387Y21419D02*
X3197D01*
Y21516D01*
X3387D01*
Y21419D01*
D02*
G37*
G36*
X6549Y21284D02*
X6447D01*
Y21495D01*
X6414D01*
X6404Y21494D01*
X6396Y21493D01*
X6388Y21492D01*
X6382Y21491D01*
X6379Y21490D01*
X6377Y21489D01*
X6376D01*
X6370Y21486D01*
X6364Y21483D01*
X6359Y21480D01*
X6354Y21477D01*
X6350Y21473D01*
X6347Y21470D01*
X6346Y21469D01*
X6345Y21468D01*
X6342Y21464D01*
X6339Y21461D01*
X6331Y21450D01*
X6322Y21438D01*
X6312Y21425D01*
X6304Y21413D01*
X6301Y21407D01*
X6298Y21403D01*
X6295Y21399D01*
X6293Y21397D01*
X6292Y21394D01*
X6291Y21394D01*
X6218Y21284D01*
X6096D01*
X6158Y21383D01*
X6164Y21393D01*
X6171Y21403D01*
X6177Y21412D01*
X6183Y21420D01*
X6188Y21427D01*
X6192Y21434D01*
X6201Y21445D01*
X6207Y21454D01*
X6212Y21460D01*
X6215Y21464D01*
X6216Y21464D01*
X6224Y21473D01*
X6234Y21481D01*
X6242Y21488D01*
X6251Y21494D01*
X6258Y21499D01*
X6264Y21503D01*
X6269Y21506D01*
X6269Y21507D01*
X6270D01*
X6258Y21509D01*
X6247Y21512D01*
X6237Y21515D01*
X6226Y21518D01*
X6218Y21522D01*
X6210Y21526D01*
X6202Y21529D01*
X6195Y21534D01*
X6189Y21537D01*
X6184Y21541D01*
X6180Y21545D01*
X6177Y21547D01*
X6174Y21550D01*
X6172Y21552D01*
X6171Y21553D01*
X6170Y21553D01*
X6164Y21561D01*
X6159Y21568D01*
X6151Y21584D01*
X6145Y21599D01*
X6141Y21614D01*
X6138Y21628D01*
X6137Y21633D01*
Y21638D01*
X6137Y21641D01*
Y21645D01*
Y21647D01*
Y21647D01*
X6137Y21663D01*
X6140Y21679D01*
X6144Y21692D01*
X6148Y21703D01*
X6152Y21713D01*
X6156Y21720D01*
X6157Y21722D01*
X6159Y21725D01*
X6159Y21725D01*
Y21726D01*
X6168Y21738D01*
X6178Y21749D01*
X6187Y21757D01*
X6197Y21764D01*
X6205Y21768D01*
X6212Y21772D01*
X6216Y21774D01*
X6217Y21775D01*
X6218D01*
X6225Y21777D01*
X6233Y21779D01*
X6251Y21783D01*
X6271Y21785D01*
X6290Y21787D01*
X6299D01*
X6307Y21788D01*
X6315D01*
X6322Y21789D01*
X6549D01*
Y21284D01*
D02*
G37*
G36*
X4864D02*
X4762D01*
Y21495D01*
X4729D01*
X4719Y21494D01*
X4710Y21493D01*
X4703Y21492D01*
X4697Y21491D01*
X4693Y21490D01*
X4691Y21489D01*
X4690D01*
X4685Y21486D01*
X4679Y21483D01*
X4674Y21480D01*
X4669Y21477D01*
X4665Y21473D01*
X4662Y21470D01*
X4660Y21469D01*
X4660Y21468D01*
X4657Y21464D01*
X4653Y21461D01*
X4645Y21450D01*
X4636Y21438D01*
X4627Y21425D01*
X4619Y21413D01*
X4615Y21407D01*
X4612Y21403D01*
X4609Y21399D01*
X4607Y21397D01*
X4607Y21394D01*
X4606Y21394D01*
X4533Y21284D01*
X4410D01*
X4472Y21383D01*
X4479Y21393D01*
X4486Y21403D01*
X4491Y21412D01*
X4497Y21420D01*
X4502Y21427D01*
X4507Y21434D01*
X4515Y21445D01*
X4522Y21454D01*
X4526Y21460D01*
X4530Y21464D01*
X4531Y21464D01*
X4539Y21473D01*
X4548Y21481D01*
X4557Y21488D01*
X4566Y21494D01*
X4573Y21499D01*
X4579Y21503D01*
X4583Y21506D01*
X4584Y21507D01*
X4585D01*
X4572Y21509D01*
X4561Y21512D01*
X4551Y21515D01*
X4541Y21518D01*
X4532Y21522D01*
X4524Y21526D01*
X4516Y21529D01*
X4510Y21534D01*
X4504Y21537D01*
X4499Y21541D01*
X4494Y21545D01*
X4491Y21547D01*
X4488Y21550D01*
X4486Y21552D01*
X4486Y21553D01*
X4485Y21553D01*
X4479Y21561D01*
X4474Y21568D01*
X4465Y21584D01*
X4459Y21599D01*
X4456Y21614D01*
X4453Y21628D01*
X4452Y21633D01*
Y21638D01*
X4451Y21641D01*
Y21645D01*
Y21647D01*
Y21647D01*
X4452Y21663D01*
X4455Y21679D01*
X4459Y21692D01*
X4462Y21703D01*
X4467Y21713D01*
X4470Y21720D01*
X4472Y21722D01*
X4473Y21725D01*
X4474Y21725D01*
Y21726D01*
X4483Y21738D01*
X4492Y21749D01*
X4502Y21757D01*
X4511Y21764D01*
X4520Y21768D01*
X4526Y21772D01*
X4531Y21774D01*
X4531Y21775D01*
X4532D01*
X4539Y21777D01*
X4548Y21779D01*
X4566Y21783D01*
X4585Y21785D01*
X4604Y21787D01*
X4614D01*
X4622Y21788D01*
X4630D01*
X4636Y21789D01*
X4864D01*
Y21284D01*
D02*
G37*
G36*
X2944Y21284D02*
X2725D01*
X2713Y21285D01*
X2691D01*
X2682Y21286D01*
X2668D01*
X2663Y21286D01*
X2656D01*
X2653Y21287D01*
X2650D01*
X2635Y21289D01*
X2622Y21293D01*
X2611Y21297D01*
X2600Y21301D01*
X2592Y21305D01*
X2587Y21308D01*
X2583Y21311D01*
X2581Y21311D01*
X2571Y21319D01*
X2563Y21328D01*
X2555Y21336D01*
X2549Y21345D01*
X2544Y21352D01*
X2541Y21358D01*
X2538Y21362D01*
X2538Y21363D01*
X2533Y21375D01*
X2528Y21387D01*
X2525Y21399D01*
X2524Y21409D01*
X2522Y21418D01*
X2522Y21424D01*
Y21429D01*
Y21429D01*
Y21430D01*
X2522Y21446D01*
X2525Y21461D01*
X2530Y21473D01*
X2534Y21485D01*
X2538Y21493D01*
X2543Y21500D01*
X2546Y21504D01*
X2546Y21506D01*
X2557Y21518D01*
X2568Y21527D01*
X2580Y21535D01*
X2591Y21541D01*
X2601Y21546D01*
X2610Y21550D01*
X2613Y21550D01*
X2615Y21551D01*
X2616Y21552D01*
X2617D01*
X2605Y21558D01*
X2595Y21565D01*
X2587Y21573D01*
X2579Y21579D01*
X2574Y21586D01*
X2570Y21591D01*
X2567Y21595D01*
X2566Y21596D01*
X2560Y21608D01*
X2554Y21619D01*
X2552Y21630D01*
X2549Y21640D01*
X2547Y21649D01*
X2546Y21655D01*
Y21660D01*
Y21660D01*
Y21661D01*
X2547Y21673D01*
X2549Y21684D01*
X2552Y21694D01*
X2554Y21703D01*
X2557Y21710D01*
X2560Y21716D01*
X2562Y21719D01*
X2562Y21720D01*
X2568Y21730D01*
X2575Y21738D01*
X2581Y21745D01*
X2587Y21752D01*
X2593Y21756D01*
X2597Y21760D01*
X2600Y21762D01*
X2601Y21762D01*
X2610Y21768D01*
X2619Y21773D01*
X2628Y21776D01*
X2636Y21779D01*
X2643Y21781D01*
X2648Y21783D01*
X2652Y21784D01*
X2654D01*
X2666Y21785D01*
X2680Y21787D01*
X2694Y21787D01*
X2709Y21788D01*
X2722Y21789D01*
X2944D01*
Y21284D01*
D02*
G37*
G36*
X1374Y21703D02*
X1225D01*
Y21284D01*
X1123D01*
Y21703D01*
X974D01*
Y21789D01*
X1374D01*
Y21703D01*
D02*
G37*
G36*
X2234Y21797D02*
X2256Y21795D01*
X2274Y21792D01*
X2290Y21788D01*
X2296Y21786D01*
X2303Y21784D01*
X2308Y21783D01*
X2312Y21781D01*
X2316Y21780D01*
X2319Y21779D01*
X2320Y21778D01*
X2321D01*
X2334Y21772D01*
X2347Y21765D01*
X2358Y21757D01*
X2367Y21749D01*
X2375Y21743D01*
X2382Y21737D01*
X2385Y21733D01*
X2386Y21733D01*
X2387Y21732D01*
X2397Y21720D01*
X2406Y21708D01*
X2414Y21697D01*
X2421Y21686D01*
X2426Y21676D01*
X2430Y21669D01*
X2431Y21666D01*
X2433Y21664D01*
X2433Y21663D01*
Y21663D01*
X2441Y21642D01*
X2447Y21620D01*
X2450Y21598D01*
X2453Y21578D01*
X2454Y21569D01*
X2455Y21560D01*
X2455Y21553D01*
Y21546D01*
X2456Y21540D01*
Y21536D01*
Y21534D01*
Y21533D01*
X2455Y21511D01*
X2453Y21490D01*
X2450Y21470D01*
X2446Y21452D01*
X2441Y21435D01*
X2435Y21420D01*
X2429Y21405D01*
X2422Y21393D01*
X2417Y21381D01*
X2411Y21372D01*
X2405Y21363D01*
X2400Y21356D01*
X2395Y21351D01*
X2393Y21346D01*
X2390Y21344D01*
X2390Y21343D01*
X2377Y21331D01*
X2363Y21321D01*
X2349Y21311D01*
X2334Y21304D01*
X2319Y21297D01*
X2304Y21292D01*
X2290Y21287D01*
X2275Y21284D01*
X2262Y21281D01*
X2250Y21278D01*
X2239Y21277D01*
X2229Y21276D01*
X2222Y21276D01*
X2216Y21275D01*
X2211D01*
X2191Y21276D01*
X2172Y21278D01*
X2153Y21281D01*
X2137Y21286D01*
X2121Y21291D01*
X2106Y21297D01*
X2093Y21302D01*
X2081Y21309D01*
X2070Y21316D01*
X2061Y21321D01*
X2053Y21327D01*
X2046Y21332D01*
X2040Y21337D01*
X2037Y21340D01*
X2035Y21343D01*
X2034Y21343D01*
X2022Y21357D01*
X2012Y21372D01*
X2003Y21387D01*
X1995Y21402D01*
X1989Y21418D01*
X1983Y21434D01*
X1979Y21450D01*
X1975Y21466D01*
X1973Y21480D01*
X1970Y21493D01*
X1969Y21505D01*
X1968Y21515D01*
Y21524D01*
X1967Y21531D01*
Y21534D01*
Y21536D01*
X1968Y21558D01*
X1970Y21579D01*
X1973Y21599D01*
X1977Y21618D01*
X1982Y21635D01*
X1988Y21651D01*
X1994Y21666D01*
X2000Y21678D01*
X2007Y21690D01*
X2013Y21700D01*
X2019Y21709D01*
X2024Y21716D01*
X2027Y21721D01*
X2031Y21725D01*
X2033Y21727D01*
X2034Y21728D01*
X2047Y21741D01*
X2061Y21752D01*
X2075Y21761D01*
X2090Y21769D01*
X2105Y21776D01*
X2120Y21781D01*
X2135Y21786D01*
X2148Y21789D01*
X2161Y21792D01*
X2174Y21795D01*
X2185Y21796D01*
X2194Y21797D01*
X2202D01*
X2207Y21798D01*
X2213D01*
X2234Y21797D01*
D02*
G37*
G36*
X1686D02*
X1707Y21795D01*
X1726Y21792D01*
X1742Y21788D01*
X1748Y21786D01*
X1755Y21784D01*
X1760Y21783D01*
X1764Y21781D01*
X1768Y21780D01*
X1771Y21779D01*
X1772Y21778D01*
X1773D01*
X1786Y21772D01*
X1798Y21765D01*
X1809Y21757D01*
X1819Y21749D01*
X1827Y21743D01*
X1833Y21737D01*
X1837Y21733D01*
X1838Y21733D01*
X1839Y21732D01*
X1849Y21720D01*
X1858Y21708D01*
X1866Y21697D01*
X1873Y21686D01*
X1878Y21676D01*
X1882Y21669D01*
X1883Y21666D01*
X1884Y21664D01*
X1885Y21663D01*
Y21663D01*
X1892Y21642D01*
X1898Y21620D01*
X1902Y21598D01*
X1905Y21578D01*
X1906Y21569D01*
X1906Y21560D01*
X1907Y21553D01*
Y21546D01*
X1908Y21540D01*
Y21536D01*
Y21534D01*
Y21533D01*
X1907Y21511D01*
X1905Y21490D01*
X1902Y21470D01*
X1898Y21452D01*
X1892Y21435D01*
X1887Y21420D01*
X1881Y21405D01*
X1874Y21393D01*
X1868Y21381D01*
X1863Y21372D01*
X1857Y21363D01*
X1852Y21356D01*
X1847Y21351D01*
X1844Y21346D01*
X1842Y21344D01*
X1841Y21343D01*
X1828Y21331D01*
X1814Y21321D01*
X1801Y21311D01*
X1785Y21304D01*
X1771Y21297D01*
X1755Y21292D01*
X1742Y21287D01*
X1727Y21284D01*
X1714Y21281D01*
X1701Y21278D01*
X1691Y21277D01*
X1681Y21276D01*
X1674Y21276D01*
X1668Y21275D01*
X1663D01*
X1642Y21276D01*
X1623Y21278D01*
X1605Y21281D01*
X1588Y21286D01*
X1572Y21291D01*
X1558Y21297D01*
X1545Y21302D01*
X1532Y21309D01*
X1522Y21316D01*
X1513Y21321D01*
X1505Y21327D01*
X1498Y21332D01*
X1492Y21337D01*
X1489Y21340D01*
X1486Y21343D01*
X1486Y21343D01*
X1474Y21357D01*
X1464Y21372D01*
X1454Y21387D01*
X1447Y21402D01*
X1441Y21418D01*
X1435Y21434D01*
X1430Y21450D01*
X1427Y21466D01*
X1424Y21480D01*
X1422Y21493D01*
X1421Y21505D01*
X1419Y21515D01*
Y21524D01*
X1419Y21531D01*
Y21534D01*
Y21536D01*
X1419Y21558D01*
X1422Y21579D01*
X1424Y21599D01*
X1429Y21618D01*
X1434Y21635D01*
X1440Y21651D01*
X1446Y21666D01*
X1452Y21678D01*
X1459Y21690D01*
X1465Y21700D01*
X1470Y21709D01*
X1476Y21716D01*
X1479Y21721D01*
X1483Y21725D01*
X1485Y21727D01*
X1486Y21728D01*
X1499Y21741D01*
X1513Y21752D01*
X1527Y21761D01*
X1542Y21769D01*
X1557Y21776D01*
X1572Y21781D01*
X1586Y21786D01*
X1600Y21789D01*
X1613Y21792D01*
X1626Y21795D01*
X1637Y21796D01*
X1646Y21797D01*
X1653D01*
X1659Y21798D01*
X1664D01*
X1686Y21797D01*
D02*
G37*
G36*
X5260Y21284D02*
X5212D01*
X5213Y21274D01*
X5215Y21265D01*
X5217Y21257D01*
X5220Y21251D01*
X5222Y21246D01*
X5224Y21242D01*
X5225Y21240D01*
X5226Y21239D01*
X5231Y21233D01*
X5238Y21228D01*
X5244Y21223D01*
X5252Y21219D01*
X5258Y21216D01*
X5263Y21214D01*
X5266Y21213D01*
X5268Y21212D01*
X5249Y21172D01*
X5238Y21176D01*
X5228Y21181D01*
X5219Y21187D01*
X5212Y21192D01*
X5206Y21196D01*
X5201Y21200D01*
X5199Y21202D01*
X5198Y21203D01*
X5190Y21210D01*
X5185Y21217D01*
X5180Y21224D01*
X5176Y21232D01*
X5174Y21238D01*
X5172Y21242D01*
X5170Y21246D01*
Y21246D01*
X5168Y21256D01*
X5166Y21267D01*
X5164Y21278D01*
X5164Y21288D01*
X5163Y21297D01*
Y21305D01*
Y21308D01*
Y21311D01*
Y21311D01*
Y21312D01*
Y21381D01*
X5260D01*
Y21284D01*
D02*
G37*
%LPC*%
G36*
X6447Y21703D02*
X6331D01*
X6324Y21703D01*
X6308D01*
X6301Y21702D01*
X6297D01*
X6295Y21701D01*
X6294D01*
X6285Y21699D01*
X6277Y21696D01*
X6271Y21693D01*
X6266Y21690D01*
X6261Y21686D01*
X6258Y21684D01*
X6256Y21682D01*
X6256Y21681D01*
X6251Y21675D01*
X6248Y21668D01*
X6245Y21661D01*
X6243Y21655D01*
X6242Y21649D01*
X6242Y21644D01*
Y21641D01*
Y21640D01*
X6242Y21632D01*
X6243Y21625D01*
X6245Y21618D01*
X6247Y21612D01*
X6249Y21608D01*
X6251Y21605D01*
X6252Y21603D01*
X6253Y21602D01*
X6257Y21597D01*
X6261Y21593D01*
X6271Y21586D01*
X6275Y21584D01*
X6278Y21582D01*
X6280Y21581D01*
X6281D01*
X6285Y21580D01*
X6291Y21579D01*
X6296Y21578D01*
X6303Y21577D01*
X6318Y21577D01*
X6334Y21576D01*
X6348Y21575D01*
X6447D01*
Y21703D01*
D02*
G37*
G36*
X4762D02*
X4645D01*
X4639Y21703D01*
X4623D01*
X4616Y21702D01*
X4612D01*
X4609Y21701D01*
X4609D01*
X4600Y21699D01*
X4592Y21696D01*
X4585Y21693D01*
X4580Y21690D01*
X4576Y21686D01*
X4572Y21684D01*
X4571Y21682D01*
X4570Y21681D01*
X4566Y21675D01*
X4562Y21668D01*
X4560Y21661D01*
X4558Y21655D01*
X4557Y21649D01*
X4556Y21644D01*
Y21641D01*
Y21640D01*
X4557Y21632D01*
X4558Y21625D01*
X4560Y21618D01*
X4561Y21612D01*
X4564Y21608D01*
X4566Y21605D01*
X4566Y21603D01*
X4567Y21602D01*
X4572Y21597D01*
X4576Y21593D01*
X4585Y21586D01*
X4589Y21584D01*
X4593Y21582D01*
X4595Y21581D01*
X4596D01*
X4599Y21580D01*
X4605Y21579D01*
X4611Y21578D01*
X4617Y21577D01*
X4633Y21577D01*
X4648Y21576D01*
X4663Y21575D01*
X4762D01*
Y21703D01*
D02*
G37*
G36*
X2842Y21705D02*
X2740D01*
X2732Y21704D01*
X2713D01*
X2709Y21703D01*
X2701D01*
X2698Y21703D01*
X2697D01*
X2689Y21701D01*
X2681Y21699D01*
X2674Y21696D01*
X2668Y21693D01*
X2664Y21690D01*
X2661Y21687D01*
X2659Y21686D01*
X2659Y21685D01*
X2654Y21679D01*
X2651Y21673D01*
X2648Y21667D01*
X2647Y21661D01*
X2646Y21655D01*
X2646Y21651D01*
Y21648D01*
Y21647D01*
X2646Y21639D01*
X2648Y21631D01*
X2651Y21624D01*
X2653Y21618D01*
X2656Y21613D01*
X2659Y21610D01*
X2660Y21608D01*
X2661Y21607D01*
X2667Y21602D01*
X2673Y21598D01*
X2680Y21596D01*
X2686Y21593D01*
X2693Y21591D01*
X2697Y21590D01*
X2700Y21590D01*
X2705D01*
X2709Y21589D01*
X2732D01*
X2744Y21588D01*
X2842D01*
Y21705D01*
D02*
G37*
G36*
Y21504D02*
X2736D01*
X2726Y21504D01*
X2717Y21503D01*
X2708D01*
X2701Y21502D01*
X2694Y21502D01*
X2689Y21501D01*
X2684Y21500D01*
X2681Y21499D01*
X2675Y21499D01*
X2671Y21497D01*
X2670D01*
X2663Y21494D01*
X2656Y21491D01*
X2651Y21487D01*
X2646Y21483D01*
X2643Y21480D01*
X2640Y21477D01*
X2639Y21475D01*
X2638Y21474D01*
X2635Y21467D01*
X2632Y21461D01*
X2630Y21455D01*
X2628Y21448D01*
X2627Y21443D01*
X2627Y21439D01*
Y21436D01*
Y21435D01*
X2627Y21426D01*
X2629Y21417D01*
X2631Y21410D01*
X2634Y21404D01*
X2637Y21399D01*
X2639Y21395D01*
X2640Y21393D01*
X2641Y21392D01*
X2647Y21387D01*
X2653Y21383D01*
X2659Y21379D01*
X2665Y21376D01*
X2670Y21375D01*
X2675Y21373D01*
X2678Y21372D01*
X2678D01*
X2681Y21372D01*
X2686D01*
X2695Y21371D01*
X2707Y21370D01*
X2718D01*
X2729Y21370D01*
X2842D01*
Y21504D01*
D02*
G37*
G36*
X2217Y21711D02*
X2211D01*
X2199Y21711D01*
X2188Y21709D01*
X2178Y21708D01*
X2169Y21705D01*
X2152Y21698D01*
X2144Y21694D01*
X2137Y21690D01*
X2131Y21686D01*
X2126Y21682D01*
X2121Y21679D01*
X2117Y21675D01*
X2114Y21672D01*
X2112Y21671D01*
X2111Y21669D01*
X2110Y21668D01*
X2104Y21660D01*
X2097Y21650D01*
X2092Y21641D01*
X2088Y21630D01*
X2081Y21608D01*
X2077Y21587D01*
X2075Y21577D01*
X2074Y21568D01*
X2073Y21560D01*
X2073Y21553D01*
X2072Y21546D01*
Y21542D01*
Y21539D01*
Y21538D01*
X2073Y21522D01*
X2073Y21507D01*
X2075Y21493D01*
X2078Y21480D01*
X2081Y21468D01*
X2084Y21457D01*
X2088Y21448D01*
X2092Y21439D01*
X2095Y21431D01*
X2099Y21424D01*
X2102Y21418D01*
X2105Y21413D01*
X2108Y21410D01*
X2110Y21407D01*
X2110Y21406D01*
X2111Y21405D01*
X2118Y21397D01*
X2127Y21391D01*
X2135Y21385D01*
X2143Y21380D01*
X2152Y21376D01*
X2160Y21372D01*
X2176Y21367D01*
X2190Y21364D01*
X2196Y21363D01*
X2201Y21362D01*
X2205Y21362D01*
X2211D01*
X2222Y21362D01*
X2233Y21364D01*
X2243Y21366D01*
X2253Y21369D01*
X2270Y21375D01*
X2284Y21384D01*
X2291Y21388D01*
X2296Y21392D01*
X2301Y21396D01*
X2304Y21399D01*
X2307Y21402D01*
X2309Y21404D01*
X2311Y21405D01*
X2312Y21406D01*
X2318Y21415D01*
X2325Y21424D01*
X2330Y21434D01*
X2334Y21445D01*
X2342Y21467D01*
X2346Y21488D01*
X2347Y21498D01*
X2349Y21507D01*
X2350Y21515D01*
X2350Y21523D01*
X2351Y21528D01*
Y21533D01*
Y21536D01*
Y21536D01*
X2350Y21553D01*
X2350Y21567D01*
X2347Y21581D01*
X2345Y21594D01*
X2342Y21606D01*
X2339Y21617D01*
X2336Y21626D01*
X2332Y21635D01*
X2328Y21643D01*
X2325Y21649D01*
X2322Y21655D01*
X2319Y21660D01*
X2317Y21663D01*
X2315Y21666D01*
X2314Y21667D01*
X2313Y21668D01*
X2306Y21676D01*
X2298Y21682D01*
X2289Y21688D01*
X2281Y21693D01*
X2272Y21698D01*
X2264Y21701D01*
X2248Y21706D01*
X2233Y21709D01*
X2227Y21710D01*
X2221Y21711D01*
X2217Y21711D01*
D02*
G37*
G36*
X1669D02*
X1663D01*
X1651Y21711D01*
X1640Y21709D01*
X1630Y21708D01*
X1621Y21705D01*
X1604Y21698D01*
X1596Y21694D01*
X1589Y21690D01*
X1583Y21686D01*
X1578Y21682D01*
X1573Y21679D01*
X1569Y21675D01*
X1566Y21672D01*
X1564Y21671D01*
X1563Y21669D01*
X1562Y21668D01*
X1556Y21660D01*
X1549Y21650D01*
X1544Y21641D01*
X1540Y21630D01*
X1533Y21608D01*
X1529Y21587D01*
X1527Y21577D01*
X1526Y21568D01*
X1525Y21560D01*
X1524Y21553D01*
X1524Y21546D01*
Y21542D01*
Y21539D01*
Y21538D01*
X1524Y21522D01*
X1525Y21507D01*
X1527Y21493D01*
X1529Y21480D01*
X1532Y21468D01*
X1536Y21457D01*
X1540Y21448D01*
X1543Y21439D01*
X1547Y21431D01*
X1551Y21424D01*
X1554Y21418D01*
X1557Y21413D01*
X1559Y21410D01*
X1562Y21407D01*
X1562Y21406D01*
X1563Y21405D01*
X1570Y21397D01*
X1578Y21391D01*
X1587Y21385D01*
X1595Y21380D01*
X1604Y21376D01*
X1612Y21372D01*
X1628Y21367D01*
X1642Y21364D01*
X1648Y21363D01*
X1653Y21362D01*
X1657Y21362D01*
X1663D01*
X1674Y21362D01*
X1685Y21364D01*
X1695Y21366D01*
X1704Y21369D01*
X1722Y21375D01*
X1736Y21384D01*
X1742Y21388D01*
X1747Y21392D01*
X1753Y21396D01*
X1756Y21399D01*
X1759Y21402D01*
X1761Y21404D01*
X1763Y21405D01*
X1763Y21406D01*
X1770Y21415D01*
X1777Y21424D01*
X1782Y21434D01*
X1786Y21445D01*
X1793Y21467D01*
X1798Y21488D01*
X1799Y21498D01*
X1801Y21507D01*
X1801Y21515D01*
X1802Y21523D01*
X1803Y21528D01*
Y21533D01*
Y21536D01*
Y21536D01*
X1802Y21553D01*
X1801Y21567D01*
X1799Y21581D01*
X1797Y21594D01*
X1794Y21606D01*
X1791Y21617D01*
X1788Y21626D01*
X1784Y21635D01*
X1780Y21643D01*
X1777Y21649D01*
X1774Y21655D01*
X1771Y21660D01*
X1769Y21663D01*
X1766Y21666D01*
X1766Y21667D01*
X1765Y21668D01*
X1758Y21676D01*
X1750Y21682D01*
X1741Y21688D01*
X1733Y21693D01*
X1724Y21698D01*
X1715Y21701D01*
X1699Y21706D01*
X1685Y21709D01*
X1679Y21710D01*
X1673Y21711D01*
X1669Y21711D01*
D02*
G37*
%LPD*%
D10*
X19626Y33917D02*
X19862D01*
X19626Y33287D02*
X19862D01*
Y33917D01*
X19787Y33287D02*
Y33917D01*
X19626Y34819D02*
X19862D01*
X19626Y34189D02*
X19862D01*
Y34819D01*
X19787Y34189D02*
Y34819D01*
X11949Y25965D02*
X14114D01*
X11949Y28130D02*
X14114D01*
Y25965D02*
Y28130D01*
X11949Y25965D02*
Y28130D01*
X12267Y33766D02*
X13605D01*
X12267Y34475D02*
X13605D01*
Y33766D02*
Y33786D01*
X12267D02*
X12779D01*
X13605Y34455D02*
Y34475D01*
X12267Y34455D02*
X12779D01*
X12080Y33658D02*
Y33756D01*
X12011Y33707D02*
X12149D01*
X12267Y32605D02*
X13605D01*
X12267Y31896D02*
X13605D01*
X12267Y32585D02*
Y32605D01*
X13094Y32585D02*
X13605D01*
X12267Y31896D02*
Y31916D01*
X13094D02*
X13605D01*
X13792Y32615D02*
Y32713D01*
X13723Y32664D02*
X13861D01*
X11076Y30380D02*
X12414D01*
X11076Y31089D02*
X12414D01*
Y30380D02*
Y30400D01*
X11076D02*
X11588D01*
X12414Y31069D02*
Y31089D01*
X11076Y31069D02*
X11588D01*
X10889Y30272D02*
Y30370D01*
X10820Y30321D02*
X10958D01*
X8920Y31089D02*
X10259D01*
X8920Y30380D02*
X10259D01*
X8920Y31069D02*
Y31089D01*
X9747Y31069D02*
X10259D01*
X8920Y30380D02*
Y30400D01*
X9747D02*
X10259D01*
X10446Y31099D02*
Y31197D01*
X10377Y31148D02*
X10515D01*
X8954Y30084D02*
X10292D01*
X8954Y29375D02*
X10292D01*
X8954Y30064D02*
Y30084D01*
X9780Y30064D02*
X10292D01*
X8954Y29375D02*
Y29395D01*
X9780D02*
X10292D01*
X10479Y30093D02*
Y30192D01*
X10410Y30143D02*
X10548D01*
D11*
X14439Y25453D02*
G03*
X14439Y25453I-49J0D01*
G01*
D12*
X11004Y20354D02*
Y22323D01*
Y20354D02*
X15925D01*
Y22323D01*
X11004D02*
X15925D01*
X10620Y36301D02*
X10420D01*
X10520D01*
Y36901D01*
X10620Y36801D01*
X10120D02*
X10020Y36901D01*
X9820D01*
X9720Y36801D01*
Y36401D01*
X9820Y36301D01*
X10020D01*
X10120Y36401D01*
Y36801D01*
X9520Y36301D02*
Y36901D01*
Y36501D02*
X9220Y36701D01*
X9520Y36501D02*
X9220Y36301D01*
X7510Y33896D02*
Y33696D01*
Y33796D01*
X6911D01*
X7011Y33896D01*
Y33397D02*
X6911Y33297D01*
Y33097D01*
X7011Y32997D01*
X7411D01*
X7510Y33097D01*
Y33297D01*
X7411Y33397D01*
X7011D01*
X7510Y32797D02*
X6911D01*
X7311D02*
X7111Y32497D01*
X7311Y32797D02*
X7510Y32497D01*
X5452Y26555D02*
X5352Y26655D01*
X5152D01*
X5052Y26555D01*
Y26155D01*
X5152Y26055D01*
X5352D01*
X5452Y26155D01*
Y26555D01*
X4852Y26055D02*
Y26155D01*
X4752D01*
Y26055D01*
X4852D01*
X4353D02*
X4153D01*
X4253D01*
Y26655D01*
X4353Y26555D01*
X3853Y26455D02*
Y26155D01*
X3753Y26055D01*
X3453D01*
Y26455D01*
X2853Y26655D02*
X3253D01*
Y26355D01*
X3053D01*
X3253D01*
Y26055D01*
X5270Y25019D02*
X5070D01*
X5170D01*
Y25619D01*
X5270Y25519D01*
X4770D02*
X4670Y25619D01*
X4471D01*
X4371Y25519D01*
Y25119D01*
X4471Y25019D01*
X4670D01*
X4770Y25119D01*
Y25519D01*
X4171Y25019D02*
Y25619D01*
Y25219D02*
X3871Y25419D01*
X4171Y25219D02*
X3871Y25019D01*
X7102Y24190D02*
X6902D01*
X7002D01*
Y24790D01*
X7102Y24690D01*
X6602D02*
X6502Y24790D01*
X6302D01*
X6202Y24690D01*
Y24290D01*
X6302Y24190D01*
X6502D01*
X6602Y24290D01*
Y24690D01*
X6003Y24190D02*
Y24790D01*
Y24390D02*
X5703Y24590D01*
X6003Y24390D02*
X5703Y24190D01*
X8676Y23360D02*
X8476D01*
X8576D01*
Y23959D01*
X8676Y23859D01*
X8176D02*
X8076Y23959D01*
X7876D01*
X7776Y23859D01*
Y23460D01*
X7876Y23360D01*
X8076D01*
X8176Y23460D01*
Y23859D01*
X7576Y23360D02*
Y23959D01*
Y23560D02*
X7277Y23760D01*
X7576Y23560D02*
X7277Y23360D01*
X8839Y23019D02*
X8739Y23119D01*
X8539D01*
X8439Y23019D01*
Y22620D01*
X8539Y22520D01*
X8739D01*
X8839Y22620D01*
Y23019D01*
X8240Y22520D02*
Y22620D01*
X8140D01*
Y22520D01*
X8240D01*
X7740D02*
X7540D01*
X7640D01*
Y23119D01*
X7740Y23019D01*
X7240Y22920D02*
Y22620D01*
X7140Y22520D01*
X6840D01*
Y22920D01*
X6240Y23119D02*
X6640D01*
Y22820D01*
X6440D01*
X6640D01*
Y22520D01*
X17928Y30177D02*
X17828Y30277D01*
X17628D01*
X17528Y30177D01*
Y29777D01*
X17628Y29677D01*
X17828D01*
X17928Y29777D01*
Y30177D01*
X17328Y29677D02*
Y29777D01*
X17228D01*
Y29677D01*
X17328D01*
X16828D02*
X16628D01*
X16728D01*
Y30277D01*
X16828Y30177D01*
X16328Y30077D02*
Y29777D01*
X16228Y29677D01*
X15929D01*
Y30077D01*
X15329Y30277D02*
X15729D01*
Y29977D01*
X15529D01*
X15729D01*
Y29677D01*
X17141Y27967D02*
Y27767D01*
Y27867D01*
X16541D01*
X16641Y27967D01*
Y27467D02*
X16541Y27367D01*
Y27167D01*
X16641Y27067D01*
X17041D01*
X17141Y27167D01*
Y27367D01*
X17041Y27467D01*
X16641D01*
X17141Y26867D02*
X16541D01*
X16941D02*
X16741Y26567D01*
X16941Y26867D02*
X17141Y26567D01*
X22553Y22194D02*
X22353D01*
X22453D01*
Y22793D01*
X22553Y22694D01*
X21653Y22793D02*
X22053D01*
Y22494D01*
X21853Y22594D01*
X21753D01*
X21653Y22494D01*
Y22294D01*
X21753Y22194D01*
X21953D01*
X22053Y22294D01*
X21453Y21994D02*
Y22594D01*
X21153D01*
X21053Y22494D01*
Y22294D01*
X21153Y22194D01*
X21453D01*
X20453Y22793D02*
X20853D01*
Y22494D01*
X20653D01*
X20853D01*
Y22194D01*
X22478Y23198D02*
X22278D01*
X22378D01*
Y23798D01*
X22478Y23698D01*
X21579Y23798D02*
X21978D01*
Y23498D01*
X21778Y23598D01*
X21678D01*
X21579Y23498D01*
Y23298D01*
X21678Y23198D01*
X21878D01*
X21978Y23298D01*
X21379Y22998D02*
Y23598D01*
X21079D01*
X20979Y23498D01*
Y23298D01*
X21079Y23198D01*
X21379D01*
X20379Y23798D02*
X20779D01*
Y23498D01*
X20579D01*
X20779D01*
Y23198D01*
X18636Y19942D02*
X19036D01*
X18636Y20342D01*
Y20442D01*
X18736Y20542D01*
X18936D01*
X19036Y20442D01*
X18037Y19942D02*
X18436D01*
X18037Y20342D01*
Y20442D01*
X18137Y20542D01*
X18336D01*
X18436Y20442D01*
X17837Y19742D02*
Y20342D01*
X17537D01*
X17437Y20242D01*
Y20042D01*
X17537Y19942D01*
X17837D01*
X16837Y20542D02*
X17237D01*
Y20242D01*
X17037D01*
X17237D01*
Y19942D01*
X9520Y19998D02*
X9919D01*
X9520Y20398D01*
Y20498D01*
X9620Y20598D01*
X9819D01*
X9919Y20498D01*
X8920Y19998D02*
X9320D01*
X8920Y20398D01*
Y20498D01*
X9020Y20598D01*
X9220D01*
X9320Y20498D01*
X8720Y19798D02*
Y20398D01*
X8420D01*
X8320Y20298D01*
Y20098D01*
X8420Y19998D01*
X8720D01*
X7720Y20598D02*
X8120D01*
Y20298D01*
X7920D01*
X8120D01*
Y19998D01*
X22560Y33817D02*
X22760D01*
X22660D01*
Y33217D01*
X22560Y33317D01*
X23060D02*
X23160Y33217D01*
X23360D01*
X23460Y33317D01*
Y33717D01*
X23360Y33817D01*
X23160D01*
X23060Y33717D01*
Y33317D01*
X23659D02*
X23759Y33217D01*
X23959D01*
X24059Y33317D01*
Y33717D01*
X23959Y33817D01*
X23759D01*
X23659Y33717D01*
Y33317D01*
X24259Y34016D02*
Y33417D01*
X24559D01*
X24659Y33517D01*
Y33717D01*
X24559Y33817D01*
X24259D01*
X25259Y33217D02*
X24859D01*
Y33517D01*
X25059D01*
X24859D01*
Y33817D01*
X22560Y34797D02*
X22760D01*
X22660D01*
Y34197D01*
X22560Y34297D01*
X23060Y34797D02*
Y34197D01*
X23260Y34397D01*
X23459Y34197D01*
Y34797D01*
X6950Y34773D02*
Y34873D01*
X7050D01*
Y34773D01*
X6950D01*
X6958Y35389D02*
Y35489D01*
X7058D01*
Y35389D01*
X6958D01*
X7682Y28907D02*
Y29007D01*
X7782D01*
Y28907D01*
X7682D01*
X7682Y29495D02*
Y29595D01*
X7781D01*
Y29495D01*
X7682D01*
X6833Y28304D02*
Y28404D01*
X6933D01*
Y28304D01*
X6833D01*
X5730Y26831D02*
Y26931D01*
X5830D01*
Y26831D01*
X5730D01*
X375Y28873D02*
Y28973D01*
X475D01*
Y28873D01*
X375D01*
X383Y28317D02*
Y28417D01*
X483D01*
Y28317D01*
X383D01*
X1577Y26801D02*
Y26901D01*
X1677D01*
Y26801D01*
X1577D01*
X7372Y25021D02*
Y25621D01*
X7072D01*
X6972Y25521D01*
Y25321D01*
X7072Y25221D01*
X7372D01*
X7172D02*
X6972Y25021D01*
X6772D02*
X6572D01*
X6672D01*
Y25621D01*
X6772Y25521D01*
X5872Y25021D02*
X6272D01*
X5872Y25421D01*
Y25521D01*
X5972Y25621D01*
X6172D01*
X6272Y25521D01*
X10820Y34457D02*
Y35056D01*
X10520D01*
X10420Y34956D01*
Y34756D01*
X10520Y34656D01*
X10820D01*
X10620D02*
X10420Y34457D01*
X10220D02*
X10020D01*
X10120D01*
Y35056D01*
X10220Y34956D01*
X9721D02*
X9621Y35056D01*
X9421D01*
X9321Y34956D01*
Y34557D01*
X9421Y34457D01*
X9621D01*
X9721Y34557D01*
Y34956D01*
X9750Y29200D02*
X9150D01*
Y28900D01*
X9250Y28800D01*
X9450D01*
X9550Y28900D01*
Y29200D01*
Y29000D02*
X9750Y28800D01*
X9250Y28600D02*
X9150Y28500D01*
Y28300D01*
X9250Y28200D01*
X9350D01*
X9450Y28300D01*
X9550Y28200D01*
X9650D01*
X9750Y28300D01*
Y28500D01*
X9650Y28600D01*
X9550D01*
X9450Y28500D01*
X9350Y28600D01*
X9250D01*
X9450Y28500D02*
Y28300D01*
X479Y27243D02*
X1079D01*
Y26943D01*
X979Y26843D01*
X579D01*
X479Y26943D01*
Y27243D01*
Y26643D02*
X1079D01*
Y26343D01*
X979Y26243D01*
X579D01*
X479Y26343D01*
Y26643D01*
X1079Y26043D02*
Y25843D01*
Y25943D01*
X479D01*
X579Y26043D01*
X13986Y20177D02*
Y20077D01*
X13786Y19877D01*
X13586Y20077D01*
Y20177D01*
X13786Y19877D02*
Y19577D01*
X13086D02*
Y20177D01*
X13386Y19877D01*
X12986D01*
X15265Y22882D02*
X15165D01*
X14965Y23082D01*
X15165Y23282D01*
X15265D01*
X14965Y23082D02*
X14665D01*
X15165Y23481D02*
X15265Y23581D01*
Y23781D01*
X15165Y23881D01*
X15065D01*
X14965Y23781D01*
Y23681D01*
Y23781D01*
X14865Y23881D01*
X14765D01*
X14665Y23781D01*
Y23581D01*
X14765Y23481D01*
X19028Y23832D02*
X18629D01*
X18429Y24032D01*
X18629Y24232D01*
X19028D01*
Y24432D02*
X18429D01*
Y24731D01*
X18529Y24831D01*
X18929D01*
X19028Y24731D01*
Y24432D01*
X18929Y25031D02*
X19028Y25131D01*
Y25331D01*
X18929Y25431D01*
X18829D01*
X18729Y25331D01*
Y25231D01*
Y25331D01*
X18629Y25431D01*
X18529D01*
X18429Y25331D01*
Y25131D01*
X18529Y25031D01*
X9302Y27273D02*
Y26673D01*
X9602D01*
X9702Y26773D01*
Y26973D01*
X9602Y27073D01*
X9302D01*
X9502D02*
X9702Y27273D01*
X9902D02*
X10102D01*
X10002D01*
Y26673D01*
X9902Y26773D01*
X10402Y27273D02*
X10602D01*
X10502D01*
Y26673D01*
X10402Y26773D01*
X10708Y23311D02*
Y23911D01*
X10408D01*
X10308Y23811D01*
Y23611D01*
X10408Y23511D01*
X10708D01*
X10508D02*
X10308Y23311D01*
X10108Y23411D02*
X10008Y23311D01*
X9808D01*
X9708Y23411D01*
Y23811D01*
X9808Y23911D01*
X10008D01*
X10108Y23811D01*
Y23711D01*
X10008Y23611D01*
X9708D01*
X16413Y29234D02*
X15813D01*
Y28934D01*
X15913Y28835D01*
X16113D01*
X16213Y28934D01*
Y29234D01*
Y29034D02*
X16413Y28835D01*
X15813Y28635D02*
Y28235D01*
X15913D01*
X16313Y28635D01*
X16413D01*
X13941Y23570D02*
Y24170D01*
X13641D01*
X13541Y24070D01*
Y23870D01*
X13641Y23770D01*
X13941D01*
X13741D02*
X13541Y23570D01*
X12941Y24170D02*
X13141Y24070D01*
X13341Y23870D01*
Y23670D01*
X13241Y23570D01*
X13041D01*
X12941Y23670D01*
Y23770D01*
X13041Y23870D01*
X13341D01*
X8621Y24192D02*
Y24792D01*
X8322D01*
X8222Y24692D01*
Y24492D01*
X8322Y24392D01*
X8621D01*
X8422D02*
X8222Y24192D01*
X8022Y24692D02*
X7922Y24792D01*
X7722D01*
X7622Y24692D01*
Y24592D01*
X7722Y24492D01*
X7822D01*
X7722D01*
X7622Y24392D01*
Y24292D01*
X7722Y24192D01*
X7922D01*
X8022Y24292D01*
X7534Y32105D02*
X6935D01*
Y31805D01*
X7035Y31705D01*
X7234D01*
X7334Y31805D01*
Y32105D01*
Y31905D02*
X7534Y31705D01*
Y31105D02*
Y31505D01*
X7135Y31105D01*
X7035D01*
X6935Y31205D01*
Y31405D01*
X7035Y31505D01*
X21079Y34792D02*
Y34192D01*
X21379D01*
X21479Y34292D01*
Y34492D01*
X21379Y34592D01*
X21079D01*
X21279D02*
X21479Y34792D01*
X21679D02*
X21879D01*
X21779D01*
Y34192D01*
X21679Y34292D01*
X15583Y29026D02*
Y28426D01*
X15283D01*
X15183Y28526D01*
Y28926D01*
X15283Y29026D01*
X15583D01*
X14584Y28426D02*
X14983D01*
X14584Y28826D01*
Y28926D01*
X14684Y29026D01*
X14883D01*
X14983Y28926D01*
X13443Y33486D02*
Y32886D01*
X13144D01*
X13044Y32986D01*
Y33386D01*
X13144Y33486D01*
X13443D01*
X12844Y32886D02*
X12644D01*
X12744D01*
Y33486D01*
X12844Y33386D01*
X10347Y23015D02*
X10447Y23115D01*
X10647D01*
X10747Y23015D01*
Y22615D01*
X10647Y22515D01*
X10447D01*
X10347Y22615D01*
X9748Y22515D02*
X10148D01*
X9748Y22915D01*
Y23015D01*
X9848Y23115D01*
X10048D01*
X10148Y23015D01*
X9548Y22515D02*
X9348D01*
X9448D01*
Y23115D01*
X9548Y23015D01*
X8244Y21531D02*
X8344Y21631D01*
X8544D01*
X8644Y21531D01*
Y21131D01*
X8544Y21031D01*
X8344D01*
X8244Y21131D01*
X8044Y21031D02*
X7844D01*
X7944D01*
Y21631D01*
X8044Y21531D01*
X7544D02*
X7444Y21631D01*
X7245D01*
X7145Y21531D01*
Y21431D01*
X7245Y21331D01*
X7145Y21231D01*
Y21131D01*
X7245Y21031D01*
X7444D01*
X7544Y21131D01*
Y21231D01*
X7444Y21331D01*
X7544Y21431D01*
Y21531D01*
X7444Y21331D02*
X7245D01*
X19357Y21525D02*
X19457Y21625D01*
X19657D01*
X19757Y21525D01*
Y21125D01*
X19657Y21025D01*
X19457D01*
X19357Y21125D01*
X19157Y21025D02*
X18957D01*
X19057D01*
Y21625D01*
X19157Y21525D01*
X18257Y21625D02*
X18657D01*
Y21325D01*
X18457Y21425D01*
X18357D01*
X18257Y21325D01*
Y21125D01*
X18357Y21025D01*
X18557D01*
X18657Y21125D01*
X19056Y22540D02*
X19156Y22640D01*
X19356D01*
X19456Y22540D01*
Y22140D01*
X19356Y22040D01*
X19156D01*
X19056Y22140D01*
X18856Y22040D02*
X18656D01*
X18756D01*
Y22640D01*
X18856Y22540D01*
X18057Y22040D02*
Y22640D01*
X18356Y22340D01*
X17957D01*
X19081Y23530D02*
X19181Y23630D01*
X19381D01*
X19481Y23530D01*
Y23130D01*
X19381Y23030D01*
X19181D01*
X19081Y23130D01*
X18881Y23030D02*
X18681D01*
X18781D01*
Y23630D01*
X18881Y23530D01*
X17982Y23030D02*
X18382D01*
X17982Y23430D01*
Y23530D01*
X18082Y23630D01*
X18282D01*
X18382Y23530D01*
X13854Y24814D02*
X13954Y24914D01*
X14154D01*
X14254Y24814D01*
Y24414D01*
X14154Y24314D01*
X13954D01*
X13854Y24414D01*
X13255Y24314D02*
X13655D01*
X13255Y24714D01*
Y24814D01*
X13355Y24914D01*
X13555D01*
X13655Y24814D01*
X12655Y24314D02*
X13055D01*
X12655Y24714D01*
Y24814D01*
X12755Y24914D01*
X12955D01*
X13055Y24814D01*
X14797Y31221D02*
X14897Y31121D01*
Y30921D01*
X14797Y30821D01*
X14397D01*
X14297Y30921D01*
Y31121D01*
X14397Y31221D01*
X14297Y31821D02*
Y31421D01*
X14697Y31821D01*
X14797D01*
X14897Y31721D01*
Y31521D01*
X14797Y31421D01*
Y32021D02*
X14897Y32121D01*
Y32321D01*
X14797Y32421D01*
X14397D01*
X14297Y32321D01*
Y32121D01*
X14397Y32021D01*
X14797D01*
X9781Y25541D02*
X9881Y25641D01*
X10081D01*
X10181Y25541D01*
Y25141D01*
X10081Y25042D01*
X9881D01*
X9781Y25141D01*
X9581Y25042D02*
X9381D01*
X9481D01*
Y25641D01*
X9581Y25541D01*
X9081Y25141D02*
X8981Y25042D01*
X8781D01*
X8681Y25141D01*
Y25541D01*
X8781Y25641D01*
X8981D01*
X9081Y25541D01*
Y25441D01*
X8981Y25341D01*
X8681D01*
X16890Y24640D02*
X16990Y24540D01*
Y24340D01*
X16890Y24240D01*
X16490D01*
X16390Y24340D01*
Y24540D01*
X16490Y24640D01*
X16390Y24840D02*
Y25040D01*
Y24940D01*
X16990D01*
X16890Y24840D01*
X16990Y25340D02*
Y25740D01*
X16890D01*
X16490Y25340D01*
X16390D01*
X9690Y27544D02*
X9590Y27444D01*
X9390D01*
X9290Y27544D01*
Y27944D01*
X9390Y28044D01*
X9590D01*
X9690Y27944D01*
X9890Y28044D02*
X10089D01*
X9990D01*
Y27444D01*
X9890Y27544D01*
X10789Y27444D02*
X10589Y27544D01*
X10389Y27744D01*
Y27944D01*
X10489Y28044D01*
X10689D01*
X10789Y27944D01*
Y27844D01*
X10689Y27744D01*
X10389D01*
X6458Y26405D02*
X6558Y26305D01*
Y26105D01*
X6458Y26005D01*
X6058D01*
X5958Y26105D01*
Y26305D01*
X6058Y26405D01*
X5958Y26605D02*
Y26805D01*
Y26705D01*
X6558D01*
X6458Y26605D01*
X12335Y30052D02*
X12435Y30152D01*
X12635D01*
X12735Y30052D01*
Y29652D01*
X12635Y29552D01*
X12435D01*
X12335Y29652D01*
X12135Y30152D02*
X11735D01*
Y30052D01*
X12135Y29652D01*
Y29552D01*
X14700Y34331D02*
X14800Y34430D01*
X15000D01*
X15100Y34331D01*
Y33931D01*
X15000Y33831D01*
X14800D01*
X14700Y33931D01*
X14100Y34430D02*
X14300Y34331D01*
X14500Y34131D01*
Y33931D01*
X14400Y33831D01*
X14200D01*
X14100Y33931D01*
Y34031D01*
X14200Y34131D01*
X14500D01*
X13450Y30940D02*
X13550Y31040D01*
X13750D01*
X13850Y30940D01*
Y30540D01*
X13750Y30440D01*
X13550D01*
X13450Y30540D01*
X12850Y31040D02*
X13250D01*
Y30740D01*
X13050Y30840D01*
X12950D01*
X12850Y30740D01*
Y30540D01*
X12950Y30440D01*
X13150D01*
X13250Y30540D01*
X8072Y30782D02*
X8172Y30882D01*
X8372D01*
X8472Y30782D01*
Y30382D01*
X8372Y30282D01*
X8172D01*
X8072Y30382D01*
X7572Y30282D02*
Y30882D01*
X7872Y30582D01*
X7472D01*
X14696Y33092D02*
X14796Y33192D01*
X14996D01*
X15096Y33092D01*
Y32692D01*
X14996Y32592D01*
X14796D01*
X14696Y32692D01*
X14497Y33092D02*
X14397Y33192D01*
X14197D01*
X14097Y33092D01*
Y32992D01*
X14197Y32892D01*
X14297D01*
X14197D01*
X14097Y32792D01*
Y32692D01*
X14197Y32592D01*
X14397D01*
X14497Y32692D01*
X21479Y33416D02*
X21379Y33316D01*
X21179D01*
X21079Y33416D01*
Y33816D01*
X21179Y33916D01*
X21379D01*
X21479Y33816D01*
X22079Y33916D02*
X21679D01*
X22079Y33516D01*
Y33416D01*
X21979Y33316D01*
X21779D01*
X21679Y33416D01*
D14*
X8219Y26547D02*
X8498Y26825D01*
X8776Y25990D02*
X9054Y26269D01*
X8498Y26825D02*
X9054Y26269D01*
X7454Y25782D02*
X8010Y25225D01*
X7454Y25782D02*
X7732Y26060D01*
X8010Y25225D02*
X8289Y25503D01*
X10974Y22470D02*
X11043Y22402D01*
X11368D01*
X10974Y22470D02*
Y23120D01*
X11043Y23189D01*
X11368D01*
X12382D02*
X12451Y23120D01*
X12057Y23189D02*
X12382D01*
X12451Y22471D02*
Y23120D01*
X12382Y22402D02*
X12451Y22471D01*
X12057Y22402D02*
X12382D01*
X8846Y21017D02*
X8915Y20949D01*
X9240D01*
X8846Y21017D02*
Y21667D01*
X8915Y21736D01*
X9240D01*
X10254D02*
X10323Y21667D01*
X9929Y21736D02*
X10254D01*
X10323Y21018D02*
Y21667D01*
X10254Y20949D02*
X10323Y21018D01*
X9929Y20949D02*
X10254D01*
X18037Y21721D02*
X18106Y21652D01*
X17712Y21721D02*
X18037D01*
X18106Y21002D02*
Y21652D01*
X18037Y20933D02*
X18106Y21002D01*
X17712Y20933D02*
X18037D01*
X16629Y21002D02*
X16698Y20933D01*
X17023D01*
X16629Y21002D02*
Y21652D01*
X16698Y21721D01*
X17023D01*
X17770Y23121D02*
X17839Y23052D01*
X17445Y23121D02*
X17770D01*
X17839Y22402D02*
Y23052D01*
X17770Y22333D02*
X17839Y22402D01*
X17445Y22333D02*
X17770D01*
X16362Y22402D02*
X16431Y22333D01*
X16756D01*
X16362Y22402D02*
Y23052D01*
X16431Y23121D01*
X16756D01*
X14449Y25492D02*
X14518Y25561D01*
X14449Y25167D02*
Y25492D01*
X14518Y25561D02*
X15167D01*
X15236Y25492D01*
Y25167D02*
Y25492D01*
X15167Y24085D02*
X15236Y24154D01*
Y24478D01*
X14518Y24085D02*
X15167D01*
X14449Y24154D02*
X14518Y24085D01*
X14449Y24154D02*
Y24478D01*
X17765Y24058D02*
X17834Y23989D01*
X17441Y24058D02*
X17765D01*
X17834Y23339D02*
Y23989D01*
X17765Y23271D02*
X17834Y23339D01*
X17441Y23271D02*
X17765D01*
X16358Y23339D02*
X16427Y23271D01*
X16752D01*
X16358Y23339D02*
Y23989D01*
X16427Y24058D01*
X16752D01*
X14094Y30571D02*
X14163Y30640D01*
X14094Y30246D02*
Y30571D01*
X14163Y30640D02*
X14813D01*
X14882Y30571D01*
Y30246D02*
Y30571D01*
X14813Y29163D02*
X14882Y29232D01*
Y29557D01*
X14163Y29163D02*
X14813D01*
X14094Y29232D02*
X14163Y29163D01*
X14094Y29232D02*
Y29557D01*
X10460Y24159D02*
X10529Y24090D01*
X10853D01*
X10460Y24159D02*
Y24809D01*
X10529Y24878D01*
X10853D01*
X11867D02*
X11936Y24809D01*
X11542Y24878D02*
X11867D01*
X11936Y24159D02*
Y24809D01*
X11867Y24090D02*
X11936Y24159D01*
X11542Y24090D02*
X11867D01*
X16112Y24518D02*
X16181Y24587D01*
Y24911D01*
X15463Y24518D02*
X16112D01*
X15394Y24587D02*
X15463Y24518D01*
X15394Y24587D02*
Y24911D01*
Y25925D02*
X15463Y25994D01*
X15394Y25600D02*
Y25925D01*
X15463Y25994D02*
X16112D01*
X16181Y25925D01*
Y25600D02*
Y25925D01*
X9872Y28455D02*
X9941Y28386D01*
X10266D01*
X9872Y28455D02*
Y29104D01*
X9941Y29173D01*
X10266D01*
X11280D02*
X11348Y29104D01*
X10955Y29173D02*
X11280D01*
X11348Y28455D02*
Y29104D01*
X11279Y28386D02*
X11348Y28455D01*
X10955Y28386D02*
X11279D01*
X6793Y27435D02*
X6862Y27504D01*
X6793Y27110D02*
Y27435D01*
X6862Y27504D02*
X7512D01*
X7581Y27435D01*
Y27110D02*
Y27435D01*
X7512Y26027D02*
X7581Y26096D01*
Y26421D01*
X6862Y26027D02*
X7512D01*
X6793Y26096D02*
X6862Y26027D01*
X6793Y26096D02*
Y26421D01*
X18780Y33208D02*
Y34005D01*
Y33208D02*
X18848Y33139D01*
X19301D01*
X18780Y34005D02*
X18839Y34065D01*
X19301D01*
X20709Y33208D02*
Y33996D01*
X20640Y33139D02*
X20709Y33208D01*
X20187Y33139D02*
X20640D01*
X20640Y34065D02*
X20709Y33996D01*
X20187Y34065D02*
X20640D01*
X7864Y28761D02*
Y29155D01*
X8652Y28761D02*
Y29155D01*
X7864D02*
X8652D01*
X7864Y27679D02*
X8652D01*
X7864D02*
Y28072D01*
X8652Y27679D02*
Y28072D01*
X7285Y34364D02*
X7679D01*
X7285Y35151D02*
X7679D01*
X7285Y34364D02*
Y35151D01*
X8761Y34364D02*
Y35151D01*
X8368Y34364D02*
X8761D01*
X8368Y35151D02*
X8761D01*
X18780Y34041D02*
X19301D01*
X18780D02*
Y34966D01*
X19301D01*
X20187Y34041D02*
X20709D01*
Y34966D01*
X20187D02*
X20709D01*
X8864Y24094D02*
X9258D01*
X8864Y24882D02*
X9258D01*
X8864Y24094D02*
Y24882D01*
X10340Y24094D02*
Y24882D01*
X9947Y24094D02*
X10340D01*
X9947Y24882D02*
X10340D01*
X7566Y26737D02*
X7960D01*
X7566Y27524D02*
X7960D01*
X7566Y26737D02*
Y27524D01*
X9043Y26737D02*
Y27524D01*
X8649Y26737D02*
X9043D01*
X8649Y27524D02*
X9043D01*
X6802Y29642D02*
Y30036D01*
X7589Y29642D02*
Y30036D01*
X6802D02*
X7589D01*
X6802Y28560D02*
X7589D01*
X6802D02*
Y28953D01*
X7589Y28560D02*
Y28953D01*
X10974Y23228D02*
X11368D01*
X10974Y24016D02*
X11368D01*
X10974Y23228D02*
Y24016D01*
X12451Y23228D02*
Y24016D01*
X12057Y23228D02*
X12451D01*
X12057Y24016D02*
X12451D01*
X12667Y22677D02*
X13061D01*
X12667Y23465D02*
X13061D01*
X12667Y22677D02*
Y23465D01*
X14144Y22677D02*
Y23465D01*
X13750Y22677D02*
X14144D01*
X13750Y23465D02*
X14144D01*
X16496Y26565D02*
Y26959D01*
X15709Y26565D02*
Y26959D01*
Y26565D02*
X16496D01*
X15709Y28041D02*
X16496D01*
Y27648D02*
Y28041D01*
X15709Y27648D02*
Y28041D01*
X11121Y38006D02*
X11318Y37907D01*
X11515Y37711D01*
Y37514D01*
X11416Y37415D01*
X11219D01*
X11121Y37514D01*
Y37612D01*
X11219Y37711D01*
X11515D01*
X14828Y37587D02*
X14729Y37489D01*
X14532D01*
X14434Y37587D01*
Y37981D01*
X14532Y38079D01*
X14729D01*
X14828Y37981D01*
Y37883D01*
X14729Y37784D01*
X14434D01*
X15896Y35856D02*
X16290D01*
Y35561D01*
X16093Y35659D01*
X15994D01*
X15896Y35561D01*
Y35364D01*
X15994Y35265D01*
X16191D01*
X16290Y35364D01*
X9936Y35302D02*
X9740D01*
X9838D01*
Y35892D01*
X9936Y35794D01*
D121*
X13839Y26358D02*
G03*
X13839Y26358I-118J0D01*
G01*
D133*
X11445Y32535D02*
G03*
X11445Y32535I-210J0D01*
G01*
X17864Y24705D02*
Y24980D01*
X17338Y24223D02*
Y24606D01*
Y24223D02*
X17855D01*
X17338Y25079D02*
Y25462D01*
X17855D01*
X11545Y32205D02*
Y33615D01*
X7685D02*
X11545D01*
X7685Y32205D02*
Y33615D01*
Y32205D02*
X11545D01*
D134*
X6258Y35091D02*
Y35209D01*
Y34500D02*
Y34618D01*
Y33910D02*
Y34028D01*
Y33319D02*
Y33437D01*
Y32728D02*
Y32847D01*
Y32138D02*
Y32256D01*
Y31547D02*
Y31665D01*
Y30957D02*
Y31075D01*
Y30366D02*
Y30484D01*
Y29776D02*
Y29894D01*
Y29185D02*
Y29303D01*
Y28595D02*
Y28713D01*
X6258Y27650D02*
X6258Y28122D01*
X5412Y27650D02*
X5530D01*
X6002Y27650D02*
X6258Y27650D01*
X4821Y27650D02*
X4939D01*
X4230D02*
X4349D01*
X3640Y27650D02*
X3758D01*
X3049Y27650D02*
X3168D01*
X2459D02*
X2577D01*
X1868D02*
X1986D01*
X1140Y27650D02*
X1396Y27650D01*
X1140Y27650D02*
X1140Y28122D01*
X1140Y28595D02*
Y28713D01*
Y29185D02*
Y29303D01*
Y29776D02*
Y29894D01*
Y30366D02*
Y30484D01*
Y30957D02*
Y31075D01*
Y31547D02*
Y31665D01*
Y32138D02*
Y32256D01*
Y32728D02*
Y32847D01*
Y33319D02*
Y33437D01*
Y33910D02*
Y34028D01*
Y34500D02*
Y34618D01*
Y35091D02*
Y35209D01*
M02*
