M48
;Layer_Color=9474304
;FILE_FORMAT=2:4
INCH,LZ
;TYPE=PLATED
T1F00S00C0.0126
T2F00S00C0.0157
T3F00S00C0.0236
T4F00S00C0.0276
T5F00S00C0.0315
T6F00S00C0.0335
T7F00S00C0.0354
T8F00S00C0.0394
T10F00S00C0.0429
T11F00S00C0.0551
T12F00S00C0.1260
T13F00S00C0.1283
%
T01
X016092Y023122
Y023398
T02
X015675Y023053
Y023486
T03
X000906Y004331
Y005709
Y007087
X030591Y006693
Y005315
Y008071
Y009449
Y010827
Y012205
Y013583
X025787Y026575
Y027559
Y028543
X013246Y026717
X012519Y029856
X007195Y030545
X009473Y026885
X009064Y0237
X009961Y023688
Y022937
X010518Y022095
X006925Y020911
X002353Y022217
X00152Y022229
X001522Y023044
X009064Y034772
X009865Y03479
X013889Y031414
X02451Y03544
X025297
X026084
X026872
X027659
Y036385
X026872
X026084
X025297
X02451
Y03733
X025297
X026084
X026872
X027659
Y038275
X026872
X026084
X025297
X02451
T04
X016732Y025787
X018627Y025767
X015354Y029528
X011068Y029822
X009021Y028553
X010555Y025318
X012354Y033375
T05
X019326Y020138
X020311
X027294Y020594
Y019609
X011769Y020126
X010785
X000366Y029537
X02236Y032084
X023344
T06
X01983Y02249
Y024458
X019726Y028556
X021695
X023046Y020236
X025015
X015501
X013533
T07
X01752Y02685
Y02785
Y02885
X017097Y0308
X015721Y0308
X024255Y02839
X017097Y0318
Y0328
Y0338
X015721Y0338
Y0328
Y0318
T08
X00392Y00635
Y00735
X00992
Y00635
X013566
Y00735
X013287Y003477
X014272
X015256
X00992Y01535
X019566
Y00735
Y00635
X023228Y006378
Y007378
X029228
Y006378
Y015378
X018209Y003477
X017224
X01624
X019566Y01635
Y01735
X023228Y017378
Y016378
X029228
Y017378
X029356Y022178
Y023556
X013566Y01735
Y01635
X00992
Y01735
X00392
Y01635
T10
X010781Y035583
X011872
X012963
X014053
X015144
X014598Y036701
X013508
X012417
X011327
T11
X005906Y002362
X007874
X014764
X016732
X023622
X025591
X022411Y036958
X020443
T12
X001772Y002362
X029724
X001772Y019685
X029724Y037008
T13
X008043Y036142
X017882
M30
