G04*
G04 #@! TF.GenerationSoftware,Altium Limited,Altium Designer,19.1.8 (144)*
G04*
G04 Layer_Color=8388736*
%FSLAX24Y24*%
%MOIN*%
G70*
G01*
G75*
%ADD40R,0.0480X0.1340*%
%ADD41R,0.4080X0.4056*%
%ADD42R,0.0867X0.0946*%
%ADD43R,0.0938X0.0915*%
%ADD44R,0.0592X0.0671*%
%ADD45R,0.0671X0.0592*%
%ADD46R,0.2836X0.1655*%
%ADD47R,0.1340X0.0631*%
%ADD48R,0.2080X0.1178*%
%ADD49C,0.7080*%
%ADD50R,0.0513X0.1104*%
%ADD51R,0.1261X0.0710*%
%ADD52R,0.2521X0.2363*%
%ADD53R,0.1104X0.0513*%
%ADD54R,0.1320X0.0946*%
%ADD55R,0.0938X0.0710*%
%ADD56C,0.0206*%
%ADD57C,0.0474*%
%ADD58C,0.0336*%
%ADD59R,0.0592X0.0592*%
%ADD60C,0.0592*%
%ADD61C,0.0611*%
%ADD62C,0.0671*%
%ADD63R,0.0671X0.0671*%
%ADD64R,0.0592X0.0592*%
%ADD65C,0.2127*%
%ADD66R,0.1852X0.1064*%
%ADD67C,0.0745*%
%ADD68R,0.0745X0.0745*%
%ADD69C,0.1954*%
%ADD70C,0.0946*%
%ADD71C,0.0780*%
%ADD72C,0.0316*%
%ADD73C,0.0552*%
%ADD74C,0.0356*%
%ADD75C,0.0434*%
%ADD76C,0.0395*%
D40*
X24714Y33064D02*
D03*
X25384D02*
D03*
X26054D02*
D03*
X26724D02*
D03*
X27394D02*
D03*
D41*
X26054Y36880D02*
D03*
D42*
X23062Y27048D02*
D03*
X24243D02*
D03*
D43*
X25060Y29727D02*
D03*
X23316D02*
D03*
D44*
X28653Y34003D02*
D03*
X29401D02*
D03*
X4095Y34284D02*
D03*
X3347D02*
D03*
X29401Y32992D02*
D03*
X28653D02*
D03*
D45*
X28087Y25558D02*
D03*
Y24810D02*
D03*
X3355Y31225D02*
D03*
Y31973D02*
D03*
D46*
X28360Y26879D02*
D03*
Y30816D02*
D03*
D47*
X1575Y30681D02*
D03*
Y31524D02*
D03*
Y33437D02*
D03*
Y34280D02*
D03*
D48*
X5229Y30439D02*
D03*
Y21790D02*
D03*
D49*
Y26115D02*
D03*
D50*
X22057Y34204D02*
D03*
X23356D02*
D03*
X29282Y18944D02*
D03*
X30581D02*
D03*
D51*
X26755Y24844D02*
D03*
Y23041D02*
D03*
D52*
X23979Y23943D02*
D03*
D53*
X21400Y17339D02*
D03*
Y16039D02*
D03*
X11658Y17290D02*
D03*
Y15991D02*
D03*
D54*
X19838Y31253D02*
D03*
Y34009D02*
D03*
D55*
X17426Y25018D02*
D03*
X13804D02*
D03*
D56*
X16092Y23122D02*
D03*
Y23398D02*
D03*
D57*
X24510Y35440D02*
D03*
X25297D02*
D03*
X26084D02*
D03*
X26872D02*
D03*
X27659D02*
D03*
Y36385D02*
D03*
X26872D02*
D03*
X26084D02*
D03*
X25297D02*
D03*
X24510D02*
D03*
X27659Y37330D02*
D03*
X26872D02*
D03*
X26084D02*
D03*
X25297D02*
D03*
X24510D02*
D03*
X27659Y38275D02*
D03*
X26872D02*
D03*
X26084D02*
D03*
X25297D02*
D03*
X24510D02*
D03*
X9961Y22937D02*
D03*
Y23688D02*
D03*
X25787Y26575D02*
D03*
Y28543D02*
D03*
Y27559D02*
D03*
X1522Y23044D02*
D03*
X2353Y22217D02*
D03*
X1520Y22229D02*
D03*
X13246Y26717D02*
D03*
X906Y7087D02*
D03*
Y5709D02*
D03*
X30591Y5315D02*
D03*
X906Y4331D02*
D03*
X30591Y6693D02*
D03*
Y13583D02*
D03*
Y12205D02*
D03*
Y10827D02*
D03*
Y9449D02*
D03*
Y8071D02*
D03*
D58*
X15675Y23486D02*
D03*
Y23053D02*
D03*
D59*
X11769Y20126D02*
D03*
X20311Y20138D02*
D03*
X23344Y32084D02*
D03*
D60*
X10785Y20126D02*
D03*
X19326Y20138D02*
D03*
X27294Y20594D02*
D03*
X22360Y32084D02*
D03*
D61*
X15501Y20236D02*
D03*
X13533D02*
D03*
X19830Y24458D02*
D03*
Y22490D02*
D03*
X23046Y20236D02*
D03*
X25015D02*
D03*
X21695Y28556D02*
D03*
X19726D02*
D03*
D62*
X29356Y22178D02*
D03*
X13287Y3477D02*
D03*
X14272D02*
D03*
X15256D02*
D03*
X16240D02*
D03*
X17224D02*
D03*
X18209D02*
D03*
X15721Y31800D02*
D03*
Y32800D02*
D03*
Y33800D02*
D03*
X17520Y26850D02*
D03*
Y27850D02*
D03*
X17097Y31800D02*
D03*
Y32800D02*
D03*
Y33800D02*
D03*
D63*
X29356Y23556D02*
D03*
X15721Y30800D02*
D03*
X17520Y28850D02*
D03*
X17097Y30800D02*
D03*
D64*
X27294Y19609D02*
D03*
D65*
X29724Y37008D02*
D03*
X29724Y2362D02*
D03*
X1772D02*
D03*
X1772Y19685D02*
D03*
D66*
X21495Y35729D02*
D03*
Y38091D02*
D03*
D67*
X15144Y35583D02*
D03*
X14598Y36701D02*
D03*
X14053Y35583D02*
D03*
X13508Y36701D02*
D03*
X12963Y35583D02*
D03*
X12417Y36701D02*
D03*
X11872Y35583D02*
D03*
X11327Y36701D02*
D03*
D68*
X10781Y35583D02*
D03*
D69*
X8043Y36142D02*
D03*
X17882D02*
D03*
D70*
X22411Y36958D02*
D03*
X20443D02*
D03*
X23622Y2362D02*
D03*
X25591D02*
D03*
X14764D02*
D03*
X16732D02*
D03*
X5906D02*
D03*
X7874D02*
D03*
D71*
X23228Y16378D02*
D03*
Y17378D02*
D03*
Y7378D02*
D03*
Y6378D02*
D03*
X29228D02*
D03*
Y7378D02*
D03*
Y15378D02*
D03*
Y16378D02*
D03*
Y17378D02*
D03*
X13566Y16350D02*
D03*
Y17350D02*
D03*
Y7350D02*
D03*
Y6350D02*
D03*
X19566D02*
D03*
Y7350D02*
D03*
Y15350D02*
D03*
Y16350D02*
D03*
Y17350D02*
D03*
X3920Y16350D02*
D03*
Y17350D02*
D03*
Y7350D02*
D03*
Y6350D02*
D03*
X9920D02*
D03*
Y7350D02*
D03*
Y15350D02*
D03*
Y16350D02*
D03*
Y17350D02*
D03*
D72*
X10518Y22095D02*
D03*
X12519Y29856D02*
D03*
X9064Y34772D02*
D03*
X13889Y31414D02*
D03*
X6925Y20911D02*
D03*
X9473Y26885D02*
D03*
X7195Y30545D02*
D03*
X9064Y23700D02*
D03*
X9865Y34790D02*
D03*
D73*
X18627Y25767D02*
D03*
D74*
X16732Y25787D02*
D03*
X11068Y29822D02*
D03*
X12354Y33375D02*
D03*
X9021Y28553D02*
D03*
X10555Y25318D02*
D03*
X15354Y29528D02*
D03*
D75*
X24255Y28390D02*
D03*
D76*
X366Y29537D02*
D03*
M02*
