G04*
G04 #@! TF.GenerationSoftware,Altium Limited,Altium Designer,19.1.8 (144)*
G04*
G04 Layer_Color=65535*
%FSLAX24Y24*%
%MOIN*%
G70*
G01*
G75*
%ADD10C,0.0079*%
%ADD11C,0.0098*%
%ADD12C,0.0100*%
%ADD13C,0.0050*%
%ADD14C,0.0059*%
%ADD15C,0.0157*%
%ADD16C,0.0039*%
%ADD17C,0.0030*%
%ADD18C,0.0118*%
%ADD19C,0.0140*%
%ADD20C,0.0276*%
%ADD21C,0.0091*%
%ADD22C,0.0256*%
%ADD23C,0.0078*%
D10*
X12517Y20126D02*
G03*
X12517Y20126I-1240J0D01*
G01*
X16230Y20236D02*
G03*
X16230Y20236I-1713J0D01*
G01*
X16468Y20235D02*
G03*
X16468Y20235I-17J0D01*
G01*
X21059Y20138D02*
G03*
X21059Y20138I-1240J0D01*
G01*
X30931Y22867D02*
G03*
X30931Y22867I-1575J0D01*
G01*
X28535Y20102D02*
G03*
X28535Y20102I-1240J0D01*
G01*
X21543Y23474D02*
G03*
X21543Y23474I-1713J0D01*
G01*
X19848Y25408D02*
G03*
X19848Y25408I-17J0D01*
G01*
X25743Y20236D02*
G03*
X25743Y20236I-1713J0D01*
G01*
X22114Y20237D02*
G03*
X22114Y20237I-17J0D01*
G01*
X18794Y28557D02*
G03*
X18794Y28557I-17J0D01*
G01*
X22423Y28556D02*
G03*
X22423Y28556I-1713J0D01*
G01*
X24092Y32084D02*
G03*
X24092Y32084I-1240J0D01*
G01*
X5324Y31410D02*
G03*
X5324Y31410I-56J0D01*
G01*
X9199Y39884D02*
G03*
X9472Y40157I0J274D01*
G01*
X9748Y42244D02*
G03*
X9474Y41970I0J-274D01*
G01*
X16453Y40157D02*
G03*
X16726Y39884I274J0D01*
G01*
X16451Y41970D02*
G03*
X16177Y42244I-274J0D01*
G01*
X22924Y27639D02*
X24381D01*
X22924Y26458D02*
X24381D01*
X22924Y27619D02*
Y27639D01*
X23850Y27619D02*
X24381D01*
X22924Y26458D02*
Y26477D01*
X23850D02*
X24381D01*
X12303Y32D02*
Y4540D01*
X19193D01*
Y32D02*
Y4540D01*
X12303Y32D02*
X19193D01*
X1447Y32193D02*
X1722D01*
X1585Y32055D02*
Y32331D01*
X1447Y34949D02*
X1722D01*
X1585Y34811D02*
Y35087D01*
X15221Y34300D02*
X16221D01*
Y30300D02*
Y34300D01*
X15221Y30300D02*
Y34300D01*
Y30300D02*
X16221D01*
X22549Y34676D02*
X22864D01*
X22549Y33731D02*
X22864D01*
X21873Y16531D02*
Y16846D01*
X20928Y16531D02*
Y16846D01*
X29774Y19417D02*
X30089D01*
X29774Y18472D02*
X30089D01*
X12131Y16483D02*
Y16798D01*
X11186Y16483D02*
Y16798D01*
X17020Y29350D02*
X18020D01*
Y26350D02*
Y29350D01*
X17020Y26350D02*
X18020D01*
X17020D02*
Y29350D01*
X6900Y38701D02*
X19026D01*
Y35000D02*
Y39882D01*
X6900Y35000D02*
Y39882D01*
X9748Y42244D02*
X16177D01*
X6900Y35000D02*
X19026D01*
X15718Y35000D02*
Y38701D01*
X6900Y39882D02*
X19026D01*
X10207Y35000D02*
Y38701D01*
X9472Y40157D02*
Y41968D01*
X16453Y40157D02*
Y41968D01*
X16597Y34300D02*
X17597D01*
Y30300D02*
Y34300D01*
X16597Y30300D02*
Y34300D01*
Y30300D02*
X17597D01*
X18677Y31076D02*
X19070D01*
X18677D02*
Y34186D01*
X19070D01*
X20606Y31076D02*
X20999D01*
Y34186D01*
X20606D02*
X20999D01*
D11*
X24765Y26458D02*
G03*
X24765Y26458I-49J0D01*
G01*
X19887Y34639D02*
G03*
X19887Y34639I-49J0D01*
G01*
D12*
X2362Y31102D02*
G03*
X2362Y31102I-787J0D01*
G01*
Y33858D02*
G03*
X2362Y33858I-787J0D01*
G01*
X16141Y23605D02*
X16147Y23610D01*
Y23654D01*
X16151Y22870D02*
Y22916D01*
X16147Y22866D02*
X16151Y22870D01*
X13336Y22866D02*
X16147D01*
X13336D02*
Y23654D01*
X16147D01*
X15675Y22709D02*
Y22797D01*
X11428Y22709D02*
X15675D01*
X11428Y22709D02*
X11428Y22709D01*
X11428Y22709D02*
Y23890D01*
X15675Y23762D02*
Y23890D01*
X11428D02*
X15675D01*
X22574Y29569D02*
Y29904D01*
X22422Y29737D02*
X22725D01*
X11228Y34295D02*
Y34295D01*
X14928Y30179D02*
X14928D01*
X19724Y35434D02*
X20472D01*
X22519D02*
X23267D01*
X19724Y41162D02*
X21495D01*
X19724Y35434D02*
Y41162D01*
X23267Y35434D02*
Y41162D01*
X21495D02*
X23267D01*
X12303Y2286D02*
X19193D01*
X13287Y71D02*
Y2040D01*
X14272Y71D02*
Y2020D01*
X15256Y51D02*
Y2020D01*
X16240Y71D02*
Y2020D01*
X17224Y71D02*
Y2020D01*
X18209Y51D02*
Y2020D01*
X10179Y34296D02*
X11194D01*
X12948Y30187D02*
X14938D01*
Y34299D01*
X14927Y34309D02*
X14938Y34299D01*
X12948Y34309D02*
X14927D01*
X12948Y30187D02*
Y34309D01*
X12990Y31162D02*
X14925Y31158D01*
X12986Y32283D02*
X14921D01*
X12997Y33265D02*
X14937D01*
X9290Y33250D02*
X11231D01*
X9279Y32267D02*
X11215D01*
X9290Y31235D02*
X11225Y31231D01*
X9242Y30205D02*
Y34294D01*
X11230D01*
X11231Y30205D02*
Y34283D01*
X9242Y30205D02*
X11231D01*
X22766Y38139D02*
Y39163D01*
X22018Y38139D02*
X22766D01*
X22018D02*
Y39163D01*
X20797Y38139D02*
Y39123D01*
X20049Y38139D02*
X20797D01*
X20049D02*
Y39163D01*
X19459D02*
X23396D01*
Y35344D02*
Y39163D01*
X19459Y35344D02*
X23396D01*
X19459D02*
Y39163D01*
X23268Y157D02*
Y1181D01*
X24016D01*
Y157D02*
Y1181D01*
X25236Y197D02*
Y1181D01*
X25984D01*
Y157D02*
Y1181D01*
X22638Y157D02*
X26575D01*
X22638D02*
Y4370D01*
X26575D01*
Y157D02*
Y4370D01*
X14409Y157D02*
Y1181D01*
X15157D01*
Y157D02*
Y1181D01*
X16378Y197D02*
Y1181D01*
X17126D01*
Y157D02*
Y1181D01*
X13780Y157D02*
X17717D01*
X13780D02*
Y4370D01*
X17717D01*
Y157D02*
Y4370D01*
X5551Y157D02*
Y1181D01*
X6299D01*
Y157D02*
Y1181D01*
X7520Y197D02*
Y1181D01*
X8268D01*
Y157D02*
Y1181D01*
X4921Y157D02*
X8858D01*
X4921D02*
Y4370D01*
X8858D01*
Y157D02*
Y4370D01*
X30542Y24455D02*
Y24655D01*
Y24555D01*
X29943D01*
X30042Y24455D01*
X30142Y24955D02*
X30442D01*
X30542Y25055D01*
Y25355D01*
X30142D01*
X29943Y25955D02*
Y25555D01*
X30242D01*
Y25755D01*
Y25555D01*
X30542D01*
X31074Y14298D02*
Y14498D01*
Y14398D01*
X30475D01*
X30575Y14298D01*
X30674Y14798D02*
X30974D01*
X31074Y14898D01*
Y15197D01*
X30674D01*
X30475Y15797D02*
Y15397D01*
X30774D01*
Y15597D01*
Y15397D01*
X31074D01*
X21654Y11693D02*
Y11892D01*
Y11793D01*
X21055D01*
X21154Y11693D01*
X21254Y12192D02*
X21554D01*
X21654Y12292D01*
Y12592D01*
X21254D01*
X21055Y13192D02*
Y12792D01*
X21354D01*
Y12992D01*
Y12792D01*
X21654D01*
X11912Y11409D02*
Y11608D01*
Y11509D01*
X11313D01*
X11413Y11409D01*
X11513Y11908D02*
X11812D01*
X11912Y12008D01*
Y12308D01*
X11513D01*
X11313Y12908D02*
Y12508D01*
X11613D01*
Y12708D01*
Y12508D01*
X11912D01*
X5949Y31689D02*
X5349D01*
X5649Y31389D01*
Y31789D01*
X5349Y31989D02*
Y32388D01*
X5449D01*
X5849Y31989D01*
X5949D01*
X5449Y32588D02*
X5349Y32688D01*
Y32888D01*
X5449Y32988D01*
X5849D01*
X5949Y32888D01*
Y32688D01*
X5849Y32588D01*
X5449D01*
X6845Y33955D02*
X7045D01*
X6945D01*
Y34555D01*
X6845Y34455D01*
X7345D02*
X7445Y34555D01*
X7645D01*
X7745Y34455D01*
Y34355D01*
X7645Y34255D01*
X7545D01*
X7645D01*
X7745Y34155D01*
Y34055D01*
X7645Y33955D01*
X7445D01*
X7345Y34055D01*
X7945Y34455D02*
X8044Y34555D01*
X8244D01*
X8344Y34455D01*
Y34055D01*
X8244Y33955D01*
X8044D01*
X7945Y34055D01*
Y34455D01*
X28764Y32477D02*
X28364D01*
Y32177D01*
X28564Y32277D01*
X28664D01*
X28764Y32177D01*
Y31977D01*
X28664Y31877D01*
X28464D01*
X28364Y31977D01*
X28964Y31877D02*
X29164D01*
X29064D01*
Y32477D01*
X28964Y32377D01*
X29463Y31877D02*
Y32477D01*
Y32077D02*
X29763Y32277D01*
X29463Y32077D02*
X29763Y31877D01*
X30063Y32377D02*
X30463Y31977D01*
X30063D02*
X30463Y32377D01*
X30063Y32177D02*
X30463D01*
X30263Y31977D02*
Y32377D01*
X28622Y34615D02*
Y35214D01*
X28322Y34915D01*
X28722D01*
X28922Y34615D02*
Y34715D01*
X29022D01*
Y34615D01*
X28922D01*
X29422Y35214D02*
X29822D01*
Y35114D01*
X29422Y34715D01*
Y34615D01*
X30022D02*
Y35214D01*
Y34815D02*
X30322Y35014D01*
X30022Y34815D02*
X30322Y34615D01*
X14772Y32008D02*
X14572D01*
X14472Y31908D01*
Y31508D01*
X14572Y31408D01*
X14772D01*
X14872Y31508D01*
Y31908D01*
X14772Y32008D01*
X14173Y32006D02*
X14373D01*
X14273D01*
Y31407D01*
X14173D01*
X14373D01*
X13165Y30878D02*
X13265Y30978D01*
X13465D01*
X13565Y30878D01*
Y30778D01*
X13465Y30678D01*
X13365D01*
X13465D01*
X13565Y30578D01*
Y30478D01*
X13465Y30378D01*
X13265D01*
X13165Y30478D01*
X13765Y30978D02*
Y30578D01*
X13965Y30378D01*
X14165Y30578D01*
Y30978D01*
X14365Y30878D02*
X14465Y30978D01*
X14665D01*
X14765Y30878D01*
Y30778D01*
X14665Y30678D01*
X14565D01*
X14665D01*
X14765Y30578D01*
Y30478D01*
X14665Y30378D01*
X14465D01*
X14365Y30478D01*
X9741Y31468D02*
Y32067D01*
X10041D01*
X10141Y31967D01*
Y31768D01*
X10041Y31668D01*
X9741D01*
X9941D02*
X10141Y31468D01*
X10341Y32067D02*
X10740Y31468D01*
Y32067D02*
X10341Y31468D01*
X9683Y33069D02*
X10083D01*
X9883D01*
Y32470D01*
X10282Y33069D02*
X10682Y32470D01*
Y33069D02*
X10282Y32470D01*
X13593Y33957D02*
X13493Y34057D01*
X13293D01*
X13193Y33957D01*
Y33557D01*
X13293Y33457D01*
X13493D01*
X13593Y33557D01*
Y33757D01*
X13393D01*
X13793Y33457D02*
Y34057D01*
X14193Y33457D01*
Y34057D01*
X14393D02*
Y33457D01*
X14693D01*
X14793Y33557D01*
Y33957D01*
X14693Y34057D01*
X14393D01*
X17332Y25667D02*
X17232Y25767D01*
Y25967D01*
X17332Y26067D01*
X17732D01*
X17832Y25967D01*
Y25767D01*
X17732Y25667D01*
X17332D01*
X17832Y29636D02*
Y29836D01*
Y29736D01*
X17232D01*
X17332Y29636D01*
X9887Y33941D02*
X9787Y34041D01*
X9587D01*
X9487Y33941D01*
Y33541D01*
X9587Y33441D01*
X9787D01*
X9887Y33541D01*
Y33741D01*
X9687D01*
X10087Y33441D02*
Y34041D01*
X10486Y33441D01*
Y34041D01*
X10686D02*
Y33441D01*
X10986D01*
X11086Y33541D01*
Y33941D01*
X10986Y34041D01*
X10686D01*
X13554Y32994D02*
X13455Y33094D01*
X13255D01*
X13155Y32994D01*
Y32594D01*
X13255Y32494D01*
X13455D01*
X13554Y32594D01*
X13754Y33094D02*
Y32494D01*
X14154D01*
X14354Y33094D02*
Y32494D01*
Y32694D01*
X14754Y33094D01*
X14454Y32794D01*
X14754Y32494D01*
X13220Y31999D02*
Y31399D01*
X13520D01*
X13620Y31499D01*
Y31899D01*
X13520Y31999D01*
X13220D01*
X9456Y30920D02*
X9556Y31020D01*
X9756D01*
X9856Y30920D01*
Y30820D01*
X9756Y30720D01*
X9656D01*
X9756D01*
X9856Y30620D01*
Y30520D01*
X9756Y30420D01*
X9556D01*
X9456Y30520D01*
X10056Y31020D02*
Y30620D01*
X10255Y30420D01*
X10455Y30620D01*
Y31020D01*
X10655Y30920D02*
X10755Y31020D01*
X10955D01*
X11055Y30920D01*
Y30820D01*
X10955Y30720D01*
X10855D01*
X10955D01*
X11055Y30620D01*
Y30520D01*
X10955Y30420D01*
X10755D01*
X10655Y30520D01*
X11038Y24805D02*
Y24705D01*
X11238Y24505D01*
X11438Y24705D01*
Y24805D01*
X11238Y24505D02*
Y24205D01*
X12037D02*
X11638D01*
X12037Y24605D01*
Y24705D01*
X11938Y24805D01*
X11738D01*
X11638Y24705D01*
X21992Y26038D02*
X21892Y26138D01*
X21692D01*
X21592Y26038D01*
Y25639D01*
X21692Y25539D01*
X21892D01*
X21992Y25639D01*
X22192Y25539D02*
X22392D01*
X22292D01*
Y26138D01*
X22192Y26038D01*
X22692D02*
X22792Y26138D01*
X22992D01*
X23092Y26038D01*
Y25938D01*
X22992Y25839D01*
X22892D01*
X22992D01*
X23092Y25739D01*
Y25639D01*
X22992Y25539D01*
X22792D01*
X22692Y25639D01*
X16671Y22336D02*
X16771D01*
X16971Y22536D01*
X16771Y22736D01*
X16671D01*
X16971Y22536D02*
X17271D01*
Y22936D02*
Y23136D01*
Y23036D01*
X16671D01*
X16771Y22936D01*
X21637Y23871D02*
X22236D01*
Y24271D01*
X21637Y24871D02*
Y24471D01*
X21936D01*
X21836Y24671D01*
Y24771D01*
X21936Y24871D01*
X22136D01*
X22236Y24771D01*
Y24571D01*
X22136Y24471D01*
X21826Y21161D02*
X22426D01*
Y21561D01*
Y22061D02*
X21826D01*
X22126Y21761D01*
Y22161D01*
X16419Y19877D02*
Y19277D01*
X16819D01*
X17019Y19777D02*
X17119Y19877D01*
X17319D01*
X17419Y19777D01*
Y19677D01*
X17319Y19577D01*
X17219D01*
X17319D01*
X17419Y19477D01*
Y19377D01*
X17319Y19277D01*
X17119D01*
X17019Y19377D01*
X21130Y18885D02*
X21030Y18985D01*
X20830D01*
X20730Y18885D01*
Y18485D01*
X20830Y18385D01*
X21030D01*
X21130Y18485D01*
X21729Y18385D02*
X21329D01*
X21729Y18785D01*
Y18885D01*
X21629Y18985D01*
X21429D01*
X21329Y18885D01*
X22329Y18985D02*
X21929D01*
Y18685D01*
X22129Y18785D01*
X22229D01*
X22329Y18685D01*
Y18485D01*
X22229Y18385D01*
X22029D01*
X21929Y18485D01*
X25976Y22095D02*
X25876Y22195D01*
X25676D01*
X25576Y22095D01*
Y21695D01*
X25676Y21595D01*
X25876D01*
X25976Y21695D01*
X26576Y21595D02*
X26176D01*
X26576Y21995D01*
Y22095D01*
X26476Y22195D01*
X26276D01*
X26176Y22095D01*
X27076Y21595D02*
Y22195D01*
X26776Y21895D01*
X27176D01*
X8675Y19078D02*
X8575Y18978D01*
Y18778D01*
X8675Y18678D01*
X9075D01*
X9175Y18778D01*
Y18978D01*
X9075Y19078D01*
X9175Y19678D02*
Y19278D01*
X8775Y19678D01*
X8675D01*
X8575Y19578D01*
Y19378D01*
X8675Y19278D01*
Y19877D02*
X8575Y19977D01*
Y20177D01*
X8675Y20277D01*
X8775D01*
X8875Y20177D01*
Y20077D01*
Y20177D01*
X8975Y20277D01*
X9075D01*
X9175Y20177D01*
Y19977D01*
X9075Y19877D01*
X24794Y26176D02*
Y25577D01*
X25194D01*
X25794D02*
X25394D01*
X25794Y25976D01*
Y26076D01*
X25694Y26176D01*
X25494D01*
X25394Y26076D01*
X30588Y20532D02*
X30488Y20432D01*
Y20232D01*
X30588Y20132D01*
X30988D01*
X31088Y20232D01*
Y20432D01*
X30988Y20532D01*
X31088Y20732D02*
Y20932D01*
Y20832D01*
X30488D01*
X30588Y20732D01*
Y21232D02*
X30488Y21332D01*
Y21532D01*
X30588Y21632D01*
X30988D01*
X31088Y21532D01*
Y21332D01*
X30988Y21232D01*
X30588D01*
X21786Y36606D02*
X21387Y37206D01*
Y36606D02*
X21786Y37206D01*
X21187D02*
X20987D01*
X21087D01*
Y36606D01*
X21187Y36706D01*
X15403Y5369D02*
X15802Y4769D01*
Y5369D02*
X15403Y4769D01*
X16002Y5369D02*
X16402D01*
Y5269D01*
X16002Y4869D01*
Y4769D01*
X1230Y29989D02*
Y29390D01*
Y29690D01*
X1630D01*
Y29989D01*
Y29390D01*
X1830Y29989D02*
Y29390D01*
X2229D01*
X2829D02*
X2429D01*
X2829Y29790D01*
Y29890D01*
X2729Y29989D01*
X2529D01*
X2429Y29890D01*
X2493Y33522D02*
Y32922D01*
Y33222D01*
X2893D01*
Y33522D01*
Y32922D01*
X3093Y33522D02*
Y32922D01*
X3493D01*
X3693D02*
X3893D01*
X3793D01*
Y33522D01*
X3693Y33422D01*
X13819Y29929D02*
X14219Y29329D01*
Y29929D02*
X13819Y29329D01*
X14419Y29829D02*
X14519Y29929D01*
X14719D01*
X14819Y29829D01*
Y29729D01*
X14719Y29629D01*
X14619D01*
X14719D01*
X14819Y29529D01*
Y29429D01*
X14719Y29329D01*
X14519D01*
X14419Y29429D01*
X30066Y33691D02*
Y34291D01*
X30366D01*
X30466Y34191D01*
Y33991D01*
X30366Y33891D01*
X30066D01*
X30266D02*
X30466Y33691D01*
X31066Y34291D02*
X30666D01*
Y33991D01*
X30866Y34091D01*
X30966D01*
X31066Y33991D01*
Y33791D01*
X30966Y33691D01*
X30766D01*
X30666Y33791D01*
X22824Y28678D02*
Y28278D01*
X23024Y28078D01*
X23224Y28278D01*
Y28678D01*
X23424D02*
Y28078D01*
X23723D01*
X23823Y28178D01*
Y28578D01*
X23723Y28678D01*
X23424D01*
X24423Y28078D02*
X24023D01*
X24423Y28478D01*
Y28578D01*
X24323Y28678D01*
X24123D01*
X24023Y28578D01*
X21187Y14152D02*
X21087Y14052D01*
Y13852D01*
X21187Y13752D01*
X21587D01*
X21687Y13852D01*
Y14052D01*
X21587Y14152D01*
X21687Y14752D02*
Y14352D01*
X21287Y14752D01*
X21187D01*
X21087Y14652D01*
Y14452D01*
X21187Y14352D01*
Y14952D02*
X21087Y15052D01*
Y15252D01*
X21187Y15352D01*
X21287D01*
X21387Y15252D01*
X21487Y15352D01*
X21587D01*
X21687Y15252D01*
Y15052D01*
X21587Y14952D01*
X21487D01*
X21387Y15052D01*
X21287Y14952D01*
X21187D01*
X21387Y15052D02*
Y15252D01*
X30584Y16864D02*
X30484Y16764D01*
Y16564D01*
X30584Y16464D01*
X30984D01*
X31084Y16564D01*
Y16764D01*
X30984Y16864D01*
X31084Y17464D02*
Y17064D01*
X30684Y17464D01*
X30584D01*
X30484Y17364D01*
Y17164D01*
X30584Y17064D01*
X30484Y18064D02*
X30584Y17864D01*
X30784Y17664D01*
X30984D01*
X31084Y17764D01*
Y17964D01*
X30984Y18064D01*
X30884D01*
X30784Y17964D01*
Y17664D01*
X11460Y13973D02*
X11360Y13873D01*
Y13673D01*
X11460Y13573D01*
X11860D01*
X11960Y13673D01*
Y13873D01*
X11860Y13973D01*
X11960Y14573D02*
Y14173D01*
X11560Y14573D01*
X11460D01*
X11360Y14473D01*
Y14273D01*
X11460Y14173D01*
X11360Y14773D02*
Y15173D01*
X11460D01*
X11860Y14773D01*
X11960D01*
X21191Y33085D02*
X21091Y32985D01*
Y32785D01*
X21191Y32685D01*
X21591D01*
X21691Y32785D01*
Y32985D01*
X21591Y33085D01*
Y33285D02*
X21691Y33385D01*
Y33585D01*
X21591Y33685D01*
X21191D01*
X21091Y33585D01*
Y33385D01*
X21191Y33285D01*
X21291D01*
X21391Y33385D01*
Y33685D01*
X23373Y22557D02*
Y21957D01*
X23673D01*
X23773Y22057D01*
Y22457D01*
X23673Y22557D01*
X23373D01*
X23973Y21957D02*
Y22357D01*
X24173Y22557D01*
X24373Y22357D01*
Y21957D01*
Y22257D01*
X23973D01*
X24973Y21957D02*
X24573D01*
X24973Y22357D01*
Y22457D01*
X24873Y22557D01*
X24673D01*
X24573Y22457D01*
X28808Y24971D02*
X28708Y24871D01*
Y24671D01*
X28808Y24571D01*
X29208D01*
X29308Y24671D01*
Y24871D01*
X29208Y24971D01*
X29308Y25171D02*
Y25371D01*
Y25271D01*
X28708D01*
X28808Y25171D01*
X29308Y25671D02*
Y25871D01*
Y25771D01*
X28708D01*
X28808Y25671D01*
X18192Y4342D02*
X18592Y3742D01*
Y4342D02*
X18192Y3742D01*
X18792D02*
X18992D01*
X18892D01*
Y4342D01*
X18792Y4242D01*
X19292D02*
X19391Y4342D01*
X19591D01*
X19691Y4242D01*
Y3842D01*
X19591Y3742D01*
X19391D01*
X19292Y3842D01*
Y4242D01*
X27302Y4329D02*
X27702Y3729D01*
Y4329D02*
X27302Y3729D01*
X27902Y3829D02*
X28002Y3729D01*
X28202D01*
X28302Y3829D01*
Y4229D01*
X28202Y4329D01*
X28002D01*
X27902Y4229D01*
Y4129D01*
X28002Y4029D01*
X28302D01*
X9444Y4297D02*
X9844Y3697D01*
Y4297D02*
X9444Y3697D01*
X10044Y4197D02*
X10144Y4297D01*
X10344D01*
X10444Y4197D01*
Y4097D01*
X10344Y3997D01*
X10444Y3897D01*
Y3797D01*
X10344Y3697D01*
X10144D01*
X10044Y3797D01*
Y3897D01*
X10144Y3997D01*
X10044Y4097D01*
Y4197D01*
X10144Y3997D02*
X10344D01*
X18283Y26391D02*
X18882Y26791D01*
X18283D02*
X18882Y26391D01*
X18283Y27391D02*
X18383Y27191D01*
X18582Y26991D01*
X18782D01*
X18882Y27091D01*
Y27291D01*
X18782Y27391D01*
X18682D01*
X18582Y27291D01*
Y26991D01*
X17874Y33321D02*
X18473Y33721D01*
X17874D02*
X18473Y33321D01*
X17874Y34321D02*
Y33921D01*
X18173D01*
X18073Y34121D01*
Y34221D01*
X18173Y34321D01*
X18373D01*
X18473Y34221D01*
Y34021D01*
X18373Y33921D01*
X6475Y34767D02*
X6075Y35367D01*
Y34767D02*
X6475Y35367D01*
X5576D02*
Y34767D01*
X5875Y35067D01*
X5476D01*
X21187Y34528D02*
X20787Y35127D01*
Y34528D02*
X21187Y35127D01*
X20187D02*
X20587D01*
X20187Y34728D01*
Y34628D01*
X20287Y34528D01*
X20487D01*
X20587Y34628D01*
X17809Y30882D02*
X18209D01*
X18409Y31082D01*
X18209Y31282D01*
X17809D01*
Y31482D02*
X18409D01*
Y31782D01*
X18309Y31882D01*
X17909D01*
X17809Y31782D01*
Y31482D01*
X18409Y32082D02*
Y32282D01*
Y32182D01*
X17809D01*
X17909Y32082D01*
X17371Y24038D02*
X17271Y24138D01*
X17071D01*
X16971Y24038D01*
Y23938D01*
X17071Y23838D01*
X17271D01*
X17371Y23738D01*
Y23638D01*
X17271Y23538D01*
X17071D01*
X16971Y23638D01*
X17571Y23538D02*
X17771D01*
X17671D01*
Y24138D01*
X17571Y24038D01*
X4707Y31488D02*
X4107D01*
Y31788D01*
X4207Y31888D01*
X4407D01*
X4507Y31788D01*
Y31488D01*
Y31688D02*
X4707Y31888D01*
Y32088D02*
Y32288D01*
Y32188D01*
X4107D01*
X4207Y32088D01*
X4707Y32887D02*
X4107D01*
X4407Y32588D01*
Y32987D01*
X4739Y33956D02*
Y34555D01*
X5039D01*
X5139Y34455D01*
Y34255D01*
X5039Y34155D01*
X4739D01*
X4939D02*
X5139Y33956D01*
X5339D02*
X5539D01*
X5439D01*
Y34555D01*
X5339Y34455D01*
X5839D02*
X5939Y34555D01*
X6139D01*
X6239Y34455D01*
Y34355D01*
X6139Y34255D01*
X6039D01*
X6139D01*
X6239Y34155D01*
Y34056D01*
X6139Y33956D01*
X5939D01*
X5839Y34056D01*
X30103Y32695D02*
Y33295D01*
X30403D01*
X30503Y33195D01*
Y32995D01*
X30403Y32895D01*
X30103D01*
X30303D02*
X30503Y32695D01*
X31002D02*
Y33295D01*
X30702Y32995D01*
X31102D01*
X20295Y26655D02*
Y26056D01*
X20695D01*
X20895D02*
X21095D01*
X20995D01*
Y26655D01*
X20895Y26556D01*
X10012Y24677D02*
Y24877D01*
Y24777D01*
X9513D01*
X9413Y24877D01*
Y24977D01*
X9513Y25076D01*
X9413Y24477D02*
Y24277D01*
Y24377D01*
X10012D01*
X9912Y24477D01*
X15925Y18946D02*
Y18346D01*
X16225D01*
X16325Y18446D01*
Y18846D01*
X16225Y18946D01*
X15925D01*
X16525Y18346D02*
Y18746D01*
X16725Y18946D01*
X16925Y18746D01*
Y18346D01*
Y18646D01*
X16525D01*
X17525Y18946D02*
X17125D01*
Y18646D01*
X17325Y18746D01*
X17425D01*
X17525Y18646D01*
Y18446D01*
X17425Y18346D01*
X17225D01*
X17125Y18446D01*
X24211Y19035D02*
Y18435D01*
X24510D01*
X24610Y18535D01*
Y18935D01*
X24510Y19035D01*
X24211D01*
X24810Y18435D02*
Y18835D01*
X25010Y19035D01*
X25210Y18835D01*
Y18435D01*
Y18735D01*
X24810D01*
X25710Y18435D02*
Y19035D01*
X25410Y18735D01*
X25810D01*
X6122Y18907D02*
Y18307D01*
X6422D01*
X6522Y18407D01*
Y18807D01*
X6422Y18907D01*
X6122D01*
X6722Y18307D02*
Y18707D01*
X6922Y18907D01*
X7122Y18707D01*
Y18307D01*
Y18607D01*
X6722D01*
X7322Y18807D02*
X7422Y18907D01*
X7622D01*
X7722Y18807D01*
Y18707D01*
X7622Y18607D01*
X7522D01*
X7622D01*
X7722Y18507D01*
Y18407D01*
X7622Y18307D01*
X7422D01*
X7322Y18407D01*
X30014Y38446D02*
Y39046D01*
X29714D01*
X29614Y38946D01*
Y38546D01*
X29714Y38446D01*
X30014D01*
X29414Y39046D02*
Y38646D01*
X29214Y38446D01*
X29014Y38646D01*
Y39046D01*
Y38746D01*
X29414D01*
X28814Y39046D02*
X28614D01*
X28714D01*
Y38446D01*
X28814Y38546D01*
X24617Y31514D02*
X24517Y31614D01*
X24317D01*
X24217Y31514D01*
Y31114D01*
X24317Y31014D01*
X24517D01*
X24617Y31114D01*
X24817Y31514D02*
X24917Y31614D01*
X25117D01*
X25217Y31514D01*
Y31414D01*
X25117Y31314D01*
X25217Y31214D01*
Y31114D01*
X25117Y31014D01*
X24917D01*
X24817Y31114D01*
Y31214D01*
X24917Y31314D01*
X24817Y31414D01*
Y31514D01*
X24917Y31314D02*
X25117D01*
D13*
X23125Y29014D02*
Y29183D01*
X25251Y29014D02*
Y29183D01*
Y30270D02*
Y30439D01*
X23125Y30270D02*
Y30439D01*
Y29014D02*
X25251D01*
X23125Y30439D02*
X25251D01*
X6729Y30264D02*
X8229D01*
X6729Y21965D02*
X8229D01*
X2229D02*
X3729D01*
X2229Y30264D02*
X3729D01*
X23356Y25163D02*
Y25270D01*
Y22616D02*
Y22722D01*
Y22616D02*
X25805D01*
Y25270D01*
X23356D02*
X25805D01*
X22232Y5567D02*
Y18189D01*
Y5567D02*
X30224D01*
Y18189D01*
X22232D02*
X30224D01*
X12570Y5539D02*
Y18161D01*
Y5539D02*
X20562D01*
Y18161D01*
X12570D02*
X20562D01*
X2924Y5539D02*
Y18161D01*
Y5539D02*
X10916D01*
Y18161D01*
X2924D02*
X10916D01*
X14434Y25707D02*
X16796D01*
Y24329D02*
Y25707D01*
X14434Y24329D02*
X16796D01*
X14434D02*
Y25707D01*
D14*
X28289Y34397D02*
X28682D01*
X28289Y33610D02*
X28682D01*
X28289D02*
Y34397D01*
X29765Y33610D02*
Y34397D01*
X29371D02*
X29765D01*
X29371Y33610D02*
X29765D01*
X28412Y25922D02*
X28481Y25853D01*
Y25528D02*
Y25853D01*
X27763Y25922D02*
X28412D01*
X27694Y25853D02*
X27763Y25922D01*
X27694Y25528D02*
Y25853D01*
Y24514D02*
X27763Y24446D01*
X27694Y24514D02*
Y24839D01*
X27763Y24446D02*
X28412D01*
X28481Y24515D01*
Y24839D01*
X4065Y33890D02*
X4459D01*
X4065Y34678D02*
X4459D01*
Y33890D02*
Y34678D01*
X2983Y33890D02*
Y34678D01*
Y33890D02*
X3376D01*
X2983Y34678D02*
X3376D01*
X2962Y30861D02*
Y31255D01*
X3749Y30861D02*
Y31255D01*
X2962Y30861D02*
X3749D01*
X2962Y32337D02*
X3749D01*
X2962Y31944D02*
Y32337D01*
X3749Y31944D02*
Y32337D01*
X29371Y32598D02*
X29765D01*
X29371Y33386D02*
X29765D01*
Y32598D02*
Y33386D01*
X28289Y32598D02*
Y33386D01*
Y32598D02*
X28682D01*
X28289Y33386D02*
X28682D01*
X12399Y19082D02*
X12793D01*
X12596Y19279D02*
Y18885D01*
X21270Y20137D02*
X21663D01*
X21467Y20333D02*
Y19940D01*
X31001Y23824D02*
Y24218D01*
X30805Y24021D02*
X31198D01*
X27334Y18783D02*
Y18389D01*
X27530Y18586D02*
X27137D01*
X24171Y32123D02*
X24564D01*
X24368Y32320D02*
Y31927D01*
D15*
X15708Y34339D02*
Y34464D01*
X15537Y34636D02*
X15708Y34464D01*
X17099Y30035D02*
Y30246D01*
X16998Y29934D02*
X17099Y30035D01*
X11569Y34636D02*
X15537D01*
X11228Y34295D02*
X11569Y34636D01*
X15173Y29934D02*
X16998D01*
X14928Y30179D02*
X15173Y29934D01*
X15918Y26153D02*
X16705D01*
X15918D02*
Y26491D01*
X15955Y26603D01*
X15993Y26641D01*
X16068Y26678D01*
X16143D01*
X16218Y26641D01*
X16255Y26603D01*
X16293Y26491D01*
Y26153D02*
Y26491D01*
X16330Y26603D01*
X16368Y26641D01*
X16442Y26678D01*
X16555D01*
X16630Y26641D01*
X16667Y26603D01*
X16705Y26491D01*
Y26153D01*
X15918Y27079D02*
X15955Y27004D01*
X16030Y26929D01*
X16105Y26892D01*
X16218Y26854D01*
X16405D01*
X16517Y26892D01*
X16592Y26929D01*
X16667Y27004D01*
X16705Y27079D01*
Y27229D01*
X16667Y27304D01*
X16592Y27379D01*
X16517Y27417D01*
X16405Y27454D01*
X16218D01*
X16105Y27417D01*
X16030Y27379D01*
X15955Y27304D01*
X15918Y27229D01*
Y27079D01*
Y27863D02*
X15955Y27788D01*
X16030Y27713D01*
X16105Y27675D01*
X16218Y27638D01*
X16405D01*
X16517Y27675D01*
X16592Y27713D01*
X16667Y27788D01*
X16705Y27863D01*
Y28013D01*
X16667Y28088D01*
X16592Y28163D01*
X16517Y28200D01*
X16405Y28238D01*
X16218D01*
X16105Y28200D01*
X16030Y28163D01*
X15955Y28088D01*
X15918Y28013D01*
Y27863D01*
Y28684D02*
X16705D01*
X15918Y28421D02*
Y28946D01*
Y29265D02*
X15955Y29152D01*
X16068Y29077D01*
X16255Y29040D01*
X16368D01*
X16555Y29077D01*
X16667Y29152D01*
X16705Y29265D01*
Y29340D01*
X16667Y29452D01*
X16555Y29527D01*
X16368Y29565D01*
X16255D01*
X16068Y29527D01*
X15955Y29452D01*
X15918Y29340D01*
Y29265D01*
D16*
X29856Y26407D02*
X30840D01*
X29856Y31367D02*
X30840D01*
X25840Y26407D02*
X26864D01*
X25840Y31367D02*
X26864D01*
X25840Y26407D02*
Y31367D01*
X30840Y26407D02*
Y31367D01*
D17*
X9161Y20885D02*
X9311D01*
Y20765D02*
X9431D01*
X9041Y21005D02*
X9191D01*
X9101Y21125D02*
X9311D01*
X8981D02*
X9071D01*
X8951Y21185D02*
X9311D01*
X8921Y21215D02*
X9281D01*
X9221Y21245D02*
X9251D01*
X8981D02*
X9191D01*
X8921D02*
X8951D01*
X8891Y21275D02*
X9251D01*
X8891Y21305D02*
X9221D01*
X8861Y21335D02*
X9221D01*
X9101Y21365D02*
X9191D01*
X8861D02*
X9071D01*
X8861Y21395D02*
X9191D01*
X8831Y21425D02*
X9161D01*
X8831Y21455D02*
X9161D01*
X8981Y21485D02*
X9131D01*
X8831D02*
X8951D01*
X8831Y21515D02*
X9131D01*
X8801Y21545D02*
X9131D01*
X8861Y21605D02*
X9071D01*
X8801D02*
X8831D01*
X8801Y21635D02*
X9101D01*
X8801Y21665D02*
X9101D01*
X8801Y21695D02*
X9101D01*
X8801Y21575D02*
X9131D01*
X9221Y21005D02*
X9431D01*
X9041Y21035D02*
X9521D01*
X9011Y21065D02*
X9461D01*
X8981Y21095D02*
X9401D01*
X9341Y21125D02*
X9371D01*
X8951Y21155D02*
X9341D01*
X8771Y21755D02*
X9101D01*
X8801Y21785D02*
X9101D01*
X8771Y21815D02*
X9101D01*
X8861Y21845D02*
X9071D01*
X8771D02*
X8831D01*
X8771Y21875D02*
X9101D01*
X8801Y21905D02*
X9101D01*
X8771Y21935D02*
X9101D01*
X8981Y21965D02*
X9101D01*
X8801D02*
X8951D01*
X8801Y21995D02*
X9101D01*
X8801Y22025D02*
X9131D01*
X8801Y22055D02*
X9131D01*
X9101Y22085D02*
X9131D01*
X8861D02*
X9071D01*
X8801D02*
X8831D01*
Y22115D02*
X9161D01*
X8831Y22145D02*
X9191D01*
X8831Y22175D02*
X9191D01*
X8981Y22205D02*
X9191D01*
X8861D02*
X8951D01*
X8861Y22235D02*
X9251D01*
X8891Y22265D02*
X9281D01*
X9101Y22325D02*
X9311D01*
X8921D02*
X9071D01*
X9011Y22445D02*
X9191D01*
X8891Y22295D02*
X9341D01*
Y22325D02*
X9371D01*
X8981Y22385D02*
X9491D01*
X8981Y22415D02*
X9521D01*
X9221Y22445D02*
X9431D01*
X8951Y22355D02*
X9431D01*
X9161Y22565D02*
X9311D01*
X9341Y22685D02*
X9431D01*
X9251Y25865D02*
X9311D01*
X9431Y26135D02*
X9461D01*
X9251Y25985D02*
X9431D01*
X9881Y19085D02*
X9911D01*
X9821Y19205D02*
X10031D01*
X9761D02*
X9791D01*
X9701Y19295D02*
X10121D01*
Y18905D02*
X10151D01*
X9941Y19085D02*
X10151D01*
X10061Y19205D02*
X10271D01*
X9731Y19235D02*
X10211D01*
X9701Y19265D02*
X10151D01*
X9641Y19355D02*
X10061D01*
X9641Y19385D02*
X10031D01*
X9611Y19415D02*
X10001D01*
X9821Y19445D02*
X9971D01*
X9611D02*
X9791D01*
X9611Y19475D02*
X9941D01*
X9581Y19505D02*
X9941D01*
X9581Y19535D02*
X9911D01*
X9701Y19565D02*
X9911D01*
X9581D02*
X9671D01*
X9821Y19685D02*
X9851D01*
X9581D02*
X9791D01*
X9701Y19805D02*
X9821D01*
X9581Y19925D02*
X9791D01*
X9701Y20045D02*
X9821D01*
X9581Y20165D02*
X9791D01*
X9701Y20285D02*
X9821D01*
Y20405D02*
X9851D01*
X9581D02*
X9791D01*
X9581Y20495D02*
X9911D01*
X9701Y20525D02*
X9911D01*
X9581D02*
X9671D01*
X9581Y20555D02*
X9941D01*
X9611Y20585D02*
X9971D01*
X9611Y20615D02*
X10031D01*
X10061Y20645D02*
X10091D01*
X9821D02*
X10031D01*
X9581D02*
X9791D01*
X10061Y20885D02*
X10091D01*
X9821D02*
X10031D01*
X9581D02*
X9791D01*
X9941Y20765D02*
X10121D01*
X9701D02*
X9911D01*
X9821Y22565D02*
X9911D01*
X9581D02*
X9791D01*
X9701Y22685D02*
X9911D01*
X9821Y22805D02*
X10031D01*
X9611D02*
X9791D01*
X9941Y22685D02*
X10151D01*
X10061Y22805D02*
X10271D01*
X10061Y22925D02*
X10151D01*
X9821Y25865D02*
X10031D01*
X9581D02*
X9791D01*
X9701Y25985D02*
X9911D01*
X9821Y26105D02*
X10031D01*
X9581D02*
X9791D01*
X9761Y26135D02*
X10061D01*
X9671D02*
X9701D01*
X9791Y26165D02*
X10031D01*
X9791Y26195D02*
X10001D01*
X9941Y26225D02*
X10031D01*
X9791D02*
X9911D01*
X9791Y26255D02*
X10031D01*
X9791Y26285D02*
X10031D01*
X9791Y26315D02*
X10001D01*
X9821Y26345D02*
X10031D01*
X9791Y26405D02*
X10031D01*
X9791Y26435D02*
X10001D01*
X9941Y26465D02*
X10031D01*
X9791D02*
X9911D01*
X9791Y26495D02*
X10031D01*
X10271Y26135D02*
X10301D01*
X9791Y26375D02*
X10031D01*
X10061Y25865D02*
X10271D01*
X9941Y25985D02*
X10151D01*
X10061Y26105D02*
X10271D01*
X10151Y26135D02*
X10181D01*
X9791Y26555D02*
X10001D01*
X9821Y26585D02*
X10031D01*
X9791Y26615D02*
X10031D01*
X9791Y26645D02*
X10031D01*
X9791Y26675D02*
X10001D01*
X9941Y26705D02*
X10031D01*
X9791D02*
X9911D01*
X9791Y26735D02*
X10031D01*
X9791Y26765D02*
X10031D01*
X9791Y26795D02*
X10001D01*
X9821Y26825D02*
X10031D01*
X9791Y26855D02*
X10031D01*
X9791Y26885D02*
X10031D01*
X9791Y26915D02*
X10001D01*
X9941Y26945D02*
X10031D01*
X9791D02*
X9911D01*
X9791Y26975D02*
X10031D01*
X9791Y27005D02*
X10031D01*
X9791Y27035D02*
X10001D01*
X9821Y27065D02*
X10031D01*
X9791Y27095D02*
X10031D01*
X9791Y27125D02*
X10031D01*
X9941Y27185D02*
X10031D01*
X9791D02*
X9911D01*
X9791Y27215D02*
X10031D01*
X9791Y27245D02*
X10031D01*
X9791Y27275D02*
X10001D01*
X9791Y27155D02*
X10001D01*
X9791Y27335D02*
X10031D01*
X9791Y27365D02*
X10031D01*
X9791Y27395D02*
X10001D01*
X9941Y27425D02*
X10031D01*
X9791D02*
X9911D01*
X9791Y27455D02*
X10031D01*
X9791Y27485D02*
X10031D01*
X9791Y27515D02*
X10001D01*
X9821Y27545D02*
X10031D01*
X9791Y27575D02*
X10031D01*
X9791Y27605D02*
X10031D01*
X9791Y27635D02*
X10001D01*
X9941Y27665D02*
X10031D01*
X9791D02*
X9911D01*
X9791Y27695D02*
X10031D01*
X9791Y27725D02*
X10031D01*
X9791Y27755D02*
X10001D01*
X9821Y27785D02*
X10031D01*
X9791Y27815D02*
X10031D01*
X9791Y27845D02*
X10031D01*
X9791Y27875D02*
X10001D01*
X9941Y27905D02*
X10031D01*
X9791D02*
X9911D01*
X9791Y27935D02*
X10031D01*
X9791Y27995D02*
X10001D01*
X9821Y28025D02*
X10031D01*
X9791Y28055D02*
X10001D01*
X9941Y28085D02*
X10031D01*
X9791D02*
X9911D01*
X9791Y27965D02*
X10031D01*
X9791Y28145D02*
X10031D01*
X9791Y28175D02*
X10001D01*
X9821Y28205D02*
X10031D01*
X9791Y28235D02*
X10031D01*
X9791Y28265D02*
X10031D01*
X9791Y28295D02*
X10001D01*
X9941Y28325D02*
X10031D01*
X9791D02*
X9911D01*
X9791Y28355D02*
X10031D01*
X9791Y28385D02*
X10031D01*
X9791Y28415D02*
X10001D01*
X9821Y28445D02*
X10031D01*
X9791Y28475D02*
X10031D01*
X9791Y28505D02*
X10031D01*
X9791Y28535D02*
X10001D01*
X9941Y28565D02*
X10031D01*
X9791D02*
X9911D01*
X9791Y28595D02*
X10031D01*
X9791Y28625D02*
X10031D01*
X9791Y28655D02*
X10001D01*
X9821Y28685D02*
X10031D01*
X9791Y28715D02*
X10031D01*
X9791Y28745D02*
X10031D01*
X9941Y28805D02*
X10031D01*
X9791D02*
X9911D01*
X9791Y28835D02*
X10031D01*
X9791Y28865D02*
X10031D01*
X9791Y28895D02*
X10001D01*
X9791Y28775D02*
X10001D01*
X9791Y28955D02*
X10031D01*
X9791Y28985D02*
X10031D01*
X9731Y29015D02*
X10031D01*
X9941Y29045D02*
X10031D01*
X9701D02*
X9911D01*
X9641D02*
X9671D01*
X9611Y29075D02*
X10091D01*
X9881Y29165D02*
X10031D01*
X9581D02*
X9791D01*
X9581Y29405D02*
X9611D01*
X10001Y29645D02*
X10031D01*
X9581D02*
X9701D01*
X10181Y29285D02*
X10241D01*
X10181Y29525D02*
X10271D01*
X9581Y29105D02*
X10151D01*
X10061Y29165D02*
X10181D01*
X9971Y29195D02*
X10211D01*
X10001Y29225D02*
X10211D01*
X10031Y29255D02*
X10241D01*
X10061Y29285D02*
X10151D01*
X10091Y29315D02*
X10271D01*
X10091Y29345D02*
X10271D01*
X10091Y29375D02*
X10271D01*
X10121Y29405D02*
X10271D01*
X10121Y29435D02*
X10271D01*
X10121Y29465D02*
X10271D01*
X10091Y29495D02*
X10271D01*
X10091Y29525D02*
X10151D01*
X10061Y29585D02*
X10241D01*
X10031Y29615D02*
X10241D01*
X10061Y29645D02*
X10211D01*
X9941Y29675D02*
X10211D01*
X10091Y29555D02*
X10271D01*
X9941Y29765D02*
X10121D01*
X9701D02*
X9911D01*
X9581D02*
X9671D01*
X9611Y29795D02*
X10061D01*
X9701Y29825D02*
X10031D01*
X9791Y29855D02*
X9941D01*
X10571Y18755D02*
X10901D01*
X10541Y18785D02*
X10751D01*
X10421D02*
X10511D01*
X10661Y18905D02*
X10871D01*
X10421D02*
X10631D01*
X10661Y19085D02*
X10691D01*
X10421D02*
X10631D01*
X11021Y18785D02*
X11081D01*
X10781D02*
X10991D01*
X10901Y18905D02*
X11111D01*
X10901Y19085D02*
X11111D01*
X10691Y20795D02*
X10781D01*
X10661Y20825D02*
X10811D01*
X10631Y20855D02*
X10811D01*
X10781Y20885D02*
X10811D01*
X10631D02*
X10751D01*
X10631Y20945D02*
X10811D01*
X10631Y20975D02*
X10811D01*
X10661Y21005D02*
X10811D01*
X10601Y21035D02*
X10781D01*
X10601Y21065D02*
X10781D01*
X10601Y21095D02*
X10781D01*
X10601Y21125D02*
X10751D01*
X10601Y21155D02*
X10781D01*
X10601Y21185D02*
X10781D01*
X10571Y21215D02*
X10781D01*
X10661Y21245D02*
X10751D01*
X10571D02*
X10631D01*
X10571Y21275D02*
X10751D01*
X10571Y21305D02*
X10751D01*
X10571Y21335D02*
X10751D01*
X10571Y21365D02*
X10751D01*
X10571Y21395D02*
X10751D01*
X10571Y21425D02*
X10751D01*
X10571Y21455D02*
X10751D01*
X10661Y21485D02*
X10751D01*
X10541D02*
X10631D01*
X10571Y21515D02*
X10751D01*
X10541Y21545D02*
X10721D01*
X10571Y21605D02*
X10721D01*
X10571Y21635D02*
X10751D01*
X10571Y21665D02*
X10751D01*
X10571Y21695D02*
X10781D01*
X11081Y21485D02*
X11111D01*
X10571Y21575D02*
X10721D01*
X10601Y21755D02*
X10871D01*
X10601Y21785D02*
X10931D01*
X10661Y21845D02*
X10751D01*
X10631Y21815D02*
X11021D01*
X10781Y21845D02*
X10991D01*
X10901Y21965D02*
X11111D01*
X10481Y22625D02*
X10571D01*
X10361D02*
X10391D01*
X10421Y22685D02*
X10631D01*
X10541Y22805D02*
X10691D01*
X10421Y22925D02*
X10631D01*
X10541Y25865D02*
X10751D01*
X10661Y25985D02*
X10871D01*
X10421D02*
X10631D01*
X10541Y26105D02*
X10751D01*
X10811Y26135D02*
X10901D01*
X10631D02*
X10781D01*
X10511D02*
X10541D01*
X10391D02*
X10421D01*
X10661Y26165D02*
X10901D01*
X10661Y26195D02*
X10901D01*
X10661Y26225D02*
X10871D01*
X10661Y26255D02*
X10901D01*
X10661Y26285D02*
X10901D01*
X10661Y26315D02*
X10901D01*
X10781Y26345D02*
X10901D01*
X10661D02*
X10751D01*
X10661Y26405D02*
X10901D01*
X10661Y26435D02*
X10901D01*
X10661Y26465D02*
X10871D01*
X10661Y26495D02*
X10901D01*
X10991Y26135D02*
X11021D01*
X10661Y26375D02*
X10901D01*
X10781Y25865D02*
X10991D01*
X10901Y25985D02*
X11111D01*
X10781Y26105D02*
X10991D01*
X10661Y26555D02*
X10901D01*
X10781Y26585D02*
X10901D01*
X10661D02*
X10751D01*
X10661Y26615D02*
X10931D01*
X10661Y26705D02*
X10871D01*
X10541D02*
X10631D01*
X10481Y26765D02*
X10811D01*
X10451Y26795D02*
X10691D01*
X10541Y26825D02*
X10631D01*
X10421D02*
X10511D01*
X10421Y26855D02*
X10601D01*
X10391Y26885D02*
X10571D01*
X10391Y26915D02*
X10571D01*
X10421Y26945D02*
X10571D01*
X10361Y26975D02*
X10541D01*
X10361Y27005D02*
X10541D01*
X10361Y27035D02*
X10541D01*
X10361Y27065D02*
X10511D01*
X10361Y27095D02*
X10541D01*
X10361Y27125D02*
X10541D01*
X10421Y27185D02*
X10571D01*
X10391Y27215D02*
X10571D01*
X10421Y27245D02*
X10601D01*
X10421Y27275D02*
X10631D01*
X11081Y26945D02*
X11111D01*
X11081Y27185D02*
X11111D01*
X10391Y27155D02*
X10541D01*
X10601Y26645D02*
X10991D01*
X10571Y26675D02*
X11081D01*
X10901Y26705D02*
X11111D01*
X10451Y27335D02*
X10751D01*
X10661Y27425D02*
X10871D01*
X10541D02*
X10631D01*
X10511Y27395D02*
X11111D01*
X10901Y27425D02*
X11081D01*
X10601Y27455D02*
X11021D01*
X10661Y27485D02*
X10961D01*
X10691Y28766D02*
X10901D01*
X10601Y28826D02*
X10901D01*
X10571Y28856D02*
X10811D01*
X10781Y28676D02*
X11051D01*
X10751Y28706D02*
X11141D01*
X10931Y28766D02*
X11141D01*
X10541Y28916D02*
X10751D01*
X10511Y28946D02*
X10721D01*
X10511Y28976D02*
X10691D01*
X10511Y29006D02*
X10661D01*
X10481Y29036D02*
X10661D01*
X10481Y29066D02*
X10661D01*
X10481Y29096D02*
X10661D01*
X10571Y29126D02*
X10661D01*
X10481D02*
X10541D01*
X10481Y29156D02*
X10661D01*
X10511Y29186D02*
X10661D01*
X10511Y29216D02*
X10691D01*
X10511Y29246D02*
X10661D01*
X10511Y29276D02*
X10721D01*
X10541Y29306D02*
X10721D01*
X10541Y29336D02*
X10751D01*
X10571Y29366D02*
X10781D01*
X10601Y29396D02*
X10901D01*
X10691Y29486D02*
X10901D01*
X10931D02*
X11141D01*
X10811Y29546D02*
X11081D01*
X10721Y29516D02*
X11141D01*
X11531Y18785D02*
X11711D01*
X11471Y18905D02*
X11591D01*
X11621Y19085D02*
X11711D01*
X11381D02*
X11591D01*
X11501Y19205D02*
X11711D01*
X11261D02*
X11471D01*
X11261Y19235D02*
X11681D01*
X11321Y19265D02*
X11681D01*
X11321Y19295D02*
X11681D01*
X11171Y19175D02*
X11711D01*
X11621Y18665D02*
X11831D01*
X11741Y18785D02*
X11921D01*
X11501Y18815D02*
X11891D01*
X11501Y18845D02*
X11861D01*
X11471Y18875D02*
X11831D01*
X11621Y18905D02*
X11831D01*
X11441Y18935D02*
X11801D01*
X11381Y19355D02*
X11681D01*
X11381Y19385D02*
X11651D01*
X11381Y19415D02*
X11651D01*
X11501Y19445D02*
X11621D01*
X11411D02*
X11471D01*
Y19475D02*
X11561D01*
X11651Y20405D02*
X11711D01*
X11651Y20645D02*
X11711D01*
X11651Y20315D02*
X11771D01*
X11651Y20345D02*
X11801D01*
X11651Y20375D02*
X11801D01*
X11741Y20405D02*
X11801D01*
X11651Y20435D02*
X11801D01*
X11621Y20465D02*
X11801D01*
X11621Y20495D02*
X11801D01*
X11621Y20525D02*
X11801D01*
X11651Y20555D02*
X11801D01*
X11651Y20585D02*
X11801D01*
X11651Y20615D02*
X11801D01*
X11741Y20645D02*
X11831D01*
X11651Y20675D02*
X11831D01*
X11651Y20705D02*
X11831D01*
X11651Y20735D02*
X11831D01*
X11681Y20795D02*
X11861D01*
X11681Y20825D02*
X11861D01*
X11711Y20855D02*
X11891D01*
X11741Y20885D02*
X11891D01*
X11681Y20765D02*
X11831D01*
X11201Y21095D02*
X11291D01*
X11261Y21125D02*
X11321D01*
X11171D02*
X11231D01*
X11171Y21155D02*
X11321D01*
X11771Y21005D02*
X11831D01*
X11501Y21755D02*
X11651D01*
X11501Y21785D02*
X11651D01*
X11501Y21815D02*
X11681D01*
X11501Y21845D02*
X11711D01*
X11381Y21965D02*
X11531D01*
X11501Y22085D02*
X11711D01*
X11261D02*
X11471D01*
X11171Y22145D02*
X11351D01*
X11171Y22175D02*
X11381D01*
X11201Y22205D02*
X11351D01*
X11201Y22235D02*
X11411D01*
X11231Y22265D02*
X11411D01*
X11231Y22295D02*
X11441D01*
X11261Y22325D02*
X11471D01*
X11291Y22385D02*
X11501D01*
X11291Y22415D02*
X11531D01*
X11381Y22445D02*
X11561D01*
X11321D02*
X11351D01*
Y22475D02*
X11591D01*
X11801Y22205D02*
X11831D01*
X11261Y22355D02*
X11501D01*
X11531Y21875D02*
X11741D01*
X11561Y21905D02*
X11771D01*
X11561Y21935D02*
X11801D01*
X11621Y21965D02*
X11831D01*
X11411Y22535D02*
X11651D01*
X11501Y22565D02*
X11681D01*
X11441D02*
X11471D01*
X11561Y22685D02*
X11591D01*
X11471Y22595D02*
X11741D01*
X11501Y22625D02*
X11771D01*
X11531Y22655D02*
X11801D01*
X11621Y22685D02*
X11831D01*
X11591Y22715D02*
X11861D01*
X11621Y22745D02*
X11891D01*
X11501Y25865D02*
X11711D01*
X11261D02*
X11471D01*
X11381Y25985D02*
X11591D01*
X11501Y26105D02*
X11711D01*
X11261D02*
X11471D01*
Y26135D02*
X11501D01*
X11351D02*
X11381D01*
X11231D02*
X11261D01*
X11621Y26345D02*
X11711D01*
X11621Y25985D02*
X11831D01*
X11591Y26135D02*
X11861D01*
X11621Y26165D02*
X11861D01*
X11621Y26195D02*
X11861D01*
X11621Y26225D02*
X11831D01*
X11621Y26255D02*
X11861D01*
X11621Y26285D02*
X11861D01*
X11621Y26315D02*
X11861D01*
X11741Y26345D02*
X11861D01*
X11621Y26405D02*
X11861D01*
X11621Y26435D02*
X11861D01*
X11621Y26465D02*
X11831D01*
X11621Y26495D02*
X11861D01*
X11621Y26375D02*
X11861D01*
X11621Y26585D02*
X11711D01*
X11621Y26825D02*
X11711D01*
X11621Y27065D02*
X11711D01*
X11621Y26555D02*
X11861D01*
X11741Y26585D02*
X11861D01*
X11621Y26615D02*
X11861D01*
X11621Y26645D02*
X11861D01*
X11621Y26675D02*
X11861D01*
X11621Y26705D02*
X11831D01*
X11621Y26735D02*
X11861D01*
X11621Y26765D02*
X11861D01*
X11621Y26795D02*
X11861D01*
X11741Y26825D02*
X11861D01*
X11621Y26855D02*
X11861D01*
X11621Y26885D02*
X11861D01*
X11621Y26915D02*
X11861D01*
X11621Y26945D02*
X11831D01*
X11621Y26975D02*
X11861D01*
X11621Y27005D02*
X11861D01*
X11621Y27035D02*
X11861D01*
X11741Y27065D02*
X11861D01*
X11621Y27095D02*
X11861D01*
X11621Y27125D02*
X11861D01*
X11621Y27185D02*
X11831D01*
X11621Y27215D02*
X11861D01*
X11621Y27245D02*
X11861D01*
X11621Y27275D02*
X11861D01*
X11621Y27155D02*
X11861D01*
X11621Y27545D02*
X11711D01*
X11621Y27785D02*
X11711D01*
X11621Y28025D02*
X11711D01*
X11621Y27335D02*
X11861D01*
X11621Y27365D02*
X11861D01*
X11621Y27395D02*
X11861D01*
X11621Y27425D02*
X11831D01*
X11621Y27455D02*
X11861D01*
X11621Y27485D02*
X11861D01*
X11621Y27515D02*
X11861D01*
X11741Y27545D02*
X11861D01*
X11621Y27575D02*
X11861D01*
X11621Y27605D02*
X11861D01*
X11621Y27635D02*
X11861D01*
X11621Y27665D02*
X11831D01*
X11621Y27695D02*
X11861D01*
X11621Y27725D02*
X11861D01*
X11621Y27755D02*
X11861D01*
X11741Y27785D02*
X11861D01*
X11621Y27815D02*
X11861D01*
X11621Y27845D02*
X11861D01*
X11621Y27875D02*
X11861D01*
X11621Y27905D02*
X11831D01*
X11621Y27935D02*
X11861D01*
X11621Y27995D02*
X11861D01*
X11741Y28025D02*
X11861D01*
X11621Y28055D02*
X11861D01*
X11621Y28085D02*
X11831D01*
X11621Y27965D02*
X11861D01*
X11621Y28205D02*
X11711D01*
X11531Y28445D02*
X11711D01*
X11411Y28565D02*
X11591D01*
X11381Y28595D02*
X11711D01*
X11351Y28625D02*
X11681D01*
X11321Y28655D02*
X11651D01*
X11501Y28685D02*
X11621D01*
X11291D02*
X11471D01*
X11261Y28676D02*
X11621D01*
X11231Y28706D02*
X11591D01*
X11411Y28766D02*
X11501D01*
X11621Y28145D02*
X11861D01*
X11621Y28175D02*
X11861D01*
X11741Y28205D02*
X11861D01*
X11621Y28235D02*
X11861D01*
X11621Y28265D02*
X11861D01*
X11621Y28295D02*
X11861D01*
X11621Y28325D02*
X11831D01*
X11621Y28355D02*
X11861D01*
X11591Y28385D02*
X11861D01*
X11561Y28415D02*
X11861D01*
X11741Y28445D02*
X11861D01*
X11501Y28475D02*
X11831D01*
X11471Y28505D02*
X11801D01*
X11441Y28535D02*
X11771D01*
X11621Y28565D02*
X11741D01*
X11201Y29006D02*
X11381D01*
X11201Y29036D02*
X11381D01*
X11231Y29066D02*
X11381D01*
X11201Y29096D02*
X11381D01*
X11291Y29126D02*
X11381D01*
X11231D02*
X11261D01*
X11201Y29156D02*
X11381D01*
X11201Y29186D02*
X11381D01*
X11201Y29216D02*
X11381D01*
X11291Y29366D02*
X11321D01*
X11861Y30245D02*
X11891D01*
X11861Y30485D02*
X11921D01*
X11741Y30185D02*
X11921D01*
X11741Y30215D02*
X11921D01*
X11741Y30245D02*
X11831D01*
X11711Y30275D02*
X11891D01*
X11711Y30305D02*
X11891D01*
X11711Y30335D02*
X11891D01*
X11711Y30395D02*
X11891D01*
X11711Y30425D02*
X11891D01*
X11741Y30455D02*
X11921D01*
X11741Y30485D02*
X11831D01*
X11741Y30365D02*
X11891D01*
X12221Y18305D02*
X12431D01*
X12041D02*
X12191D01*
X12101Y18425D02*
X12311D01*
X12401Y18185D02*
X12551D01*
X12461Y18305D02*
X12671D01*
X12341Y18425D02*
X12551D01*
X12221Y18545D02*
X12311D01*
X11981D02*
X12191D01*
X11981Y21125D02*
X12071D01*
X12101Y21245D02*
X12221D01*
X11981D02*
X12071D01*
X11981Y21275D02*
X12251D01*
X12041Y21305D02*
X12281D01*
X12071Y21335D02*
X12341D01*
X12221Y21365D02*
X12371D01*
X12101D02*
X12191D01*
X12131Y21395D02*
X12401D01*
X12161Y21425D02*
X12461D01*
X12191Y21455D02*
X12491D01*
X12251Y21485D02*
X12311D01*
X12401Y21605D02*
X12431D01*
X12341Y21485D02*
X12551D01*
X12281Y21515D02*
X12581D01*
X12341Y21545D02*
X12611D01*
X12461Y21605D02*
X12671D01*
X12431Y21635D02*
X12701D01*
X12371Y21575D02*
X12641D01*
X11981Y22085D02*
X12011D01*
X12101Y22205D02*
X12311D01*
X12221Y22325D02*
X12431D01*
X12161D02*
X12191D01*
X11981D02*
X12071D01*
X12101Y22445D02*
X12161D01*
X11981D02*
X12071D01*
X11981Y22475D02*
X12191D01*
X12581Y21965D02*
X12641D01*
X12581Y22205D02*
X12641D01*
X12461Y21845D02*
X12671D01*
X12461Y21875D02*
X12641D01*
X12461Y21905D02*
X12641D01*
X12461Y21935D02*
X12641D01*
X12461Y21965D02*
X12551D01*
X12461Y21995D02*
X12641D01*
X12461Y22025D02*
X12641D01*
X12461Y22055D02*
X12641D01*
X12461Y22085D02*
X12641D01*
X12461Y22115D02*
X12641D01*
X12461Y22145D02*
X12641D01*
X12461Y22175D02*
X12641D01*
X12461Y22205D02*
X12551D01*
X12461Y22325D02*
X12671D01*
X12371Y22445D02*
X12551D01*
X12011Y22535D02*
X12221D01*
Y22565D02*
X12251D01*
X12041D02*
X12191D01*
X12071Y22595D02*
X12251D01*
X12071Y22625D02*
X12281D01*
X12101Y22655D02*
X12281D01*
X12101Y22685D02*
X12311D01*
X12131Y22715D02*
X12341D01*
X12161Y22745D02*
X12341D01*
X12161Y22775D02*
X12371D01*
X12221Y22805D02*
X12371D01*
X12191Y22835D02*
X12401D01*
X12221Y22865D02*
X12431D01*
X12251Y22925D02*
X12311D01*
X12101D02*
X12131D01*
X11981Y23015D02*
X12221D01*
X12341Y23045D02*
X12431D01*
X12221D02*
X12251D01*
X12011D02*
X12191D01*
X12041Y23075D02*
X12281D01*
X12071Y23105D02*
X12311D01*
X12251Y23285D02*
X12431D01*
X12131Y23165D02*
X12311D01*
X12461Y22565D02*
X12671D01*
X12461Y22685D02*
X12551D01*
X12461Y22805D02*
X12671D01*
X12341Y22925D02*
X12551D01*
X12461Y23045D02*
X12671D01*
X12461Y23285D02*
X12671D01*
X12341Y23165D02*
X12551D01*
X12341Y23405D02*
X12551D01*
X12461Y23525D02*
X12551D01*
X12461Y23645D02*
X12671D01*
X12461Y23765D02*
X12551D01*
X12461Y23885D02*
X12671D01*
X12461Y24005D02*
X12551D01*
X12461Y24245D02*
X12551D01*
X12461Y24365D02*
X12671D01*
X12461Y24485D02*
X12551D01*
X12461Y24605D02*
X12671D01*
X12461Y24725D02*
X12551D01*
X12461Y24845D02*
X12671D01*
X12461Y25025D02*
X12551D01*
X12461Y25145D02*
X12671D01*
X12461Y25265D02*
X12551D01*
X12461Y25385D02*
X12671D01*
X12461Y25505D02*
X12551D01*
X12461Y25625D02*
X12671D01*
X12221Y25865D02*
X12431D01*
X11981D02*
X12191D01*
X12101Y25985D02*
X12311D01*
X12221Y26105D02*
X12431D01*
X11981D02*
X12191D01*
X12431Y26135D02*
X12461D01*
X12311D02*
X12341D01*
X12191D02*
X12221D01*
X12071D02*
X12101D01*
X12611Y26345D02*
X12671D01*
X12461Y25745D02*
X12551D01*
X12461Y25865D02*
X12671D01*
X12341Y25985D02*
X12551D01*
X12461Y26105D02*
X12671D01*
X12611Y26585D02*
X12671D01*
X12611Y26825D02*
X12671D01*
X12611Y27065D02*
X12671D01*
X12401Y28025D02*
X12431D01*
X12611Y27545D02*
X12671D01*
X12581Y27785D02*
X12671D01*
X12581Y28085D02*
X12641D01*
X12491Y27905D02*
X12551D01*
X12401Y27995D02*
X12701D01*
X12461Y28025D02*
X12671D01*
X12371Y28055D02*
X12671D01*
X12341Y28085D02*
X12551D01*
X12221Y28205D02*
X12431D01*
X12191Y28235D02*
X12521D01*
X12191Y28265D02*
X12491D01*
X12161Y28295D02*
X12461D01*
X12341Y28325D02*
X12431D01*
X12131D02*
X12311D01*
X12101Y28355D02*
X12401D01*
X12101Y28385D02*
X12371D01*
X12071Y28415D02*
X12371D01*
X12221Y28445D02*
X12341D01*
X12041D02*
X12191D01*
X12041Y28475D02*
X12311D01*
X12041Y28505D02*
X12281D01*
X12041Y28535D02*
X12281D01*
X12101Y28565D02*
X12281D01*
X12041D02*
X12071D01*
X12041Y28595D02*
X12281D01*
X12041Y28625D02*
X12281D01*
X12041Y28655D02*
X12281D01*
X12221Y28685D02*
X12281D01*
X12041D02*
X12191D01*
X12041Y28715D02*
X12281D01*
X12041Y28745D02*
X12281D01*
X12101Y28805D02*
X12281D01*
X12041D02*
X12071D01*
X12041Y28835D02*
X12281D01*
X12041Y28865D02*
X12281D01*
X12041Y28895D02*
X12281D01*
X12041Y28775D02*
X12281D01*
Y28145D02*
X12581D01*
X12251Y28175D02*
X12551D01*
X12461Y28205D02*
X12551D01*
X12041Y28955D02*
X12281D01*
X12041Y28985D02*
X12281D01*
X12041Y29015D02*
X12281D01*
X12101Y29045D02*
X12281D01*
X12041D02*
X12071D01*
X12041Y29075D02*
X12281D01*
X12041Y29105D02*
X12281D01*
X12041Y29135D02*
X12281D01*
X12221Y29165D02*
X12281D01*
X12041D02*
X12191D01*
X12041Y29195D02*
X12281D01*
X12041Y29225D02*
X12281D01*
X12041Y29255D02*
X12281D01*
X12101Y29285D02*
X12281D01*
X12041D02*
X12071D01*
X12041Y29315D02*
X12281D01*
X12041Y29345D02*
X12281D01*
X12041Y29375D02*
X12281D01*
X12221Y29405D02*
X12281D01*
X12041D02*
X12191D01*
X12041Y29435D02*
X12281D01*
X12041Y29465D02*
X12281D01*
X12041Y29495D02*
X12281D01*
X12101Y29525D02*
X12281D01*
X12041D02*
X12071D01*
X12041Y29585D02*
X12281D01*
X12041Y29615D02*
X12281D01*
X12221Y29645D02*
X12281D01*
X12041D02*
X12191D01*
X12041Y29675D02*
X12281D01*
X12041Y29555D02*
X12281D01*
X12041Y29735D02*
X12281D01*
X12101Y29765D02*
X12281D01*
X12041D02*
X12071D01*
X12041Y29795D02*
X12281D01*
X12041Y29825D02*
X12281D01*
X12041Y29855D02*
X12281D01*
X12221Y29885D02*
X12281D01*
X12041D02*
X12191D01*
X12011Y29915D02*
X12311D01*
X12341Y30005D02*
X12461D01*
X12101D02*
X12311D01*
Y30095D02*
X12521D01*
X12341Y30125D02*
X12431D01*
X12581Y30245D02*
X12611D01*
X12461Y30125D02*
X12551D01*
X12371Y30155D02*
X12581D01*
X12401Y30185D02*
X12581D01*
X12401Y30215D02*
X12581D01*
X12431Y30245D02*
X12551D01*
X12431Y30275D02*
X12611D01*
X12431Y30305D02*
X12611D01*
X12431Y30335D02*
X12611D01*
X12431Y30395D02*
X12611D01*
X12431Y30425D02*
X12611D01*
X12431Y30455D02*
X12611D01*
X12401Y30485D02*
X12551D01*
X12461Y30365D02*
X12611D01*
X12461Y30605D02*
X12521D01*
X12281D02*
X12431D01*
X11981D02*
X12041D01*
X12341Y30725D02*
X12401D01*
X12101D02*
X12311D01*
X12041Y30785D02*
X12281D01*
X12371Y30545D02*
X12551D01*
X12341Y30575D02*
X12551D01*
X13061Y18185D02*
X13091D01*
X12821D02*
X13031D01*
X12941Y18305D02*
X13151D01*
X13061Y18425D02*
X13271D01*
X12821D02*
X13031D01*
X13181Y18305D02*
X13361D01*
X13301Y18425D02*
X13511D01*
X13121Y18545D02*
X13151D01*
X13181D02*
X13391D01*
X13361Y18665D02*
X13511D01*
X13091Y21695D02*
X13331D01*
X13451Y21245D02*
X13511D01*
X13361Y21365D02*
X13391D01*
X13301Y21455D02*
X13511D01*
X13301Y21485D02*
X13511D01*
X13271Y21515D02*
X13481D01*
X13241Y21545D02*
X13451D01*
X13181Y21605D02*
X13391D01*
X13151Y21635D02*
X13391D01*
X13121Y21665D02*
X13361D01*
X13211Y21575D02*
X13421D01*
X13001Y21755D02*
X13271D01*
X12941Y21785D02*
X13241D01*
X12911Y21815D02*
X13211D01*
X12941Y21845D02*
X13151D01*
X12881D02*
X12911D01*
X12821Y21965D02*
X13001D01*
X13061Y22205D02*
X13271D01*
X13001D02*
X13031D01*
X12821D02*
X12911D01*
X12941Y22325D02*
X13151D01*
X12821Y22445D02*
X12941D01*
X13421D02*
X13511D01*
X13301Y22085D02*
X13391D01*
X13301Y22205D02*
X13511D01*
X12941Y22235D02*
X13451D01*
X12821Y22685D02*
X12911D01*
X13181Y22925D02*
X13271D01*
X12821D02*
X12911D01*
X13151Y22955D02*
X13331D01*
X13121Y22985D02*
X13331D01*
X13121Y23015D02*
X13301D01*
X13181Y23045D02*
X13301D01*
X13121D02*
X13151D01*
X13091Y23075D02*
X13301D01*
X13091Y23105D02*
X13271D01*
X13091Y23135D02*
X13271D01*
X13061Y23195D02*
X13241D01*
X13061Y23225D02*
X13211D01*
X13031Y23255D02*
X13211D01*
X13181Y23285D02*
X13211D01*
X13031D02*
X13151D01*
X13061Y23165D02*
X13241D01*
X12821D02*
X12911D01*
X13361Y22565D02*
X13391D01*
X13301Y22625D02*
X13511D01*
X13301Y22655D02*
X13511D01*
X13301Y22685D02*
X13481D01*
X13271Y22715D02*
X13481D01*
X13241Y22745D02*
X13451D01*
X13241Y22775D02*
X13421D01*
X13211Y22805D02*
X13391D01*
X13211Y22835D02*
X13391D01*
X13181Y22865D02*
X13391D01*
X13181Y22895D02*
X13361D01*
X13301Y22925D02*
X13361D01*
X13001Y23345D02*
X13181D01*
X13001Y23375D02*
X13181D01*
X13241Y23405D02*
X13271D01*
X13061D02*
X13151D01*
X13001D02*
X13031D01*
X12821D02*
X12911D01*
X12971Y23435D02*
X13151D01*
X13061Y23525D02*
X13271D01*
X12941D02*
X13031D01*
X12821D02*
X12911D01*
X13181Y23645D02*
X13211D01*
X12941D02*
X13151D01*
X12821Y23765D02*
X13031D01*
X12941Y23885D02*
X13031D01*
X12821Y24005D02*
X13031D01*
X13301Y23405D02*
X13511D01*
X13211Y23435D02*
X13511D01*
X12971Y23465D02*
X13451D01*
X12971Y23495D02*
X13421D01*
X13301Y23525D02*
X13361D01*
X12821Y24245D02*
X13001D01*
X12941Y24365D02*
X13001D01*
X12821Y24485D02*
X13001D01*
X12941Y24605D02*
X13001D01*
X12821Y24725D02*
X13001D01*
X12941Y24845D02*
X12971D01*
X12821Y25025D02*
X12971D01*
X12941Y25145D02*
X13001D01*
X12821Y25265D02*
X13001D01*
X12941Y25385D02*
X13001D01*
X12821Y25505D02*
X13001D01*
X12941Y25625D02*
X13001D01*
X12821Y25745D02*
X13001D01*
X12941Y25865D02*
X13151D01*
X13061Y25985D02*
X13271D01*
X12821D02*
X13031D01*
X12941Y26105D02*
X13151D01*
X13271Y26135D02*
X13301D01*
X13151D02*
X13181D01*
X13031D02*
X13061D01*
X12911D02*
X12941D01*
X12821Y26225D02*
X12851D01*
X12821Y26465D02*
X12851D01*
X13391Y26135D02*
X13421D01*
X13181Y25865D02*
X13391D01*
X13301Y25985D02*
X13511D01*
X13181Y26105D02*
X13391D01*
X12821Y26705D02*
X12851D01*
X12821Y26945D02*
X12851D01*
X12821Y27185D02*
X12851D01*
X12821Y27425D02*
X12851D01*
X12821Y27665D02*
X12851D01*
X13211Y27905D02*
X13271D01*
X13091Y28025D02*
X13151D01*
X13061Y28085D02*
X13271D01*
X13451Y27665D02*
X13511D01*
X13331Y27785D02*
X13391D01*
X13301Y27905D02*
X13511D01*
X13181Y27935D02*
X13511D01*
X13121Y27995D02*
X13451D01*
X13181Y28025D02*
X13391D01*
X13061Y28055D02*
X13391D01*
X13301Y28085D02*
X13361D01*
X13151Y27965D02*
X13481D01*
X13061Y28145D02*
X13301D01*
X13061Y28175D02*
X13301D01*
X13181Y28205D02*
X13301D01*
X13061D02*
X13151D01*
X13061Y28235D02*
X13301D01*
X13061Y28265D02*
X13301D01*
X13061Y28295D02*
X13301D01*
X13061Y28325D02*
X13271D01*
X13061Y28355D02*
X13301D01*
X13061Y28385D02*
X13301D01*
X13061Y28415D02*
X13301D01*
X13181Y28445D02*
X13301D01*
X13061D02*
X13151D01*
X13061Y28475D02*
X13301D01*
X13061Y28505D02*
X13301D01*
X13061Y28535D02*
X13301D01*
X13061Y28565D02*
X13271D01*
X13061Y28595D02*
X13301D01*
X13061Y28625D02*
X13301D01*
X13061Y28655D02*
X13301D01*
X13181Y28685D02*
X13301D01*
X13061D02*
X13151D01*
X13061Y28715D02*
X13301D01*
X13061Y28745D02*
X13301D01*
X13061Y28805D02*
X13271D01*
X13061Y28835D02*
X13301D01*
X13061Y28865D02*
X13301D01*
X13061Y28895D02*
X13301D01*
X13061Y28775D02*
X13301D01*
X13061Y28955D02*
X13301D01*
X13061Y28985D02*
X13301D01*
X13061Y29015D02*
X13301D01*
X13061Y29045D02*
X13271D01*
X13061Y29075D02*
X13301D01*
X13061Y29105D02*
X13301D01*
X13061Y29135D02*
X13301D01*
X13181Y29165D02*
X13301D01*
X13061D02*
X13151D01*
X13061Y29195D02*
X13301D01*
X13061Y29225D02*
X13301D01*
X13061Y29255D02*
X13301D01*
X13061Y29285D02*
X13271D01*
X13061Y29315D02*
X13301D01*
X13061Y29345D02*
X13331D01*
X12941Y29405D02*
X13151D01*
X12851Y29495D02*
X13121D01*
X12851Y29525D02*
X13031D01*
X12821Y29585D02*
X13001D01*
X12791Y29615D02*
X12971D01*
X12941Y29645D02*
X12971D01*
X12791D02*
X12911D01*
X12791Y29675D02*
X12971D01*
X13421Y29405D02*
X13451D01*
X12821Y29555D02*
X13031D01*
X12971Y29375D02*
X13391D01*
X13181Y29405D02*
X13391D01*
X12911Y29435D02*
X13481D01*
X12881Y29465D02*
X13511D01*
X13271Y29495D02*
X13511D01*
X13301Y29525D02*
X13511D01*
X12791Y29735D02*
X12941D01*
X12821Y29765D02*
X12941D01*
X12791Y29795D02*
X12971D01*
X12791Y29825D02*
X12971D01*
X12791Y29855D02*
X13001D01*
X12941Y29885D02*
X13001D01*
X12821D02*
X12911D01*
X12821Y29915D02*
X13031D01*
X12851Y29945D02*
X13061D01*
X12851Y29975D02*
X13181D01*
X13061Y30005D02*
X13271D01*
X12881D02*
X13031D01*
X13181Y30125D02*
X13331D01*
X13061D02*
X13151D01*
X13421Y29765D02*
X13511D01*
X13361Y29885D02*
X13391D01*
X13211Y29975D02*
X13511D01*
X13301Y30005D02*
X13481D01*
X12911Y30035D02*
X13481D01*
X12941Y30065D02*
X13421D01*
X13001Y30095D02*
X13391D01*
X13661Y18785D02*
X13811D01*
X13781Y18905D02*
X13871D01*
X13571Y18935D02*
X13871D01*
X13571Y18965D02*
X13871D01*
X13571Y18995D02*
X13901D01*
X13571Y19025D02*
X13901D01*
X13781Y19085D02*
X13991D01*
X13601D02*
X13751D01*
X13901Y19205D02*
X14111D01*
X13661D02*
X13871D01*
X13571D02*
X13631D01*
X14201Y18905D02*
X14231D01*
X14021Y19085D02*
X14231D01*
X13571Y19235D02*
X14261D01*
X13571Y19265D02*
X14171D01*
X13571Y19295D02*
X14141D01*
X13901Y19445D02*
X13931D01*
X13661D02*
X13871D01*
X13571D02*
X13631D01*
X13601Y19475D02*
X13901D01*
X13631Y19505D02*
X13871D01*
X13661Y19535D02*
X13841D01*
X13781Y19565D02*
X13811D01*
X13721D02*
X13751D01*
X13631Y20735D02*
X13691D01*
X13601Y20795D02*
X13751D01*
X13601Y20825D02*
X13751D01*
X13571Y20855D02*
X13751D01*
X13661Y20885D02*
X13751D01*
X13571D02*
X13631D01*
X13601Y20765D02*
X13751D01*
X13661Y21125D02*
X13691D01*
X13961Y21845D02*
X14111D01*
X14021Y21965D02*
X14081D01*
X13841D02*
X13991D01*
X13811Y21995D02*
X14081D01*
X13901Y22085D02*
X14111D01*
X13661D02*
X13871D01*
X13781Y22205D02*
X13871D01*
X13571Y22235D02*
X13841D01*
X13571Y22265D02*
X13811D01*
X13661Y22325D02*
X13751D01*
X14051Y21755D02*
X14321D01*
X14021Y21785D02*
X14261D01*
X13991Y21815D02*
X14231D01*
X14141Y21845D02*
X14201D01*
X13931Y21875D02*
X14171D01*
X13901Y21905D02*
X14141D01*
X13871Y21935D02*
X14141D01*
X13961Y22925D02*
X13991D01*
X13841Y23015D02*
X14111D01*
X13901Y23045D02*
X14051D01*
X13781D02*
X13871D01*
X13751Y23075D02*
X14021D01*
X13721Y23105D02*
X13991D01*
X13661Y23135D02*
X13961D01*
X13571Y23195D02*
X13871D01*
X13661Y23285D02*
X13721D01*
X13781Y23165D02*
X13901D01*
X13631D02*
X13751D01*
X14021Y22865D02*
X14291D01*
X13991Y22895D02*
X14261D01*
X14021Y22925D02*
X14231D01*
X13931Y22955D02*
X14201D01*
X13871Y22985D02*
X14171D01*
X13901Y25865D02*
X14111D01*
X13661D02*
X13871D01*
X13781Y25985D02*
X13991D01*
X13901Y26105D02*
X14111D01*
X13661D02*
X13871D01*
X13991Y26135D02*
X14021D01*
X13631D02*
X13901D01*
X13631Y26165D02*
X13871D01*
X13631Y26195D02*
X13871D01*
X13781Y26225D02*
X13871D01*
X13631D02*
X13751D01*
X13631Y26255D02*
X13871D01*
X13631Y26285D02*
X13871D01*
X13631Y26315D02*
X13871D01*
X13661Y26345D02*
X13871D01*
X13631Y26405D02*
X13871D01*
X13631Y26435D02*
X13871D01*
X13781Y26465D02*
X13871D01*
X13631D02*
X13751D01*
X13631Y26495D02*
X13871D01*
X13631Y26375D02*
X13871D01*
X14021Y25985D02*
X14231D01*
X14111Y26135D02*
X14141D01*
X13631Y26555D02*
X13871D01*
X13661Y26585D02*
X13871D01*
X13631Y26615D02*
X13871D01*
X13631Y26645D02*
X13871D01*
X13631Y26675D02*
X13871D01*
X13781Y26705D02*
X13871D01*
X13631D02*
X13751D01*
X13631Y26735D02*
X13871D01*
X13631Y26765D02*
X13871D01*
X13631Y26795D02*
X13871D01*
X13661Y26825D02*
X13871D01*
X13631Y26855D02*
X13871D01*
X13631Y26885D02*
X13871D01*
X13631Y26915D02*
X13871D01*
X13781Y26945D02*
X13871D01*
X13631D02*
X13751D01*
X13631Y26975D02*
X13871D01*
X13631Y27005D02*
X13871D01*
X13631Y27035D02*
X13871D01*
X13661Y27065D02*
X13871D01*
X13631Y27095D02*
X13871D01*
X13631Y27125D02*
X13871D01*
X13781Y27185D02*
X13871D01*
X13631D02*
X13751D01*
X13631Y27215D02*
X13871D01*
X13631Y27245D02*
X13871D01*
X13631Y27275D02*
X13871D01*
X13631Y27155D02*
X13871D01*
X13631Y27335D02*
X13871D01*
X13631Y27365D02*
X13871D01*
X13631Y27395D02*
X13871D01*
X13781Y27425D02*
X13871D01*
X13631D02*
X13751D01*
X13631Y27455D02*
X13871D01*
X13631Y27485D02*
X13871D01*
X13601Y27515D02*
X13871D01*
X13661Y27545D02*
X13871D01*
X13571D02*
X13631D01*
X14771Y18815D02*
X14801D01*
X14711D02*
X14741D01*
X14651D02*
X14681D01*
X14501Y18905D02*
X14711D01*
X14501Y19085D02*
X14711D01*
X14741Y19145D02*
X14771D01*
X15041Y19205D02*
X15071D01*
X14741Y18905D02*
X14951D01*
X14741Y19085D02*
X14951D01*
X14441Y18845D02*
X15071D01*
X14741Y20465D02*
X14801D01*
X14681Y20495D02*
X14861D01*
X14741Y20525D02*
X14861D01*
X14681D02*
X14711D01*
X14681Y20555D02*
X14861D01*
X14681Y20585D02*
X14861D01*
X14711Y20615D02*
X14861D01*
X14711Y20645D02*
X14831D01*
X14711Y20675D02*
X14891D01*
X14711Y20705D02*
X14891D01*
X14711Y20735D02*
X14891D01*
X14711Y20795D02*
X14891D01*
X14711Y20825D02*
X14891D01*
X14711Y20855D02*
X14891D01*
X14861Y20885D02*
X14891D01*
X14711D02*
X14831D01*
X14741Y20765D02*
X14891D01*
X14741Y20945D02*
X14891D01*
X14741Y20975D02*
X14891D01*
X14741Y21005D02*
X14891D01*
X14741Y21035D02*
X14891D01*
X14741Y21065D02*
X14891D01*
X14741Y21095D02*
X14921D01*
X14861Y21125D02*
X14891D01*
X14741D02*
X14831D01*
X14741Y21155D02*
X14921D01*
X14741Y21185D02*
X14891D01*
X14741Y21215D02*
X14921D01*
X14741Y21245D02*
X14921D01*
X14741Y21275D02*
X14921D01*
X14741Y21305D02*
X14921D01*
X14741Y21335D02*
X14921D01*
X14861Y21365D02*
X14921D01*
X14741D02*
X14831D01*
X14741Y21395D02*
X14921D01*
X14741Y21425D02*
X14921D01*
X14381D02*
X14471D01*
X14741Y21455D02*
X14921D01*
X14741Y21485D02*
X14891D01*
X14501D02*
X14531D01*
X14741Y21515D02*
X14921D01*
X14741Y21545D02*
X14891D01*
X14861Y21605D02*
X14891D01*
X14741D02*
X14831D01*
X14381D02*
X14441D01*
X14711Y21635D02*
X14891D01*
X14741Y21665D02*
X14891D01*
X14711Y21695D02*
X14891D01*
X14741Y21575D02*
X14921D01*
X14711Y21755D02*
X14891D01*
X14711Y21845D02*
X14831D01*
X14741Y21965D02*
X14891D01*
X14501D02*
X14711D01*
X14381D02*
X14471D01*
X14651Y22085D02*
X14831D01*
X14381D02*
X14591D01*
X14651Y22115D02*
X14831D01*
X14651Y22145D02*
X14831D01*
X14651Y22175D02*
X14831D01*
X14741Y22205D02*
X14831D01*
X14621D02*
X14711D01*
X14621Y22235D02*
X14801D01*
X14591Y22265D02*
X14801D01*
X14591Y22295D02*
X14801D01*
X14621Y22325D02*
X14771D01*
X14561D02*
X14591D01*
X14531Y22385D02*
X14741D01*
X14501Y22415D02*
X14741D01*
X14501Y22445D02*
X14711D01*
X14471Y22475D02*
X14681D01*
X14561Y22355D02*
X14741D01*
X14861Y21845D02*
X15071D01*
X14681Y21875D02*
X15071D01*
X14591Y21905D02*
X15011D01*
X14501Y21935D02*
X14981D01*
X14411Y22535D02*
X14651D01*
X14381Y22565D02*
X14591D01*
X14681Y23525D02*
X14711D01*
X14651Y23645D02*
X14831D01*
X14681Y23765D02*
X14711D01*
X14741Y23525D02*
X14951D01*
X14861Y23645D02*
X15071D01*
X14741Y23765D02*
X14951D01*
X14621Y25865D02*
X14831D01*
X14381D02*
X14591D01*
X14501Y25985D02*
X14711D01*
X14621Y26105D02*
X14831D01*
X14381D02*
X14591D01*
X14831Y26135D02*
X14861D01*
X14711D02*
X14741D01*
X14591D02*
X14621D01*
X14381Y26345D02*
X14501D01*
X14861Y25865D02*
X15071D01*
X14741Y25985D02*
X14951D01*
X14861Y26105D02*
X15071D01*
X14951Y26135D02*
X14981D01*
X14381Y26585D02*
X14501D01*
X14381Y26825D02*
X14501D01*
X14381Y27065D02*
X14501D01*
X15041D02*
X15071D01*
X14921Y27185D02*
X14951D01*
X14921Y27215D02*
X15101D01*
X14891Y27245D02*
X15071D01*
X14891Y27275D02*
X15071D01*
X14381Y27545D02*
X14501D01*
X14381Y27785D02*
X14501D01*
Y27905D02*
X14621D01*
X14381Y27995D02*
X14711D01*
X14621Y28025D02*
X14741D01*
X14411D02*
X14591D01*
X14441Y28055D02*
X14771D01*
X14741Y28085D02*
X14801D01*
X14501D02*
X14711D01*
X14981Y27425D02*
X15071D01*
X14891Y27335D02*
X15041D01*
X14891Y27365D02*
X15041D01*
X14891Y27395D02*
X15041D01*
X14891Y27425D02*
X14951D01*
X14891Y27455D02*
X15071D01*
X14891Y27485D02*
X15071D01*
X14921Y27515D02*
X15101D01*
X14921Y27545D02*
X15071D01*
X14531Y28145D02*
X14861D01*
X14561Y28175D02*
X14891D01*
X14861Y28205D02*
X14921D01*
X14621D02*
X14831D01*
X14981Y28565D02*
X15011D01*
X14981Y28805D02*
X15041D01*
X14621Y28235D02*
X14951D01*
X14651Y28265D02*
X14981D01*
X14741Y28325D02*
X14951D01*
X14861Y28445D02*
X15071D01*
X14831Y28475D02*
X15041D01*
X14831Y28505D02*
X15011D01*
X14831Y28535D02*
X15011D01*
X14831Y28565D02*
X14951D01*
X14831Y28595D02*
X14981D01*
X14831Y28625D02*
X14981D01*
X14831Y28655D02*
X14981D01*
X14861Y28685D02*
X14981D01*
X14831Y28715D02*
X15011D01*
X14831Y28745D02*
X15011D01*
X14861Y28805D02*
X14951D01*
X14861Y28835D02*
X15101D01*
X14831Y28775D02*
X15041D01*
X15221Y19085D02*
X15431D01*
X15341Y19205D02*
X15551D01*
X15161Y19265D02*
X15581D01*
X15191Y19295D02*
X15611D01*
X15251Y19355D02*
X15641D01*
X15281Y19385D02*
X15641D01*
X15311Y19415D02*
X15641D01*
X15581Y19445D02*
X15671D01*
X15341D02*
X15551D01*
X15311Y19475D02*
X15671D01*
X15341Y19505D02*
X15671D01*
X15341Y19535D02*
X15701D01*
X15461Y19565D02*
X15671D01*
X15371D02*
X15431D01*
X15371Y19595D02*
X15701D01*
X15401Y19625D02*
X15701D01*
X15401Y19655D02*
X15701D01*
X15581Y19685D02*
X15701D01*
X15401D02*
X15551D01*
X15401Y19715D02*
X15701D01*
X15401Y19745D02*
X15701D01*
X15401Y19775D02*
X15701D01*
Y19805D02*
X15731D01*
X15461D02*
X15671D01*
X15401D02*
X15431D01*
X15401Y19835D02*
X15701D01*
X15401Y19865D02*
X15701D01*
X15401Y19895D02*
X15701D01*
X15581Y19925D02*
X15701D01*
X15401D02*
X15551D01*
X15371Y19985D02*
X15731D01*
X15461Y20045D02*
X15671D01*
X15371D02*
X15431D01*
X15371Y19955D02*
X15701D01*
Y20045D02*
X15911D01*
X15341Y20165D02*
X15551D01*
X15461Y20285D02*
X15671D01*
X15401D02*
X15431D01*
X15581Y20165D02*
X15791D01*
X15701Y20285D02*
X15911D01*
X15521Y21005D02*
X15551D01*
X15491Y21035D02*
X15611D01*
X15461Y21065D02*
X15641D01*
X15461Y21095D02*
X15641D01*
X15581Y21125D02*
X15641D01*
X15461D02*
X15551D01*
X15431Y21155D02*
X15641D01*
X15431Y21185D02*
X15611D01*
X15431Y21215D02*
X15611D01*
X15461Y21245D02*
X15611D01*
X15401D02*
X15431D01*
X15401Y21275D02*
X15581D01*
X15401Y21305D02*
X15581D01*
X15371Y21335D02*
X15551D01*
X15341Y21365D02*
X15551D01*
X15311Y21395D02*
X15521D01*
X15311Y21425D02*
X15521D01*
X15281Y21455D02*
X15491D01*
X15461Y21485D02*
X15491D01*
X15281D02*
X15431D01*
X15251Y21515D02*
X15461D01*
X15221Y21545D02*
X15431D01*
X15341Y21605D02*
X15371D01*
X15161D02*
X15311D01*
X15191Y21575D02*
X15401D01*
X15851Y21965D02*
X15911D01*
X15581Y23285D02*
X15791D01*
X15731Y23165D02*
X15911D01*
X15461Y23405D02*
X15671D01*
X15401D02*
X15431D01*
X15461Y23525D02*
X15671D01*
X15221D02*
X15431D01*
X15581Y23645D02*
X15611D01*
X15341D02*
X15551D01*
X15221Y23765D02*
X15311D01*
X15701Y23405D02*
X15911D01*
X15161Y23465D02*
X15911D01*
X15701Y23525D02*
X15821D01*
X15341Y25865D02*
X15551D01*
X15461Y25985D02*
X15671D01*
X15221D02*
X15431D01*
X15341Y26105D02*
X15551D01*
X15671Y26135D02*
X15701D01*
X15551D02*
X15581D01*
X15431D02*
X15461D01*
X15221Y26225D02*
X15311D01*
X15221Y26465D02*
X15311D01*
X15821Y25865D02*
X15881D01*
X15581D02*
X15791D01*
X15701Y25985D02*
X15881D01*
X15581Y26105D02*
X15791D01*
X15221Y26705D02*
X15311D01*
X15221Y26945D02*
X15311D01*
X15341Y27065D02*
X15431D01*
X15461Y27185D02*
X15551D01*
X15341D02*
X15431D01*
X15371Y27215D02*
X15581D01*
X15401Y27245D02*
X15581D01*
X15431Y27275D02*
X15581D01*
X15431Y27335D02*
X15611D01*
X15431Y27365D02*
X15611D01*
X15431Y27395D02*
X15611D01*
X15461Y27425D02*
X15611D01*
X15431Y27455D02*
X15581D01*
X15401Y27485D02*
X15581D01*
X15371Y27515D02*
X15581D01*
X15341Y27545D02*
X15551D01*
X15221Y27665D02*
X15431D01*
X15161Y27725D02*
X15311D01*
X15461Y28325D02*
X15491D01*
X15221D02*
X15431D01*
X15281Y28385D02*
X15551D01*
X15341Y28415D02*
X15581D01*
Y28445D02*
X15611D01*
X15401D02*
X15551D01*
X15431Y28475D02*
X15611D01*
X15431Y28505D02*
X15611D01*
X15461Y28535D02*
X15641D01*
X15461Y28565D02*
X15641D01*
X15461Y28595D02*
X15641D01*
X15461Y28625D02*
X15641D01*
X15461Y28655D02*
X15641D01*
X15581Y28685D02*
X15641D01*
X15461D02*
X15551D01*
X15461Y28715D02*
X15641D01*
X15461Y28745D02*
X15611D01*
X15461Y28805D02*
X15611D01*
X15401D02*
X15431D01*
X15371Y28835D02*
X15581D01*
X15341Y28865D02*
X15581D01*
X15431Y28775D02*
X15611D01*
X15221Y29045D02*
X15311D01*
X15161D02*
X15191D01*
X16301Y20165D02*
X16391D01*
X16061D02*
X16271D01*
X16181Y20285D02*
X16391D01*
X16301Y20405D02*
X16511D01*
X16181D02*
X16271D01*
X16601Y20765D02*
X16631D01*
X16421Y20285D02*
X16601D01*
X16001Y20345D02*
X16661D01*
X16091Y20375D02*
X16691D01*
X16541Y20405D02*
X16721D01*
X16421Y20525D02*
X16631D01*
X16031Y21815D02*
X16121D01*
X16301Y21845D02*
X16511D01*
X16061D02*
X16271D01*
X16181Y21965D02*
X16391D01*
X16301Y22085D02*
X16511D01*
X16061D02*
X16271D01*
X16181Y22205D02*
X16241D01*
X15971Y22295D02*
X16271D01*
X16061Y22325D02*
X16271D01*
X15971D02*
X16031D01*
X15971Y22385D02*
X16271D01*
X15971Y22415D02*
X16301D01*
X16181Y22445D02*
X16301D01*
X15971D02*
X16151D01*
X15971Y22475D02*
X16301D01*
X15971Y22355D02*
X16301D01*
X16421Y21965D02*
X16631D01*
X15971Y22535D02*
X16301D01*
X16061Y22565D02*
X16271D01*
X15971D02*
X16031D01*
X15971Y22595D02*
X16301D01*
X15971Y22625D02*
X16301D01*
X15971Y22655D02*
X16301D01*
X16181Y22685D02*
X16301D01*
X15971D02*
X16151D01*
X15971Y22715D02*
X16301D01*
X15971Y22745D02*
X16271D01*
X16061Y22805D02*
X16271D01*
X16181Y22925D02*
X16241D01*
X16061Y23045D02*
X16211D01*
X16061Y23285D02*
X16091D01*
X16781Y20645D02*
X16871D01*
X16781Y20885D02*
X16991D01*
X16901Y20765D02*
X16931D01*
X16901Y21005D02*
X16991D01*
X16781Y21125D02*
X16991D01*
X16901Y21245D02*
X17051D01*
X17021Y21365D02*
X17051D01*
X16781D02*
X16991D01*
X16901Y21485D02*
X17021D01*
X16781Y21605D02*
X16991D01*
X16781Y21845D02*
X16871D01*
X8981Y21725D02*
X9101D01*
X8801D02*
X8951D01*
X9941Y19325D02*
X10091D01*
X9701D02*
X9911D01*
X9791Y26525D02*
X10031D01*
X9821Y27305D02*
X10031D01*
X9791Y28115D02*
X10031D01*
X9821Y28925D02*
X10031D01*
X10631Y20915D02*
X10811D01*
X10661Y21725D02*
X10811D01*
X10571D02*
X10631D01*
X11081D02*
X11111D01*
X10661Y26525D02*
X10901D01*
X10541Y27305D02*
X10691D01*
X10451D02*
X10511D01*
X10961D02*
X10991D01*
X10571Y28886D02*
X10751D01*
X11621Y19325D02*
X11681D01*
X11381D02*
X11591D01*
X11711Y20915D02*
X11921D01*
X11531Y21725D02*
X11591D01*
X11381Y22505D02*
X11621D01*
Y27305D02*
X11711D01*
X11621Y26525D02*
X11861D01*
X11741Y27305D02*
X11861D01*
X11291Y28886D02*
X11381D01*
X11621Y28115D02*
X11861D01*
X12011Y22505D02*
X12191D01*
X12461Y21725D02*
X12551D01*
X12461Y24125D02*
X12671D01*
X12611Y27305D02*
X12671D01*
X12461Y24905D02*
X12671D01*
X12221Y28925D02*
X12281D01*
X12041D02*
X12191D01*
X12041Y29705D02*
X12281D01*
X12311Y28115D02*
X12611D01*
X12371Y30515D02*
X12581D01*
X13061Y21725D02*
X13271D01*
X13001Y23315D02*
X13181D01*
X12941Y24125D02*
X13001D01*
X12941Y24905D02*
X12971D01*
X13061Y28115D02*
X13331D01*
X13181Y28925D02*
X13301D01*
X13061D02*
X13151D01*
X12791Y29705D02*
X12941D01*
X14021Y19325D02*
X14051D01*
X13781D02*
X13991D01*
X13571Y20915D02*
X13751D01*
X14261Y21725D02*
X14321D01*
X14081D02*
X14231D01*
X13631Y26525D02*
X13871D01*
X13661Y27305D02*
X13871D01*
X14711Y20915D02*
X14891D01*
X14741Y21725D02*
X14891D01*
X14441Y22505D02*
X14651D01*
X14381Y27305D02*
X14501D01*
X14891D02*
X15071D01*
X14501Y28115D02*
X14831D01*
X14921Y28925D02*
X15071D01*
X15461Y19325D02*
X15611D01*
X15221D02*
X15431D01*
X15221Y21725D02*
X15251D01*
X15581Y27305D02*
X15611D01*
X15431D02*
X15551D01*
X15341Y28925D02*
X15521D01*
X15971Y22505D02*
X16301D01*
X16541Y21725D02*
X16631D01*
X16901D02*
X16961D01*
X10181Y18905D02*
X10391D01*
X10181Y19085D02*
X10391D01*
X11141Y18905D02*
X11351D01*
X11141Y19085D02*
X11351D01*
X10331Y18815D02*
X11201D01*
X10241Y18845D02*
X11261D01*
X10151Y18875D02*
X11321D01*
X9821Y19115D02*
X10541D01*
X9821Y19145D02*
X10421D01*
X9791Y19175D02*
X10331D01*
X10061Y18935D02*
X11411D01*
X9551Y19595D02*
X9881D01*
X9551Y19625D02*
X9881D01*
X9551Y19655D02*
X9851D01*
X9521Y19685D02*
X9551D01*
X9521Y19715D02*
X9851D01*
X9521Y19745D02*
X9851D01*
X9521Y19775D02*
X9821D01*
X9521Y19805D02*
X9671D01*
X9491Y19835D02*
X9821D01*
X9521Y19865D02*
X9821D01*
X9491Y19895D02*
X9821D01*
X9491Y19925D02*
X9551D01*
X9491Y19985D02*
X9821D01*
X9491Y20015D02*
X9821D01*
X9491Y20045D02*
X9671D01*
X9491Y20075D02*
X9821D01*
X9491Y19955D02*
X9821D01*
X9491Y20135D02*
X9821D01*
X9521Y20165D02*
X9551D01*
X9521Y20195D02*
X9821D01*
X9521Y20225D02*
X9821D01*
X9521Y20255D02*
X9821D01*
X9521Y20285D02*
X9671D01*
X9521Y20315D02*
X9851D01*
X9521Y20345D02*
X9851D01*
X9551Y20375D02*
X9851D01*
X9551Y20435D02*
X9881D01*
X9551Y20465D02*
X9881D01*
X9491Y20675D02*
X10121D01*
X9401Y20705D02*
X10121D01*
X9371Y20735D02*
X10121D01*
X9461Y20765D02*
X9671D01*
X9251Y20795D02*
X10121D01*
X9221Y20825D02*
X10121D01*
X9191Y20855D02*
X10121D01*
X9341Y20885D02*
X9551D01*
X9461Y21005D02*
X9551D01*
X11141Y21185D02*
X11321D01*
X11141Y21215D02*
X11321D01*
X11141Y21245D02*
X11291D01*
X11111Y21275D02*
X11291D01*
X11111Y21305D02*
X11291D01*
X11111Y21335D02*
X11291D01*
X11081Y21365D02*
X11231D01*
X11081Y21395D02*
X11261D01*
X11081Y21425D02*
X11261D01*
X11081Y21455D02*
X11261D01*
X11141Y21485D02*
X11261D01*
X11081Y21515D02*
X11261D01*
X11081Y21545D02*
X11231D01*
X11081Y21605D02*
X11231D01*
X11051Y21635D02*
X11231D01*
X11081Y21665D02*
X11231D01*
X11051Y21695D02*
X11231D01*
X11051Y21575D02*
X11231D01*
X9101Y20945D02*
X9971D01*
X9071Y20975D02*
X9641D01*
X9461Y22445D02*
X9611D01*
X11081Y21755D02*
X11261D01*
X11081Y21785D02*
X11261D01*
X11081Y21815D02*
X11261D01*
X11021Y21845D02*
X11231D01*
X11141Y21965D02*
X11351D01*
X11141Y22085D02*
X11231D01*
X11141Y22115D02*
X11351D01*
X10691Y21875D02*
X11261D01*
X10751Y21905D02*
X11291D01*
X9041Y22475D02*
X9671D01*
X10811Y21935D02*
X11411D01*
X9461Y22685D02*
X9671D01*
X10181D02*
X10391D01*
X10301Y22805D02*
X10511D01*
X10181Y22925D02*
X10391D01*
X10271Y22955D02*
X10571D01*
X9131Y22535D02*
X9821D01*
X9341Y22565D02*
X9551D01*
X9191Y22595D02*
X10061D01*
X9251Y22625D02*
X10331D01*
X9311Y22655D02*
X10631D01*
X9401Y22715D02*
X10661D01*
X9461Y22745D02*
X10691D01*
X9551Y22775D02*
X10691D01*
X9671Y22835D02*
X10691D01*
X9791Y22865D02*
X10661D01*
X9911Y22895D02*
X10661D01*
X9461Y25985D02*
X9671D01*
X9551Y26135D02*
X9581D01*
X10301Y25865D02*
X10511D01*
X10181Y25985D02*
X10391D01*
X10301Y26105D02*
X10511D01*
X11021Y25865D02*
X11231D01*
X11141Y25985D02*
X11351D01*
X11021Y26105D02*
X11231D01*
X11111Y26135D02*
X11141D01*
X9341Y25865D02*
X9551D01*
X9341Y26105D02*
X9551D01*
X11021Y26825D02*
X11201D01*
X11021Y26855D02*
X11231D01*
X11051Y26885D02*
X11231D01*
X11051Y26915D02*
X11231D01*
X11141Y26945D02*
X11231D01*
X11081Y26975D02*
X11261D01*
X11081Y27005D02*
X11261D01*
X11081Y27035D02*
X11261D01*
X11081Y27065D02*
X11231D01*
X11081Y27095D02*
X11261D01*
X11081Y27125D02*
X11261D01*
X11141Y27185D02*
X11231D01*
X11051Y27215D02*
X11231D01*
X11021Y27245D02*
X11231D01*
X10991Y27275D02*
X11201D01*
X11081Y27155D02*
X11261D01*
X10481Y26735D02*
X11141D01*
X10841Y26765D02*
X11171D01*
X10931Y26795D02*
X11171D01*
X10871Y27335D02*
X11171D01*
X10481Y27365D02*
X11141D01*
X11171Y28766D02*
X11381D01*
X11081Y28856D02*
X11411D01*
X10601Y28796D02*
X11501D01*
X10991Y28826D02*
X11441D01*
X9521Y29165D02*
X9551D01*
X9491Y29195D02*
X9731D01*
X9461Y29225D02*
X9671D01*
X9461Y29255D02*
X9641D01*
X9461Y29285D02*
X9641D01*
X9431Y29315D02*
X9611D01*
X9431Y29345D02*
X9611D01*
X9431Y29375D02*
X9611D01*
X9431Y29405D02*
X9551D01*
X9431Y29435D02*
X9581D01*
X9431Y29465D02*
X9611D01*
X9431Y29495D02*
X9611D01*
X9461Y29525D02*
X9611D01*
X9461Y29585D02*
X9641D01*
X9461Y29615D02*
X9671D01*
X9491Y29645D02*
X9551D01*
X9491Y29675D02*
X9761D01*
X11141Y28916D02*
X11351D01*
X11171Y28946D02*
X11351D01*
X11171Y28976D02*
X11351D01*
X11171Y29246D02*
X11381D01*
X11171Y29276D02*
X11351D01*
X11141Y29306D02*
X11351D01*
X11111Y29336D02*
X11321D01*
X11081Y29366D02*
X11261D01*
X11171Y29486D02*
X11201D01*
X9431Y29555D02*
X9641D01*
X9551Y29135D02*
X10181D01*
X10961Y29396D02*
X11291D01*
X10631Y29426D02*
X11261D01*
X10661Y29456D02*
X11231D01*
X9551Y29735D02*
X10151D01*
X11861Y18425D02*
X12071D01*
X12581Y18155D02*
X12941D01*
X12581Y18185D02*
X12791D01*
X12701Y18305D02*
X12911D01*
X12581Y18425D02*
X12791D01*
X12281Y18215D02*
X13181D01*
X12191Y18245D02*
X13241D01*
X12131Y18275D02*
X13301D01*
X11981Y18335D02*
X13421D01*
X11891Y18395D02*
X13511D01*
X11801Y18455D02*
X13601D01*
X12761Y18485D02*
X13631D01*
X11771D02*
X12731D01*
X11921Y18365D02*
X13451D01*
X11861Y18665D02*
X12071D01*
X13421Y18545D02*
X13631D01*
X13541Y18665D02*
X13751D01*
X13391Y18695D02*
X13781D01*
X13421Y18725D02*
X13811D01*
X13451Y18755D02*
X13811D01*
X13481Y18785D02*
X13631D01*
X13481Y18815D02*
X13841D01*
X13511Y18845D02*
X13841D01*
X13541Y18875D02*
X13871D01*
X13541Y18905D02*
X13751D01*
X14261D02*
X14471D01*
X14261Y19085D02*
X14471D01*
X11741Y18545D02*
X11951D01*
X13181Y18575D02*
X13691D01*
X11681D02*
X12251D01*
X13241Y18605D02*
X13721D01*
X11651D02*
X12191D01*
X13301Y18635D02*
X13751D01*
X11621D02*
X12131D01*
X11591Y18695D02*
X12041D01*
X11561Y18725D02*
X11981D01*
X14141Y19205D02*
X14351D01*
X13571Y19175D02*
X14441D01*
X13601Y19145D02*
X14711D01*
X13541Y19355D02*
X14021D01*
X13541Y19385D02*
X13991D01*
X13541Y19415D02*
X13961D01*
X11771Y20975D02*
X11981D01*
X11861Y21005D02*
X11981D01*
X11801Y21035D02*
X12011D01*
X11801Y21065D02*
X12041D01*
X11831Y21095D02*
X12071D01*
X11861Y21125D02*
X11951D01*
X11891Y21155D02*
X12131D01*
X11921Y21185D02*
X12131D01*
X11921Y21215D02*
X12191D01*
X13541Y20945D02*
X13751D01*
X13541Y20975D02*
X13721D01*
X13541Y21005D02*
X13721D01*
X13511Y21035D02*
X13721D01*
X13511Y21065D02*
X13691D01*
X13511Y21095D02*
X13691D01*
X13481Y21125D02*
X13631D01*
X13481Y21155D02*
X13661D01*
X13481Y21185D02*
X13661D01*
X13451Y21215D02*
X13661D01*
X13541Y21245D02*
X13631D01*
X13421Y21275D02*
X13631D01*
X13421Y21305D02*
X13601D01*
X13391Y21335D02*
X13601D01*
X13421Y21365D02*
X13571D01*
X14351Y21455D02*
X14501D01*
X14321Y21485D02*
X14471D01*
X14291Y21515D02*
X14531D01*
X14261Y21545D02*
X14501D01*
X14201Y21605D02*
X14351D01*
X14171Y21635D02*
X14411D01*
X14231Y21575D02*
X14471D01*
X11741Y20945D02*
X11951D01*
X13361Y21395D02*
X13541D01*
X13331Y21425D02*
X13541D01*
X14141Y21665D02*
X14381D01*
X12491D02*
X12731D01*
X14111Y21695D02*
X14381D01*
X12491D02*
X12761D01*
X11861Y22205D02*
X12071D01*
X11801Y22235D02*
X12341D01*
X11831Y22265D02*
X12371D01*
X11861Y22325D02*
X11951D01*
X11921Y22385D02*
X12131D01*
X11951Y22415D02*
X12161D01*
X12701Y21845D02*
X12821D01*
X12671Y21875D02*
X13121D01*
X12671Y21905D02*
X13091D01*
X12671Y21935D02*
X13061D01*
X12701Y21965D02*
X12791D01*
X12671Y21995D02*
X12971D01*
X12701Y22025D02*
X12941D01*
X12671Y22055D02*
X12941D01*
X12701Y22085D02*
X12911D01*
X12671Y22115D02*
X12911D01*
X12671Y22145D02*
X12911D01*
X12671Y22175D02*
X12911D01*
X12671Y22205D02*
X12791D01*
X12701Y22325D02*
X12911D01*
X12581Y22445D02*
X12791D01*
X13421Y22085D02*
X13631D01*
X13541Y22205D02*
X13751D01*
X13541Y22295D02*
X13781D01*
X13541Y22325D02*
X13631D01*
X13481Y22385D02*
X13691D01*
X13451Y22415D02*
X13691D01*
X13541Y22445D02*
X13661D01*
X13421Y22475D02*
X13631D01*
X11891Y22355D02*
X12101D01*
X13511D02*
X13721D01*
X12461Y21755D02*
X12791D01*
X12461Y21785D02*
X12791D01*
X12461Y21815D02*
X12821D01*
X14141Y22085D02*
X14351D01*
X11741D02*
X11951D01*
X13181Y22115D02*
X14501D01*
X13121Y22145D02*
X14351D01*
X11561D02*
X12191D01*
X13031Y22175D02*
X14201D01*
X11711D02*
X12251D01*
X12461Y22235D02*
X12911D01*
X12461Y22265D02*
X13301D01*
X11861Y22295D02*
X13211D01*
X12281Y22385D02*
X13031D01*
X12311Y22415D02*
X13001D01*
X12401Y22475D02*
X12911D01*
X12221Y22355D02*
X13091D01*
X11801Y22865D02*
X12071D01*
X11831Y22895D02*
X12101D01*
X11861Y22925D02*
X12071D01*
X11891Y22955D02*
X12161D01*
X11921Y22985D02*
X12191D01*
X12701Y22565D02*
X12911D01*
X12581Y22685D02*
X12791D01*
X12701Y22805D02*
X12911D01*
X12581Y22925D02*
X12791D01*
X12701Y23045D02*
X12911D01*
X12701Y23285D02*
X12911D01*
X13421Y22565D02*
X13571D01*
X13541Y23225D02*
X13811D01*
X13481Y23255D02*
X13781D01*
X13421Y23285D02*
X13631D01*
X14351Y22595D02*
X14591D01*
X14321Y22625D02*
X14561D01*
X14291Y22655D02*
X14531D01*
X14261Y22685D02*
X14471D01*
X14231Y22715D02*
X14471D01*
X14201Y22745D02*
X14441D01*
X12581Y23165D02*
X12791D01*
X13361Y22535D02*
X13601D01*
X12461D02*
X12911D01*
X13331Y22595D02*
X13541D01*
X12461D02*
X12911D01*
X12461Y22625D02*
X12911D01*
X12461Y22655D02*
X12911D01*
X12461Y22715D02*
X12911D01*
X12461Y22745D02*
X12911D01*
X14141Y22775D02*
X14411D01*
X12461D02*
X12911D01*
X11681D02*
X11951D01*
X14141Y22805D02*
X14351D01*
X11741D02*
X11951D01*
X14081Y22835D02*
X14351D01*
X12461D02*
X12911D01*
X11741D02*
X12011D01*
X12461Y22865D02*
X12911D01*
X12251Y22895D02*
X12911D01*
X12281Y22955D02*
X12911D01*
X12281Y22985D02*
X12911D01*
X12311Y23015D02*
X12911D01*
X12341Y23075D02*
X12911D01*
X12341Y23105D02*
X12911D01*
X12101Y23135D02*
X12911D01*
X12161Y23195D02*
X12911D01*
X12191Y23225D02*
X12911D01*
X12221Y23255D02*
X12911D01*
X12581Y23405D02*
X12791D01*
X12581Y23525D02*
X12791D01*
X12701Y23645D02*
X12911D01*
X12581Y23765D02*
X12791D01*
X12701Y23885D02*
X12911D01*
X12581Y24005D02*
X12791D01*
X13361Y23345D02*
X13631D01*
X12311D02*
X12911D01*
X13301Y23375D02*
X13601D01*
X12311D02*
X12911D01*
X12371Y23435D02*
X12911D01*
X12401Y23465D02*
X12911D01*
X12431Y23495D02*
X12911D01*
X12461Y23555D02*
X13331D01*
X12461Y23585D02*
X13271D01*
X12461Y23615D02*
X13241D01*
X12461Y23675D02*
X13151D01*
X12461Y23705D02*
X13091D01*
X12461Y23735D02*
X13061D01*
X12461Y23795D02*
X13061D01*
X12461Y23825D02*
X13061D01*
X12461Y23855D02*
X13061D01*
X12461Y23915D02*
X13031D01*
X12461Y23945D02*
X13031D01*
X12461Y24035D02*
X13031D01*
X12461Y24065D02*
X13001D01*
X12461Y24095D02*
X13001D01*
X12461Y23975D02*
X13031D01*
X12581Y24245D02*
X12791D01*
X12701Y24365D02*
X12911D01*
X12581Y24485D02*
X12791D01*
X12701Y24605D02*
X12911D01*
X12581Y24725D02*
X12791D01*
X12701Y24845D02*
X12911D01*
X12461Y24155D02*
X13001D01*
X12461Y24185D02*
X13001D01*
X12461Y24215D02*
X13001D01*
X12461Y24275D02*
X13001D01*
X12461Y24305D02*
X13001D01*
X12461Y24335D02*
X13001D01*
X12461Y24395D02*
X13001D01*
X12461Y24425D02*
X13001D01*
X12461Y24455D02*
X13001D01*
X12461Y24515D02*
X13001D01*
X12461Y24545D02*
X13001D01*
X12461Y24575D02*
X13001D01*
X12461Y24635D02*
X13001D01*
X12461Y24665D02*
X13001D01*
X12461Y24695D02*
X13001D01*
X12461Y24785D02*
X12971D01*
X12461Y24815D02*
X13001D01*
X12461Y24875D02*
X13001D01*
X12461Y24755D02*
X13001D01*
X12581Y25025D02*
X12791D01*
X12701Y25145D02*
X12911D01*
X12581Y25265D02*
X12791D01*
X12701Y25385D02*
X12911D01*
X12581Y25505D02*
X12791D01*
X12701Y25625D02*
X12911D01*
X12461Y24935D02*
X13001D01*
X12461Y24965D02*
X12971D01*
X12461Y24995D02*
X13001D01*
X12461Y25055D02*
X13001D01*
X12461Y25085D02*
X12971D01*
X12461Y25115D02*
X13001D01*
X12461Y25175D02*
X13001D01*
X12461Y25205D02*
X13001D01*
X12461Y25235D02*
X13001D01*
X12461Y25295D02*
X13001D01*
X12461Y25325D02*
X13001D01*
X12461Y25355D02*
X13001D01*
X12461Y25415D02*
X13001D01*
X12461Y25445D02*
X13001D01*
X12461Y25475D02*
X13001D01*
X12461Y25535D02*
X13001D01*
X12461Y25595D02*
X13001D01*
X12461Y25655D02*
X13001D01*
X12461Y25685D02*
X13001D01*
X12461Y25565D02*
X13001D01*
X11861Y25985D02*
X12071D01*
X11951Y26135D02*
X11981D01*
X12581Y25745D02*
X12791D01*
X12701Y25865D02*
X12911D01*
X12581Y25985D02*
X12791D01*
X12701Y26105D02*
X12911D01*
X12611Y26165D02*
X12851D01*
X12611Y26195D02*
X12851D01*
X12611Y26225D02*
X12791D01*
X12611Y26255D02*
X12821D01*
X12611Y26285D02*
X12851D01*
X12611Y26315D02*
X12851D01*
X12701Y26345D02*
X12851D01*
X12611Y26405D02*
X12851D01*
X12611Y26435D02*
X12851D01*
X12611Y26465D02*
X12791D01*
X12611Y26495D02*
X12821D01*
X13421Y25865D02*
X13631D01*
X13541Y25985D02*
X13751D01*
X13421Y26105D02*
X13631D01*
X13511Y26135D02*
X13541D01*
X14261Y25985D02*
X14471D01*
X14231Y26135D02*
X14531D01*
X14291Y26165D02*
X14501D01*
X14291Y26195D02*
X14501D01*
X14261Y26225D02*
X14471D01*
X14291Y26255D02*
X14501D01*
X14291Y26285D02*
X14501D01*
X14291Y26315D02*
X14501D01*
X14261Y26345D02*
X14351D01*
X14291Y26405D02*
X14501D01*
X14291Y26435D02*
X14501D01*
X14261Y26465D02*
X14471D01*
X14291Y26495D02*
X14501D01*
X12611Y26375D02*
X12851D01*
X14291D02*
X14501D01*
X14141Y25865D02*
X14351D01*
X11741D02*
X11951D01*
X14141Y26105D02*
X14351D01*
X11741D02*
X11951D01*
X12551Y26135D02*
X12851D01*
X12611Y26555D02*
X12851D01*
X12701Y26585D02*
X12851D01*
X12611Y26615D02*
X12851D01*
X12611Y26645D02*
X12851D01*
X12611Y26675D02*
X12851D01*
X12611Y26705D02*
X12791D01*
X12611Y26735D02*
X12821D01*
X12611Y26765D02*
X12851D01*
X12611Y26795D02*
X12851D01*
X12701Y26825D02*
X12851D01*
X12611Y26855D02*
X12851D01*
X12611Y26885D02*
X12851D01*
X12611Y26915D02*
X12851D01*
X12611Y26945D02*
X12791D01*
X12611Y26975D02*
X12821D01*
X12611Y27005D02*
X12851D01*
X12611Y27035D02*
X12851D01*
X12701Y27065D02*
X12851D01*
X12611Y27095D02*
X12851D01*
X12611Y27125D02*
X12851D01*
X12611Y27185D02*
X12791D01*
X12611Y27215D02*
X12821D01*
X12611Y27245D02*
X12851D01*
X12611Y27275D02*
X12851D01*
X14291Y26555D02*
X14501D01*
X14261Y26585D02*
X14351D01*
X14291Y26615D02*
X14501D01*
X14291Y26645D02*
X14501D01*
X14291Y26675D02*
X14501D01*
X14261Y26705D02*
X14471D01*
X14291Y26735D02*
X14501D01*
X14291Y26765D02*
X14501D01*
X14291Y26795D02*
X14501D01*
X14261Y26825D02*
X14351D01*
X14291Y26855D02*
X14501D01*
X14291Y26885D02*
X14501D01*
X14291Y26915D02*
X14501D01*
X14261Y26945D02*
X14471D01*
X14291Y26975D02*
X14501D01*
X14291Y27005D02*
X14501D01*
X14291Y27035D02*
X14501D01*
X14261Y27065D02*
X14351D01*
X14291Y27095D02*
X14501D01*
X14291Y27125D02*
X14501D01*
X14261Y27185D02*
X14471D01*
X14291Y27215D02*
X14501D01*
X14291Y27245D02*
X14501D01*
X14291Y27275D02*
X14501D01*
X12611Y27155D02*
X12851D01*
X14291D02*
X14501D01*
X12611Y27335D02*
X12851D01*
X12611Y27365D02*
X12851D01*
X12611Y27395D02*
X12851D01*
X12611Y27425D02*
X12791D01*
X12611Y27455D02*
X12821D01*
X12611Y27485D02*
X12851D01*
X12611Y27515D02*
X12851D01*
X12701Y27545D02*
X12851D01*
X12611Y27575D02*
X12851D01*
X12611Y27605D02*
X12851D01*
X12611Y27635D02*
X12851D01*
X12611Y27665D02*
X12791D01*
X12611Y27695D02*
X12821D01*
X12611Y27725D02*
X12851D01*
X12611Y27755D02*
X12851D01*
X12701Y27785D02*
X12851D01*
X12581Y27905D02*
X12791D01*
X13541Y27575D02*
X13871D01*
X13511Y27605D02*
X13841D01*
X13481Y27635D02*
X13811D01*
X13541Y27665D02*
X13751D01*
X13421Y27695D02*
X13751D01*
X13391Y27725D02*
X13721D01*
X13421Y27785D02*
X13631D01*
X14291Y27335D02*
X14501D01*
X14291Y27365D02*
X14501D01*
X14291Y27395D02*
X14501D01*
X14261Y27425D02*
X14471D01*
X14291Y27455D02*
X14501D01*
X14291Y27485D02*
X14501D01*
X14291Y27515D02*
X14501D01*
X14261Y27545D02*
X14351D01*
X14291Y27575D02*
X14501D01*
X14291Y27605D02*
X14501D01*
X14291Y27635D02*
X14501D01*
X14261Y27665D02*
X14471D01*
X14291Y27695D02*
X14501D01*
X14291Y27725D02*
X14501D01*
X14291Y27755D02*
X14501D01*
X14261Y27785D02*
X14351D01*
X14291Y27815D02*
X14531D01*
X14291Y27845D02*
X14561D01*
X14291Y27875D02*
X14591D01*
X14291Y27905D02*
X14471D01*
X14321Y27935D02*
X14651D01*
X14351Y27965D02*
X14681D01*
X13361Y27755D02*
X13691D01*
X13301Y27815D02*
X13631D01*
X12551D02*
X12851D01*
X13271Y27845D02*
X13601D01*
X12521D02*
X12821D01*
X13241Y27875D02*
X13571D01*
X12491D02*
X12821D01*
X12461Y27935D02*
X12761D01*
X12431Y27965D02*
X12731D01*
X13391Y29585D02*
X13571D01*
X13391Y29615D02*
X13571D01*
X13421Y29645D02*
X13571D01*
X13421Y29675D02*
X13601D01*
X13361Y29555D02*
X13541D01*
X11951Y29945D02*
X12371D01*
X11891Y29975D02*
X12431D01*
X11861Y30005D02*
X12071D01*
X11831Y30035D02*
X12491D01*
X11801Y30065D02*
X12521D01*
X11771Y30095D02*
X12041D01*
X11771Y30125D02*
X11951D01*
X11771Y30155D02*
X11951D01*
X13421Y29735D02*
X13601D01*
X13541Y29765D02*
X13601D01*
X13421Y29795D02*
X13601D01*
X13421Y29825D02*
X13571D01*
X13391Y29855D02*
X13571D01*
X13421Y29885D02*
X13571D01*
X13331Y29915D02*
X13541D01*
X13301Y29945D02*
X13541D01*
X11771Y30545D02*
X11951D01*
X11771Y30575D02*
X11981D01*
X11801Y30605D02*
X11951D01*
X11831Y30635D02*
X12521D01*
X11861Y30665D02*
X12491D01*
X11891Y30695D02*
X12461D01*
X11921Y30725D02*
X12071D01*
X11951Y30755D02*
X12371D01*
X14981Y18905D02*
X15191D01*
X14981Y19085D02*
X15191D01*
X15101Y19205D02*
X15311D01*
X15101Y19235D02*
X15581D01*
X14801Y19145D02*
X15491D01*
X14951Y19175D02*
X15521D01*
X15941Y20045D02*
X16121D01*
X15371Y20015D02*
X16001D01*
X15341Y20075D02*
X16211D01*
X15821Y20165D02*
X16031D01*
X15941Y20285D02*
X16151D01*
X16661Y20525D02*
X16811D01*
X16571Y20705D02*
X16931D01*
X16571Y20735D02*
X16931D01*
X16601Y20795D02*
X16961D01*
X16631Y20825D02*
X16961D01*
X16631Y20855D02*
X16961D01*
X16661Y20885D02*
X16751D01*
X16661Y20765D02*
X16871D01*
X15341Y20135D02*
X16361D01*
X15341Y20195D02*
X16481D01*
X15341Y20225D02*
X16511D01*
X15371Y20255D02*
X16571D01*
X15431Y20315D02*
X16631D01*
X16241Y20435D02*
X16751D01*
X16301Y20465D02*
X16781D01*
X16331Y20495D02*
X16811D01*
X16421Y20555D02*
X16841D01*
X16481Y20585D02*
X16871D01*
X16481Y20615D02*
X16871D01*
X16541Y20645D02*
X16751D01*
X16541Y20675D02*
X16901D01*
X15101Y21635D02*
X15371D01*
X15071Y21665D02*
X15341D01*
X15011Y21695D02*
X15311D01*
X16661Y20945D02*
X16991D01*
X16661Y20975D02*
X16991D01*
X16691Y21005D02*
X16871D01*
X16691Y21035D02*
X17021D01*
X16691Y21065D02*
X17021D01*
X16691Y21095D02*
X17021D01*
X16721Y21125D02*
X16751D01*
X16721Y21155D02*
X17021D01*
X16721Y21185D02*
X17021D01*
X16721Y21215D02*
X17021D01*
X16721Y21245D02*
X16871D01*
X16721Y21275D02*
X17051D01*
X16721Y21305D02*
X17051D01*
X16721Y21335D02*
X17051D01*
X16721Y21365D02*
X16751D01*
X16721Y21395D02*
X17051D01*
X16721Y21425D02*
X17021D01*
X16721Y21455D02*
X17021D01*
X16721Y21485D02*
X16871D01*
X16691Y21515D02*
X17021D01*
X16691Y21545D02*
X17021D01*
X16661Y21605D02*
X16751D01*
X16631Y21635D02*
X16991D01*
X16601Y21665D02*
X16991D01*
X16571Y21695D02*
X16961D01*
X16661Y21575D02*
X17021D01*
X15101Y21845D02*
X15131D01*
X15941D02*
X16031D01*
X15941Y21965D02*
X16151D01*
X15881Y22085D02*
X16031D01*
X15881Y22115D02*
X16421D01*
X15911Y22145D02*
X16271D01*
X15911Y22175D02*
X16241D01*
X15941Y22205D02*
X16151D01*
X15941Y22235D02*
X16271D01*
X15941Y22265D02*
X16271D01*
X16661Y21965D02*
X16751D01*
X16451Y21755D02*
X16931D01*
X14951D02*
X15221D01*
X16361Y21785D02*
X16901D01*
X16151Y21815D02*
X16901D01*
X16541Y21845D02*
X16751D01*
X15911Y21875D02*
X16841D01*
X15881Y21905D02*
X16811D01*
X15851Y21935D02*
X16781D01*
X15851Y21995D02*
X16721D01*
X15851Y22025D02*
X16661D01*
X15851Y22055D02*
X16601D01*
X15941Y22775D02*
X16271D01*
X15941Y22805D02*
X16031D01*
X15941Y22835D02*
X16271D01*
X15941Y22865D02*
X16271D01*
X15911Y22895D02*
X16271D01*
X15941Y22925D02*
X16151D01*
X15881Y22955D02*
X16241D01*
X15881Y22985D02*
X16241D01*
X15851Y23015D02*
X16241D01*
X15851Y23045D02*
X16031D01*
X15821Y23075D02*
X16211D01*
X15791Y23105D02*
X16181D01*
X15821Y23285D02*
X16031D01*
X15941Y23165D02*
X16151D01*
X15761Y23135D02*
X16181D01*
X15701Y23195D02*
X16151D01*
X15641Y23225D02*
X16121D01*
X15611Y23255D02*
X16091D01*
X14981Y23525D02*
X15191D01*
X15101Y23645D02*
X15311D01*
X14981Y23765D02*
X15191D01*
X15941Y23405D02*
X15971D01*
X15491Y23345D02*
X16031D01*
X15431Y23375D02*
X16001D01*
X15311Y23435D02*
X15941D01*
X15101Y25865D02*
X15311D01*
X14981Y25985D02*
X15191D01*
X15101Y26105D02*
X15311D01*
X15071Y26135D02*
X15341D01*
X15101Y26165D02*
X15311D01*
X15071Y26195D02*
X15311D01*
X15101Y26225D02*
X15191D01*
X15071Y26255D02*
X15311D01*
X15101Y26285D02*
X15311D01*
X15071Y26315D02*
X15311D01*
X15101Y26345D02*
X15311D01*
X15101Y26405D02*
X15311D01*
X15071Y26435D02*
X15311D01*
X15101Y26465D02*
X15191D01*
X15071Y26495D02*
X15311D01*
X15071Y26375D02*
X15311D01*
X15071Y26555D02*
X15311D01*
X15101Y26585D02*
X15311D01*
X15071Y26615D02*
X15311D01*
X15101Y26645D02*
X15311D01*
X15071Y26675D02*
X15311D01*
X15101Y26705D02*
X15191D01*
X15071Y26735D02*
X15311D01*
X15101Y26765D02*
X15311D01*
X15071Y26795D02*
X15311D01*
X15101Y26825D02*
X15311D01*
X15071Y26855D02*
X15311D01*
X15101Y26885D02*
X15311D01*
X15071Y26915D02*
X15311D01*
X15101Y26945D02*
X15191D01*
X15071Y26975D02*
X15311D01*
X15101Y27005D02*
X15341D01*
X15071Y27035D02*
X15401D01*
X15101Y27065D02*
X15311D01*
X14981Y27095D02*
X15491D01*
X14981Y27125D02*
X15521D01*
X14981Y27185D02*
X15131D01*
X14951Y27155D02*
X15551D01*
X15101Y27545D02*
X15161D01*
X14981Y27605D02*
X15521D01*
X14981Y27635D02*
X15491D01*
X15041Y27665D02*
X15191D01*
X15071Y27695D02*
X15401D01*
X14951Y27575D02*
X15551D01*
X15101Y28235D02*
X15341D01*
X15041Y28265D02*
X15431D01*
X14981Y28325D02*
X15191D01*
X14771Y28385D02*
X15251D01*
X14801Y28415D02*
X15131D01*
X14891Y28865D02*
X15131D01*
X14891Y28895D02*
X15551D01*
X15011Y28985D02*
X15461D01*
X15071Y29015D02*
X15401D01*
X14951Y28955D02*
X15491D01*
X9491Y20105D02*
X9821D01*
X9131Y20915D02*
X10061D01*
X11141Y21725D02*
X11231D01*
X9101Y22505D02*
X9731D01*
X11021Y27305D02*
X11171D01*
X11111Y28886D02*
X11261D01*
X9521Y29705D02*
X10181D01*
X13541Y19325D02*
X13751D01*
X12971Y18515D02*
X13661D01*
X11741D02*
X12461D01*
X12581Y21725D02*
X12761D01*
X12701Y24125D02*
X12911D01*
X13391Y22505D02*
X13601D01*
X13391Y23315D02*
X13691D01*
X12431Y22505D02*
X12911D01*
X12281Y23315D02*
X12911D01*
X12701Y24905D02*
X12911D01*
X12611Y26525D02*
X12851D01*
X12701Y27305D02*
X12851D01*
X14291Y26525D02*
X14501D01*
X14261Y27305D02*
X14351D01*
X12461Y25715D02*
X13001D01*
X13421Y29705D02*
X13601D01*
X11741Y30515D02*
X11951D01*
X16661Y20915D02*
X16991D01*
X15341Y20105D02*
X16301D01*
X14981Y21725D02*
X15191D01*
X16661D02*
X16871D01*
X15521Y23315D02*
X16061D01*
X15101Y26525D02*
X15311D01*
X15101Y28925D02*
X15311D01*
X11051Y19115D02*
X11711D01*
X11141Y19145D02*
X11711D01*
X11531Y18755D02*
X11951D01*
X14291Y18875D02*
X15161D01*
X14111Y18935D02*
X15281D01*
X14021Y18965D02*
X15311D01*
X10001D02*
X11771D01*
X13961Y18995D02*
X15371D01*
X9971D02*
X11771D01*
X13931Y19025D02*
X15401D01*
X9941D02*
X11741D01*
X13571Y19055D02*
X15431D01*
X9881D02*
X11741D01*
X13571Y19115D02*
X15491D01*
X14201Y21995D02*
X14861D01*
X11441Y22115D02*
X12101D01*
X14711Y21785D02*
X15191D01*
X14711Y21815D02*
X15161D01*
X10991Y21995D02*
X11861D01*
X13781Y22025D02*
X14861D01*
X11081D02*
X11861D01*
X13451Y22055D02*
X14861D01*
X11141D02*
X11921D01*
X14711Y23495D02*
X15851D01*
X14651Y23555D02*
X15761D01*
X14651Y23585D02*
X15731D01*
X14651Y23615D02*
X15671D01*
X14651Y23675D02*
X15581D01*
X14651Y23705D02*
X15491D01*
X14681Y23735D02*
X15401D01*
X14741Y23795D02*
X15161D01*
X9371Y25775D02*
X15761D01*
X9311Y25805D02*
X15821D01*
X9281Y25835D02*
X15851D01*
X9251Y25895D02*
X15881D01*
X9251Y25925D02*
X15881D01*
X9251Y25955D02*
X15881D01*
X9251Y26015D02*
X15881D01*
X9281Y26045D02*
X15851D01*
X9281Y26075D02*
X15851D01*
X14681Y28295D02*
X15461D01*
X14741Y28355D02*
X15521D01*
X10691Y28736D02*
X11561D01*
D18*
X23709Y36264D02*
Y36664D01*
X23509Y36464D02*
X23909D01*
X23702Y37747D02*
Y38147D01*
X23502Y37947D02*
X23902D01*
X23710Y37010D02*
Y37409D01*
X23510Y37210D02*
X23910D01*
D19*
X8069Y30771D02*
X8661D01*
X8780Y30810D01*
X8859Y30889D01*
X8898Y31008D01*
Y31087D01*
X8859Y31205D01*
X8780Y31284D01*
X8661Y31324D01*
X8069D01*
X8898Y32185D02*
X8069Y31869D01*
X8898Y31553D01*
X8622Y31671D02*
Y32067D01*
X8069Y32379D02*
X8898D01*
X8069D02*
Y32734D01*
X8108Y32853D01*
X8148Y32893D01*
X8227Y32932D01*
X8306D01*
X8385Y32893D01*
X8424Y32853D01*
X8464Y32734D01*
Y32379D01*
Y32655D02*
X8898Y32932D01*
X8069Y33394D02*
X8898D01*
X8069Y33118D02*
Y33671D01*
X11941Y32041D02*
X11862Y31962D01*
X11823Y31843D01*
Y31685D01*
X11862Y31567D01*
X11941Y31488D01*
X12020D01*
X12099Y31527D01*
X12139Y31567D01*
X12178Y31646D01*
X12258Y31883D01*
X12297Y31962D01*
X12337Y32002D01*
X12416Y32041D01*
X12534D01*
X12613Y31962D01*
X12653Y31843D01*
Y31685D01*
X12613Y31567D01*
X12534Y31488D01*
X11823Y32227D02*
X12653Y32424D01*
X11823Y32622D02*
X12653Y32424D01*
X11823Y32622D02*
X12653Y32820D01*
X11823Y33017D02*
X12653Y32820D01*
D20*
X21410Y1495D02*
X21244Y1330D01*
Y999D01*
X21410Y833D01*
X22072D01*
X22237Y999D01*
Y1330D01*
X22072Y1495D01*
X21244Y1827D02*
X22237D01*
X21741D01*
Y2489D01*
X21244D01*
X22237D01*
X21741Y2820D02*
Y3482D01*
X21410Y3813D02*
X21244Y3979D01*
Y4310D01*
X21410Y4476D01*
X21575D01*
X21741Y4310D01*
Y4144D01*
Y4310D01*
X21906Y4476D01*
X22072D01*
X22237Y4310D01*
Y3979D01*
X22072Y3813D01*
X12542Y1487D02*
X12376Y1321D01*
Y990D01*
X12542Y824D01*
X13204D01*
X13369Y990D01*
Y1321D01*
X13204Y1487D01*
X12376Y1818D02*
X13369D01*
X12873D01*
Y2480D01*
X12376D01*
X13369D01*
X12873Y2811D02*
Y3473D01*
X13369Y4467D02*
Y3805D01*
X12707Y4467D01*
X12542D01*
X12376Y4301D01*
Y3970D01*
X12542Y3805D01*
X3744Y1773D02*
X3578Y1608D01*
Y1277D01*
X3744Y1111D01*
X4406D01*
X4572Y1277D01*
Y1608D01*
X4406Y1773D01*
X3578Y2105D02*
X4572D01*
X4075D01*
Y2767D01*
X3578D01*
X4572D01*
X4075Y3098D02*
Y3760D01*
X4572Y4091D02*
Y4422D01*
Y4257D01*
X3578D01*
X3744Y4091D01*
X27374Y1772D02*
Y2959D01*
X26780Y2365D02*
X27967D01*
X18574Y1772D02*
Y2959D01*
X17980Y2365D02*
X19167D01*
X9714Y1772D02*
Y2959D01*
X9121Y2365D02*
X10308D01*
D21*
X2696Y14433D02*
X2185D01*
X2696D02*
Y14263D01*
X2672Y14190D01*
X2623Y14141D01*
X2575Y14116D01*
X2502Y14092D01*
X2380D01*
X2307Y14116D01*
X2258Y14141D01*
X2209Y14190D01*
X2185Y14263D01*
Y14433D01*
X2380Y13978D02*
Y13685D01*
X2428D01*
X2477Y13709D01*
X2502Y13734D01*
X2526Y13783D01*
Y13856D01*
X2502Y13904D01*
X2453Y13953D01*
X2380Y13978D01*
X2331D01*
X2258Y13953D01*
X2209Y13904D01*
X2185Y13856D01*
Y13783D01*
X2209Y13734D01*
X2258Y13685D01*
X2453Y13307D02*
X2502Y13332D01*
X2526Y13405D01*
Y13478D01*
X2502Y13551D01*
X2453Y13575D01*
X2404Y13551D01*
X2380Y13502D01*
X2355Y13381D01*
X2331Y13332D01*
X2282Y13307D01*
X2258D01*
X2209Y13332D01*
X2185Y13405D01*
Y13478D01*
X2209Y13551D01*
X2258Y13575D01*
X2696Y13152D02*
X2672Y13127D01*
X2696Y13103D01*
X2721Y13127D01*
X2696Y13152D01*
X2526Y13127D02*
X2185D01*
X2526Y12720D02*
X2136D01*
X2063Y12745D01*
X2039Y12769D01*
X2014Y12818D01*
Y12891D01*
X2039Y12940D01*
X2453Y12720D02*
X2502Y12769D01*
X2526Y12818D01*
Y12891D01*
X2502Y12940D01*
X2453Y12988D01*
X2380Y13013D01*
X2331D01*
X2258Y12988D01*
X2209Y12940D01*
X2185Y12891D01*
Y12818D01*
X2209Y12769D01*
X2258Y12720D01*
X2526Y12584D02*
X2185D01*
X2428D02*
X2502Y12511D01*
X2526Y12462D01*
Y12389D01*
X2502Y12340D01*
X2428Y12316D01*
X2185D01*
X2696Y11780D02*
X2185D01*
X2453D02*
X2502Y11731D01*
X2526Y11682D01*
Y11609D01*
X2502Y11560D01*
X2453Y11512D01*
X2380Y11487D01*
X2331D01*
X2258Y11512D01*
X2209Y11560D01*
X2185Y11609D01*
Y11682D01*
X2209Y11731D01*
X2258Y11780D01*
X2526Y11353D02*
X2185Y11207D01*
X2526Y11061D02*
X2185Y11207D01*
X2087Y11256D01*
X2039Y11305D01*
X2014Y11353D01*
Y11378D01*
X2575Y10208D02*
X2623Y10232D01*
X2672Y10281D01*
X2696Y10330D01*
Y10427D01*
X2672Y10476D01*
X2623Y10525D01*
X2575Y10549D01*
X2502Y10574D01*
X2380D01*
X2307Y10549D01*
X2258Y10525D01*
X2209Y10476D01*
X2185Y10427D01*
Y10330D01*
X2209Y10281D01*
X2258Y10232D01*
X2307Y10208D01*
X2696Y10064D02*
X2185D01*
X2526Y9835D02*
X2502Y9884D01*
X2453Y9933D01*
X2380Y9957D01*
X2331D01*
X2258Y9933D01*
X2209Y9884D01*
X2185Y9835D01*
Y9762D01*
X2209Y9713D01*
X2258Y9665D01*
X2331Y9640D01*
X2380D01*
X2453Y9665D01*
X2502Y9713D01*
X2526Y9762D01*
Y9835D01*
Y9528D02*
X2185Y9431D01*
X2526Y9333D02*
X2185Y9431D01*
X2526Y9333D02*
X2185Y9236D01*
X2526Y9138D02*
X2185Y9236D01*
X2526Y9019D02*
X2185D01*
X2428D02*
X2502Y8946D01*
X2526Y8897D01*
Y8824D01*
X2502Y8775D01*
X2428Y8751D01*
X2185D01*
X2696Y8617D02*
X2185D01*
X2696D02*
X2185Y8422D01*
X2696Y8227D02*
X2185Y8422D01*
X2696Y8227D02*
X2185D01*
X2696Y8032D02*
X2672Y8008D01*
X2696Y7983D01*
X2721Y8008D01*
X2696Y8032D01*
X2526Y8008D02*
X2185D01*
X2696Y7893D02*
X2185D01*
X2526Y7649D02*
X2282Y7893D01*
X2380Y7796D02*
X2185Y7625D01*
D22*
X1774Y17810D02*
X396D01*
X1774D02*
Y16957D01*
X1118Y17810D02*
Y17285D01*
X1774Y16799D02*
X396D01*
Y16012D01*
X1446Y14877D02*
X1577Y14943D01*
X1708Y15074D01*
X1774Y15205D01*
Y15468D01*
X1708Y15599D01*
X1577Y15730D01*
X1446Y15796D01*
X1249Y15861D01*
X921D01*
X724Y15796D01*
X593Y15730D01*
X462Y15599D01*
X396Y15468D01*
Y15205D01*
X462Y15074D01*
X593Y14943D01*
X724Y14877D01*
X986Y14490D02*
Y13309D01*
X1774Y12509D02*
X1708Y12706D01*
X1511Y12837D01*
X1183Y12903D01*
X986D01*
X658Y12837D01*
X462Y12706D01*
X396Y12509D01*
Y12378D01*
X462Y12181D01*
X658Y12050D01*
X986Y11984D01*
X1183D01*
X1511Y12050D01*
X1708Y12181D01*
X1774Y12378D01*
Y12509D01*
X1511Y11676D02*
X1577Y11545D01*
X1774Y11348D01*
X396D01*
X1314Y10666D02*
X396Y10272D01*
X1314Y9878D02*
X396Y10272D01*
X527Y9590D02*
X462Y9655D01*
X396Y9590D01*
X462Y9524D01*
X527Y9590D01*
X1774Y9091D02*
Y8370D01*
X1249Y8763D01*
Y8566D01*
X1183Y8435D01*
X1118Y8370D01*
X921Y8304D01*
X790D01*
X593Y8370D01*
X462Y8501D01*
X396Y8698D01*
Y8894D01*
X462Y9091D01*
X527Y9157D01*
X658Y9222D01*
D23*
X26455Y7196D02*
Y6563D01*
X26139Y6879D02*
X26772D01*
X27200Y7301D02*
X27130Y7266D01*
X27060Y7196D01*
X27025Y7125D01*
X26989Y7020D01*
Y6844D01*
X27025Y6739D01*
X27060Y6668D01*
X27130Y6598D01*
X27200Y6563D01*
X27341D01*
X27411Y6598D01*
X27481Y6668D01*
X27517Y6739D01*
X27552Y6844D01*
Y7020D01*
X27517Y7125D01*
X27481Y7196D01*
X27411Y7266D01*
X27341Y7301D01*
X27200D01*
X27724Y7055D02*
Y6704D01*
X27759Y6598D01*
X27829Y6563D01*
X27935D01*
X28005Y6598D01*
X28111Y6704D01*
Y7055D02*
Y6563D01*
X28409Y7301D02*
Y6704D01*
X28444Y6598D01*
X28515Y6563D01*
X28585D01*
X28304Y7055D02*
X28550D01*
X23344Y6879D02*
X23976D01*
X24405Y7301D02*
X24335Y7266D01*
X24264Y7196D01*
X24229Y7125D01*
X24194Y7020D01*
Y6844D01*
X24229Y6739D01*
X24264Y6668D01*
X24335Y6598D01*
X24405Y6563D01*
X24546D01*
X24616Y6598D01*
X24686Y6668D01*
X24721Y6739D01*
X24757Y6844D01*
Y7020D01*
X24721Y7125D01*
X24686Y7196D01*
X24616Y7266D01*
X24546Y7301D01*
X24405D01*
X24929Y7055D02*
Y6704D01*
X24964Y6598D01*
X25034Y6563D01*
X25140D01*
X25210Y6598D01*
X25315Y6704D01*
Y7055D02*
Y6563D01*
X25614Y7301D02*
Y6704D01*
X25649Y6598D01*
X25719Y6563D01*
X25790D01*
X25509Y7055D02*
X25755D01*
X23978Y16846D02*
X24611D01*
X24829Y17268D02*
Y16530D01*
X24983Y17022D02*
Y16530D01*
Y16881D02*
X25089Y16986D01*
X25159Y17022D01*
X25265D01*
X25335Y16986D01*
X25370Y16881D01*
Y16530D01*
X27545Y17162D02*
Y16530D01*
X27228Y16846D02*
X27861D01*
X28079Y17268D02*
Y16530D01*
X28233Y17022D02*
Y16530D01*
Y16881D02*
X28339Y16986D01*
X28409Y17022D01*
X28515D01*
X28585Y16986D01*
X28620Y16881D01*
Y16530D01*
X26533Y15379D02*
X26849D01*
X26954Y15414D01*
X26990Y15449D01*
X27025Y15520D01*
Y15625D01*
X26990Y15695D01*
X26954Y15730D01*
X26849Y15766D01*
X26533D01*
Y15028D01*
X27190Y15766D02*
X27366Y15028D01*
X27541Y15766D02*
X27366Y15028D01*
X27541Y15766D02*
X27717Y15028D01*
X27893Y15766D02*
X27717Y15028D01*
X28040Y15766D02*
Y15028D01*
Y15766D02*
X28322Y15028D01*
X28603Y15766D02*
X28322Y15028D01*
X28603Y15766D02*
Y15028D01*
X24728Y14018D02*
Y13280D01*
Y14018D02*
X25010Y13280D01*
X25291Y14018D02*
X25010Y13280D01*
X25291Y14018D02*
Y13280D01*
X25502Y13561D02*
X25923D01*
Y13631D01*
X25888Y13701D01*
X25853Y13736D01*
X25783Y13772D01*
X25677D01*
X25607Y13736D01*
X25537Y13666D01*
X25502Y13561D01*
Y13490D01*
X25537Y13385D01*
X25607Y13315D01*
X25677Y13280D01*
X25783D01*
X25853Y13315D01*
X25923Y13385D01*
X26503Y13772D02*
Y13280D01*
Y13666D02*
X26433Y13736D01*
X26363Y13772D01*
X26257D01*
X26187Y13736D01*
X26117Y13666D01*
X26081Y13561D01*
Y13490D01*
X26117Y13385D01*
X26187Y13315D01*
X26257Y13280D01*
X26363D01*
X26433Y13315D01*
X26503Y13385D01*
X26700Y13772D02*
Y13280D01*
Y13631D02*
X26805Y13736D01*
X26876Y13772D01*
X26981D01*
X27051Y13736D01*
X27087Y13631D01*
Y13280D01*
X27280Y13772D02*
X27420Y13280D01*
X27561Y13772D02*
X27420Y13280D01*
X27561Y13772D02*
X27702Y13280D01*
X27842Y13772D02*
X27702Y13280D01*
X28014Y13561D02*
X28436D01*
Y13631D01*
X28401Y13701D01*
X28366Y13736D01*
X28295Y13772D01*
X28190D01*
X28120Y13736D01*
X28049Y13666D01*
X28014Y13561D01*
Y13490D01*
X28049Y13385D01*
X28120Y13315D01*
X28190Y13280D01*
X28295D01*
X28366Y13315D01*
X28436Y13385D01*
X28594Y14018D02*
Y13280D01*
X28749Y14018D02*
Y13280D01*
X25228Y13018D02*
Y12280D01*
X25650D01*
X25731Y13018D02*
Y12280D01*
Y13018D02*
X25977D01*
X26082Y12982D01*
X26153Y12912D01*
X26188Y12842D01*
X26223Y12736D01*
Y12561D01*
X26188Y12455D01*
X26153Y12385D01*
X26082Y12315D01*
X25977Y12280D01*
X25731D01*
X26388Y13018D02*
Y12280D01*
Y13018D02*
X26634D01*
X26740Y12982D01*
X26810Y12912D01*
X26845Y12842D01*
X26880Y12736D01*
Y12561D01*
X26845Y12455D01*
X26810Y12385D01*
X26740Y12315D01*
X26634Y12280D01*
X26388D01*
X27045Y12596D02*
X27678D01*
X27896Y13018D02*
Y12280D01*
X28388Y13018D02*
Y12280D01*
X27896Y12666D02*
X28388D01*
X16793Y7168D02*
Y6535D01*
X16476Y6852D02*
X17109D01*
X17538Y7273D02*
X17467Y7238D01*
X17397Y7168D01*
X17362Y7098D01*
X17327Y6992D01*
Y6817D01*
X17362Y6711D01*
X17397Y6641D01*
X17467Y6571D01*
X17538Y6535D01*
X17678D01*
X17749Y6571D01*
X17819Y6641D01*
X17854Y6711D01*
X17889Y6817D01*
Y6992D01*
X17854Y7098D01*
X17819Y7168D01*
X17749Y7238D01*
X17678Y7273D01*
X17538D01*
X18061Y7027D02*
Y6676D01*
X18097Y6571D01*
X18167Y6535D01*
X18272D01*
X18343Y6571D01*
X18448Y6676D01*
Y7027D02*
Y6535D01*
X18747Y7273D02*
Y6676D01*
X18782Y6571D01*
X18852Y6535D01*
X18922D01*
X18641Y7027D02*
X18887D01*
X13681Y6852D02*
X14314D01*
X14742Y7273D02*
X14672Y7238D01*
X14602Y7168D01*
X14567Y7098D01*
X14532Y6992D01*
Y6817D01*
X14567Y6711D01*
X14602Y6641D01*
X14672Y6571D01*
X14742Y6535D01*
X14883D01*
X14953Y6571D01*
X15024Y6641D01*
X15059Y6711D01*
X15094Y6817D01*
Y6992D01*
X15059Y7098D01*
X15024Y7168D01*
X14953Y7238D01*
X14883Y7273D01*
X14742D01*
X15266Y7027D02*
Y6676D01*
X15301Y6571D01*
X15372Y6535D01*
X15477D01*
X15547Y6571D01*
X15653Y6676D01*
Y7027D02*
Y6535D01*
X15951Y7273D02*
Y6676D01*
X15987Y6571D01*
X16057Y6535D01*
X16127D01*
X15846Y7027D02*
X16092D01*
X14316Y16818D02*
X14948D01*
X15166Y17240D02*
Y16502D01*
X15321Y16994D02*
Y16502D01*
Y16853D02*
X15426Y16959D01*
X15497Y16994D01*
X15602D01*
X15672Y16959D01*
X15707Y16853D01*
Y16502D01*
X17882Y17135D02*
Y16502D01*
X17566Y16818D02*
X18198D01*
X18416Y17240D02*
Y16502D01*
X18571Y16994D02*
Y16502D01*
Y16853D02*
X18676Y16959D01*
X18747Y16994D01*
X18852D01*
X18922Y16959D01*
X18957Y16853D01*
Y16502D01*
X16870Y15351D02*
X17186D01*
X17292Y15387D01*
X17327Y15422D01*
X17362Y15492D01*
Y15597D01*
X17327Y15668D01*
X17292Y15703D01*
X17186Y15738D01*
X16870D01*
Y15000D01*
X17527Y15738D02*
X17703Y15000D01*
X17879Y15738D02*
X17703Y15000D01*
X17879Y15738D02*
X18054Y15000D01*
X18230Y15738D02*
X18054Y15000D01*
X18378Y15738D02*
Y15000D01*
Y15738D02*
X18659Y15000D01*
X18940Y15738D02*
X18659Y15000D01*
X18940Y15738D02*
Y15000D01*
X15066Y13990D02*
Y13252D01*
Y13990D02*
X15347Y13252D01*
X15628Y13990D02*
X15347Y13252D01*
X15628Y13990D02*
Y13252D01*
X15839Y13533D02*
X16261D01*
Y13603D01*
X16226Y13674D01*
X16190Y13709D01*
X16120Y13744D01*
X16015D01*
X15944Y13709D01*
X15874Y13639D01*
X15839Y13533D01*
Y13463D01*
X15874Y13357D01*
X15944Y13287D01*
X16015Y13252D01*
X16120D01*
X16190Y13287D01*
X16261Y13357D01*
X16841Y13744D02*
Y13252D01*
Y13639D02*
X16770Y13709D01*
X16700Y13744D01*
X16595D01*
X16524Y13709D01*
X16454Y13639D01*
X16419Y13533D01*
Y13463D01*
X16454Y13357D01*
X16524Y13287D01*
X16595Y13252D01*
X16700D01*
X16770Y13287D01*
X16841Y13357D01*
X17037Y13744D02*
Y13252D01*
Y13603D02*
X17143Y13709D01*
X17213Y13744D01*
X17319D01*
X17389Y13709D01*
X17424Y13603D01*
Y13252D01*
X17617Y13744D02*
X17758Y13252D01*
X17898Y13744D02*
X17758Y13252D01*
X17898Y13744D02*
X18039Y13252D01*
X18180Y13744D02*
X18039Y13252D01*
X18352Y13533D02*
X18773D01*
Y13603D01*
X18738Y13674D01*
X18703Y13709D01*
X18633Y13744D01*
X18527D01*
X18457Y13709D01*
X18387Y13639D01*
X18352Y13533D01*
Y13463D01*
X18387Y13357D01*
X18457Y13287D01*
X18527Y13252D01*
X18633D01*
X18703Y13287D01*
X18773Y13357D01*
X18932Y13990D02*
Y13252D01*
X19086Y13990D02*
Y13252D01*
X15566Y12990D02*
Y12252D01*
X15987D01*
X16068Y12990D02*
Y12252D01*
Y12990D02*
X16314D01*
X16420Y12955D01*
X16490Y12885D01*
X16525Y12814D01*
X16560Y12709D01*
Y12533D01*
X16525Y12428D01*
X16490Y12357D01*
X16420Y12287D01*
X16314Y12252D01*
X16068D01*
X16726Y12990D02*
Y12252D01*
Y12990D02*
X16972D01*
X17077Y12955D01*
X17147Y12885D01*
X17182Y12814D01*
X17218Y12709D01*
Y12533D01*
X17182Y12428D01*
X17147Y12357D01*
X17077Y12287D01*
X16972Y12252D01*
X16726D01*
X17383Y12568D02*
X18015D01*
X18233Y12990D02*
Y12252D01*
X18725Y12990D02*
Y12252D01*
X18233Y12639D02*
X18725D01*
X7147Y7168D02*
Y6535D01*
X6831Y6852D02*
X7463D01*
X7892Y7273D02*
X7822Y7238D01*
X7752Y7168D01*
X7716Y7098D01*
X7681Y6992D01*
Y6817D01*
X7716Y6711D01*
X7752Y6641D01*
X7822Y6571D01*
X7892Y6535D01*
X8033D01*
X8103Y6571D01*
X8173Y6641D01*
X8208Y6711D01*
X8244Y6817D01*
Y6992D01*
X8208Y7098D01*
X8173Y7168D01*
X8103Y7238D01*
X8033Y7273D01*
X7892D01*
X8416Y7027D02*
Y6676D01*
X8451Y6571D01*
X8521Y6535D01*
X8627D01*
X8697Y6571D01*
X8802Y6676D01*
Y7027D02*
Y6535D01*
X9101Y7273D02*
Y6676D01*
X9136Y6571D01*
X9206Y6535D01*
X9277D01*
X8996Y7027D02*
X9242D01*
X4035Y6852D02*
X4668D01*
X5097Y7273D02*
X5027Y7238D01*
X4956Y7168D01*
X4921Y7098D01*
X4886Y6992D01*
Y6817D01*
X4921Y6711D01*
X4956Y6641D01*
X5027Y6571D01*
X5097Y6535D01*
X5237D01*
X5308Y6571D01*
X5378Y6641D01*
X5413Y6711D01*
X5448Y6817D01*
Y6992D01*
X5413Y7098D01*
X5378Y7168D01*
X5308Y7238D01*
X5237Y7273D01*
X5097D01*
X5620Y7027D02*
Y6676D01*
X5656Y6571D01*
X5726Y6535D01*
X5831D01*
X5902Y6571D01*
X6007Y6676D01*
Y7027D02*
Y6535D01*
X6306Y7273D02*
Y6676D01*
X6341Y6571D01*
X6411Y6535D01*
X6481D01*
X6200Y7027D02*
X6446D01*
X4670Y16818D02*
X5303D01*
X5521Y17240D02*
Y16502D01*
X5675Y16994D02*
Y16502D01*
Y16853D02*
X5781Y16959D01*
X5851Y16994D01*
X5956D01*
X6027Y16959D01*
X6062Y16853D01*
Y16502D01*
X8236Y17135D02*
Y16502D01*
X7920Y16818D02*
X8553D01*
X8771Y17240D02*
Y16502D01*
X8925Y16994D02*
Y16502D01*
Y16853D02*
X9031Y16959D01*
X9101Y16994D01*
X9206D01*
X9277Y16959D01*
X9312Y16853D01*
Y16502D01*
X7224Y15351D02*
X7541D01*
X7646Y15387D01*
X7681Y15422D01*
X7716Y15492D01*
Y15597D01*
X7681Y15668D01*
X7646Y15703D01*
X7541Y15738D01*
X7224D01*
Y15000D01*
X7882Y15738D02*
X8057Y15000D01*
X8233Y15738D02*
X8057Y15000D01*
X8233Y15738D02*
X8409Y15000D01*
X8584Y15738D02*
X8409Y15000D01*
X8732Y15738D02*
Y15000D01*
Y15738D02*
X9013Y15000D01*
X9294Y15738D02*
X9013Y15000D01*
X9294Y15738D02*
Y15000D01*
X5420Y13990D02*
Y13252D01*
Y13990D02*
X5701Y13252D01*
X5982Y13990D02*
X5701Y13252D01*
X5982Y13990D02*
Y13252D01*
X6193Y13533D02*
X6615D01*
Y13603D01*
X6580Y13674D01*
X6545Y13709D01*
X6474Y13744D01*
X6369D01*
X6299Y13709D01*
X6228Y13639D01*
X6193Y13533D01*
Y13463D01*
X6228Y13357D01*
X6299Y13287D01*
X6369Y13252D01*
X6474D01*
X6545Y13287D01*
X6615Y13357D01*
X7195Y13744D02*
Y13252D01*
Y13639D02*
X7125Y13709D01*
X7054Y13744D01*
X6949D01*
X6879Y13709D01*
X6808Y13639D01*
X6773Y13533D01*
Y13463D01*
X6808Y13357D01*
X6879Y13287D01*
X6949Y13252D01*
X7054D01*
X7125Y13287D01*
X7195Y13357D01*
X7392Y13744D02*
Y13252D01*
Y13603D02*
X7497Y13709D01*
X7567Y13744D01*
X7673D01*
X7743Y13709D01*
X7778Y13603D01*
Y13252D01*
X7972Y13744D02*
X8112Y13252D01*
X8253Y13744D02*
X8112Y13252D01*
X8253Y13744D02*
X8393Y13252D01*
X8534Y13744D02*
X8393Y13252D01*
X8706Y13533D02*
X9128D01*
Y13603D01*
X9093Y13674D01*
X9058Y13709D01*
X8987Y13744D01*
X8882D01*
X8812Y13709D01*
X8741Y13639D01*
X8706Y13533D01*
Y13463D01*
X8741Y13357D01*
X8812Y13287D01*
X8882Y13252D01*
X8987D01*
X9058Y13287D01*
X9128Y13357D01*
X9286Y13990D02*
Y13252D01*
X9441Y13990D02*
Y13252D01*
X5920Y12990D02*
Y12252D01*
X6342D01*
X6423Y12990D02*
Y12252D01*
Y12990D02*
X6669D01*
X6774Y12955D01*
X6844Y12885D01*
X6880Y12814D01*
X6915Y12709D01*
Y12533D01*
X6880Y12428D01*
X6844Y12357D01*
X6774Y12287D01*
X6669Y12252D01*
X6423D01*
X7080Y12990D02*
Y12252D01*
Y12990D02*
X7326D01*
X7431Y12955D01*
X7502Y12885D01*
X7537Y12814D01*
X7572Y12709D01*
Y12533D01*
X7537Y12428D01*
X7502Y12357D01*
X7431Y12287D01*
X7326Y12252D01*
X7080D01*
X7737Y12568D02*
X8370D01*
X8588Y12990D02*
Y12252D01*
X9080Y12990D02*
Y12252D01*
X8588Y12639D02*
X9080D01*
M02*
