G04*
G04 #@! TF.GenerationSoftware,Altium Limited,Altium Designer,19.1.8 (144)*
G04*
G04 Layer_Physical_Order=1*
G04 Layer_Color=255*
%FSLAX24Y24*%
%MOIN*%
G70*
G01*
G75*
%ADD18C,0.0118*%
%ADD20C,0.0276*%
%ADD24R,0.0400X0.1260*%
%ADD25R,0.4000X0.3976*%
%ADD26R,0.0787X0.0866*%
%ADD27R,0.0858X0.0835*%
%ADD28R,0.0512X0.0591*%
%ADD29R,0.0591X0.0512*%
%ADD30R,0.2756X0.1575*%
%ADD31R,0.1260X0.0551*%
%ADD32R,0.2000X0.1098*%
%ADD33C,0.7000*%
%ADD34R,0.0433X0.1024*%
%ADD35R,0.1181X0.0630*%
%ADD36R,0.2441X0.2283*%
%ADD37R,0.1024X0.0433*%
%ADD38R,0.1240X0.0866*%
%ADD39R,0.0858X0.0630*%
%ADD77C,0.0787*%
%ADD78C,0.0906*%
%ADD79C,0.0315*%
%ADD80C,0.0591*%
%ADD81C,0.0472*%
%ADD82C,0.0394*%
%ADD83C,0.1181*%
%ADD84C,0.0433*%
%ADD85C,0.0709*%
%ADD86C,0.0512*%
%ADD87C,0.0630*%
%ADD88C,0.0551*%
%ADD89C,0.0197*%
%ADD90C,0.0394*%
%ADD91C,0.0256*%
%ADD92R,0.0512X0.0512*%
%ADD93C,0.0512*%
%ADD94C,0.0531*%
%ADD95C,0.0591*%
%ADD96R,0.0591X0.0591*%
%ADD97R,0.0512X0.0512*%
%ADD98C,0.2047*%
%ADD99R,0.1772X0.0984*%
%ADD100C,0.0665*%
%ADD101R,0.0665X0.0665*%
%ADD102C,0.1874*%
%ADD103C,0.0866*%
%ADD104C,0.0700*%
%ADD105C,0.0472*%
%ADD106C,0.0630*%
%ADD107C,0.0551*%
G36*
X17612Y39213D02*
X18126Y38699D01*
Y37249D01*
X18087Y37218D01*
X18054Y37226D01*
X17882Y37240D01*
X17710Y37226D01*
X17543Y37186D01*
X17383Y37120D01*
X17237Y37030D01*
X17106Y36918D01*
X16994Y36787D01*
X16904Y36640D01*
X16838Y36481D01*
X16798Y36313D01*
X16784Y36142D01*
X16798Y35970D01*
X16838Y35802D01*
X16904Y35643D01*
X16994Y35496D01*
X17106Y35365D01*
X17237Y35254D01*
X17383Y35164D01*
X17543Y35098D01*
X17710Y35057D01*
X17882Y35044D01*
X18054Y35057D01*
X18087Y35065D01*
X18126Y35034D01*
Y24482D01*
X15067Y21424D01*
X10005D01*
X9986Y21421D01*
X7761D01*
X7742Y21467D01*
X9216Y22941D01*
X9264Y23012D01*
X9281Y23097D01*
Y23420D01*
X9317Y23447D01*
X9374Y23521D01*
X9409Y23608D01*
X9422Y23700D01*
X9409Y23793D01*
X9374Y23879D01*
X9317Y23953D01*
X9243Y24010D01*
X9157Y24045D01*
X9064Y24057D01*
X8972Y24045D01*
X8885Y24010D01*
X8811Y23953D01*
X8755Y23879D01*
X8719Y23793D01*
X8707Y23700D01*
X8719Y23608D01*
X8755Y23521D01*
X8811Y23447D01*
X8839Y23426D01*
Y23188D01*
X7072Y21421D01*
X6386D01*
Y22497D01*
X6043D01*
X6037Y22547D01*
X6292Y22610D01*
X6630Y22732D01*
X6955Y22885D01*
X7263Y23070D01*
X7552Y23284D01*
X7818Y23525D01*
X8059Y23792D01*
X8273Y24080D01*
X8458Y24388D01*
X8612Y24713D01*
X8733Y25052D01*
X8820Y25400D01*
X8873Y25756D01*
X8888Y26056D01*
X5229D01*
X1570D01*
X1584Y25756D01*
X1637Y25400D01*
X1724Y25052D01*
X1846Y24713D01*
X1999Y24388D01*
X2184Y24080D01*
X2398Y23792D01*
X2639Y23525D01*
X2906Y23284D01*
X3194Y23070D01*
X3502Y22885D01*
X3827Y22732D01*
X4166Y22610D01*
X4421Y22547D01*
X4415Y22497D01*
X4071D01*
Y21421D01*
X713D01*
X199Y21935D01*
X199Y29092D01*
X241Y29120D01*
X253Y29115D01*
X366Y29100D01*
X479Y29115D01*
X585Y29158D01*
X664Y29219D01*
X2153D01*
X2235Y29230D01*
X2312Y29261D01*
X2377Y29312D01*
X3582Y30517D01*
X3633Y30583D01*
X3665Y30659D01*
X3675Y30742D01*
Y30812D01*
X3808D01*
Y31560D01*
Y32387D01*
X2903D01*
Y32271D01*
X2855D01*
X2855Y32271D01*
X2778Y32261D01*
X2706Y32231D01*
X2644Y32184D01*
X2401Y31941D01*
X2362Y31957D01*
Y31957D01*
X787D01*
Y31091D01*
Y30740D01*
X1575D01*
X2362D01*
Y31091D01*
Y31226D01*
X2405D01*
X2482Y31236D01*
X2554Y31266D01*
X2616Y31313D01*
X2853Y31550D01*
X2903Y31529D01*
Y30812D01*
X2913D01*
X2933Y30766D01*
X2410Y30243D01*
X2362Y30266D01*
Y30622D01*
X1634D01*
Y30248D01*
X2344D01*
X2367Y30200D01*
X2021Y29854D01*
X664D01*
X585Y29915D01*
X479Y29958D01*
X366Y29973D01*
X253Y29958D01*
X249Y29957D01*
X199Y29990D01*
Y35075D01*
X677Y35552D01*
X1082D01*
X1140Y35540D01*
X6258D01*
X6316Y35552D01*
X6660D01*
X6660Y38866D01*
X7007Y39213D01*
X17612Y39213D01*
D02*
G37*
G36*
X31010Y39213D02*
X31010Y39213D01*
X31010D01*
X31056Y39210D01*
X31105Y39200D01*
X31165Y39176D01*
X31218Y39140D01*
X31263Y39095D01*
X31299Y39041D01*
X31324Y38982D01*
X31336Y38919D01*
X31336Y38887D01*
X31297Y549D01*
X31297Y549D01*
X31300Y517D01*
X31294Y455D01*
X31277Y394D01*
X31247Y338D01*
X31208Y289D01*
X31159Y249D01*
X31104Y219D01*
X31044Y200D01*
X31013Y197D01*
X578Y197D01*
X578Y197D01*
X542Y195D01*
X471Y207D01*
X403Y232D01*
X341Y269D01*
X288Y318D01*
X246Y377D01*
X215Y442D01*
X198Y513D01*
X197Y549D01*
X197Y18953D01*
X593Y19349D01*
X641Y19336D01*
X645Y19319D01*
X716Y19147D01*
X813Y18989D01*
X934Y18847D01*
X1075Y18727D01*
X1234Y18629D01*
X1406Y18558D01*
X1586Y18515D01*
X1713Y18505D01*
Y19685D01*
X1772D01*
Y19744D01*
X2952D01*
X2942Y19870D01*
X2898Y20051D01*
X2827Y20223D01*
X2730Y20381D01*
X2687Y20432D01*
X2707Y20477D01*
X5016Y20477D01*
X5525Y19968D01*
X5608Y19905D01*
X5703Y19865D01*
X5806Y19852D01*
X9227D01*
X9330Y19865D01*
X9426Y19905D01*
X9508Y19968D01*
X10017Y20477D01*
X10487D01*
X10503Y20430D01*
X10490Y20421D01*
X10424Y20334D01*
X10382Y20234D01*
X10376Y20185D01*
X11194D01*
X11188Y20234D01*
X11146Y20334D01*
X11080Y20421D01*
X11067Y20430D01*
X11083Y20477D01*
X11356D01*
Y20404D01*
X11335Y20377D01*
X11290Y20267D01*
X11274Y20149D01*
X11290Y20031D01*
X11305Y19993D01*
Y17786D01*
X10186D01*
X10176Y17794D01*
X10053Y17845D01*
X9920Y17862D01*
X9788Y17845D01*
X9664Y17794D01*
X9558Y17712D01*
X9477Y17606D01*
X9426Y17483D01*
X9408Y17350D01*
X9426Y17218D01*
X9463Y17127D01*
Y16574D01*
X9426Y16483D01*
X9408Y16350D01*
X9426Y16218D01*
X9477Y16094D01*
X9558Y15988D01*
X9664Y15907D01*
X9737Y15877D01*
Y15824D01*
X9664Y15794D01*
X9558Y15712D01*
X9477Y15606D01*
X9426Y15483D01*
X9408Y15350D01*
X9426Y15218D01*
X9477Y15094D01*
X9558Y14988D01*
X9664Y14907D01*
X9788Y14856D01*
X9920Y14839D01*
X10053Y14856D01*
X10176Y14907D01*
X10282Y14988D01*
X10363Y15094D01*
X10415Y15218D01*
X10432Y15350D01*
X10415Y15483D01*
X10363Y15606D01*
X10282Y15712D01*
X10176Y15794D01*
X10104Y15824D01*
Y15877D01*
X10176Y15907D01*
X10282Y15988D01*
X10363Y16094D01*
X10415Y16218D01*
X10432Y16350D01*
X10415Y16483D01*
X10377Y16574D01*
Y16873D01*
X11619D01*
X11737Y16888D01*
X11804Y16916D01*
X12328D01*
Y17664D01*
X12219D01*
Y19780D01*
X13533D01*
X13651Y19795D01*
X13761Y19841D01*
X13856Y19913D01*
X13928Y20008D01*
X13974Y20118D01*
X13989Y20236D01*
X13974Y20354D01*
X13943Y20428D01*
X13976Y20477D01*
X15054D01*
X15081Y20436D01*
X15060Y20385D01*
X15045Y20267D01*
Y20236D01*
X15060Y20118D01*
X15106Y20008D01*
X15178Y19913D01*
X15273Y19841D01*
X15383Y19795D01*
X15501Y19780D01*
X15619Y19795D01*
X15730Y19841D01*
X15824Y19913D01*
X15897Y20008D01*
X15903Y20022D01*
X19330Y23449D01*
X19369Y23480D01*
X19748Y23858D01*
X19836Y23850D01*
X19872Y23853D01*
X20249Y23476D01*
Y22769D01*
X20199Y22753D01*
X20153Y22813D01*
X20059Y22885D01*
X19949Y22931D01*
X19830Y22946D01*
X19712Y22931D01*
X19602Y22885D01*
X19507Y22813D01*
X19435Y22718D01*
X19389Y22608D01*
X19374Y22490D01*
Y21026D01*
X19389Y20908D01*
X19435Y20798D01*
X19507Y20703D01*
X19854Y20357D01*
Y20138D01*
Y19619D01*
X19870Y19501D01*
X19915Y19391D01*
X19988Y19296D01*
X21036Y18247D01*
Y17819D01*
X19761D01*
X19698Y17845D01*
X19566Y17862D01*
X19433Y17845D01*
X19310Y17794D01*
X19204Y17712D01*
X19122Y17606D01*
X19071Y17483D01*
X19054Y17350D01*
X19071Y17218D01*
X19109Y17127D01*
Y16574D01*
X19071Y16483D01*
X19054Y16350D01*
X19071Y16218D01*
X19122Y16094D01*
X19204Y15988D01*
X19310Y15907D01*
X19382Y15877D01*
Y15824D01*
X19310Y15794D01*
X19204Y15712D01*
X19122Y15606D01*
X19071Y15483D01*
X19054Y15350D01*
X19071Y15218D01*
X19122Y15094D01*
X19204Y14988D01*
X19310Y14907D01*
X19433Y14856D01*
X19566Y14839D01*
X19698Y14856D01*
X19822Y14907D01*
X19928Y14988D01*
X20009Y15094D01*
X20060Y15218D01*
X20078Y15350D01*
X20060Y15483D01*
X20009Y15606D01*
X19928Y15712D01*
X19822Y15794D01*
X19749Y15824D01*
Y15877D01*
X19822Y15907D01*
X19928Y15988D01*
X20009Y16094D01*
X20060Y16218D01*
X20078Y16350D01*
X20060Y16483D01*
X20022Y16574D01*
Y16906D01*
X21438D01*
X21556Y16921D01*
X21661Y16965D01*
X22069D01*
Y17713D01*
X21950D01*
Y18437D01*
X21934Y18555D01*
X21888Y18665D01*
X21816Y18760D01*
X20767Y19808D01*
Y20138D01*
Y20546D01*
X20752Y20664D01*
X20706Y20775D01*
X20634Y20869D01*
X20287Y21216D01*
Y21277D01*
X20336Y21294D01*
X20382Y21234D01*
X20893Y20724D01*
X20987Y20651D01*
X21097Y20605D01*
X21216Y20590D01*
X22047D01*
X22723Y19913D01*
X22818Y19841D01*
X22928Y19795D01*
X23046Y19780D01*
X23164Y19795D01*
X23274Y19841D01*
X23369Y19913D01*
X23442Y20008D01*
X23487Y20118D01*
X23503Y20236D01*
X23487Y20354D01*
X23442Y20465D01*
X23369Y20559D01*
X22559Y21369D01*
X22464Y21442D01*
X22354Y21488D01*
X22236Y21503D01*
X21405D01*
X21162Y21746D01*
Y23666D01*
X21147Y23784D01*
X21101Y23894D01*
X21028Y23988D01*
X20571Y24446D01*
X20573Y24455D01*
X20588Y24601D01*
Y28556D01*
Y30662D01*
X20616D01*
Y31843D01*
X19133D01*
Y32729D01*
X20655Y32729D01*
X20717Y32741D01*
X20769Y32776D01*
X20804Y32828D01*
X20816Y32890D01*
X20816Y34159D01*
X21640Y34618D01*
X21683Y34593D01*
Y34263D01*
X22057D01*
X22431D01*
Y34873D01*
X22197D01*
X22185Y34921D01*
X22470Y35080D01*
X22539D01*
Y35118D01*
X23186Y35478D01*
X23203Y35492D01*
X23221Y35505D01*
X23226Y35512D01*
X23234Y35518D01*
X23244Y35538D01*
X23256Y35557D01*
X23258Y35566D01*
X23262Y35574D01*
X23264Y35596D01*
X23268Y35618D01*
X23268Y37394D01*
X23256Y37456D01*
X23221Y37508D01*
X23169Y37543D01*
X23108Y37555D01*
X22481D01*
Y38684D01*
X22066D01*
Y38091D01*
X20924D01*
Y38684D01*
X20509D01*
Y37581D01*
X20502Y37575D01*
Y36958D01*
X20384D01*
Y37545D01*
X20327Y37540D01*
X20216Y37506D01*
X20213Y37504D01*
X20026Y37504D01*
X19991Y37539D01*
X19991Y39213D01*
X31010Y39213D01*
X31010Y39213D01*
D02*
G37*
G36*
X23108Y37394D02*
X23108Y35618D01*
X20655Y34254D01*
X20655Y32890D01*
X18981Y32890D01*
X18981Y35320D01*
X20552Y36227D01*
X21627Y36227D01*
X21627Y37394D01*
X23108Y37394D01*
D02*
G37*
%LPC*%
G36*
X14598Y37195D02*
X14470Y37178D01*
X14351Y37129D01*
X14249Y37050D01*
X14170Y36948D01*
X14121Y36829D01*
X14104Y36701D01*
X14121Y36573D01*
X14170Y36454D01*
X14249Y36351D01*
X14351Y36273D01*
X14470Y36223D01*
X14598Y36206D01*
X14726Y36223D01*
X14846Y36273D01*
X14948Y36351D01*
X15027Y36454D01*
X15076Y36573D01*
X15093Y36701D01*
X15076Y36829D01*
X15027Y36948D01*
X14948Y37050D01*
X14846Y37129D01*
X14726Y37178D01*
X14598Y37195D01*
D02*
G37*
G36*
X13508D02*
X13380Y37178D01*
X13261Y37129D01*
X13158Y37050D01*
X13080Y36948D01*
X13030Y36829D01*
X13013Y36701D01*
X13030Y36573D01*
X13080Y36454D01*
X13158Y36351D01*
X13261Y36273D01*
X13380Y36223D01*
X13508Y36206D01*
X13636Y36223D01*
X13755Y36273D01*
X13857Y36351D01*
X13936Y36454D01*
X13985Y36573D01*
X14002Y36701D01*
X13985Y36829D01*
X13936Y36948D01*
X13857Y37050D01*
X13755Y37129D01*
X13636Y37178D01*
X13508Y37195D01*
D02*
G37*
G36*
X12417D02*
X12289Y37178D01*
X12170Y37129D01*
X12068Y37050D01*
X11989Y36948D01*
X11940Y36829D01*
X11923Y36701D01*
X11940Y36573D01*
X11989Y36454D01*
X12068Y36351D01*
X12170Y36273D01*
X12289Y36223D01*
X12417Y36206D01*
X12545Y36223D01*
X12665Y36273D01*
X12767Y36351D01*
X12845Y36454D01*
X12895Y36573D01*
X12912Y36701D01*
X12895Y36829D01*
X12845Y36948D01*
X12767Y37050D01*
X12665Y37129D01*
X12545Y37178D01*
X12417Y37195D01*
D02*
G37*
G36*
X11327D02*
X11199Y37178D01*
X11080Y37129D01*
X10977Y37050D01*
X10899Y36948D01*
X10849Y36829D01*
X10832Y36701D01*
X10849Y36573D01*
X10899Y36454D01*
X10977Y36351D01*
X11080Y36273D01*
X11199Y36223D01*
X11327Y36206D01*
X11455Y36223D01*
X11574Y36273D01*
X11676Y36351D01*
X11755Y36454D01*
X11804Y36573D01*
X11821Y36701D01*
X11804Y36829D01*
X11755Y36948D01*
X11676Y37050D01*
X11574Y37129D01*
X11455Y37178D01*
X11327Y37195D01*
D02*
G37*
G36*
X15203Y36069D02*
Y35642D01*
X15630D01*
X15621Y35711D01*
X15572Y35830D01*
X15493Y35932D01*
X15391Y36011D01*
X15272Y36060D01*
X15203Y36069D01*
D02*
G37*
G36*
X15085D02*
X15016Y36060D01*
X14897Y36011D01*
X14794Y35932D01*
X14716Y35830D01*
X14666Y35711D01*
X14657Y35642D01*
X15085D01*
Y36069D01*
D02*
G37*
G36*
X15630Y35524D02*
X15203D01*
Y35096D01*
X15272Y35105D01*
X15391Y35155D01*
X15493Y35233D01*
X15572Y35335D01*
X15621Y35455D01*
X15630Y35524D01*
D02*
G37*
G36*
X15085D02*
X14657D01*
X14666Y35455D01*
X14716Y35335D01*
X14794Y35233D01*
X14897Y35155D01*
X15016Y35105D01*
X15085Y35096D01*
Y35524D01*
D02*
G37*
G36*
X11272Y36073D02*
X10291D01*
Y35093D01*
X11272D01*
Y36073D01*
D02*
G37*
G36*
X14053Y36077D02*
X13925Y36060D01*
X13806Y36011D01*
X13704Y35932D01*
X13625Y35830D01*
X13576Y35711D01*
X13559Y35583D01*
X13576Y35455D01*
X13625Y35335D01*
X13704Y35233D01*
X13806Y35155D01*
X13925Y35105D01*
X14053Y35088D01*
X14181Y35105D01*
X14300Y35155D01*
X14403Y35233D01*
X14481Y35335D01*
X14531Y35455D01*
X14548Y35583D01*
X14531Y35711D01*
X14481Y35830D01*
X14403Y35932D01*
X14300Y36011D01*
X14181Y36060D01*
X14053Y36077D01*
D02*
G37*
G36*
X11872D02*
X11744Y36060D01*
X11625Y36011D01*
X11522Y35932D01*
X11444Y35830D01*
X11394Y35711D01*
X11378Y35583D01*
X11394Y35455D01*
X11444Y35335D01*
X11522Y35233D01*
X11625Y35155D01*
X11744Y35105D01*
X11872Y35088D01*
X12000Y35105D01*
X12119Y35155D01*
X12222Y35233D01*
X12300Y35335D01*
X12350Y35455D01*
X12366Y35583D01*
X12350Y35711D01*
X12300Y35830D01*
X12222Y35932D01*
X12119Y36011D01*
X12000Y36060D01*
X11872Y36077D01*
D02*
G37*
G36*
X8043Y37240D02*
X7872Y37226D01*
X7704Y37186D01*
X7545Y37120D01*
X7398Y37030D01*
X7267Y36918D01*
X7155Y36787D01*
X7065Y36640D01*
X6999Y36481D01*
X6959Y36313D01*
X6945Y36142D01*
X6959Y35970D01*
X6999Y35802D01*
X7065Y35643D01*
X7155Y35496D01*
X7267Y35365D01*
X7398Y35254D01*
X7545Y35164D01*
X7704Y35098D01*
X7872Y35057D01*
X8043Y35044D01*
X8215Y35057D01*
X8383Y35098D01*
X8542Y35164D01*
X8689Y35254D01*
X8820Y35365D01*
X8931Y35496D01*
X9022Y35643D01*
X9087Y35802D01*
X9128Y35970D01*
X9141Y36142D01*
X9128Y36313D01*
X9087Y36481D01*
X9022Y36640D01*
X8931Y36787D01*
X8820Y36918D01*
X8689Y37030D01*
X8542Y37120D01*
X8383Y37186D01*
X8215Y37226D01*
X8043Y37240D01*
D02*
G37*
G36*
X12963Y36077D02*
X12835Y36060D01*
X12715Y36011D01*
X12613Y35932D01*
X12534Y35830D01*
X12485Y35711D01*
X12468Y35583D01*
X12485Y35455D01*
X12496Y35428D01*
X12078Y35011D01*
X10142D01*
X10118Y35042D01*
X10044Y35099D01*
X9958Y35135D01*
X9865Y35147D01*
X9773Y35135D01*
X9687Y35099D01*
X9613Y35042D01*
X9556Y34968D01*
X9520Y34882D01*
X9508Y34790D01*
X9520Y34697D01*
X9526Y34683D01*
X9498Y34641D01*
X9429D01*
Y34776D01*
X9417Y34869D01*
X9381Y34955D01*
X9324Y35029D01*
X9250Y35086D01*
X9164Y35121D01*
X9071Y35134D01*
X8979Y35121D01*
X8893Y35086D01*
X8888Y35082D01*
X8886Y35081D01*
X8812Y35024D01*
X8755Y34950D01*
X8719Y34864D01*
X8707Y34772D01*
X8714Y34717D01*
Y34641D01*
X4508D01*
Y34737D01*
X2933D01*
Y34699D01*
X2362D01*
Y34713D01*
X787D01*
Y33846D01*
Y33004D01*
X2362D01*
Y33139D01*
X3926D01*
X10273Y33139D01*
X11113Y32300D01*
Y30965D01*
X11123Y30888D01*
X11152Y30816D01*
X11200Y30754D01*
X12171Y29783D01*
X12174Y29764D01*
X12195Y29711D01*
X12166Y29656D01*
X12155Y29654D01*
X11705Y30103D01*
X11623Y30166D01*
X11527Y30206D01*
X11424Y30220D01*
X11068D01*
X10965Y30206D01*
X10869Y30166D01*
X10787Y30103D01*
X10724Y30021D01*
X10698Y29958D01*
X10302Y29562D01*
X10245Y29488D01*
X10209Y29402D01*
X10197Y29309D01*
Y28911D01*
X9186D01*
X9123Y28937D01*
X9021Y28950D01*
X8918Y28937D01*
X8822Y28897D01*
X8740Y28834D01*
X8677Y28752D01*
X8643Y28671D01*
X8591Y28653D01*
X7712Y29531D01*
Y30248D01*
X7696Y30332D01*
X7648Y30404D01*
X7547Y30505D01*
X7552Y30545D01*
X7540Y30637D01*
X7504Y30724D01*
X7447Y30798D01*
X7373Y30854D01*
X7287Y30890D01*
X7195Y30902D01*
X7102Y30890D01*
X7016Y30854D01*
X6942Y30798D01*
X6885Y30724D01*
X6849Y30637D01*
X6837Y30545D01*
X6849Y30452D01*
X6885Y30366D01*
X6942Y30292D01*
X7016Y30235D01*
X7102Y30200D01*
X7195Y30187D01*
X7234Y30193D01*
X7271Y30156D01*
Y29439D01*
X7288Y29355D01*
X7335Y29283D01*
X9252Y27367D01*
Y27163D01*
X9220Y27138D01*
X9163Y27064D01*
X9128Y26978D01*
X9115Y26885D01*
X9128Y26793D01*
X9163Y26707D01*
X9220Y26633D01*
X9294Y26576D01*
X9380Y26540D01*
X9473Y26528D01*
X9565Y26540D01*
X9652Y26576D01*
X9726Y26633D01*
X9782Y26707D01*
X9818Y26793D01*
X9830Y26885D01*
X9818Y26978D01*
X9782Y27064D01*
X9726Y27138D01*
X9694Y27163D01*
Y27458D01*
X9677Y27543D01*
X9629Y27614D01*
X9120Y28124D01*
X9138Y28176D01*
X9186Y28196D01*
X10197D01*
Y25484D01*
X10171Y25421D01*
X10157Y25318D01*
X10171Y25216D01*
X10211Y25120D01*
X10274Y25038D01*
X10356Y24974D01*
X10452Y24935D01*
X10555Y24921D01*
X10657Y24935D01*
X10753Y24974D01*
X10835Y25038D01*
X10898Y25120D01*
X10938Y25216D01*
X10952Y25318D01*
X10938Y25421D01*
X10912Y25484D01*
Y28572D01*
Y29161D01*
X11176Y29425D01*
X11260D01*
X11741Y28945D01*
X11823Y28882D01*
X11919Y28842D01*
X12021Y28828D01*
X15052D01*
X15155Y28842D01*
X15251Y28882D01*
X15333Y28945D01*
X15519Y29130D01*
X15782D01*
X16343Y28570D01*
X16375Y28545D01*
Y25953D01*
X16349Y25890D01*
X16335Y25787D01*
X16349Y25685D01*
X16388Y25589D01*
X16451Y25507D01*
X16534Y25444D01*
X16630Y25404D01*
X16732Y25390D01*
X16790Y25398D01*
X16840Y25354D01*
Y25077D01*
X17367D01*
Y25490D01*
X17063D01*
X17039Y25540D01*
X17076Y25589D01*
X17116Y25685D01*
X17129Y25787D01*
X17116Y25890D01*
X17090Y25953D01*
Y26585D01*
X17140Y26602D01*
X17197Y26527D01*
X17291Y26455D01*
X17401Y26409D01*
X17461Y26402D01*
Y26850D01*
Y27299D01*
X17401Y27292D01*
X17291Y27246D01*
X17197Y27173D01*
X17140Y27099D01*
X17090Y27116D01*
Y27585D01*
X17140Y27602D01*
X17197Y27527D01*
X17291Y27455D01*
X17401Y27409D01*
X17520Y27394D01*
X17638Y27409D01*
X17748Y27455D01*
X17843Y27527D01*
X17915Y27622D01*
X17961Y27732D01*
X17976Y27850D01*
X17961Y27969D01*
X17915Y28079D01*
X17843Y28173D01*
X17748Y28246D01*
X17638Y28291D01*
X17520Y28307D01*
X17401Y28291D01*
X17291Y28246D01*
X17197Y28173D01*
X17140Y28099D01*
X17090Y28116D01*
Y28398D01*
X17972D01*
Y29303D01*
X17947D01*
Y30741D01*
X17933Y30843D01*
X17894Y30939D01*
X17831Y31021D01*
X17772Y31080D01*
X17689Y31144D01*
X17594Y31183D01*
X17550Y31189D01*
Y31252D01*
X16644D01*
Y31208D01*
X16174D01*
Y31252D01*
X15268D01*
Y31208D01*
X14237D01*
X14208Y31258D01*
X14235Y31322D01*
X14247Y31414D01*
X14235Y31507D01*
X14199Y31593D01*
X14142Y31667D01*
X14110Y31691D01*
Y31860D01*
X14911Y32661D01*
X15288D01*
X15326Y32571D01*
X15398Y32477D01*
X15493Y32404D01*
X15603Y32359D01*
X15721Y32343D01*
X15839Y32359D01*
X15950Y32404D01*
X16044Y32477D01*
X16117Y32571D01*
X16162Y32681D01*
X16178Y32800D01*
X16162Y32918D01*
X16117Y33028D01*
X16044Y33123D01*
X15950Y33195D01*
X15839Y33241D01*
X15721Y33256D01*
X15603Y33241D01*
X15493Y33195D01*
X15398Y33123D01*
X15383Y33103D01*
X14820D01*
X14735Y33086D01*
X14664Y33038D01*
X13733Y32108D01*
X13685Y32036D01*
X13669Y31952D01*
Y31691D01*
X13637Y31667D01*
X13580Y31593D01*
X13544Y31507D01*
X13532Y31414D01*
X13544Y31322D01*
X13571Y31258D01*
X13542Y31208D01*
X13382D01*
X12751Y31839D01*
Y33375D01*
X12738Y33478D01*
X12698Y33574D01*
X12635Y33656D01*
X12553Y33719D01*
X12489Y33745D01*
X11716Y34519D01*
X11737Y34569D01*
X12170D01*
X12254Y34586D01*
X12326Y34634D01*
X12808Y35116D01*
X12835Y35105D01*
X12963Y35088D01*
X13091Y35105D01*
X13210Y35155D01*
X13312Y35233D01*
X13391Y35335D01*
X13440Y35455D01*
X13457Y35583D01*
X13440Y35711D01*
X13391Y35830D01*
X13312Y35932D01*
X13210Y36011D01*
X13091Y36060D01*
X12963Y36077D01*
D02*
G37*
G36*
X17156Y34249D02*
Y33859D01*
X17546D01*
X17538Y33918D01*
X17493Y34028D01*
X17420Y34123D01*
X17325Y34195D01*
X17215Y34241D01*
X17156Y34249D01*
D02*
G37*
G36*
X17038Y34249D02*
X16979Y34241D01*
X16869Y34195D01*
X16774Y34123D01*
X16702Y34028D01*
X16656Y33918D01*
X16648Y33859D01*
X17038D01*
Y34249D01*
D02*
G37*
G36*
X15780Y34248D02*
Y33859D01*
X16170D01*
X16162Y33918D01*
X16117Y34028D01*
X16044Y34123D01*
X15950Y34195D01*
X15839Y34241D01*
X15780Y34248D01*
D02*
G37*
G36*
X15662Y34248D02*
X15603Y34241D01*
X15493Y34195D01*
X15398Y34123D01*
X15326Y34028D01*
X15280Y33918D01*
X15272Y33859D01*
X15662D01*
Y34248D01*
D02*
G37*
G36*
X17546Y33741D02*
X17156D01*
Y33351D01*
X17215Y33359D01*
X17325Y33404D01*
X17420Y33477D01*
X17493Y33571D01*
X17538Y33682D01*
X17546Y33741D01*
D02*
G37*
G36*
X17038D02*
X16648D01*
X16656Y33682D01*
X16702Y33571D01*
X16774Y33477D01*
X16869Y33404D01*
X16979Y33359D01*
X17038Y33351D01*
Y33741D01*
D02*
G37*
G36*
X16170Y33741D02*
X15780D01*
Y33351D01*
X15839Y33359D01*
X15950Y33404D01*
X16044Y33477D01*
X16117Y33571D01*
X16162Y33681D01*
X16170Y33741D01*
D02*
G37*
G36*
X15662D02*
X15272D01*
X15280Y33681D01*
X15326Y33571D01*
X15398Y33477D01*
X15493Y33404D01*
X15603Y33359D01*
X15662Y33351D01*
Y33741D01*
D02*
G37*
G36*
X17097Y33256D02*
X16979Y33241D01*
X16869Y33195D01*
X16774Y33123D01*
X16702Y33028D01*
X16656Y32918D01*
X16640Y32800D01*
X16656Y32682D01*
X16702Y32571D01*
X16774Y32477D01*
X16869Y32404D01*
X16979Y32359D01*
X17097Y32343D01*
X17215Y32359D01*
X17325Y32404D01*
X17420Y32477D01*
X17493Y32571D01*
X17538Y32682D01*
X17554Y32800D01*
X17538Y32918D01*
X17493Y33028D01*
X17420Y33123D01*
X17325Y33195D01*
X17215Y33241D01*
X17097Y33256D01*
D02*
G37*
G36*
Y32256D02*
X16979Y32241D01*
X16869Y32195D01*
X16774Y32123D01*
X16702Y32028D01*
X16656Y31918D01*
X16640Y31800D01*
X16656Y31682D01*
X16702Y31571D01*
X16774Y31477D01*
X16869Y31404D01*
X16979Y31359D01*
X17097Y31343D01*
X17215Y31359D01*
X17325Y31404D01*
X17420Y31477D01*
X17493Y31571D01*
X17538Y31682D01*
X17554Y31800D01*
X17538Y31918D01*
X17493Y32028D01*
X17420Y32123D01*
X17325Y32195D01*
X17215Y32241D01*
X17097Y32256D01*
D02*
G37*
G36*
X15721Y32256D02*
X15603Y32241D01*
X15493Y32195D01*
X15398Y32123D01*
X15326Y32028D01*
X15280Y31918D01*
X15265Y31800D01*
X15280Y31681D01*
X15326Y31571D01*
X15398Y31477D01*
X15493Y31404D01*
X15603Y31358D01*
X15721Y31343D01*
X15839Y31358D01*
X15950Y31404D01*
X16044Y31477D01*
X16117Y31571D01*
X16162Y31681D01*
X16178Y31800D01*
X16162Y31918D01*
X16117Y32028D01*
X16044Y32123D01*
X15950Y32195D01*
X15839Y32241D01*
X15721Y32256D01*
D02*
G37*
G36*
X1516Y30622D02*
X787D01*
Y30248D01*
X1516D01*
Y30622D01*
D02*
G37*
G36*
X17579Y27299D02*
Y26909D01*
X17969D01*
X17961Y26969D01*
X17915Y27079D01*
X17843Y27173D01*
X17748Y27246D01*
X17638Y27292D01*
X17579Y27299D01*
D02*
G37*
G36*
X13305Y27066D02*
Y26776D01*
X13596D01*
X13591Y26809D01*
X13555Y26895D01*
X13499Y26969D01*
X13425Y27026D01*
X13338Y27062D01*
X13305Y27066D01*
D02*
G37*
G36*
X13187D02*
X13153Y27062D01*
X13067Y27026D01*
X12993Y26969D01*
X12936Y26895D01*
X12901Y26809D01*
X12896Y26776D01*
X13187D01*
Y27066D01*
D02*
G37*
G36*
X17969Y26791D02*
X17579D01*
Y26402D01*
X17638Y26409D01*
X17748Y26455D01*
X17843Y26527D01*
X17915Y26622D01*
X17961Y26732D01*
X17969Y26791D01*
D02*
G37*
G36*
X13596Y26658D02*
X13305D01*
Y26367D01*
X13338Y26372D01*
X13425Y26407D01*
X13499Y26464D01*
X13555Y26538D01*
X13591Y26624D01*
X13596Y26658D01*
D02*
G37*
G36*
X13187D02*
X12896D01*
X12901Y26624D01*
X12936Y26538D01*
X12993Y26464D01*
X13067Y26407D01*
X13153Y26372D01*
X13187Y26367D01*
Y26658D01*
D02*
G37*
G36*
X6386Y31146D02*
X4071D01*
Y29733D01*
X4415D01*
X4421Y29683D01*
X4166Y29619D01*
X3827Y29498D01*
X3502Y29344D01*
X3194Y29159D01*
X2906Y28945D01*
X2639Y28704D01*
X2398Y28438D01*
X2184Y28149D01*
X1999Y27841D01*
X1846Y27516D01*
X1724Y27178D01*
X1637Y26829D01*
X1584Y26474D01*
X1570Y26174D01*
X5229D01*
X8888D01*
X8873Y26474D01*
X8820Y26829D01*
X8733Y27178D01*
X8612Y27516D01*
X8458Y27841D01*
X8273Y28149D01*
X8059Y28438D01*
X7818Y28704D01*
X7552Y28945D01*
X7263Y29159D01*
X6955Y29344D01*
X6630Y29498D01*
X6292Y29619D01*
X6037Y29683D01*
X6043Y29733D01*
X6386D01*
Y31146D01*
D02*
G37*
G36*
X18013Y25490D02*
X17485D01*
Y25077D01*
X18013D01*
Y25490D01*
D02*
G37*
G36*
Y24959D02*
X17485D01*
Y24545D01*
X18013D01*
Y24959D01*
D02*
G37*
G36*
X17367D02*
X16840D01*
Y24545D01*
X17367D01*
Y24959D01*
D02*
G37*
G36*
X10020Y24038D02*
Y23747D01*
X10310D01*
X10306Y23780D01*
X10270Y23867D01*
X10213Y23941D01*
X10139Y23997D01*
X10053Y24033D01*
X10020Y24038D01*
D02*
G37*
G36*
X9902D02*
X9868Y24033D01*
X9782Y23997D01*
X9708Y23941D01*
X9651Y23867D01*
X9615Y23780D01*
X9611Y23747D01*
X9902D01*
Y24038D01*
D02*
G37*
G36*
X1581Y23394D02*
Y23103D01*
X1872D01*
X1867Y23137D01*
X1832Y23223D01*
X1775Y23297D01*
X1701Y23354D01*
X1615Y23389D01*
X1581Y23394D01*
D02*
G37*
G36*
X1463D02*
X1430Y23389D01*
X1343Y23354D01*
X1269Y23297D01*
X1213Y23223D01*
X1177Y23137D01*
X1172Y23103D01*
X1463D01*
Y23394D01*
D02*
G37*
G36*
X10310Y23629D02*
X9611D01*
X9615Y23595D01*
X9651Y23509D01*
X9708Y23435D01*
X9782Y23378D01*
X9868Y23343D01*
X9905Y23338D01*
Y23287D01*
X9868Y23283D01*
X9782Y23247D01*
X9708Y23190D01*
X9651Y23116D01*
X9615Y23030D01*
X9611Y22996D01*
X10310D01*
X10306Y23030D01*
X10270Y23116D01*
X10213Y23190D01*
X10139Y23247D01*
X10053Y23283D01*
X10016Y23287D01*
Y23338D01*
X10053Y23343D01*
X10139Y23378D01*
X10213Y23435D01*
X10270Y23509D01*
X10306Y23595D01*
X10310Y23629D01*
D02*
G37*
G36*
X15675Y23774D02*
X15600Y23765D01*
X15531Y23736D01*
X15471Y23690D01*
X15425Y23630D01*
X15397Y23561D01*
X15387Y23486D01*
X15397Y23412D01*
X15425Y23343D01*
X15471Y23283D01*
Y23257D01*
X15425Y23197D01*
X15397Y23128D01*
X15387Y23053D01*
X15397Y22979D01*
X15425Y22909D01*
X15471Y22850D01*
X15531Y22804D01*
X15600Y22775D01*
X15675Y22765D01*
X15749Y22775D01*
X15819Y22804D01*
X15878Y22850D01*
X15903Y22882D01*
X15961Y22898D01*
X15972Y22895D01*
X16025Y22873D01*
X16092Y22864D01*
X16159Y22873D01*
X16221Y22899D01*
X16274Y22940D01*
X16315Y22993D01*
X16341Y23055D01*
X16350Y23122D01*
X16341Y23189D01*
X16315Y23251D01*
X16309Y23260D01*
X16315Y23269D01*
X16341Y23331D01*
X16350Y23398D01*
X16341Y23465D01*
X16315Y23527D01*
X16274Y23580D01*
X16221Y23621D01*
X16159Y23647D01*
X16092Y23656D01*
X16025Y23647D01*
X15979Y23628D01*
X15946Y23629D01*
X15912Y23646D01*
X15878Y23690D01*
X15819Y23736D01*
X15749Y23765D01*
X15675Y23774D01*
D02*
G37*
G36*
X1872Y22985D02*
X1581D01*
Y22694D01*
X1615Y22699D01*
X1701Y22735D01*
X1775Y22791D01*
X1832Y22865D01*
X1867Y22952D01*
X1872Y22985D01*
D02*
G37*
G36*
X1463D02*
X1172D01*
X1177Y22952D01*
X1213Y22865D01*
X1269Y22791D01*
X1343Y22735D01*
X1430Y22699D01*
X1463Y22694D01*
Y22985D01*
D02*
G37*
G36*
X10310Y22878D02*
X10020D01*
Y22588D01*
X10053Y22592D01*
X10139Y22628D01*
X10213Y22685D01*
X10270Y22759D01*
X10306Y22845D01*
X10310Y22878D01*
D02*
G37*
G36*
X9902D02*
X9611D01*
X9615Y22845D01*
X9651Y22759D01*
X9708Y22685D01*
X9782Y22628D01*
X9868Y22592D01*
X9902Y22588D01*
Y22878D01*
D02*
G37*
G36*
X14391Y25490D02*
X13218D01*
Y25104D01*
X13210Y25102D01*
X13138Y25054D01*
X10534Y22450D01*
X10518Y22452D01*
X10425Y22440D01*
X10339Y22404D01*
X10265Y22348D01*
X10208Y22274D01*
X10172Y22187D01*
X10160Y22095D01*
X10172Y22002D01*
X10208Y21916D01*
X10265Y21842D01*
X10339Y21785D01*
X10425Y21750D01*
X10518Y21738D01*
X10610Y21750D01*
X10696Y21785D01*
X10770Y21842D01*
X10827Y21916D01*
X10863Y22002D01*
X10875Y22095D01*
X10867Y22158D01*
X13254Y24545D01*
X14391D01*
Y25490D01*
D02*
G37*
G36*
X1579Y22579D02*
Y22288D01*
X1870D01*
X1866Y22322D01*
X1830Y22408D01*
X1773Y22482D01*
X1699Y22539D01*
X1613Y22575D01*
X1579Y22579D01*
D02*
G37*
G36*
X1461D02*
X1428Y22575D01*
X1342Y22539D01*
X1268Y22482D01*
X1211Y22408D01*
X1175Y22322D01*
X1171Y22288D01*
X1461D01*
Y22579D01*
D02*
G37*
G36*
X2412Y22567D02*
Y22276D01*
X2703D01*
X2698Y22310D01*
X2663Y22396D01*
X2606Y22470D01*
X2532Y22527D01*
X2446Y22562D01*
X2412Y22567D01*
D02*
G37*
G36*
X2294D02*
X2261Y22562D01*
X2175Y22527D01*
X2101Y22470D01*
X2044Y22396D01*
X2008Y22310D01*
X2004Y22276D01*
X2294D01*
Y22567D01*
D02*
G37*
G36*
X1870Y22170D02*
X1579D01*
Y21880D01*
X1613Y21884D01*
X1699Y21920D01*
X1773Y21977D01*
X1830Y22051D01*
X1866Y22137D01*
X1870Y22170D01*
D02*
G37*
G36*
X1461D02*
X1171D01*
X1175Y22137D01*
X1211Y22051D01*
X1268Y21977D01*
X1342Y21920D01*
X1428Y21884D01*
X1461Y21880D01*
Y22170D01*
D02*
G37*
G36*
X2703Y22158D02*
X2412D01*
Y21868D01*
X2446Y21872D01*
X2532Y21908D01*
X2606Y21965D01*
X2663Y22039D01*
X2698Y22125D01*
X2703Y22158D01*
D02*
G37*
G36*
X2294D02*
X2004D01*
X2008Y22125D01*
X2044Y22039D01*
X2101Y21965D01*
X2175Y21908D01*
X2261Y21872D01*
X2294Y21868D01*
Y22158D01*
D02*
G37*
G36*
X28154Y38969D02*
X26625D01*
Y37451D01*
X28154D01*
Y38969D01*
D02*
G37*
G36*
X25483D02*
X23954D01*
Y37451D01*
X25483D01*
Y38969D01*
D02*
G37*
G36*
X29783Y38188D02*
Y37067D01*
X30905D01*
X30895Y37193D01*
X30851Y37374D01*
X30780Y37546D01*
X30683Y37704D01*
X30562Y37846D01*
X30421Y37966D01*
X30262Y38063D01*
X30091Y38135D01*
X29910Y38178D01*
X29783Y38188D01*
D02*
G37*
G36*
X29665Y38188D02*
X29539Y38178D01*
X29358Y38135D01*
X29187Y38063D01*
X29028Y37966D01*
X28887Y37846D01*
X28766Y37704D01*
X28669Y37546D01*
X28598Y37374D01*
X28554Y37193D01*
X28544Y37067D01*
X29665D01*
Y38188D01*
D02*
G37*
G36*
Y36949D02*
X28544D01*
X28554Y36823D01*
X28598Y36642D01*
X28669Y36470D01*
X28766Y36311D01*
X28887Y36170D01*
X29028Y36049D01*
X29187Y35952D01*
X29358Y35881D01*
X29539Y35838D01*
X29665Y35828D01*
Y36949D01*
D02*
G37*
G36*
X30905D02*
X29783D01*
Y35828D01*
X29910Y35838D01*
X30091Y35881D01*
X30262Y35952D01*
X30421Y36049D01*
X30562Y36170D01*
X30683Y36311D01*
X30780Y36470D01*
X30851Y36642D01*
X30895Y36823D01*
X30905Y36949D01*
D02*
G37*
G36*
X29814Y34456D02*
X29460D01*
Y34062D01*
X29814D01*
Y34456D01*
D02*
G37*
G36*
Y33944D02*
X29460D01*
Y33551D01*
X29814D01*
Y33944D01*
D02*
G37*
G36*
X22431Y34145D02*
X22116D01*
Y33535D01*
X22431D01*
Y34145D01*
D02*
G37*
G36*
X21998D02*
X21683D01*
Y33535D01*
X21998D01*
Y34145D01*
D02*
G37*
G36*
X27752Y33851D02*
X27453D01*
Y33123D01*
X27752D01*
Y33851D01*
D02*
G37*
G36*
Y33005D02*
X27453D01*
Y32276D01*
X27752D01*
Y33005D01*
D02*
G37*
G36*
X22301Y32493D02*
X22252Y32487D01*
X22151Y32445D01*
X22065Y32379D01*
X21999Y32292D01*
X21957Y32192D01*
X21951Y32143D01*
X22301D01*
Y32493D01*
D02*
G37*
G36*
Y32025D02*
X21951D01*
X21957Y31976D01*
X21999Y31876D01*
X22065Y31789D01*
X22151Y31723D01*
X22252Y31681D01*
X22301Y31675D01*
Y32025D01*
D02*
G37*
G36*
X23902Y30302D02*
X23375D01*
Y29786D01*
X23902D01*
Y30302D01*
D02*
G37*
G36*
X25483Y36310D02*
X23954D01*
Y34918D01*
X23234D01*
X23115Y34902D01*
X23045Y34873D01*
X22982D01*
Y34839D01*
X22911Y34784D01*
X22838Y34689D01*
X22792Y34579D01*
X22777Y34461D01*
X22792Y34343D01*
X22812Y34295D01*
X22800Y34204D01*
Y32230D01*
X22751Y32220D01*
X22721Y32292D01*
X22655Y32379D01*
X22568Y32445D01*
X22468Y32487D01*
X22419Y32493D01*
Y32084D01*
Y31675D01*
X22468Y31681D01*
X22568Y31723D01*
X22655Y31789D01*
X22721Y31876D01*
X22751Y31948D01*
X22800Y31938D01*
Y31722D01*
X21302Y30223D01*
X21213Y30108D01*
X21158Y29974D01*
X21139Y29830D01*
Y28556D01*
X21158Y28412D01*
X21213Y28278D01*
X21302Y28163D01*
X21417Y28075D01*
X21551Y28019D01*
X21695Y28000D01*
X21839Y28019D01*
X21973Y28075D01*
X22088Y28163D01*
X22176Y28278D01*
X22232Y28412D01*
X22251Y28556D01*
Y29600D01*
X22683Y30033D01*
X22729Y30014D01*
Y29786D01*
X23257D01*
Y30302D01*
X23017D01*
X22998Y30347D01*
X23749Y31098D01*
X23838Y31214D01*
X23893Y31348D01*
X23912Y31492D01*
Y34004D01*
X24045D01*
X24334Y33716D01*
Y33067D01*
X24347Y32969D01*
X24357Y32945D01*
Y32276D01*
X24898D01*
X24931Y32239D01*
X24927Y32213D01*
Y30302D01*
X24473D01*
Y29152D01*
X25646D01*
Y29236D01*
X26646D01*
X26764Y29252D01*
X26874Y29297D01*
X26969Y29370D01*
X27470Y29871D01*
X29895D01*
Y31761D01*
X26825D01*
Y30517D01*
X26457Y30150D01*
X25841D01*
Y32213D01*
X25837Y32239D01*
X25870Y32276D01*
X25995D01*
Y33064D01*
Y33851D01*
X25196D01*
X25157Y33900D01*
X25168Y33984D01*
X25152Y34103D01*
X25106Y34213D01*
X25034Y34307D01*
X24598Y34743D01*
X24619Y34792D01*
X25483D01*
Y36310D01*
D02*
G37*
G36*
X23902Y29668D02*
X23375D01*
Y29152D01*
X23902D01*
Y29668D01*
D02*
G37*
G36*
X23257D02*
X22729D01*
Y29152D01*
X23257D01*
Y29668D01*
D02*
G37*
G36*
X25846Y28893D02*
Y28602D01*
X26137D01*
X26133Y28636D01*
X26097Y28722D01*
X26040Y28796D01*
X25966Y28853D01*
X25880Y28889D01*
X25846Y28893D01*
D02*
G37*
G36*
X25728D02*
X25695Y28889D01*
X25609Y28853D01*
X25535Y28796D01*
X25478Y28722D01*
X25442Y28636D01*
X25438Y28602D01*
X25728D01*
Y28893D01*
D02*
G37*
G36*
X26137Y28484D02*
X25846D01*
Y28194D01*
X25880Y28198D01*
X25966Y28234D01*
X26040Y28291D01*
X26097Y28365D01*
X26133Y28451D01*
X26137Y28484D01*
D02*
G37*
G36*
X25728D02*
X25438D01*
X25442Y28451D01*
X25478Y28365D01*
X25535Y28291D01*
X25609Y28234D01*
X25695Y28198D01*
X25728Y28194D01*
Y28484D01*
D02*
G37*
G36*
X25846Y27909D02*
Y27618D01*
X26137D01*
X26133Y27652D01*
X26097Y27738D01*
X26040Y27812D01*
X25966Y27869D01*
X25880Y27904D01*
X25846Y27909D01*
D02*
G37*
G36*
X25728D02*
X25695Y27904D01*
X25609Y27869D01*
X25535Y27812D01*
X25478Y27738D01*
X25442Y27652D01*
X25438Y27618D01*
X25728D01*
Y27909D01*
D02*
G37*
G36*
X28154Y36310D02*
X26625D01*
Y34792D01*
X26794D01*
X26804Y34743D01*
X26746Y34719D01*
X26667Y34659D01*
X26457Y34448D01*
X26397Y34370D01*
X26359Y34279D01*
X26346Y34182D01*
Y33851D01*
X26113D01*
Y33064D01*
Y32276D01*
X27335D01*
Y33064D01*
Y33851D01*
X27101D01*
Y34015D01*
X28240D01*
Y33551D01*
X28276D01*
Y33445D01*
X28240D01*
Y32539D01*
X29814D01*
Y32615D01*
X29911D01*
X30277Y32249D01*
Y27263D01*
X30271Y27256D01*
X29895D01*
Y27824D01*
X26825D01*
Y25934D01*
X27635D01*
Y25617D01*
X28540D01*
Y25934D01*
X28946D01*
Y24009D01*
X28903D01*
Y24008D01*
X28743D01*
X28544Y24207D01*
Y24810D01*
X28540Y24839D01*
Y25144D01*
Y25499D01*
X27635D01*
Y25281D01*
X27503D01*
Y25317D01*
X26007D01*
Y24372D01*
X26745D01*
X26775Y24368D01*
X27631D01*
Y24018D01*
X27646Y23900D01*
X27692Y23789D01*
X27764Y23695D01*
X28231Y23228D01*
X28326Y23156D01*
X28436Y23110D01*
X28554Y23094D01*
X29403D01*
X29468Y23103D01*
X29809D01*
Y23348D01*
X29844Y23433D01*
X29860Y23551D01*
Y25934D01*
X29895D01*
Y26502D01*
X30427D01*
X30525Y26515D01*
X30616Y26552D01*
X30694Y26612D01*
X30921Y26839D01*
X30981Y26918D01*
X31019Y27009D01*
X31031Y27106D01*
Y32405D01*
X31019Y32503D01*
X30981Y32594D01*
X30921Y32672D01*
X30334Y33259D01*
X30256Y33319D01*
X30165Y33356D01*
X30068Y33369D01*
X29814D01*
Y33445D01*
X29030D01*
Y33551D01*
X29342D01*
Y34003D01*
Y34456D01*
X28943D01*
X28920Y34487D01*
X28748Y34659D01*
X28669Y34719D01*
X28578Y34757D01*
X28481Y34769D01*
X28194D01*
X28154Y34792D01*
Y36310D01*
D02*
G37*
G36*
X26137Y27500D02*
X25846D01*
Y27209D01*
X25880Y27214D01*
X25966Y27250D01*
X26040Y27306D01*
X26097Y27380D01*
X26133Y27467D01*
X26137Y27500D01*
D02*
G37*
G36*
X25728D02*
X25438D01*
X25442Y27467D01*
X25478Y27380D01*
X25535Y27306D01*
X25609Y27250D01*
X25695Y27214D01*
X25728Y27209D01*
Y27500D01*
D02*
G37*
G36*
X23613Y27639D02*
X23121D01*
Y27107D01*
X23613D01*
Y27639D01*
D02*
G37*
G36*
X23003D02*
X22511D01*
Y27107D01*
X23003D01*
Y27639D01*
D02*
G37*
G36*
X25846Y26924D02*
Y26634D01*
X26137D01*
X26133Y26667D01*
X26097Y26753D01*
X26040Y26828D01*
X25966Y26884D01*
X25880Y26920D01*
X25846Y26924D01*
D02*
G37*
G36*
X25728D02*
X25695Y26920D01*
X25609Y26884D01*
X25535Y26828D01*
X25478Y26753D01*
X25442Y26667D01*
X25438Y26634D01*
X25728D01*
Y26924D01*
D02*
G37*
G36*
X23613Y26989D02*
X23121D01*
Y26458D01*
X23613D01*
Y26989D01*
D02*
G37*
G36*
X23003D02*
X22511D01*
Y26458D01*
X23003D01*
Y26989D01*
D02*
G37*
G36*
X24255Y28866D02*
X24131Y28850D01*
X24017Y28802D01*
X23918Y28727D01*
X23842Y28628D01*
X23795Y28513D01*
X23778Y28390D01*
X23795Y28266D01*
X23798Y28258D01*
Y27639D01*
X23692D01*
Y26458D01*
X23794D01*
Y26323D01*
X21614Y26323D01*
X21552Y26310D01*
X21500Y26275D01*
X21465Y26223D01*
X21453Y26162D01*
X21453Y22076D01*
X21465Y22014D01*
X21500Y21962D01*
X21552Y21927D01*
X21614Y21915D01*
X25709Y21915D01*
X25771Y21927D01*
X25823Y21962D01*
X25858Y22014D01*
X25870Y22076D01*
X25870Y26162D01*
X25867Y26178D01*
X25880Y26230D01*
X25966Y26265D01*
X26040Y26322D01*
X26097Y26396D01*
X26133Y26482D01*
X26137Y26516D01*
X25438D01*
X25442Y26482D01*
X25478Y26396D01*
X25500Y26367D01*
X25479Y26323D01*
X24707D01*
Y26458D01*
X24794D01*
Y27639D01*
X24711D01*
Y28258D01*
X24715Y28266D01*
X24731Y28390D01*
X24715Y28513D01*
X24667Y28628D01*
X24592Y28727D01*
X24493Y28802D01*
X24378Y28850D01*
X24255Y28866D01*
D02*
G37*
G36*
X27503Y23514D02*
X26814D01*
Y23100D01*
X27503D01*
Y23514D01*
D02*
G37*
G36*
X26696D02*
X26007D01*
Y23100D01*
X26696D01*
Y23514D01*
D02*
G37*
G36*
X27503Y22982D02*
X26814D01*
Y22569D01*
X27503D01*
Y22982D01*
D02*
G37*
G36*
X26696D02*
X26007D01*
Y22569D01*
X26696D01*
Y22982D01*
D02*
G37*
G36*
X29415Y22627D02*
Y22237D01*
X29805D01*
X29797Y22296D01*
X29752Y22406D01*
X29679Y22501D01*
X29585Y22573D01*
X29474Y22619D01*
X29415Y22627D01*
D02*
G37*
G36*
X29297D02*
X29238Y22619D01*
X29128Y22573D01*
X29033Y22501D01*
X28961Y22406D01*
X28915Y22296D01*
X28907Y22237D01*
X29297D01*
Y22627D01*
D02*
G37*
G36*
X29805Y22119D02*
X29415D01*
Y21729D01*
X29474Y21737D01*
X29585Y21782D01*
X29679Y21855D01*
X29752Y21950D01*
X29797Y22060D01*
X29805Y22119D01*
D02*
G37*
G36*
X29297D02*
X28907D01*
X28915Y22060D01*
X28961Y21950D01*
X29033Y21855D01*
X29128Y21782D01*
X29238Y21737D01*
X29297Y21729D01*
Y22119D01*
D02*
G37*
G36*
X27353Y21003D02*
Y20653D01*
X27704D01*
X27697Y20702D01*
X27656Y20802D01*
X27589Y20889D01*
X27503Y20955D01*
X27402Y20996D01*
X27353Y21003D01*
D02*
G37*
G36*
X27235D02*
X27187Y20996D01*
X27086Y20955D01*
X27000Y20889D01*
X26933Y20802D01*
X26892Y20702D01*
X26885Y20653D01*
X27235D01*
Y21003D01*
D02*
G37*
G36*
X19385Y20547D02*
Y20197D01*
X19736D01*
X19729Y20246D01*
X19687Y20347D01*
X19621Y20433D01*
X19535Y20499D01*
X19434Y20541D01*
X19385Y20547D01*
D02*
G37*
G36*
X19267D02*
X19218Y20541D01*
X19118Y20499D01*
X19032Y20433D01*
X18965Y20347D01*
X18924Y20246D01*
X18917Y20197D01*
X19267D01*
Y20547D01*
D02*
G37*
G36*
X27704Y20535D02*
X27353D01*
Y20185D01*
X27402Y20191D01*
X27503Y20233D01*
X27589Y20299D01*
X27656Y20385D01*
X27697Y20486D01*
X27704Y20535D01*
D02*
G37*
G36*
X27235D02*
X26885D01*
X26892Y20486D01*
X26933Y20385D01*
X27000Y20299D01*
X27086Y20233D01*
X27187Y20191D01*
X27235Y20185D01*
Y20535D01*
D02*
G37*
G36*
X19736Y20079D02*
X19385D01*
Y19729D01*
X19434Y19735D01*
X19535Y19777D01*
X19621Y19843D01*
X19687Y19930D01*
X19729Y20030D01*
X19736Y20079D01*
D02*
G37*
G36*
X19267D02*
X18917D01*
X18924Y20030D01*
X18965Y19930D01*
X19032Y19843D01*
X19118Y19777D01*
X19218Y19735D01*
X19267Y19729D01*
Y20079D01*
D02*
G37*
G36*
X11194Y20067D02*
X10844D01*
Y19717D01*
X10893Y19723D01*
X10994Y19765D01*
X11080Y19831D01*
X11146Y19918D01*
X11188Y20018D01*
X11194Y20067D01*
D02*
G37*
G36*
X10726D02*
X10376D01*
X10382Y20018D01*
X10424Y19918D01*
X10490Y19831D01*
X10577Y19765D01*
X10677Y19723D01*
X10726Y19717D01*
Y20067D01*
D02*
G37*
G36*
X30955Y19614D02*
X30640D01*
Y19003D01*
X30955D01*
Y19614D01*
D02*
G37*
G36*
X30522D02*
X30207D01*
Y19003D01*
X30522D01*
Y19614D01*
D02*
G37*
G36*
X2952Y19626D02*
X1831D01*
Y18505D01*
X1957Y18515D01*
X2138Y18558D01*
X2310Y18629D01*
X2468Y18727D01*
X2609Y18847D01*
X2730Y18989D01*
X2827Y19147D01*
X2898Y19319D01*
X2942Y19500D01*
X2952Y19626D01*
D02*
G37*
G36*
X30955Y18885D02*
X30640D01*
Y18275D01*
X30955D01*
Y18885D01*
D02*
G37*
G36*
X30522D02*
X30207D01*
Y18275D01*
X30522D01*
Y18885D01*
D02*
G37*
G36*
X23287Y17882D02*
Y17437D01*
X23732D01*
X23723Y17510D01*
X23672Y17634D01*
X23590Y17740D01*
X23484Y17821D01*
X23361Y17872D01*
X23287Y17882D01*
D02*
G37*
G36*
X23169D02*
X23096Y17872D01*
X22972Y17821D01*
X22866Y17740D01*
X22785Y17634D01*
X22734Y17510D01*
X22724Y17437D01*
X23169D01*
Y17882D01*
D02*
G37*
G36*
X13625Y17854D02*
Y17409D01*
X14070D01*
X14060Y17483D01*
X14009Y17606D01*
X13928Y17712D01*
X13822Y17794D01*
X13698Y17845D01*
X13625Y17854D01*
D02*
G37*
G36*
X13507D02*
X13433Y17845D01*
X13310Y17794D01*
X13204Y17712D01*
X13122Y17606D01*
X13071Y17483D01*
X13062Y17409D01*
X13507D01*
Y17854D01*
D02*
G37*
G36*
X3979D02*
Y17409D01*
X4424D01*
X4414Y17483D01*
X4363Y17606D01*
X4282Y17712D01*
X4176Y17794D01*
X4053Y17845D01*
X3979Y17854D01*
D02*
G37*
G36*
X3861D02*
X3788Y17845D01*
X3664Y17794D01*
X3558Y17712D01*
X3477Y17606D01*
X3426Y17483D01*
X3416Y17409D01*
X3861D01*
Y17854D01*
D02*
G37*
G36*
X23732Y17319D02*
X22724D01*
X22734Y17245D01*
X22785Y17122D01*
X22866Y17016D01*
X22972Y16935D01*
X23045Y16905D01*
Y16851D01*
X22972Y16821D01*
X22866Y16740D01*
X22785Y16634D01*
X22734Y16510D01*
X22724Y16437D01*
X23732D01*
X23723Y16510D01*
X23672Y16634D01*
X23590Y16740D01*
X23484Y16821D01*
X23412Y16851D01*
Y16905D01*
X23484Y16935D01*
X23590Y17016D01*
X23672Y17122D01*
X23723Y17245D01*
X23732Y17319D01*
D02*
G37*
G36*
X14070Y17291D02*
X13062D01*
X13071Y17218D01*
X13122Y17094D01*
X13204Y16988D01*
X13310Y16907D01*
X13382Y16877D01*
Y16824D01*
X13310Y16794D01*
X13204Y16712D01*
X13122Y16606D01*
X13071Y16483D01*
X13062Y16409D01*
X14070D01*
X14060Y16483D01*
X14009Y16606D01*
X13928Y16712D01*
X13822Y16794D01*
X13749Y16824D01*
Y16877D01*
X13822Y16907D01*
X13928Y16988D01*
X14009Y17094D01*
X14060Y17218D01*
X14070Y17291D01*
D02*
G37*
G36*
X4424D02*
X3416D01*
X3426Y17218D01*
X3477Y17094D01*
X3558Y16988D01*
X3664Y16907D01*
X3737Y16877D01*
Y16824D01*
X3664Y16794D01*
X3558Y16712D01*
X3477Y16606D01*
X3426Y16483D01*
X3416Y16409D01*
X4424D01*
X4414Y16483D01*
X4363Y16606D01*
X4282Y16712D01*
X4176Y16794D01*
X4104Y16824D01*
Y16877D01*
X4176Y16907D01*
X4282Y16988D01*
X4363Y17094D01*
X4414Y17218D01*
X4424Y17291D01*
D02*
G37*
G36*
X22069Y16413D02*
X21459D01*
Y16098D01*
X22069D01*
Y16413D01*
D02*
G37*
G36*
X21341D02*
X20731D01*
Y16098D01*
X21341D01*
Y16413D01*
D02*
G37*
G36*
X12328Y16365D02*
X11718D01*
Y16050D01*
X12328D01*
Y16365D01*
D02*
G37*
G36*
X11599D02*
X10989D01*
Y16050D01*
X11599D01*
Y16365D01*
D02*
G37*
G36*
X23732Y16319D02*
X23287D01*
Y15874D01*
X23361Y15884D01*
X23484Y15935D01*
X23590Y16016D01*
X23672Y16122D01*
X23723Y16245D01*
X23732Y16319D01*
D02*
G37*
G36*
X23169D02*
X22724D01*
X22734Y16245D01*
X22785Y16122D01*
X22866Y16016D01*
X22972Y15935D01*
X23096Y15884D01*
X23169Y15874D01*
Y16319D01*
D02*
G37*
G36*
X14070Y16291D02*
X13625D01*
Y15846D01*
X13698Y15856D01*
X13822Y15907D01*
X13928Y15988D01*
X14009Y16094D01*
X14060Y16218D01*
X14070Y16291D01*
D02*
G37*
G36*
X13507D02*
X13062D01*
X13071Y16218D01*
X13122Y16094D01*
X13204Y15988D01*
X13310Y15907D01*
X13433Y15856D01*
X13507Y15846D01*
Y16291D01*
D02*
G37*
G36*
X4424D02*
X3979D01*
Y15846D01*
X4053Y15856D01*
X4176Y15907D01*
X4282Y15988D01*
X4363Y16094D01*
X4414Y16218D01*
X4424Y16291D01*
D02*
G37*
G36*
X3861D02*
X3416D01*
X3426Y16218D01*
X3477Y16094D01*
X3558Y15988D01*
X3664Y15907D01*
X3788Y15856D01*
X3861Y15846D01*
Y16291D01*
D02*
G37*
G36*
X22069Y15980D02*
X21459D01*
Y15665D01*
X22069D01*
Y15980D01*
D02*
G37*
G36*
X21341D02*
X20731D01*
Y15665D01*
X21341D01*
Y15980D01*
D02*
G37*
G36*
X12328Y15932D02*
X11718D01*
Y15617D01*
X12328D01*
Y15932D01*
D02*
G37*
G36*
X11599D02*
X10989D01*
Y15617D01*
X11599D01*
Y15932D01*
D02*
G37*
G36*
X25015Y20693D02*
X24896Y20677D01*
X24786Y20632D01*
X24692Y20559D01*
X24619Y20465D01*
X24573Y20354D01*
X24558Y20236D01*
X24573Y20118D01*
X24619Y20008D01*
X24692Y19913D01*
X25331Y19274D01*
X25425Y19202D01*
X25535Y19156D01*
X25653Y19141D01*
X28784D01*
Y17632D01*
X28734Y17510D01*
X28716Y17378D01*
X28734Y17245D01*
X28784Y17123D01*
Y16632D01*
X28734Y16510D01*
X28716Y16378D01*
X28734Y16245D01*
X28785Y16122D01*
X28866Y16016D01*
X28972Y15935D01*
X29045Y15905D01*
Y15851D01*
X28972Y15821D01*
X28866Y15740D01*
X28785Y15634D01*
X28734Y15510D01*
X28716Y15378D01*
X28734Y15245D01*
X28785Y15122D01*
X28866Y15016D01*
X28972Y14935D01*
X29096Y14884D01*
X29228Y14866D01*
X29361Y14884D01*
X29484Y14935D01*
X29590Y15016D01*
X29672Y15122D01*
X29723Y15245D01*
X29740Y15378D01*
X29723Y15510D01*
X29672Y15634D01*
X29590Y15740D01*
X29484Y15821D01*
X29412Y15851D01*
Y15905D01*
X29484Y15935D01*
X29590Y16016D01*
X29672Y16122D01*
X29723Y16245D01*
X29740Y16378D01*
X29723Y16510D01*
X29698Y16571D01*
Y17185D01*
X29723Y17245D01*
X29740Y17378D01*
X29723Y17510D01*
X29698Y17571D01*
Y19597D01*
X29682Y19716D01*
X29637Y19826D01*
X29564Y19920D01*
X29469Y19993D01*
X29359Y20038D01*
X29241Y20054D01*
X25843D01*
X25338Y20559D01*
X25243Y20632D01*
X25133Y20677D01*
X25015Y20693D01*
D02*
G37*
G36*
X30650Y13932D02*
Y13642D01*
X30940D01*
X30936Y13675D01*
X30900Y13761D01*
X30843Y13835D01*
X30769Y13892D01*
X30683Y13928D01*
X30650Y13932D01*
D02*
G37*
G36*
X30531D02*
X30498Y13928D01*
X30412Y13892D01*
X30338Y13835D01*
X30281Y13761D01*
X30245Y13675D01*
X30241Y13642D01*
X30531D01*
Y13932D01*
D02*
G37*
G36*
X30940Y13524D02*
X30650D01*
Y13233D01*
X30683Y13237D01*
X30769Y13273D01*
X30843Y13330D01*
X30900Y13404D01*
X30936Y13490D01*
X30940Y13524D01*
D02*
G37*
G36*
X30531D02*
X30241D01*
X30245Y13490D01*
X30281Y13404D01*
X30338Y13330D01*
X30412Y13273D01*
X30498Y13237D01*
X30531Y13233D01*
Y13524D01*
D02*
G37*
G36*
X30650Y12554D02*
Y12264D01*
X30940D01*
X30936Y12297D01*
X30900Y12383D01*
X30843Y12457D01*
X30769Y12514D01*
X30683Y12550D01*
X30650Y12554D01*
D02*
G37*
G36*
X30531D02*
X30498Y12550D01*
X30412Y12514D01*
X30338Y12457D01*
X30281Y12383D01*
X30245Y12297D01*
X30241Y12264D01*
X30531D01*
Y12554D01*
D02*
G37*
G36*
X30940Y12146D02*
X30650D01*
Y11855D01*
X30683Y11860D01*
X30769Y11895D01*
X30843Y11952D01*
X30900Y12026D01*
X30936Y12112D01*
X30940Y12146D01*
D02*
G37*
G36*
X30531D02*
X30241D01*
X30245Y12112D01*
X30281Y12026D01*
X30338Y11952D01*
X30412Y11895D01*
X30498Y11860D01*
X30531Y11855D01*
Y12146D01*
D02*
G37*
G36*
X30650Y11176D02*
Y10886D01*
X30940D01*
X30936Y10919D01*
X30900Y11005D01*
X30843Y11079D01*
X30769Y11136D01*
X30683Y11172D01*
X30650Y11176D01*
D02*
G37*
G36*
X30531D02*
X30498Y11172D01*
X30412Y11136D01*
X30338Y11079D01*
X30281Y11005D01*
X30245Y10919D01*
X30241Y10886D01*
X30531D01*
Y11176D01*
D02*
G37*
G36*
X30940Y10768D02*
X30650D01*
Y10477D01*
X30683Y10482D01*
X30769Y10517D01*
X30843Y10574D01*
X30900Y10648D01*
X30936Y10734D01*
X30940Y10768D01*
D02*
G37*
G36*
X30531D02*
X30241D01*
X30245Y10734D01*
X30281Y10648D01*
X30338Y10574D01*
X30412Y10517D01*
X30498Y10482D01*
X30531Y10477D01*
Y10768D01*
D02*
G37*
G36*
X30650Y9798D02*
Y9508D01*
X30940D01*
X30936Y9541D01*
X30900Y9628D01*
X30843Y9702D01*
X30769Y9758D01*
X30683Y9794D01*
X30650Y9798D01*
D02*
G37*
G36*
X30531D02*
X30498Y9794D01*
X30412Y9758D01*
X30338Y9702D01*
X30281Y9628D01*
X30245Y9541D01*
X30241Y9508D01*
X30531D01*
Y9798D01*
D02*
G37*
G36*
X30940Y9390D02*
X30650D01*
Y9099D01*
X30683Y9104D01*
X30769Y9139D01*
X30843Y9196D01*
X30900Y9270D01*
X30936Y9356D01*
X30940Y9390D01*
D02*
G37*
G36*
X30531D02*
X30241D01*
X30245Y9356D01*
X30281Y9270D01*
X30338Y9196D01*
X30412Y9139D01*
X30498Y9104D01*
X30531Y9099D01*
Y9390D01*
D02*
G37*
G36*
X30650Y8420D02*
Y8130D01*
X30940D01*
X30936Y8163D01*
X30900Y8250D01*
X30843Y8324D01*
X30769Y8380D01*
X30683Y8416D01*
X30650Y8420D01*
D02*
G37*
G36*
X30531D02*
X30498Y8416D01*
X30412Y8380D01*
X30338Y8324D01*
X30281Y8250D01*
X30245Y8163D01*
X30241Y8130D01*
X30531D01*
Y8420D01*
D02*
G37*
G36*
X30940Y8012D02*
X30650D01*
Y7721D01*
X30683Y7726D01*
X30769Y7761D01*
X30843Y7818D01*
X30900Y7892D01*
X30936Y7978D01*
X30940Y8012D01*
D02*
G37*
G36*
X30531D02*
X30241D01*
X30245Y7978D01*
X30281Y7892D01*
X30338Y7818D01*
X30412Y7761D01*
X30498Y7726D01*
X30531Y7721D01*
Y8012D01*
D02*
G37*
G36*
X965Y7436D02*
Y7146D01*
X1255D01*
X1251Y7179D01*
X1215Y7265D01*
X1158Y7339D01*
X1084Y7396D01*
X998Y7432D01*
X965Y7436D01*
D02*
G37*
G36*
X846D02*
X813Y7432D01*
X727Y7396D01*
X653Y7339D01*
X596Y7265D01*
X560Y7179D01*
X556Y7146D01*
X846D01*
Y7436D01*
D02*
G37*
G36*
X30650Y7043D02*
Y6752D01*
X30940D01*
X30936Y6785D01*
X30900Y6872D01*
X30843Y6946D01*
X30769Y7002D01*
X30683Y7038D01*
X30650Y7043D01*
D02*
G37*
G36*
X30531D02*
X30498Y7038D01*
X30412Y7002D01*
X30338Y6946D01*
X30281Y6872D01*
X30245Y6785D01*
X30241Y6752D01*
X30531D01*
Y7043D01*
D02*
G37*
G36*
X1255Y7028D02*
X965D01*
Y6737D01*
X998Y6741D01*
X1084Y6777D01*
X1158Y6834D01*
X1215Y6908D01*
X1251Y6994D01*
X1255Y7028D01*
D02*
G37*
G36*
X846D02*
X556D01*
X560Y6994D01*
X596Y6908D01*
X653Y6834D01*
X727Y6777D01*
X813Y6741D01*
X846Y6737D01*
Y7028D01*
D02*
G37*
G36*
X30940Y6634D02*
X30650D01*
Y6343D01*
X30683Y6348D01*
X30769Y6383D01*
X30843Y6440D01*
X30900Y6514D01*
X30936Y6600D01*
X30940Y6634D01*
D02*
G37*
G36*
X30531D02*
X30241D01*
X30245Y6600D01*
X30281Y6514D01*
X30338Y6440D01*
X30412Y6383D01*
X30498Y6348D01*
X30531Y6343D01*
Y6634D01*
D02*
G37*
G36*
X965Y6058D02*
Y5768D01*
X1255D01*
X1251Y5801D01*
X1215Y5887D01*
X1158Y5961D01*
X1084Y6018D01*
X998Y6054D01*
X965Y6058D01*
D02*
G37*
G36*
X846D02*
X813Y6054D01*
X727Y6018D01*
X653Y5961D01*
X596Y5887D01*
X560Y5801D01*
X556Y5768D01*
X846D01*
Y6058D01*
D02*
G37*
G36*
X30650Y5665D02*
Y5374D01*
X30940D01*
X30936Y5407D01*
X30900Y5494D01*
X30843Y5568D01*
X30769Y5624D01*
X30683Y5660D01*
X30650Y5665D01*
D02*
G37*
G36*
X30531D02*
X30498Y5660D01*
X30412Y5624D01*
X30338Y5568D01*
X30281Y5494D01*
X30245Y5407D01*
X30241Y5374D01*
X30531D01*
Y5665D01*
D02*
G37*
G36*
X1255Y5650D02*
X965D01*
Y5359D01*
X998Y5363D01*
X1084Y5399D01*
X1158Y5456D01*
X1215Y5530D01*
X1251Y5616D01*
X1255Y5650D01*
D02*
G37*
G36*
X846D02*
X556D01*
X560Y5616D01*
X596Y5530D01*
X653Y5456D01*
X727Y5399D01*
X813Y5363D01*
X846Y5359D01*
Y5650D01*
D02*
G37*
G36*
X30940Y5256D02*
X30650D01*
Y4965D01*
X30683Y4970D01*
X30769Y5005D01*
X30843Y5062D01*
X30900Y5136D01*
X30936Y5222D01*
X30940Y5256D01*
D02*
G37*
G36*
X30531D02*
X30241D01*
X30245Y5222D01*
X30281Y5136D01*
X30338Y5062D01*
X30412Y5005D01*
X30498Y4970D01*
X30531Y4965D01*
Y5256D01*
D02*
G37*
G36*
X965Y4680D02*
Y4390D01*
X1255D01*
X1251Y4423D01*
X1215Y4509D01*
X1158Y4583D01*
X1084Y4640D01*
X998Y4676D01*
X965Y4680D01*
D02*
G37*
G36*
X846D02*
X813Y4676D01*
X727Y4640D01*
X653Y4583D01*
X596Y4509D01*
X560Y4423D01*
X556Y4390D01*
X846D01*
Y4680D01*
D02*
G37*
G36*
X1255Y4272D02*
X965D01*
Y3981D01*
X998Y3986D01*
X1084Y4021D01*
X1158Y4078D01*
X1215Y4152D01*
X1251Y4238D01*
X1255Y4272D01*
D02*
G37*
G36*
X846D02*
X556D01*
X560Y4238D01*
X596Y4152D01*
X653Y4078D01*
X727Y4021D01*
X813Y3986D01*
X846Y3981D01*
Y4272D01*
D02*
G37*
G36*
X29783Y3542D02*
Y2421D01*
X30905D01*
X30895Y2548D01*
X30851Y2728D01*
X30780Y2900D01*
X30683Y3059D01*
X30562Y3200D01*
X30421Y3321D01*
X30262Y3418D01*
X30091Y3489D01*
X29910Y3532D01*
X29783Y3542D01*
D02*
G37*
G36*
X1831D02*
Y2421D01*
X2952D01*
X2942Y2548D01*
X2898Y2728D01*
X2827Y2900D01*
X2730Y3059D01*
X2609Y3200D01*
X2468Y3321D01*
X2310Y3418D01*
X2138Y3489D01*
X1957Y3532D01*
X1831Y3542D01*
D02*
G37*
G36*
X1713D02*
X1586Y3532D01*
X1406Y3489D01*
X1234Y3418D01*
X1075Y3321D01*
X934Y3200D01*
X813Y3059D01*
X716Y2900D01*
X645Y2728D01*
X601Y2548D01*
X592Y2421D01*
X1713D01*
Y3542D01*
D02*
G37*
G36*
X29665D02*
X29539Y3532D01*
X29358Y3489D01*
X29187Y3418D01*
X29028Y3321D01*
X28887Y3200D01*
X28766Y3059D01*
X28669Y2900D01*
X28598Y2728D01*
X28554Y2548D01*
X28544Y2421D01*
X29665D01*
Y3542D01*
D02*
G37*
G36*
X29228Y7894D02*
X29095Y7877D01*
X28970Y7825D01*
X28863Y7743D01*
X28781Y7636D01*
X28730Y7512D01*
X28712Y7378D01*
Y6378D01*
Y6195D01*
X25455Y2938D01*
X25363Y2910D01*
X25261Y2856D01*
X25171Y2782D01*
X25097Y2692D01*
X25042Y2589D01*
X25014Y2498D01*
X24251Y1734D01*
X23757D01*
X23749Y1784D01*
X23849Y1814D01*
X23952Y1869D01*
X24042Y1943D01*
X24115Y2033D01*
X24170Y2135D01*
X24204Y2246D01*
X24215Y2362D01*
X24204Y2478D01*
X24170Y2589D01*
X24115Y2692D01*
X24042Y2782D01*
X23952Y2856D01*
X23849Y2910D01*
X23845Y2912D01*
X23745Y3012D01*
Y6378D01*
Y7378D01*
X23727Y7512D01*
X23675Y7636D01*
X23593Y7743D01*
X23486Y7825D01*
X23362Y7877D01*
X23228Y7894D01*
X23095Y7877D01*
X22970Y7825D01*
X22863Y7743D01*
X22781Y7636D01*
X22730Y7512D01*
X22712Y7378D01*
Y6894D01*
X21680D01*
X21546Y6877D01*
X21422Y6825D01*
X21315Y6743D01*
X20030Y5458D01*
X18420D01*
X18286Y5441D01*
X18236Y5420D01*
X18208Y5416D01*
X18083Y5365D01*
X17976Y5283D01*
X16874Y4180D01*
X16806Y4091D01*
X16756Y4108D01*
Y5228D01*
X17362Y5834D01*
X19566D01*
X19699Y5852D01*
X19824Y5903D01*
X19931Y5985D01*
X20013Y6092D01*
X20064Y6217D01*
X20082Y6350D01*
Y7350D01*
X20064Y7484D01*
X20013Y7609D01*
X19931Y7715D01*
X19824Y7797D01*
X19699Y7849D01*
X19566Y7867D01*
X19432Y7849D01*
X19308Y7797D01*
X19201Y7715D01*
X19119Y7609D01*
X19067Y7484D01*
X19050Y7350D01*
Y6867D01*
X17149D01*
X17015Y6849D01*
X16890Y6797D01*
X16784Y6715D01*
X15875Y5807D01*
X15793Y5700D01*
X15787Y5685D01*
X15734D01*
X15701Y5764D01*
X15619Y5871D01*
X14790Y6700D01*
X14778Y6715D01*
X14671Y6797D01*
X14546Y6849D01*
X14413Y6867D01*
X14082D01*
Y7350D01*
X14064Y7484D01*
X14013Y7609D01*
X13931Y7715D01*
X13824Y7797D01*
X13699Y7849D01*
X13566Y7867D01*
X13432Y7849D01*
X13308Y7797D01*
X13201Y7715D01*
X13119Y7609D01*
X13067Y7484D01*
X13050Y7350D01*
Y6350D01*
X13067Y6217D01*
X13119Y6092D01*
X13201Y5985D01*
X13308Y5903D01*
X13432Y5852D01*
X13566Y5834D01*
X14195D01*
X14738Y5292D01*
Y4562D01*
X14688Y4545D01*
X14637Y4612D01*
X14066Y5183D01*
X13959Y5265D01*
X13834Y5317D01*
X13701Y5335D01*
X12589D01*
X11208Y6715D01*
X11101Y6797D01*
X10977Y6849D01*
X10843Y6867D01*
X10436D01*
Y7350D01*
X10419Y7484D01*
X10367Y7609D01*
X10285Y7715D01*
X10178Y7797D01*
X10054Y7849D01*
X9920Y7867D01*
X9786Y7849D01*
X9662Y7797D01*
X9555Y7715D01*
X9473Y7609D01*
X9421Y7484D01*
X9404Y7350D01*
Y6350D01*
Y4015D01*
X9405Y4003D01*
Y3374D01*
X8940Y2909D01*
X8105D01*
X8101Y2910D01*
X7990Y2944D01*
X7874Y2956D01*
X7758Y2944D01*
X7647Y2910D01*
X7544Y2856D01*
X7454Y2782D01*
X7381Y2692D01*
X7326Y2589D01*
X7292Y2478D01*
X7281Y2362D01*
X7292Y2246D01*
X7326Y2135D01*
X7381Y2033D01*
X7454Y1943D01*
X7540Y1872D01*
X7539Y1848D01*
X7533Y1823D01*
X7220D01*
X6453Y2590D01*
X6399Y2692D01*
X6325Y2782D01*
X6235Y2856D01*
X6133Y2910D01*
X4436Y4607D01*
Y6350D01*
Y7350D01*
X4419Y7484D01*
X4367Y7609D01*
X4285Y7715D01*
X4178Y7797D01*
X4054Y7849D01*
X3920Y7867D01*
X3786Y7849D01*
X3662Y7797D01*
X3555Y7715D01*
X3473Y7609D01*
X3421Y7484D01*
X3404Y7350D01*
Y6350D01*
Y4393D01*
X3421Y4260D01*
X3473Y4135D01*
X3555Y4028D01*
X5322Y2261D01*
X5324Y2246D01*
X5357Y2135D01*
X5412Y2033D01*
X5486Y1943D01*
X5576Y1869D01*
X5678Y1814D01*
X5790Y1780D01*
X5805Y1779D01*
X6642Y942D01*
X6748Y860D01*
X6873Y808D01*
X7007Y791D01*
X11118D01*
X11251Y808D01*
X11376Y860D01*
X11483Y942D01*
X13652Y3112D01*
X13734Y3218D01*
X13755Y3268D01*
X13804Y3268D01*
X13825Y3218D01*
X13907Y3112D01*
X14014Y3029D01*
X14138Y2978D01*
X14272Y2960D01*
X14405Y2978D01*
X14530Y3029D01*
X14637Y3112D01*
X14690Y3181D01*
X14740Y3165D01*
Y3111D01*
X14541Y2912D01*
X14537Y2910D01*
X14434Y2856D01*
X14344Y2782D01*
X14270Y2692D01*
X14216Y2589D01*
X14182Y2478D01*
X14170Y2362D01*
X14182Y2246D01*
X14216Y2135D01*
X14270Y2033D01*
X14344Y1943D01*
X14434Y1869D01*
X14537Y1814D01*
X14648Y1780D01*
X14764Y1769D01*
X14880Y1780D01*
X14991Y1814D01*
X15093Y1869D01*
X15183Y1943D01*
X15257Y2033D01*
X15312Y2135D01*
X15346Y2246D01*
X15347Y2258D01*
X15621Y2532D01*
X15703Y2639D01*
X15723Y2688D01*
X15773D01*
X15793Y2639D01*
X15875Y2532D01*
X16149Y2258D01*
X16150Y2246D01*
X16184Y2135D01*
X16239Y2033D01*
X16313Y1943D01*
X16403Y1869D01*
X16505Y1814D01*
X16617Y1780D01*
X16732Y1769D01*
X16848Y1780D01*
X16959Y1814D01*
X17062Y1869D01*
X17152Y1943D01*
X17226Y2033D01*
X17281Y2135D01*
X17314Y2246D01*
X17326Y2362D01*
X17314Y2478D01*
X17281Y2589D01*
X17226Y2692D01*
X17152Y2782D01*
X17062Y2856D01*
X16959Y2910D01*
X16956Y2912D01*
X16756Y3111D01*
Y3198D01*
X16806Y3215D01*
X16874Y3126D01*
X16981Y3044D01*
X17105Y2992D01*
X17239Y2975D01*
X17373Y2992D01*
X17497Y3044D01*
X17604Y3126D01*
X17686Y3233D01*
X17696Y3257D01*
X17745D01*
X17762Y3218D01*
X17844Y3112D01*
X20102Y853D01*
X20209Y771D01*
X20333Y719D01*
X20467Y702D01*
X24465D01*
X24599Y719D01*
X24723Y771D01*
X24830Y853D01*
X25779Y1802D01*
X25818Y1814D01*
X25920Y1869D01*
X26010Y1943D01*
X26084Y2033D01*
X26139Y2135D01*
X26150Y2173D01*
X29593Y5616D01*
X29675Y5723D01*
X29727Y5848D01*
X29745Y5981D01*
Y6378D01*
Y7378D01*
X29727Y7512D01*
X29675Y7636D01*
X29593Y7743D01*
X29486Y7825D01*
X29362Y7877D01*
X29228Y7894D01*
D02*
G37*
G36*
X30905Y2303D02*
X29783D01*
Y1182D01*
X29910Y1192D01*
X30091Y1235D01*
X30262Y1307D01*
X30421Y1404D01*
X30562Y1524D01*
X30683Y1666D01*
X30780Y1824D01*
X30851Y1996D01*
X30895Y2177D01*
X30905Y2303D01*
D02*
G37*
G36*
X2952D02*
X1831D01*
Y1182D01*
X1957Y1192D01*
X2138Y1235D01*
X2310Y1307D01*
X2468Y1404D01*
X2609Y1524D01*
X2730Y1666D01*
X2827Y1824D01*
X2898Y1996D01*
X2942Y2177D01*
X2952Y2303D01*
D02*
G37*
G36*
X29665D02*
X28544D01*
X28554Y2177D01*
X28598Y1996D01*
X28669Y1824D01*
X28766Y1666D01*
X28887Y1524D01*
X29028Y1404D01*
X29187Y1307D01*
X29358Y1235D01*
X29539Y1192D01*
X29665Y1182D01*
Y2303D01*
D02*
G37*
G36*
X1713D02*
X592D01*
X601Y2177D01*
X645Y1996D01*
X716Y1824D01*
X813Y1666D01*
X934Y1524D01*
X1075Y1404D01*
X1234Y1307D01*
X1406Y1235D01*
X1586Y1192D01*
X1713Y1182D01*
Y2303D01*
D02*
G37*
%LPD*%
G36*
X25709Y26162D02*
X25709Y22076D01*
X21614Y22076D01*
X21614Y26162D01*
X25709Y26162D01*
D02*
G37*
D18*
X13294Y24898D02*
X13804D01*
X10518Y22122D02*
X13294Y24898D01*
X10518Y22095D02*
Y22122D01*
X9060Y23097D02*
Y23678D01*
X13889Y31952D02*
X14820Y32882D01*
X13889Y31414D02*
Y31952D01*
X14820Y32882D02*
X15639D01*
X15721Y32800D01*
X9865Y34790D02*
X12170D01*
X12963Y35583D01*
X6896Y20933D02*
X9060Y23097D01*
X7492Y29439D02*
Y30248D01*
Y29439D02*
X9473Y27458D01*
X7195Y30545D02*
X7492Y30248D01*
X9473Y26885D02*
Y27458D01*
D20*
X11410Y30965D02*
Y32423D01*
X10397Y33437D02*
X11410Y32423D01*
X3926Y33437D02*
X10397Y33437D01*
X11410Y30965D02*
X12519Y29856D01*
X1575Y33437D02*
X3926D01*
X1575Y31524D02*
X2405D01*
X2855Y31973D01*
X3355D01*
D24*
X24714Y33064D02*
D03*
X25384D02*
D03*
X26054D02*
D03*
X26724D02*
D03*
X27394D02*
D03*
D25*
X26054Y36880D02*
D03*
D26*
X23062Y27048D02*
D03*
X24243D02*
D03*
D27*
X25060Y29727D02*
D03*
X23316D02*
D03*
D28*
X28653Y34003D02*
D03*
X29401D02*
D03*
X4095Y34284D02*
D03*
X3347D02*
D03*
X29401Y32992D02*
D03*
X28653D02*
D03*
D29*
X28087Y25558D02*
D03*
Y24810D02*
D03*
X3355Y31225D02*
D03*
Y31973D02*
D03*
D30*
X28360Y26879D02*
D03*
Y30816D02*
D03*
D31*
X1575Y30681D02*
D03*
Y31524D02*
D03*
Y33437D02*
D03*
Y34280D02*
D03*
D32*
X5229Y30439D02*
D03*
Y21790D02*
D03*
D33*
Y26115D02*
D03*
D34*
X22057Y34204D02*
D03*
X23356D02*
D03*
X29282Y18944D02*
D03*
X30581D02*
D03*
D35*
X26755Y24844D02*
D03*
Y23041D02*
D03*
D36*
X23979Y23943D02*
D03*
D37*
X21400Y17339D02*
D03*
Y16039D02*
D03*
X11658Y17290D02*
D03*
Y15991D02*
D03*
D38*
X19838Y31253D02*
D03*
Y34009D02*
D03*
D39*
X17426Y25018D02*
D03*
X13804D02*
D03*
D77*
X23223Y15777D02*
Y17979D01*
X13573Y15726D02*
Y17977D01*
X3923Y15612D02*
Y17987D01*
X13566Y15718D02*
X13573Y15726D01*
X1099Y26080D02*
X9086D01*
X23356Y31492D02*
Y34204D01*
X21695Y29830D02*
X23356Y31492D01*
X21695Y28556D02*
Y29830D01*
D78*
X21062Y38009D02*
X23041D01*
X21428Y38103D02*
X21468Y38064D01*
X20482Y38283D02*
X22942D01*
X20443Y37511D02*
X20995Y38064D01*
X20443Y36958D02*
Y37511D01*
X20995Y38064D02*
X21061D01*
X21101Y38103D01*
X21428D01*
D79*
X3358Y30742D02*
Y31225D01*
X2153Y29537D02*
X3358Y30742D01*
X366Y29537D02*
X2153D01*
D80*
X29403Y23551D02*
Y26842D01*
X28554Y23551D02*
X29403D01*
X28087Y24018D02*
Y24810D01*
Y24018D02*
X28554Y23551D01*
X24255Y26936D02*
Y28390D01*
X19578Y17362D02*
X21438D01*
X21493Y17417D02*
Y18437D01*
X20311Y19619D02*
X21493Y18437D01*
X20311Y19619D02*
Y20138D01*
Y20546D01*
X19830Y21026D02*
X20311Y20546D01*
X19830Y21026D02*
Y22490D01*
X19658Y24424D02*
X19836Y24601D01*
X19046Y23803D02*
X19658Y24414D01*
X19037Y23803D02*
X19046D01*
X15501Y20267D02*
X19037Y23803D01*
X19658Y24414D02*
Y24424D01*
X15501Y20236D02*
Y20267D01*
X11731Y20149D02*
X11818Y20236D01*
X13533D01*
X11762Y17369D02*
Y20126D01*
X22236Y21046D02*
X23046Y20236D01*
X29241Y16391D02*
Y19597D01*
X25653D02*
X29241D01*
X25015Y20236D02*
X25653Y19597D01*
X19921Y24450D02*
X20705Y23666D01*
X23234Y34461D02*
X24234D01*
X24711Y33984D01*
X25384Y29660D02*
Y32213D01*
Y29660D02*
X25417Y29693D01*
X28950Y26879D02*
X29346Y26484D01*
X26755Y24844D02*
X26775Y24825D01*
X28072D01*
X29403Y26842D02*
X29440Y26879D01*
X23915Y24615D02*
Y24654D01*
X23819Y24750D02*
X23915Y24654D01*
X24250Y26932D02*
X24255Y26936D01*
X24250Y24421D02*
Y26932D01*
X24076Y24247D02*
X24250Y24421D01*
X9941Y17329D02*
X11619D01*
X9920Y17350D02*
X9941Y17329D01*
X9920Y16350D02*
Y17350D01*
X21216Y21046D02*
X22236D01*
X20705Y21557D02*
X21216Y21046D01*
X20705Y21557D02*
Y23666D01*
X29228Y16378D02*
X29241Y16391D01*
X28360Y26879D02*
X28405Y26834D01*
X26646Y29693D02*
X27769Y30816D01*
X25417Y29693D02*
X26646D01*
X27769Y30816D02*
X28360D01*
X28718Y30874D02*
X28780Y30936D01*
X19566Y16350D02*
Y17350D01*
D81*
X18627Y24375D02*
Y25767D01*
X15279Y21027D02*
X18627Y24375D01*
X17550Y28850D02*
Y30741D01*
X13217Y30811D02*
X16104D01*
X10005Y21027D02*
X15279D01*
X9227Y20249D02*
X10005Y21027D01*
X16624Y28850D02*
X17520D01*
X5806Y20249D02*
X9227D01*
X5236Y20819D02*
X5806Y20249D01*
X5236Y20819D02*
Y21610D01*
X11424Y29822D02*
X12021Y29226D01*
X11068Y29822D02*
X11424D01*
X12021Y29226D02*
X15052D01*
X15354Y29528D01*
X17086Y30811D02*
X17097Y30800D01*
X16126Y30811D02*
X17086D01*
X17097Y30800D02*
X17491D01*
X12354Y31674D02*
X13217Y30811D01*
X12354Y31674D02*
Y33375D01*
X15947Y29528D02*
X16624Y28850D01*
X15354Y29528D02*
X15947D01*
X17520Y28850D02*
X17550D01*
X17491Y30800D02*
X17550Y30741D01*
D82*
X9071Y34284D02*
Y34776D01*
X16732Y25906D02*
Y28732D01*
X1949Y2381D02*
X1985Y2346D01*
X1772Y17749D02*
X1782Y17739D01*
X1772Y17749D02*
Y19685D01*
X4095Y34284D02*
X9071D01*
X11445D01*
X12354Y33375D01*
X10555Y29309D02*
X11068Y29822D01*
X10555Y28572D02*
Y29309D01*
Y25318D02*
Y28572D01*
X9021Y28553D02*
X10536D01*
X10555Y28572D01*
D83*
X19836Y28556D02*
Y30777D01*
Y24601D02*
Y28556D01*
D84*
X24711Y33067D02*
Y33984D01*
Y33067D02*
X24714Y33064D01*
X25384Y32264D02*
Y33064D01*
Y32213D02*
Y32264D01*
X28950Y26879D02*
X29440D01*
X30427D01*
X28653Y34003D02*
Y34220D01*
X28481Y34392D02*
X28653Y34220D01*
X26934Y34392D02*
X28481D01*
X26724Y34182D02*
X26934Y34392D01*
X26724Y33064D02*
Y34182D01*
Y33064D02*
X26724Y33064D01*
X28653Y32992D02*
Y34003D01*
X28360Y26879D02*
X28950D01*
X30654Y27106D02*
Y32405D01*
X30427Y26879D02*
X30654Y27106D01*
X30068Y32992D02*
X30654Y32405D01*
X29401Y32992D02*
X30068D01*
D85*
X9922Y3160D02*
Y4210D01*
X9154Y2392D02*
X9922Y3160D01*
X7904Y2392D02*
X9154D01*
X7874Y2362D02*
X7904Y2392D01*
X3920Y4393D02*
X7007Y1307D01*
X11118D01*
X3920Y4393D02*
Y6350D01*
X24465Y1218D02*
X29228Y5981D01*
Y6378D01*
X20467Y1218D02*
X24465D01*
X23228Y2799D02*
X23622Y2405D01*
Y2362D02*
Y2405D01*
X17149Y6350D02*
X19566D01*
X16240Y5442D02*
X17149Y6350D01*
X16240Y3477D02*
Y5442D01*
X18209Y3477D02*
X20467Y1218D01*
X17239Y3815D02*
X18341Y4918D01*
X16240Y2897D02*
Y3477D01*
Y2897D02*
X16732Y2405D01*
Y2362D02*
Y2405D01*
X14415Y6345D02*
X15254Y5506D01*
X14764Y2362D02*
Y2405D01*
X15256Y2897D01*
Y3477D01*
X13701Y4818D02*
X14272Y4247D01*
Y3477D02*
Y4247D01*
X12375Y4818D02*
X13701D01*
X11118Y1307D02*
X13287Y3477D01*
X23228Y2799D02*
Y6378D01*
X15254Y3478D02*
Y5506D01*
X13566Y6350D02*
X14413D01*
X10843D02*
X12375Y4818D01*
X18420Y4942D02*
X20244D01*
X17239Y3491D02*
Y3815D01*
X20244Y4942D02*
X21680Y6378D01*
X23228D01*
X9920Y6350D02*
X10843D01*
X9920Y4015D02*
Y6350D01*
Y7350D01*
X3920Y6350D02*
Y7350D01*
X13566Y6350D02*
Y7350D01*
X19566Y6350D02*
Y7350D01*
X29228Y6378D02*
Y7378D01*
X23228Y6378D02*
Y7378D01*
D86*
X1577Y34282D02*
X3347D01*
Y34284D01*
X1575Y34280D02*
X1577Y34282D01*
D87*
X945Y12756D02*
X9055D01*
D88*
X19566Y17350D02*
X19578Y17362D01*
D89*
X16092Y23122D02*
D03*
Y23398D02*
D03*
D90*
X24510Y35440D02*
D03*
X25297D02*
D03*
X26084D02*
D03*
X26872D02*
D03*
X27659D02*
D03*
Y36385D02*
D03*
X26872D02*
D03*
X26084D02*
D03*
X25297D02*
D03*
X24510D02*
D03*
X27659Y37330D02*
D03*
X26872D02*
D03*
X26084D02*
D03*
X25297D02*
D03*
X24510D02*
D03*
X27659Y38275D02*
D03*
X26872D02*
D03*
X26084D02*
D03*
X25297D02*
D03*
X24510D02*
D03*
X10518Y22095D02*
D03*
X12519Y29856D02*
D03*
X9961Y22937D02*
D03*
Y23688D02*
D03*
X25787Y26575D02*
D03*
Y28543D02*
D03*
Y27559D02*
D03*
X9064Y34772D02*
D03*
X13889Y31414D02*
D03*
X6925Y20911D02*
D03*
X9473Y26885D02*
D03*
X7195Y30545D02*
D03*
X1522Y23044D02*
D03*
X2353Y22217D02*
D03*
X1520Y22229D02*
D03*
X13246Y26717D02*
D03*
X906Y7087D02*
D03*
Y5709D02*
D03*
X30591Y5315D02*
D03*
X906Y4331D02*
D03*
X30591Y6693D02*
D03*
Y13583D02*
D03*
Y12205D02*
D03*
Y10827D02*
D03*
Y9449D02*
D03*
Y8071D02*
D03*
X9064Y23700D02*
D03*
X9865Y34790D02*
D03*
D91*
X15675Y23486D02*
D03*
Y23053D02*
D03*
D92*
X11769Y20126D02*
D03*
X20311Y20138D02*
D03*
X23344Y32084D02*
D03*
D93*
X10785Y20126D02*
D03*
X19326Y20138D02*
D03*
X27294Y20594D02*
D03*
X22360Y32084D02*
D03*
D94*
X15501Y20236D02*
D03*
X13533D02*
D03*
X19830Y24458D02*
D03*
Y22490D02*
D03*
X23046Y20236D02*
D03*
X25015D02*
D03*
X21695Y28556D02*
D03*
X19726D02*
D03*
D95*
X29356Y22178D02*
D03*
X13287Y3477D02*
D03*
X14272D02*
D03*
X15256D02*
D03*
X16240D02*
D03*
X17224D02*
D03*
X18209D02*
D03*
X15721Y31800D02*
D03*
Y32800D02*
D03*
Y33800D02*
D03*
X17520Y26850D02*
D03*
Y27850D02*
D03*
X17097Y31800D02*
D03*
Y32800D02*
D03*
Y33800D02*
D03*
D96*
X29356Y23556D02*
D03*
X15721Y30800D02*
D03*
X17520Y28850D02*
D03*
X17097Y30800D02*
D03*
D97*
X27294Y19609D02*
D03*
D98*
X29724Y37008D02*
D03*
X29724Y2362D02*
D03*
X1772D02*
D03*
X1772Y19685D02*
D03*
D99*
X21495Y35729D02*
D03*
Y38091D02*
D03*
D100*
X15144Y35583D02*
D03*
X14598Y36701D02*
D03*
X14053Y35583D02*
D03*
X13508Y36701D02*
D03*
X12963Y35583D02*
D03*
X12417Y36701D02*
D03*
X11872Y35583D02*
D03*
X11327Y36701D02*
D03*
D101*
X10781Y35583D02*
D03*
D102*
X8043Y36142D02*
D03*
X17882D02*
D03*
D103*
X22411Y36958D02*
D03*
X20443D02*
D03*
X23622Y2362D02*
D03*
X25591D02*
D03*
X14764D02*
D03*
X16732D02*
D03*
X5906D02*
D03*
X7874D02*
D03*
D104*
X23228Y16378D02*
D03*
Y17378D02*
D03*
Y7378D02*
D03*
Y6378D02*
D03*
X29228D02*
D03*
Y7378D02*
D03*
Y15378D02*
D03*
Y16378D02*
D03*
Y17378D02*
D03*
X13566Y16350D02*
D03*
Y17350D02*
D03*
Y7350D02*
D03*
Y6350D02*
D03*
X19566D02*
D03*
Y7350D02*
D03*
Y15350D02*
D03*
Y16350D02*
D03*
Y17350D02*
D03*
X3920Y16350D02*
D03*
Y17350D02*
D03*
Y7350D02*
D03*
Y6350D02*
D03*
X9920D02*
D03*
Y7350D02*
D03*
Y15350D02*
D03*
Y16350D02*
D03*
Y17350D02*
D03*
D105*
X18627Y25767D02*
D03*
X16732Y25787D02*
D03*
X11068Y29822D02*
D03*
X12354Y33375D02*
D03*
X9021Y28553D02*
D03*
X10555Y25318D02*
D03*
X15354Y29528D02*
D03*
D106*
X24255Y28390D02*
D03*
D107*
X366Y29537D02*
D03*
M02*
