G04*
G04 #@! TF.GenerationSoftware,Altium Limited,Altium Designer,19.1.8 (144)*
G04*
G04 Layer_Color=8421504*
%FSLAX24Y24*%
%MOIN*%
G70*
G01*
G75*
%ADD24R,0.0400X0.1260*%
%ADD25R,0.4000X0.3976*%
%ADD26R,0.0787X0.0866*%
%ADD27R,0.0858X0.0835*%
%ADD28R,0.0512X0.0591*%
%ADD29R,0.0591X0.0512*%
%ADD30R,0.2756X0.1575*%
%ADD31R,0.1260X0.0551*%
%ADD32R,0.2000X0.1098*%
%ADD33C,0.7000*%
%ADD34R,0.0433X0.1024*%
%ADD35R,0.1181X0.0630*%
%ADD36R,0.2441X0.2283*%
%ADD37R,0.1024X0.0433*%
%ADD38R,0.1240X0.0866*%
%ADD39R,0.0858X0.0630*%
D24*
X24714Y33064D02*
D03*
X25384D02*
D03*
X26054D02*
D03*
X26724D02*
D03*
X27394D02*
D03*
D25*
X26054Y36880D02*
D03*
D26*
X23062Y27048D02*
D03*
X24243D02*
D03*
D27*
X25060Y29727D02*
D03*
X23316D02*
D03*
D28*
X28653Y34003D02*
D03*
X29401D02*
D03*
X4095Y34284D02*
D03*
X3347D02*
D03*
X29401Y32992D02*
D03*
X28653D02*
D03*
D29*
X28087Y25558D02*
D03*
Y24810D02*
D03*
X3355Y31225D02*
D03*
Y31973D02*
D03*
D30*
X28360Y26879D02*
D03*
Y30816D02*
D03*
D31*
X1575Y30681D02*
D03*
Y31524D02*
D03*
Y33437D02*
D03*
Y34280D02*
D03*
D32*
X5229Y30439D02*
D03*
Y21790D02*
D03*
D33*
Y26115D02*
D03*
D34*
X22057Y34204D02*
D03*
X23356D02*
D03*
X29282Y18944D02*
D03*
X30581D02*
D03*
D35*
X26755Y24844D02*
D03*
Y23041D02*
D03*
D36*
X23979Y23943D02*
D03*
D37*
X21400Y17339D02*
D03*
Y16039D02*
D03*
X11658Y17290D02*
D03*
Y15991D02*
D03*
D38*
X19838Y31253D02*
D03*
Y34009D02*
D03*
D39*
X17426Y25018D02*
D03*
X13804D02*
D03*
M02*
