G04*
G04 #@! TF.GenerationSoftware,Altium Limited,Altium Designer,19.1.8 (144)*
G04*
G04 Layer_Color=16711935*
%FSLAX24Y24*%
%MOIN*%
G70*
G01*
G75*
%ADD44R,0.0592X0.0671*%
%ADD45R,0.0671X0.0592*%
%ADD56C,0.0206*%
%ADD57C,0.0474*%
%ADD58C,0.0336*%
%ADD59R,0.0592X0.0592*%
%ADD60C,0.0592*%
%ADD61C,0.0611*%
%ADD62C,0.0671*%
%ADD63R,0.0671X0.0671*%
%ADD64R,0.0592X0.0592*%
%ADD65C,0.2127*%
%ADD66R,0.1852X0.1064*%
%ADD67C,0.0745*%
%ADD68R,0.0745X0.0745*%
%ADD69C,0.1954*%
%ADD70C,0.0946*%
%ADD71C,0.0780*%
%ADD72C,0.0316*%
%ADD73C,0.0552*%
%ADD74C,0.0356*%
%ADD75C,0.0434*%
%ADD76C,0.0395*%
G04:AMPARAMS|DCode=122|XSize=67.1mil|YSize=59.2mil|CornerRadius=0mil|HoleSize=0mil|Usage=FLASHONLY|Rotation=135.000|XOffset=0mil|YOffset=0mil|HoleType=Round|Shape=Rectangle|*
%AMROTATEDRECTD122*
4,1,4,0.0446,-0.0028,0.0028,-0.0446,-0.0446,0.0028,-0.0028,0.0446,0.0446,-0.0028,0.0*
%
%ADD122ROTATEDRECTD122*%

%ADD123R,0.0907X0.0592*%
%ADD124R,0.0434X0.0316*%
%ADD125R,0.0710X0.0789*%
%ADD126R,0.0671X0.0389*%
%ADD127R,0.0389X0.0671*%
%ADD128O,0.0198X0.0789*%
%ADD129O,0.0789X0.0198*%
%ADD130R,0.0867X0.0552*%
%ADD131R,0.0320X0.0680*%
%ADD132R,0.2245X0.0867*%
D44*
X11339Y22795D02*
D03*
X12087D02*
D03*
X9210Y21342D02*
D03*
X9958D02*
D03*
X17742Y21327D02*
D03*
X16994D02*
D03*
X17474Y22727D02*
D03*
X16726D02*
D03*
X17470Y23664D02*
D03*
X16722D02*
D03*
X10824Y24484D02*
D03*
X11572D02*
D03*
X10236Y28780D02*
D03*
X10984D02*
D03*
X7649Y34757D02*
D03*
X8397D02*
D03*
X9228Y24488D02*
D03*
X9976D02*
D03*
X7930Y27131D02*
D03*
X8678D02*
D03*
X11339Y23622D02*
D03*
X12087D02*
D03*
X13031Y23071D02*
D03*
X13780D02*
D03*
D45*
X14843Y25197D02*
D03*
Y24449D02*
D03*
X14488Y30276D02*
D03*
Y29528D02*
D03*
X15787Y24882D02*
D03*
Y25630D02*
D03*
X7187Y27139D02*
D03*
Y26391D02*
D03*
X8258Y28791D02*
D03*
Y28043D02*
D03*
X7195Y29672D02*
D03*
Y28924D02*
D03*
X16102Y26929D02*
D03*
Y27677D02*
D03*
D56*
X16092Y23122D02*
D03*
Y23398D02*
D03*
D57*
X24510Y35440D02*
D03*
X25297D02*
D03*
X26084D02*
D03*
X26872D02*
D03*
X27659D02*
D03*
Y36385D02*
D03*
X26872D02*
D03*
X26084D02*
D03*
X25297D02*
D03*
X24510D02*
D03*
X27659Y37330D02*
D03*
X26872D02*
D03*
X26084D02*
D03*
X25297D02*
D03*
X24510D02*
D03*
X27659Y38275D02*
D03*
X26872D02*
D03*
X26084D02*
D03*
X25297D02*
D03*
X24510D02*
D03*
X9961Y22937D02*
D03*
Y23688D02*
D03*
X25787Y26575D02*
D03*
Y28543D02*
D03*
Y27559D02*
D03*
X1522Y23044D02*
D03*
X2353Y22217D02*
D03*
X1520Y22229D02*
D03*
X13246Y26717D02*
D03*
X906Y7087D02*
D03*
Y5709D02*
D03*
X30591Y5315D02*
D03*
X906Y4331D02*
D03*
X30591Y6693D02*
D03*
Y13583D02*
D03*
Y12205D02*
D03*
Y10827D02*
D03*
Y9449D02*
D03*
Y8071D02*
D03*
D58*
X15675Y23486D02*
D03*
Y23053D02*
D03*
D59*
X11769Y20126D02*
D03*
X20311Y20138D02*
D03*
X23344Y32084D02*
D03*
D60*
X10785Y20126D02*
D03*
X19326Y20138D02*
D03*
X27294Y20594D02*
D03*
X22360Y32084D02*
D03*
D61*
X15501Y20236D02*
D03*
X13533D02*
D03*
X19830Y24458D02*
D03*
Y22490D02*
D03*
X23046Y20236D02*
D03*
X25015D02*
D03*
X21695Y28556D02*
D03*
X19726D02*
D03*
D62*
X29356Y22178D02*
D03*
X13287Y3477D02*
D03*
X14272D02*
D03*
X15256D02*
D03*
X16240D02*
D03*
X17224D02*
D03*
X18209D02*
D03*
X15721Y31800D02*
D03*
Y32800D02*
D03*
Y33800D02*
D03*
X17520Y26850D02*
D03*
Y27850D02*
D03*
X17097Y31800D02*
D03*
Y32800D02*
D03*
Y33800D02*
D03*
D63*
X29356Y23556D02*
D03*
X15721Y30800D02*
D03*
X17520Y28850D02*
D03*
X17097Y30800D02*
D03*
D64*
X27294Y19609D02*
D03*
D65*
X29724Y37008D02*
D03*
X29724Y2362D02*
D03*
X1772D02*
D03*
X1772Y19685D02*
D03*
D66*
X21495Y35729D02*
D03*
Y38091D02*
D03*
D67*
X15144Y35583D02*
D03*
X14598Y36701D02*
D03*
X14053Y35583D02*
D03*
X13508Y36701D02*
D03*
X12963Y35583D02*
D03*
X12417Y36701D02*
D03*
X11872Y35583D02*
D03*
X11327Y36701D02*
D03*
D68*
X10781Y35583D02*
D03*
D69*
X8043Y36142D02*
D03*
X17882D02*
D03*
D70*
X22411Y36958D02*
D03*
X20443D02*
D03*
X23622Y2362D02*
D03*
X25591D02*
D03*
X14764D02*
D03*
X16732D02*
D03*
X5906D02*
D03*
X7874D02*
D03*
D71*
X23228Y16378D02*
D03*
Y17378D02*
D03*
Y7378D02*
D03*
Y6378D02*
D03*
X29228D02*
D03*
Y7378D02*
D03*
Y15378D02*
D03*
Y16378D02*
D03*
Y17378D02*
D03*
X13566Y16350D02*
D03*
Y17350D02*
D03*
Y7350D02*
D03*
Y6350D02*
D03*
X19566D02*
D03*
Y7350D02*
D03*
Y15350D02*
D03*
Y16350D02*
D03*
Y17350D02*
D03*
X3920Y16350D02*
D03*
Y17350D02*
D03*
Y7350D02*
D03*
Y6350D02*
D03*
X9920D02*
D03*
Y7350D02*
D03*
Y15350D02*
D03*
Y16350D02*
D03*
Y17350D02*
D03*
D72*
X10518Y22095D02*
D03*
X12519Y29856D02*
D03*
X9064Y34772D02*
D03*
X13889Y31414D02*
D03*
X6925Y20911D02*
D03*
X9473Y26885D02*
D03*
X7195Y30545D02*
D03*
X9064Y23700D02*
D03*
X9865Y34790D02*
D03*
D73*
X18627Y25767D02*
D03*
D74*
X16732Y25787D02*
D03*
X11068Y29822D02*
D03*
X12354Y33375D02*
D03*
X9021Y28553D02*
D03*
X10555Y25318D02*
D03*
X15354Y29528D02*
D03*
D75*
X24255Y28390D02*
D03*
D76*
X366Y29537D02*
D03*
D122*
X8518Y26290D02*
D03*
X7989Y25761D02*
D03*
D123*
X15831Y22710D02*
D03*
Y23813D02*
D03*
D124*
X17165Y24843D02*
D03*
X18031Y24469D02*
D03*
Y25217D02*
D03*
D125*
X20295Y33602D02*
D03*
X19193D02*
D03*
X20295Y34504D02*
D03*
X19193D02*
D03*
D126*
X1042Y35445D02*
D03*
Y34854D02*
D03*
Y34264D02*
D03*
Y33673D02*
D03*
Y33083D02*
D03*
Y32492D02*
D03*
Y31902D02*
D03*
Y31311D02*
D03*
Y30721D02*
D03*
Y30130D02*
D03*
Y29539D02*
D03*
Y28949D02*
D03*
Y28358D02*
D03*
X6357D02*
D03*
Y28949D02*
D03*
Y29539D02*
D03*
Y30130D02*
D03*
Y30721D02*
D03*
Y31311D02*
D03*
Y31902D02*
D03*
Y32492D02*
D03*
Y33083D02*
D03*
Y33673D02*
D03*
Y34264D02*
D03*
Y34854D02*
D03*
Y35445D02*
D03*
D127*
X1632Y27620D02*
D03*
X2223D02*
D03*
X2813D02*
D03*
X3404D02*
D03*
X3994D02*
D03*
X4585D02*
D03*
X5175D02*
D03*
X5766D02*
D03*
D128*
X14114Y25453D02*
D03*
X13917D02*
D03*
X13720D02*
D03*
X13524D02*
D03*
X13327D02*
D03*
X13130D02*
D03*
X12933D02*
D03*
X12736D02*
D03*
X12539D02*
D03*
X12343D02*
D03*
X12146D02*
D03*
X11949D02*
D03*
Y28642D02*
D03*
X12146D02*
D03*
X12343D02*
D03*
X12539D02*
D03*
X12736D02*
D03*
X12933D02*
D03*
X13130D02*
D03*
X13327D02*
D03*
X13524D02*
D03*
X13720D02*
D03*
X13917D02*
D03*
X14114D02*
D03*
D129*
X11437Y25965D02*
D03*
Y26161D02*
D03*
Y26358D02*
D03*
Y26555D02*
D03*
Y26752D02*
D03*
Y26949D02*
D03*
Y27146D02*
D03*
Y27343D02*
D03*
Y27539D02*
D03*
Y27736D02*
D03*
Y27933D02*
D03*
Y28130D02*
D03*
X14626D02*
D03*
Y27933D02*
D03*
Y27736D02*
D03*
Y27539D02*
D03*
Y27343D02*
D03*
Y27146D02*
D03*
Y26949D02*
D03*
Y26752D02*
D03*
Y26555D02*
D03*
Y26358D02*
D03*
Y26161D02*
D03*
Y25965D02*
D03*
D130*
X12385Y34120D02*
D03*
X13487D02*
D03*
Y32250D02*
D03*
X12385D02*
D03*
X11194Y30735D02*
D03*
X12296D02*
D03*
X10141D02*
D03*
X9038D02*
D03*
X10174Y29729D02*
D03*
X9072D02*
D03*
D131*
X7865Y33985D02*
D03*
Y31835D02*
D03*
X8365Y33985D02*
D03*
X8865D02*
D03*
X8365Y31835D02*
D03*
X8865D02*
D03*
X9365Y33985D02*
D03*
Y31835D02*
D03*
X9865Y33985D02*
D03*
Y31835D02*
D03*
X10365Y33985D02*
D03*
X10865D02*
D03*
X10365Y31835D02*
D03*
X10865D02*
D03*
X11365Y33985D02*
D03*
Y31835D02*
D03*
D132*
X15335Y21339D02*
D03*
X11594D02*
D03*
M02*
