G04*
G04 #@! TF.GenerationSoftware,Altium Limited,Altium Designer,19.1.8 (144)*
G04*
G04 Layer_Color=128*
%FSLAX24Y24*%
%MOIN*%
G70*
G01*
G75*
%ADD28R,0.0512X0.0591*%
%ADD29R,0.0591X0.0512*%
G04:AMPARAMS|DCode=108|XSize=59.1mil|YSize=51.2mil|CornerRadius=0mil|HoleSize=0mil|Usage=FLASHONLY|Rotation=135.000|XOffset=0mil|YOffset=0mil|HoleType=Round|Shape=Rectangle|*
%AMROTATEDRECTD108*
4,1,4,0.0390,-0.0028,0.0028,-0.0390,-0.0390,0.0028,-0.0028,0.0390,0.0390,-0.0028,0.0*
%
%ADD108ROTATEDRECTD108*%

%ADD109R,0.0827X0.0512*%
%ADD110R,0.0354X0.0236*%
%ADD111R,0.0630X0.0709*%
%ADD112R,0.0591X0.0309*%
%ADD113R,0.0309X0.0591*%
%ADD114O,0.0118X0.0709*%
%ADD115O,0.0709X0.0118*%
%ADD116R,0.0787X0.0472*%
%ADD117R,0.0240X0.0600*%
%ADD118R,0.2165X0.0787*%
D28*
X11339Y22795D02*
D03*
X12087D02*
D03*
X9210Y21342D02*
D03*
X9958D02*
D03*
X17742Y21327D02*
D03*
X16994D02*
D03*
X17474Y22727D02*
D03*
X16726D02*
D03*
X17470Y23664D02*
D03*
X16722D02*
D03*
X10824Y24484D02*
D03*
X11572D02*
D03*
X10236Y28780D02*
D03*
X10984D02*
D03*
X7649Y34757D02*
D03*
X8397D02*
D03*
X9228Y24488D02*
D03*
X9976D02*
D03*
X7930Y27131D02*
D03*
X8678D02*
D03*
X11339Y23622D02*
D03*
X12087D02*
D03*
X13031Y23071D02*
D03*
X13780D02*
D03*
D29*
X14843Y25197D02*
D03*
Y24449D02*
D03*
X14488Y30276D02*
D03*
Y29528D02*
D03*
X15787Y24882D02*
D03*
Y25630D02*
D03*
X7187Y27139D02*
D03*
Y26391D02*
D03*
X8258Y28791D02*
D03*
Y28043D02*
D03*
X7195Y29672D02*
D03*
Y28924D02*
D03*
X16102Y26929D02*
D03*
Y27677D02*
D03*
D108*
X8518Y26290D02*
D03*
X7989Y25761D02*
D03*
D109*
X15831Y22710D02*
D03*
Y23813D02*
D03*
D110*
X17165Y24843D02*
D03*
X18031Y24469D02*
D03*
Y25217D02*
D03*
D111*
X20295Y33602D02*
D03*
X19193D02*
D03*
X20295Y34504D02*
D03*
X19193D02*
D03*
D112*
X1042Y35445D02*
D03*
Y34854D02*
D03*
Y34264D02*
D03*
Y33673D02*
D03*
Y33083D02*
D03*
Y32492D02*
D03*
Y31902D02*
D03*
Y31311D02*
D03*
Y30721D02*
D03*
Y30130D02*
D03*
Y29539D02*
D03*
Y28949D02*
D03*
Y28358D02*
D03*
X6357D02*
D03*
Y28949D02*
D03*
Y29539D02*
D03*
Y30130D02*
D03*
Y30721D02*
D03*
Y31311D02*
D03*
Y31902D02*
D03*
Y32492D02*
D03*
Y33083D02*
D03*
Y33673D02*
D03*
Y34264D02*
D03*
Y34854D02*
D03*
Y35445D02*
D03*
D113*
X1632Y27620D02*
D03*
X2223D02*
D03*
X2813D02*
D03*
X3404D02*
D03*
X3994D02*
D03*
X4585D02*
D03*
X5175D02*
D03*
X5766D02*
D03*
D114*
X14114Y25453D02*
D03*
X13917D02*
D03*
X13720D02*
D03*
X13524D02*
D03*
X13327D02*
D03*
X13130D02*
D03*
X12933D02*
D03*
X12736D02*
D03*
X12539D02*
D03*
X12343D02*
D03*
X12146D02*
D03*
X11949D02*
D03*
Y28642D02*
D03*
X12146D02*
D03*
X12343D02*
D03*
X12539D02*
D03*
X12736D02*
D03*
X12933D02*
D03*
X13130D02*
D03*
X13327D02*
D03*
X13524D02*
D03*
X13720D02*
D03*
X13917D02*
D03*
X14114D02*
D03*
D115*
X11437Y25965D02*
D03*
Y26161D02*
D03*
Y26358D02*
D03*
Y26555D02*
D03*
Y26752D02*
D03*
Y26949D02*
D03*
Y27146D02*
D03*
Y27343D02*
D03*
Y27539D02*
D03*
Y27736D02*
D03*
Y27933D02*
D03*
Y28130D02*
D03*
X14626D02*
D03*
Y27933D02*
D03*
Y27736D02*
D03*
Y27539D02*
D03*
Y27343D02*
D03*
Y27146D02*
D03*
Y26949D02*
D03*
Y26752D02*
D03*
Y26555D02*
D03*
Y26358D02*
D03*
Y26161D02*
D03*
Y25965D02*
D03*
D116*
X12385Y34120D02*
D03*
X13487D02*
D03*
Y32250D02*
D03*
X12385D02*
D03*
X11194Y30735D02*
D03*
X12296D02*
D03*
X10141D02*
D03*
X9038D02*
D03*
X10174Y29729D02*
D03*
X9072D02*
D03*
D117*
X7865Y33985D02*
D03*
Y31835D02*
D03*
X8365Y33985D02*
D03*
X8865D02*
D03*
X8365Y31835D02*
D03*
X8865D02*
D03*
X9365Y33985D02*
D03*
Y31835D02*
D03*
X9865Y33985D02*
D03*
Y31835D02*
D03*
X10365Y33985D02*
D03*
X10865D02*
D03*
X10365Y31835D02*
D03*
X10865D02*
D03*
X11365Y33985D02*
D03*
Y31835D02*
D03*
D118*
X15335Y21339D02*
D03*
X11594D02*
D03*
M02*
